/* XPM */
static char *result[] = {
/* columns rows colors chars-per-pixel */
"126 126 8 1 ",
"  c #826500",
". c #CDA006",
"X c #E4BD3B",
"o c #FFC500",
"O c #FFD442",
"+ c #FAD969",
"@ c #FFF4D0",
"# c None",
/* pixels */
"##############################################################################################################################",
"##############################################################################################################################",
"##############################################################################################################################",
"##############################################################################################################################",
"##############################################################################################################################",
"##############################################################################################################################",
"##############################################################################################################################",
"##############################################################################################################################",
"##############################################################################################################################",
"#######################################################@@@@@@@@@@@@@@@@#######################################################",
"##################################################@@@@@@@@@@@@@@@@@@@@@@@@@@##################################################",
"###############################################@@@@@@@@@@@@@@@@@@@@@@@@@@@@@@@@###############################################",
"############################################@@@@@@@@@@@@@@@@@@@@@@@@@@@@@@@@@@@@@@############################################",
"##########################################@@@@@@@@@@@@@@@@@@@@@@@@@@@@@@@@@@@@@@@@@@##########################################",
"#######################################@@@@@@@@@@@@@@@@@@@@@@@@@@@@@@@@@@@@@@@@@@@@@@@@#######################################",
"######################################@@@@@@@@@@@@@@@@@@@@@@@@@@@@@@@@@@@@@@@@@@@@@@@@@@######################################",
"####################################@@@@@@@@@@@@@@@@@@@@@@@@@ooooooooooooooooooooooo@@@@@@####################################",
"##################################@@@@@@@@@@@@@@@@@@@@@ooooooooooooooooooooooooooooooooooooo##################################",
"#################################@@@@@@@@@@@@@@@@@@@@oooooooooooooooooooooooooooooooooooooooo#################################",
"################################@@@@@@@@@@@@@@@@@ooooooooooooooooooooooooooooooooooooooooooooo################################",
"##############################@@@@@@@@@@@@@@@@@ooooooooooooooooooooooooooooooooooooooooooooooooo##############################",
"#############################@@@@@@@@@@@@@@@ooooooooooooooooooooooooooooooooooooooooooooooooooooo#############################",
"############################@@@@@@@@@@@@@@oooooooooooooooooooooooooooooooooooooooooooooooooooooooo############################",
"###########################@@@@@@@@@@@@@ooooooooooooooooooooooooooooooooooooooooooooooooooooooooooo###########################",
"##########################@@@@@@@@@@@@@ooooooooooooooooooooooooooooooooooooooooooooooooooooooooooooo##########################",
"#########################@@@@@@@@@@@@@ooooooooooooooooooo            oooooooooooooooooooooooooooooooo#########################",
"########################@@@@@@@@@@@@oooooooooooooooo                      oooooooooooooooooooooooooooo########################",
"#######################@@@@@@@@@@@@oooooooooooooo        @@@@@@@@@@@@        oooooooooooooooooooooooooo#######################",
"######################@@@@@@@@@@@@@oooooooooooo      @@@@@@@@@@@@@@@@@@@@      ooooooooooooooooooooooooo######################",
"######################@@@@@@@@@@@oooooooooooo     @@@@@@@@@@@@@@@@@@@@@@@@@@     ooooooooooooooooooooooo######################",
"#####################@@@@@@@@@@@ooooooooooo     @@@@@@@@@@@@@@@@@@@@@@@@@@@@@@     oooooooooooooooooooooo#####################",
"####################@@@@@@@@@@@ooooooooooo    @@@@@@@@@@@@@@@@@@@@@@@@@@@@@@@@@@    oooooooooooooooooooooo####################",
"###################@@@@@@@@@@@@oooooooooo   @@@@@@@@@@@@@@@@@@@@@@@@@@@@@@@@@@@@@@   oooooooooooooooooooooo###################",
"###################@@@@@@@@@@@ooooooooo    @@@@@@@@@@@@@@@@@@@@@@@@@@@@@@@@@@@@@@@@    oooooooooooooooooooo###################",
"##################@@@@@@@@@@@ooooooooo    @@@@@@@@@@@@@@@@@@@@@@@@@@@@@@@@@@@@@@@@@@    oooooooooooooooooooo##################",
"##################@@@@@@@@@@@oooooooo   @@@@@@@@@@@@@@@@@@@@@@@@@@@@@@@@@@@@@@@@@@@@@@   ooooooooooooooooooo##################",
"#################@@@@@@@@@@@oooooooo   @@@@@@@@@@@@@@@@@@@@@@@@@@@@@@@@@@@@@@@@@@@@@@@@   ooooooooooooooooooo#################",
"################@@@@@@@@@@@oooooooo   @@@@@@@@@@@@@@@@@@@@@@@@@@@@@....@@@@@@@@@@@@@@@@@   ooooooooooooooooooo################",
"################@@@@@@@@@@@oooooooo  @@@@@@@@@@@@@@@@@@@@@@@@@@@...XXXX+@@@@@@@@@@@@@@@@@  ooooooooooooooooooo################",
"################@@@@@@@@@@oooooooo   @@@@@@@@@@@@@@@@@@@@@@@@...XXXXXXX+@@@@@@@@@@@@@@@@@   oooooooooooooooooo################",
"###############@@@@@@@@@@@ooooooo   @@@@@@@@@@@@@@@@@@@@@@...XXXXXXXXX+@@@@@@@@@@@@@@@@@@@   oooooooooooooooooo###############",
"###############@@@@@@@@@@@oooooo   @@@@@@@@@@@@@@@@@@@@...XXXXXXXXXXX+@@@@@@@@@@@@@@@@@@@@@   ooooooooooooooooo###############",
"##############@@@@@@@@@@@ooooooo  @@@@@@@@@@@@@@@@@@...XXXXXXXXXXXXXXO@@@@@@@@@@oooooooooooo  oooooooooooooooooo##############",
"##############@@@@@@@@@@@oooooo   @@@@@@@@@@@@@@@@@.XXXXXXXXXXXXXXXXXO@@@@@@@ooooooooooooooo   ooooooooooooooooo##############",
"##############@@@@@@@@@@ooooooo  @@@@@@@@@@@@@@@@@.XXXXXXXXXXXXXXXXXX+@@@@@oooooooooooooooooo  ooooooooooooooooo##############",
"#############@@@@@@@@@@@oooooo   @@@@@@@@@@@@@@@@@.XXXXXXXXXXXXXXXXXX+@@ooooooooooooooooooooo   ooooooooooooooooo#############",
"#############@@@@@@@@@@@oooooo  @@@@@@@@@@@@@@@@@@.XXXXXXXXXXXXXXXXXX+oooooooooooooooooooooooo  ooooooooooooooooo#############",
"#############@@@@@@@@@@oooooo   @@@@@@@@@@@@@@@@@@.XXXXXXXXXXXXXXXXXX+oooooooooooooooooooooooo   oooooooooooooooo#############",
"############@@@@@@@@@@@oooooo  @@@@@@@@@@@@@@@@@@@.XXXXXXO.XXXXXXXXXX+ooooooooooooooooooooooooo  ooooooooooooooooo############",
"############@@@@@@@@@@@oooooo  @@@@@@@@@@@@@@@@@@@.XXXXOO@.XXXXXXXXXX+ooooooooooooooooooooooooo  ooooooooooooooooo############",
"############@@@@@@@@@@oooooo   @@@@@@@@@@@@@@@@@@@.XXOO@@@.XXXXXXXXXX+ooooooooooooooooooooooooo   oooooooooooooooo############",
"############@@@@@@@@@@oooooo  @@@@@@@@@@@@@@@@@@@@@OO@@@@@.XXXXXXXXXX+oooooooooooooooooooooooooo  oooooooooooooooo############",
"############@@@@@@@@@ooooooo  @@@@@@@@@@@@@@@@@@@@@@@@@@@@.XXXXXXXXXX+oooooooooooooooooooooooooo  oooooooooooooooo############",
"###########@@@@@@@@@@ooooooo  @@@@@@@@@@@@@@@@@@@@@@@@@@@o.XXXXXXXXXX+oooooooooooooooooooooooooo  ooooooooooooooooo###########",
"###########@@@@@@@@@@ooooooo  @@@@@@@@@@@@@@@@@@@@@@@@@@oo.XXXXXXXXXXOoooooooooooooooooooooooooo  ooooooooooooooooo###########",
"###########@@@@@@@@@@oooooo  @@@@@@@@@@@@@@@@@@@@@@@@@oooo.XXXXXXXXXXOooooooooooooooooooooooooooo  oooooooooooooooo###########",
"###########@@@@@@@@@ooooooo  @@@@@@@@@@@@@@@@@@@@@@@@ooooo.XXXXXXXXXXOooooooooooooooooooooooooooo  oooooooooooooooo###########",
"###########@@@@@@@@@ooooooo  @@@@@@@@@@@@@@@@@@@@@@@oooooo.XXXXXXXXXXOooooooooooooooooooooooooooo  oooooooooooooooo###########",
"###########@@@@@@@@oooooooo  @@@@@@@@@@@@@@@@@@@@@@ooooooo.XXXXXXXXXXOooooooooooooooooooooooooooo  oooooooooooooooo###########",
"###########@@@@@@@@oooooooo  @@@@@@@@@@@@@@@@@@@@@oooooooo.XXXXXXXXXX+ooooooooooooooooooooooooooo  oooooooooooooooo###########",
"###########@@@@@@@@oooooooo  @@@@@@@@@@@@@@@@@@@@ooooooooo.XXXXXXXXXX+ooooooooooooooooooooooooooo  oooooooooooooooo###########",
"###########@@@@@@@@oooooooo  @@@@@@@@@@@@@@@@@@@oooooooooo.XXXXXXXXXX+ooooooooooooooooooooooooooo  oooooooooooooooo###########",
"###########@@@@@@@@oooooooo  @@@@@@@@@@@@@@@@@@@oooooooooo.XXXXXXXXXX+ooooooooooooooooooooooooooo  oooooooooooooooo###########",
"###########@@@@@@@ooooooooo  @@@@@@@@@@@@@@@@@@ooooooooooo.XXXXXXXXXX+ooooooooooooooooooooooooooo  oooooooooooooooo###########",
"###########@@@@@@@ooooooooo  @@@@@@@@@@@@@@@@@oooooooooooo.XXXXXXXXXX+ooooooooooooooooooooooooooo  oooooooooooooooo###########",
"###########@@@@@@@ooooooooo  @@@@@@@@@@@@@@@@ooooooooooooo.XXXXXXXXXX+ooooooooooooooooooooooooooo  oooooooooooooooo###########",
"###########@@@@@@oooooooooo  @@@@@@@@@@@@@@@@ooooooooooooo.XXXXXXXXXX+ooooooooooooooooooooooooooo  oooooooooooooooo###########",
"###########@@@@@@ooooooooooo  @@@@@@@@@@@@@@oooooooooooooo.XXXXXXXXXXOoooooooooooooooooooooooooo  ooooooooooooooooo###########",
"###########@@@@@@ooooooooooo  @@@@@@@@@@@@@@oooooooooooooo.XXXXXXXXXXOoooooooooooooooooooooooooo  ooooooooooooooooo###########",
"############@@@@@ooooooooooo  @@@@@@@@@@@@@ooooooooooooooo.XXXXXXXXXXOoooooooooooooooooooooooooo  oooooooooooooooo############",
"############@@@@@ooooooooooo  @@@@@@@@@@@@@ooooooooooooooo.XXXXXXXXXXOoooooooooooooooooooooooooo  oooooooooooooooo############",
"############@@@@@ooooooooooo   @@@@@@@@@@@oooooooooooooooo.XXXXXXXXXXOooooooooooooooooooooooooo   oooooooooooooooo############",
"############@@@@ooooooooooooo  @@@@@@@@@@ooooooooooooooooo.XXXXXXXXXXOooooooooooooooooooooooooo  ooooooooooooooooo############",
"############@@@@ooooooooooooo  @@@@@@@@@@ooooooooooooooooo.XXXXXXXXXXOooooooooooooooooooooooooo  ooooooooooooooooo############",
"#############@@@ooooooooooooo   @@@@@@@@@ooooooooooooooooo.XXXXXXXXXXOoooooooooooooooooooooooo   oooooooooooooooo#############",
"#############@@@oooooooooooooo  @@@@@@@@oooooooooooooooooo.XXXXXXXXXXOOOOO+ooooooooooooooooooo  ooooooooooooooooo#############",
"#############@@ooooooooooooooo   @@@@@@@ooooooooooooo.XXXXXXXXXXXXXXXXXXXX+oooooooooooooooooo   ooooooooooooooooo#############",
"##############@oooooooooooooooo  @@@@@@@ooooooooooooo.XXXXXXXXXXXXXXXXXXXXOoooooooooooooooooo  ooooooooooooooooo##############",
"##############ooooooooooooooooo   @@@@@@ooooooooooooo.XXXXXXXXXXXXXXXXXXXXOooooooooooooooooo   ooooooooooooooooo##############",
"##############oooooooooooooooooo  @@@@@oooooooooooooo.XXXXXXXXXXXXXXXXXXXXOooooooooooooooooo  oooooooooooooooooo##############",
"###############ooooooooooooooooo   @@@@oooooooooooooo.XXXXXXXXXXXXXXXXXXXX+oooooooooooooooo   ooooooooooooooooo###############",
"###############oooooooooooooooooo   @@@oooooooooooooo++OOOOOOO++++OOOOOOO++ooooooooooooooo   oooooooooooooooooo###############",
"################oooooooooooooooooo   @@oooooooooooooooooooooooooooooooooooooooooooooooooo   oooooooooooooooooo################",
"################ooooooooooooooooooo  @@oooooooooooooooooooooooooooooooooooooooooooooooooo  ooooooooooooooooooo################",
"################ooooooooooooooooooo   @ooooooooooooooooooooooooooooooooooooooooooooooooo   ooooooooooooooooooo################",
"#################ooooooooooooooooooo   oooooooooooooooooooooooooooooooooooooooooooooooo   ooooooooooooooooooo#################",
"##################ooooooooooooooooooo   oooooooooooooooooooooooooooooooooooooooooooooo   ooooooooooooooooooo##################",
"##################oooooooooooooooooooo    oooooooooooooooooooooooooooooooooooooooooo    oooooooooooooooooooo##################",
"###################oooooooooooooooooooo    oooooooooooooooooooooooooooooooooooooooo    oooooooooooooooooooo###################",
"###################oooooooooooooooooooooo   oooooooooooooooooooooooooooooooooooooo   oooooooooooooooooooooo###################",
"####################oooooooooooooooooooooo    oooooooooooooooooooooooooooooooooo    oooooooooooooooooooooo####################",
"#####################oooooooooooooooooooooo     oooooooooooooooooooooooooooooo     oooooooooooooooooooooo#####################",
"######################ooooooooooooooooooooooo     oooooooooooooooooooooooooo     ooooooooooooooooooooooo######################",
"######################ooooooooooooooooooooooooo      oooooooooooooooooooo      ooooooooooooooooooooooooo######################",
"#######################oooooooooooooooooooooooooo        oooooooooooo        oooooooooooooooooooooooooo#######################",
"########################oooooooooooooooooooooooooooo                      oooooooooooooooooooooooooooo########################",
"#########################oooooooooooooooooooooooooooooooo            oooooooooooooooooooooooooooooooo#########################",
"##########################oooooooooooooooooooooooooooooooooooooooooooooooooooooooooooooooooooooooooo##########################",
"###########################oooooooooooooooooooooooooooooooooooooooooooooooooooooooooooooooooooooooo###########################",
"############################oooooooooooooooooooooooooooooooooooooooooooooooooooooooooooooooooooooo############################",
"#############################oooooooooooooooooooooooooooooooooooooooooooooooooooooooooooooooooooo#############################",
"##############################oooooooooooooooooooooooooooooooooooooooooooooooooooooooooooooooooo##############################",
"################################oooooooooooooooooooooooooooooooooooooooooooooooooooooooooooooo################################",
"#################################oooooooooooooooooooooooooooooooooooooooooooooooooooooooooooo#################################",
"##################################oooooooooooooooooooooooooooooooooooooooooooooooooooooooooo##################################",
"####################################oooooooooooooooooooooooooooooooooooooooooooooooooooooo####################################",
"######################################oooooooooooooooooooooooooooooooooooooooooooooooooo######################################",
"#######################################oooooooooooooooooooooooooooooooooooooooooooooooo#######################################",
"##########################################oooooooooooooooooooooooooooooooooooooooooo##########################################",
"############################################oooooooooooooooooooooooooooooooooooooo############################################",
"###############################################oooooooooooooooooooooooooooooooo###############################################",
"##################################################oooooooooooooooooooooooooo##################################################",
"#######################################################oooooooooooooooo#######################################################",
"##############################################################################################################################",
"##############################################################################################################################",
"##############################################################################################################################",
"##############################################################################################################################",
"##############################################################################################################################",
"##############################################################################################################################",
"##############################################################################################################################",
"##############################################################################################################################",
"##############################################################################################################################",
"##############################################################################################################################",
"##############################################################################################################################",
"##############################################################################################################################",
"##############################################################################################################################"
};
