/* XPM */
static char *result[] = {
/* columns rows colors chars-per-pixel */
"126 126 8 1 ",
"  c #826500",
". c #CDA006",
"X c #E4BD3B",
"o c #FFC500",
"O c #FFD442",
"+ c #FAD969",
"@ c #FFF4D0",
"# c None",
/* pixels */
"##############################################################################################################################",
"##############################################################################################################################",
"##############################################################################################################################",
"##############################################################################################################################",
"##############################################################################################################################",
"##############################################################################################################################",
"##############################################################################################################################",
"##############################################################################################################################",
"##############################################################################################################################",
"#######################################################oooooooooooooooo#######################################################",
"##################################################ooooooooooooooooooooooooooooo###############################################",
"###############################################oooooooooooooooooooooooooooooooo###############################################",
"############################################oooooooooooooooooooooooooooooooooooooo############################################",
"##########################################oooooooooooooooooooooooooooooooooooooooooo##########################################",
"#######################################oooooooooooooooooooooooooooooooooooooooooooooooo#######################################",
"######################################oooooooooooooooooooooooooooooooooooooooooooooooooo######################################",
"####################################oooooooooooooooooooooooooooooooooooooooooooooooooooooo####################################",
"##################################oooooooooooooooooooooooooooooooooooooooooooooooooooooooooo##################################",
"#################################oooooooooooooooooooooooooooooooooooooooooooooooooooooooooooo#################################",
"################################oooooooooooooooooooooooooooooooooooooooooooooooooooooooooooooo################################",
"##############################ooooooooooooooooooooooooooooooooooooooooooooooooooooooooooooooo@@@##############################",
"#############################ooooooooooooooooooooooooooooooooooooooooooooooooooooooooooooooo@@@@@#############################",
"############################oooooooooooooooooooooooooooooooooooooooooooooooooooooooooooooo@@@@@@@@############################",
"###########################oooooooooooooooooooooooooooooooooooooooooooooooooooooooooooooo@@@@@@@@@@###########################",
"##########################oooooooooooooooooooooooooooooooooooooooooooooooooooooooooooooo@@@@@@@@@@@@##########################",
"#########################oooooooooooooooooooooooooooooooo            ooooooooooooooooooo@@@@@@@@@@@@@#########################",
"########################oooooooooooooooooooooooooooo                      ooooooooooooo@@@@@@@@@@@@@@@########################",
"#######################oooooooooooooooooooooooooo        oooooooooooo        ooooooooo@@@@@@@@@@@@@@@@@#######################",
"######################ooooooooooooooooooooooooo      oooooooooooooooooooo      oooooo@@@@@@@@@@@@@@@@@@@######################",
"######################ooooooooooooooooooooooo     oooooooooooooooooooooooooo     oooo@@@@@@@@@@@@@@@@@@@######################",
"#####################oooooooooooooooooooooo     oooooooooooooooooooooooooooooo     o@@@@@@@@@@@@@@@@@@@@@#####################",
"####################oooooooooooooooooooooo    oooooooooooooooooooooooooooooooooo    @@@@@@@@@@@@@@@@@@@@@o####################",
"###################oooooooooooooooooooooo   oooooooooooooooooooooooooooooooooooooo   @@@@@@@@@@@@@@@@@@@ooo###################",
"###################oooooooooooooooooooo    oooooooooooooooooooooooooooooooooooooooo    @@@@@@@@@@@@@@@ooooo###################",
"##################oooooooooooooooooooo    oooooooooooooooooooooooooooooooooooooooooo    @@@@@@@@@@@@@ooooooo##################",
"##################ooooooooooooooooooo   oooooooooooooooooooooooooooooooooooooooooooooo   @@@@@@@@@@@oooooooo##################",
"#################ooooooooooooooooooo   oooooooooooooooooooooooooooooooooooooooooooooooo   @@@@@@@@@oooooooooo#################",
"################ooooooooooooooooooo   ooooooooooooooooooooooooooooo....ooooooooooooooooo   @@@@@@@oooooooooooo################",
"################ooooooooooooooooooo  ooooooooooooooooooooooooooo...XXXX+ooooooooooooooooo  @@@@@@ooooooooooooo################",
"################oooooooooooooooooo   oooooooooooooooooooooooo...XXXXXXX+ooooooooooooooooo   @@@@oooooooooooooo################",
"###############oooooooooooooooooo   oooooooooooooooooooooo...XXXXXXXXX+ooooooooooooooooooo   @@@ooooooooooooooo###############",
"###############ooooooooooooooooo   oooooooooooooooooooo...XXXXXXXXXXX+ooooooooooooooooo@@@@   @@ooooooooooooooo###############",
"##############oooooooooooooooooo  oooooooooooooooooo...XXXXXXXXXXXXXXOooooooooooooo@@@@@@@@@  @ooooooooooooooooo##############",
"##############ooooooooooooooooo   ooooooooooooooooo.XXXXXXXXXXXXXXXXXOooooooooooo@@@@@@@@@@@   ooooooooooooooooo##############",
"##############ooooooooooooooooo  ooooooooooooooooo.XXXXXXXXXXXXXXXXXX+ooooooooo@@@@@@@@@@@@@@  ooooooooooooooooo##############",
"#############ooooooooooooooooo   ooooooooooooooooo.XXXXXXXXXXXXXXXXXX+ooooooo@@@@@@@@@@@@@@@@   ooooooooooooooooo#############",
"#############ooooooooooooooooo  oooooooooooooooooo.XXXXXXXXXXXXXXXXXX+ooooo@@@@@@@@@@@@@@@@@@@  ooooooooooooooooo#############",
"#############oooooooooooooooo   oooooooooooooooooo.XXXXXXXXXXXXXXXXXX+oooo@@@@@@@@@@@@@@@@@@@@   oooooooooooooooo#############",
"############ooooooooooooooooo  ooooooooooooooooooo.XXXXXXO.XXXXXXXXXX+ooo@@@@@@@@@@@@@@@@@@@@@@  ooooooooooooooooo############",
"############ooooooooooooooooo  ooooooooooooooooooo.XXXXOOo.XXXXXXXXXX+o@@@@@@@@@@@@@@@@@@@@@@@@  ooooooooooooooooo############",
"############oooooooooooooooo   ooooooooooooooooooo.XXOOooo.XXXXXXXXXX+o@@@@@@@@@@@@@@@@@@@@@@@@   oooooooooooooooo############",
"############oooooooooooooooo  oooooooooooooooooooooOOooooo.XXXXXXXXXX+@@@@@@@@@@@@@@@@@@@@@@@@@@  oooooooooooooooo############",
"############oooooooooooooooo  oooooooooooooooooooooooooooo.XXXXXXXXXX+@@@@@@@@@@@@@@@@@@@@@@@@@@  oooooooooooooooo############",
"###########ooooooooooooooooo  oooooooooooooooooooooooooooo.XXXXXXXXXX+@@@@@@@@@@@@@@@@@@@@@@@@@@  ooooooooooooooooo###########",
"###########ooooooooooooooooo  oooooooooooooooooooooooooooo.XXXXXXXXXXO@@@@@@@@@@@@@@@@@@@@@@@@@@  ooooooooooooooooo###########",
"###########oooooooooooooooo  ooooooooooooooooooooooooooooo.XXXXXXXXXXO@@@@@@@@@@@@@@@@@@@@@@@@@@@  oooooooooooooooo###########",
"###########oooooooooooooooo  ooooooooooooooooooooooooooooo.XXXXXXXXXXO@@@@@@@@@@@@@@@@@@@@@@@@@@@  oooooooooooooooo###########",
"###########oooooooooooooooo  ooooooooooooooooooooooooooooo.XXXXXXXXXXO@@@@@@@@@@@@@@@@@@@@@@@@@@@  oooooooooooooooo###########",
"###########oooooooooooooooo  ooooooooooooooooooooooooooooo.XXXXXXXXXXO@@@@@@@@@@@@@@@@@@@@@@@@@@@  oooooooooooooooo###########",
"###########oooooooooooooooo  ooooooooooooooooooooooooooooo.XXXXXXXXXX+@@@@@@@@@@@@@@@@@@@@@@@@@@@  oooooooooooooooo###########",
"###########oooooooooooooooo  ooooooooooooooooooooooooooooo.XXXXXXXXXX+@@@@@@@@@@@@@@@@@@@@@@@@@@@  oooooooooooooooo###########",
"###########oooooooooooooooo  ooooooooooooooooooooooooooo@@.XXXXXXXXXX+@@@@@@@@@@@@@@@@@@@@@@@@@@@  oooooooooooooooo###########",
"###########oooooooooooooooo  ooooooooooooooooooooooooo@@@@.XXXXXXXXXX+@@@@@@@@@@@@@@@@@@@@@@@@@@@  oooooooooooooooo###########",
"###########oooooooooooooooo  oooooooooooooooooooooooo@@@@@.XXXXXXXXXX+@@@@@@@@@@@@@@@@@@@@@@@@@@@  oooooooooooooooo###########",
"###########oooooooooooooooo  ooooooooooooooooooooooo@@@@@@.XXXXXXXXXX+@@@@@@@@@@@@@@@@@@@@@@@@ooo  oooooooooooooooo###########",
"###########oooooooooooooooo  oooooooooooooooooooooo@@@@@@@.XXXXXXXXXX+@@@@@@@@@@@@@@@@@@@@@oooooo  oooooooooooooooo###########",
"###########oooooooooooooooo  oooooooooooooooooooooo@@@@@@@.XXXXXXXXXX+@@@@@@@@@@@@@@@@@@@oooooooo  oooooooooooooooo###########",
"###########ooooooooooooooooo  ooooooooooooooooooo@@@@@@@@@.XXXXXXXXXXO@@@@@@@@@@@@@@@@@ooooooooo  ooooooooooooooooo###########",
"###########ooooooooooooooooo  ooooooooooooooooooo@@@@@@@@@.XXXXXXXXXXO@@@@@@@@@@@@@@@@oooooooooo  ooooooooooooooooo###########",
"############oooooooooooooooo  oooooooooooooooooo@@@@@@@@@@.XXXXXXXXXXO@@@@@@@@@@@@@@oooooooooooo  oooooooooooooooo############",
"############oooooooooooooooo  oooooooooooooooooo@@@@@@@@@@.XXXXXXXXXXO@@@@@@@@@@@@oooooooooooooo  oooooooooooooooo############",
"############oooooooooooooooo   oooooooooooooooo@@@@@@@@@@@.XXXXXXXXXXO@@@@@@@@@@@oooooooooooooo   oooooooooooooooo############",
"############ooooooooooooooooo  oooooooooooooooo@@@@@@@@@@@.XXXXXXXXXXO@@@@@@@@@@@oooooooooooooo  ooooooooooooooooo############",
"############ooooooooooooooooo  ooooooooooooooo@@@@@@@@@@@@.XXXXXXXXXXO@@@@@@@@@oooooooooooooooo  ooooooooooooooooo############",
"#############oooooooooooooooo   ooooooooooooo@@@@@@@@@@@@@.XXXXXXXXXXO@@@@@@@@oooooooooooooooo   oooooooooooooooo#############",
"#############ooooooooooooooooo  ooooooooooooo@@@@@@@@@@@@@.XXXXXXXXXXOOOOO+@@ooooooooooooooooo  ooooooooooooooooo#############",
"#############ooooooooooooooooo   ooooooooooo@@@@@@@@@.XXXXXXXXXXXXXXXXXXXX+@ooooooooooooooooo   ooooooooooooooooo#############",
"##############ooooooooooooooooo  ooooooooooo@@@@@@@@@.XXXXXXXXXXXXXXXXXXXXOoooooooooooooooooo  ooooooooooooooooo##############",
"##############ooooooooooooooooo   ooooooooo@@@@@@@@@@.XXXXXXXXXXXXXXXXXXXXOooooooooooooooooo   ooooooooooooooooo##############",
"##############oooooooooooooooooo  ooooooooo@@@@@@@@@@.XXXXXXXXXXXXXXXXXXXXOooooooooooooooooo  oooooooooooooooooo##############",
"###############ooooooooooooooooo   ooooooo@@@@@@@@@@@.XXXXXXXXXXXXXXXXXXXX+oooooooooooooooo   ooooooooooooooooo###############",
"###############oooooooooooooooooo   oooooo@@@@@@@@@@@++OOOOOOO++++OOOOOOO++ooooooooooooooo   oooooooooooooooooo###############",
"################oooooooooooooooooo   ooooo@@@@@@@@@@@@@@@@@@@@@@@@@@@oooooooooooooooooooo   oooooooooooooooooo################",
"################ooooooooooooooooooo  oooo@@@@@@@@@@@@@@@@@@@@@@@@@@@ooooooooooooooooooooo  ooooooooooooooooooo################",
"################ooooooooooooooooo@@   ooo@@@@@@@@@@@@@@@@@@@@@@@@@@ooooooooooooooooooooo   ooooooooooooooooooo################",
"#################ooooooooooooooo@@@@   oo@@@@@@@@@@@@@@@@@@@@@@@@oooooooooooooooooooooo   ooooooooooooooooooo#################",
"##################ooooooooooooo@@@@@@   o@@@@@@@@@@@@@@@@@@@@@@@oooooooooooooooooooooo   ooooooooooooooooooo##################",
"##################ooooooooooooo@@@@@@@    @@@@@@@@@@@@@@@@@@@@@@oooooooooooooooooooo    oooooooooooooooooooo##################",
"###################ooooooooooo@@@@@@@@@    @@@@@@@@@@@@@@@@@@@@oooooooooooooooooooo    oooooooooooooooooooo###################",
"###################oooooooooo@@@@@@@@@@@@   @@@@@@@@@@@@@@@@@@oooooooooooooooooooo   oooooooooooooooooooooo###################",
"####################oooooooo@@@@@@@@@@@@@@    @@@@@@@@@@@@@@@ooooooooooooooooooo    oooooooooooooooooooooo####################",
"#####################ooooooo@@@@@@@@@@@@@@@     @@@@@@@@@@@@@ooooooooooooooooo     oooooooooooooooooooooo#####################",
"######################ooooo@@@@@@@@@@@@@@@@@@     @@@@@@@@@@oooooooooooooooo     ooooooooooooooooooooooo######################",
"######################ooooo@@@@@@@@@@@@@@@@@@@@      @@@@@@oooooooooooooo      ooooooooooooooooooooooooo######################",
"#######################oooo@@@@@@@@@@@@@@@@@@@@@@        @ooooooooooo        oooooooooooooooooooooooooo#######################",
"########################oo@@@@@@@@@@@@@@@@@@@@@@@@@@                      oooooooooooooooooooooooooooo########################",
"#########################o@@@@@@@@@@@@@@@@@@@@@@@@@@@oooo            oooooooooooooooooooooooooooooooo#########################",
"#########################@@@@@@@@@@@@@@@@@@@@@@@@@@@@ooooooooooooooooooooooooooooooooooooooooooooooo##########################",
"###########################@@@@@@@@@@@@@@@@@@@@@@@@oooooooooooooooooooooooooooooooooooooooooooooooo###########################",
"############################@@@@@@@@@@@@@@@@@@@@@@@ooooooooooooooooooooooooooooooooooooooooooooooo############################",
"#############################@@@@@@@@@@@@@@@@@@@@@ooooooooooooooooooooooooooooooooooooooooooooooo#############################",
"##############################@@@@@@@@@@@@@@@@@@@ooooooooooooooooooooooooooooooooooooooooooooooo##############################",
"################################@@@@@@@@@@@@@@@@oooooooooooooooooooooooooooooooooooooooooooooo################################",
"#################################@@@@@@@@@@@@@@@ooooooooooooooooooooooooooooooooooooooooooooo#################################",
"##################################@@@@@@@@@@@@@ooooooooooooooooooooooooooooooooooooooooooooo##################################",
"####################################@@@@@@@@@@@ooooooooooooooooooooooooooooooooooooooooooo####################################",
"######################################@@@@@@@@@ooooooooooooooooooooooooooooooooooooooooo######################################",
"#######################################@@@@@@@ooooooooooooooooooooooooooooooooooooooooo#######################################",
"##########################################@@@@oooooooooooooooooooooooooooooooooooooo##########################################",
"############################################@@oooooooooooooooooooooooooooooooooooo############################################",
"###############################################oooooooooooooooooooooooooooooooo###############################################",
"##################################################oooooooooooooooooooooooooo##################################################",
"#######################################################oooooooooooooooo#######################################################",
"##############################################################################################################################",
"##############################################################################################################################",
"##############################################################################################################################",
"##############################################################################################################################",
"##############################################################################################################################",
"##############################################################################################################################",
"##############################################################################################################################",
"##############################################################################################################################",
"##############################################################################################################################",
"##############################################################################################################################",
"##############################################################################################################################",
"##############################################################################################################################",
"##############################################################################################################################"
};
