/* XPM */
static char *result[] = {
/* columns rows colors chars-per-pixel */
"126 126 9 1 ",
"  c #826500",
". c #CDA006",
"X c #E4BD3B",
"o c #FFC500",
"O c #FFD442",
"+ c #FAD969",
"@ c #FFF4D0",
"# c white",
"$ c None",
/* pixels */
"$$$$$$$$$$$$$$$$$$$$$$$$$$$$$$$$$$$$$$$$$$$$$$$$$$$$$$$$$$$$$$$$$$$$$$$$$$$$$$$$$$$$$$$$$$$$$$$$$$$$$$$$$$$$$$$$$$$$$$$$$$$$$$",
"$$$$$$$$$$$$$$$$$$$$$$$$$$$$$$$$$$$$$$$$$$$$$$$$$$$$$$$$$$$$$$$$$$$$$$$$$$$$$$$$$$$$$$$$$$$$$$$$$$$$$$$$$$$$$$$$$$$$$$$$$$$$$$",
"$$$$$$$$$$$$$$$$$$$$$$$$$$$$$$$$$$$$$$$$$$$$$$$$$$$$$$$$$$$$$$$$$$$$$$$$$$$$$$$$$$$$$$$$$$$$$$$$$$$$$$$$$$$$$$$$$$$$$$$$$$$$$$",
"$$$$$$$$$$$$$$$$$$$$$$$$$$$$$$$$$$$$$$$$$$$$$$$$$$$$$$$$$$$$$$$$$$$$$$$$$$$$$$$$$$$$$$$$$$$$$$$$$$$$$$$$$$$$$$$$$$$$$$$$$$$$$$",
"$$$$$$$$$$$$$$$$$$$$$$$$$$$$$$$$$$$$$$$$$$$$$$$$$$$$$$$$$$$$$$$$$$$$$$$$$$$$$$$$$$$$$$$$$$$$$$$$$$$$$$$$$$$$$$$$$$$$$$$$$$$$$$",
"$$$$$$$$$$$$$$$$$$$$$$$$$$$$$$$$$$$$$$$$$$$$$$$$$$$$$$$$$$$$$$$$$$$$$$$$$$$$$$$$$$$$$$$$$$$$$$$$$$$$$$$$$$$$$$$$$$$$$$$$$$$$$$",
"$$$$$$$$$$$$$$$$$$$$$$$$$$$$$$$$$$$$$$$$$$$$$$$$$$$$$$$$$$$$$$$$$$$$$$$$$$$$$$$$$$$$$$$$$$$$$$$$$$$$$$$$$$$$$$$$$$$$$$$$$$$$$$",
"$$$$$$$$$$$$$$$$$$$$$$$$$$$$$$$$$$$$$$$$$$$$$$$$$$$$$$$$$$$$$$$$$$$$$$$$$$$$$$$$$$$$$$$$$$$$$$$$$$$$$$$$$$$$$$$$$$$$$$$$$$$$$$",
"$$$$$$$$$$$$$$$$$$$$$$$$$$$$$$$$$$$$$$$$$$$$$$$$$$$$$$$$$$$$$$$$$$$$$$$$$$$$$$$$$$$$$$$$$$$$$$$$$$$$$$$$$$$$$$$$$$$$$$$$$$$$$$",
"$$$$$$$$$$$$$$$$$$$$$$$$$$$$$$$$$$$$$$$$$$$$$$$$$$$$$$$oooooooooooooooo$$$$$$$$$$$$$$$$$$$$$$$$$$$$$$$$$$$$$$$$$$$$$$$$$$$$$$$",
"$$$$$$$$$$$$$$$$$$$$$$$$$$$$$$$$$$$$$$$$$$$$$$$$$$ooooooooooooooooooooooooooooo$$$$$$$$$$$$$$$$$$$$$$$$$$$$$$$$$$$$$$$$$$$$$$$",
"$$$$$$$$$$$$$$$$$$$$$$$$$$$$$$$$$$$$$$$$$$$$$$$oooooooooooooooooooooooooooooooo$$$$$$$$$$$$$$$$$$$$$$$$$$$$$$$$$$$$$$$$$$$$$$$",
"$$$$$$$$$$$$$$$$$$$$$$$$$$$$$$$$$$$$$$$$$$$$oooooooooooooooooooooooooooooooooooooo$$$$$$$$$$$$$$$$$$$$$$$$$$$$$$$$$$$$$$$$$$$$",
"$$$$$$$$$$$$$$$$$$$$$$$$$$$$$$$$$$$$$$$$$$oooooooooooooooooooooooooooooooooooooooooo$$$$$$$$$$$$$$$$$$$$$$$$$$$$$$$$$$$$$$$$$$",
"$$$$$$$$$$$$$$$$$$$$$$$$$$$$$$$$$$$$$$$oooooooooooooooooooooooooooooooooooooooooooooooo$$$$$$$$$$$$$$$$$$$$$$$$$$$$$$$$$$$$$$$",
"$$$$$$$$$$$$$$$$$$$$$$$$$$$$$$$$$$$$$$oooooooooooooooooooooooooooooooooooooooooooooooooo$$$$$$$$$$$$$$$$$$$$$$$$$$$$$$$$$$$$$$",
"$$$$$$$$$$$$$$$$$$$$$$$$$$$$$$$$$$$$oooooooooooooooooooooooooooooooooooooooooooooooooooooo$$$$$$$$$$$$$$$$$$$$$$$$$$$$$$$$$$$$",
"$$$$$$$$$$$$$$$$$$$$$$$$$$$$$$$$$$oooooooooooooooooooooooooooooooooooooooooooooooooooooooooo$$$$$$$$$$$$$$$$$$$$$$$$$$$$$$$$$$",
"$$$$$$$$$$$$$$$$$$$$$$$$$$$$$$$$$oooooooooooooooooooooooooooooooooooooooooooooooooooooooooooo$$$$$$$$$$$$$$$$$$$$$$$$$$$$$$$$$",
"$$$$$$$$$$$$$$$$$$$$$$$$$$$$$$$$oooooooooooooooooooooooooooooooooooooooooooooooooooooooooooooo$$$$$$$$$$$$$$$$$$$$$$$$$$$$$$$$",
"$$$$$$$$$$$$$$$$$$$$$$$$$$$$$$oooooooooooooooooooooooooooooooooooooooooooooooooooooooooooooooooo$$$$$$$$$$$$$$$$$$$$$$$$$$$$$$",
"$$$$$$$$$$$$$$$$$$$$$$$$$$$$$oooooooooooooooooooooooooooooooooooooooooooooooooooooooooooooooooooo$$$$$$$$$$$$$$$$$$$$$$$$$$$$$",
"$$$$$$$$$$$$$$$$$$$$$$$$$$$$oooooooooooooooooooooooooooooooooooooooooooooooooooooooooooooooooooooo$$$$$$$$$$$$$$$$$$$$$$$$$$$$",
"$$$$$$$$$$$$$$$$$$$$$$$$$$$oooooooooooooooooooooooooooooooooooooooooooooooooooooooooooooooooooooooo$$$$$$$$$$$$$$$$$$$$$$$$$$$",
"$$$$$$$$$$$$$$$$$$$$$$$$$$oooooooooooooooooooooooooooooooooooooooooooooooooooooooooooooooooooooooooo$$$$$$$$$$$$$$$$$$$$$$$$$$",
"$$$$$$$$$$$$$$$$$$$$$$$$$oooooooooooooooooooooooooooooooo            oooooooooooooooooooooooooooooooo$$$$$$$$$$$$$$$$$$$$$$$$$",
"$$$$$$$$$$$$$$$$$$$$$$$$oooooooooooooooooooooooooooo                      oooooooooooooooooooooooooooo$$$$$$$$$$$$$$$$$$$$$$$$",
"$$$$$$$$$$$$$$$$$$$$$$$oooooooooooooooooooooooooo        oooooooooooo        oooooooooooooooooooooooooo$$$$$$$$$$$$$$$$$$$$$$$",
"$$$$$$$$$$$$$$$$$$$$$$ooooooooooooooooooooooooo      oooooooooooooooooooo      ooooooooooooooooooooooooo$$$$$$$$$$$$$$$$$$$$$$",
"$$$$$$$$$$$$$$$$$$$$$$ooooooooooooooooooooooo     oooooooooooooooooooooooooo     ooooooooooooooooooooooo$$$$$$$$$$$$$$$$$$$$$$",
"$$$$$$$$$$$$$$$$$$$$$oooooooooooooooooooooo     oooooooooooooooooooooooooooooo     oooooooooooooooooooooo$$$$$$$$$$$$$$$$$$$$$",
"$$$$$$$$$$$$$$$$$$$$oooooooooooooooooooooo    oooooooooooooooooooooooooooooooooo    oooooooooooooooooooooo$$$$$$$$$$$$$$$$$$$$",
"$$$$$$$$$$$$$$$$$$$oooooooooooooooooooooo   oooooooooooooooooooooooooooooooooooooo   oooooooooooooooooooooo$$$$$$$$$$$$$$$$$$$",
"$$$$$$$$$$$$$$$$$$$oooooooooooooooooooo    oooooooooooooooooooooooooooooooooooooooo    oooooooooooooooooooo$$$$$$$$$$$$$$$$$$$",
"$$$$$$$$$$$$$$$$$$oooooooooooooooooooo    oooooooooooooooooooooooooooooooooooooooooo    oooooooooooooooooooo$$$$$$$$$$$$$$$$$$",
"$$$$$$$$$$$$$$$$$$ooooooooooooooooooo   oooooooooooooooooooooooooooooooooooooooooooooo   ooooooooooooooooooo$$$$$$$$$$$$$$$$$$",
"$$$$$$$$$$$$$$$$$ooooooooooooooooooo   oooooooooooooooooooooooooooooooooooooooooooooooo   ooooooooooooooooooo$$$$$$$$$$$$$$$$$",
"$$$$$$$$$$$$$$$$ooooooooooooooooooo   ooooooooooooooooooooooooooooo....ooooooooooooooooo   ooooooooooooooooooo$$$$$$$$$$$$$$$$",
"$$$$$$$$$$$$$$$$ooooooooooooooooooo  ooooooooooooooooooooooooooo...XXXX+ooooooooooooooooo  ooooooooooooooooooo$$$$$$$$$$$$$$$$",
"$$$$$$$$$$$$$$$$oooooooooooooooooo   oooooooooooooooooooooooo...XXXXXXX+ooooooooooooooooo   oooooooooooooooooo$$$$$$$$$$$$$$$$",
"$$$$$$$$$$$$$$$oooooooooooooooooo   oooooooooooooooooooooo...XXXXXXXXX+ooooooooooooooooooo   oooooooooooooooooo$$$$$$$$$$$$$$$",
"$$$$$$$$$$$$$$$ooooooooooooooooo   oooooooooooooooooooo...XXXXXXXXXXX+ooooooooooooooooooooo   ooooooooooooooooo$$$$$$$$$$$$$$$",
"$$$$$$$$$$$$$$oooooooooooooooooo  oooooooooooooooooo...XXXXXXXXXXXXXXOoooooooooooooooooooooo  oooooooooooooooooo$$$$$$$$$$$$$$",
"$$$$$$$$$$$$$$ooooooooooooooooo   ooooooooooooooooo.XXXXXXXXXXXXXXXXXOoooooooooooooooooooooo   ooooooooooooooooo$$$$$$$$$$$$$$",
"$$$$$$$$$$$$$$ooooooooooooooooo  ooooooooooooooooo.XXXXXXXXXXXXXXXXXX+ooooooooooooooooooooooo  ooooooooooooooooo$$$$$$$$$$$$$$",
"$$$$$$$$$$$$$ooooooooooooooooo   ooooooooooooooooo.XXXXXXXXXXXXXXXXXX+ooooooooooooooooooooooo   ooooooooooooooooo$$$$$$$$$$$$$",
"$$$$$$$$$$$$$ooooooooooooooooo  oooooooooooooooooo.XXXXXXXXXXXXXXXXXX+oooooooooooooooooooooooo  ooooooooooooooooo$$$$$$$$$$$$$",
"$$$$$$$$$$$$$oooooooooooooooo   oooooooooooooooooo.XXXXXXXXXXXXXXXXXX+oooooooooooooooooooooooo   oooooooooooooooo$$$$$$$$$$$$$",
"$$$$$$$$$$$$ooooooooooooooooo  ooooooooooooooooooo.XXXXXXO.XXXXXXXXXX+ooooooooooooooooooooooooo  ooooooooooooooooo$$$$$$$$$$$$",
"$$$$$$$$$$$$ooooooooooooooooo  ooooooooooooooooooo.XXXXOOo.XXXXXXXXXX+ooooooooooooooooooooooooo  ooooooooooooooooo$$$$$$$$$$$$",
"$$$$$$$$$$$$oooooooooooooooo   ooooooooooooooooooo.XXOOooo.XXXXXXXXXX+ooooooooooooooooooooooooo   oooooooooooooooo$$$$$$$$$$$$",
"$$$$$$$$$$$$oooooooooooooooo  oooooooooooooooooooooOOooooo.XXXXXXXXXX+oooooooooooooooooooooooooo  oooooooooooooooo$$$$$$$$$$$$",
"$$$$$$$$$$$$oooooooooooooooo  oooooooooooooooooooooooooooo.XXXXXXXXXX+oooooooooooooooooooooooooo  oooooooooooooooo$$$$$$$$$$$$",
"$$$$$$$$$$$ooooooooooooooooo  oooooooooooooooooooooooooooo.XXXXXXXXXX+oooooooooooooooooooooooooo  ooooooooooooooooo$$$$$$$$$$$",
"$$$$$$$$$$$ooooooooooooooooo  oooooooooooooooooooooooooooo.XXXXXXXXXXOoooooooooooooooooooooooooo  ooooooooooooooooo$$$$$$$$$$$",
"$$$$$$$$$$$oooooooooooooooo  ooooooooooooooooooooooooooooo.XXXXXXXXXXOooooooooooooooooooooooooooo  oooooooooooooooo$$$$$$$$$$$",
"$$$$$$$$$$$oooooooooooooooo  ooooooooooooooooooooooooooooo.XXXXXXXXXXOooooooooooooooooooooooooooo  oooooooooooooooo$$$$$$$$$$$",
"$$$$$$$$$$$oooooooooooooooo  ooooooooooooooooooooooooooooo.XXXXXXXXXXOooooooooooooooooooooooooooo  oooooooooooooooo$$$$$$$$$$$",
"$$$$$$$$$$$oooooooooooooooo  ooooooooooooooooooooooooooooo.XXXXXXXXXXOooooooooooooooooooooooooooo  oooooooooooooooo$$$$$$$$$$$",
"$$$$$$$$$$$oooooooooooooooo  ooooooooooooooooooooooooooooo.XXXXXXXXXX+ooooooooooooooooooooooooooo  oooooooooooooooo$$$$$$$$$$$",
"$$$$$$$$$$$oooooooooooooooo  ooooooooooooooooooooooooooooo.XXXXXXXXXX+ooooooooooooooooooooooooooo  oooooooooooooooo$$$$$$$$$$$",
"$$$$$$$$$$$oooooooooooooooo  ooooooooooooooooooooooooooooo.XXXXXXXXXX+ooooooooooooooooooooooooooo  oooooooooooooooo$$$$$$$$$$$",
"$$$$$$$$$$$oooooooooooooooo  ooooooooooooooooooooooooooooo.XXXXXXXXXX+ooooooooooooooooooooooooooo  oooooooooooooooo$$$$$$$$$$$",
"$$$$$$$$$$$oooooooooooooooo  ooooooooooooooooooooooooooooo.XXXXXXXXXX+ooooooooooooooooooooooooooo  oooooooooooooooo$$$$$$$$$$$",
"$$$$$$$$$$$oooooooooooooooo  ooooooooooooooooooooooooooooo.XXXXXXXXXX+ooooooooooooooooooooooooooo  oooooooooooooooo$$$$$$$$$$$",
"$$$$$$$$$$$oooooooooooooooo  ooooooooooooooooooooooooooooo.XXXXXXXXXX+ooooooooooooooooooooooooooo  oooooooooooooooo$$$$$$$$$$$",
"$$$$$$$$$$$oooooooooooooooo  ooooooooooooooooooooooooooooo.XXXXXXXX##+ooooooooooooooooooooooooooo  ooooooooooo##o#o$$$$$$$$$$$",
"$$$$$$$$$$$ooooooooooooooooo  oooooooooooooooooooooooooooo.XXXXXXXXX#O#ooooooooooooooooooooooooo  ooooooooooo#####o$$$$$$$$$$$",
"$$$$$$$$$$$ooooooooooooooooo  oooooooooooooooooooooooooooo.XXXXXX#X####ooooooooooooooooooooooooo# oooooooooo#####oo$$$$$$$$$$$",
"$$$$$$$$$$$$oooooooooooooooo  oooooooooooooooooooooooooooo.XXXXXXX#####ooooooooooooooooooooooo#o##o#ooooooo###@##o$$$$$$$$$$$$",
"$$$$$$$$$$$$oooooooooooooooo  oooooooooooooooooooooooooooo.XXXX#########oooooooooooooooooo##oo#######oooooo#@#@##o$$$$$$$$$$$$",
"$$$$$$$$$$$$oooooooooooooooo   ooooooooooooooooooooooooooo.XXXXXX######@#oooooooooooooooo###ooo#####oooooo#@@@@#oo$$$$$$$$$$$$",
"$$$$$$$$$$$$ooooooooooooooooo  ooooooooooooooooooooooooooo.XXXXXXX####@@@#oooooooooooo##o###ooo##@#ooooooo#@@@@ooo$$$$$$$$$$$$",
"$$$$$$$$$$$$ooooooooooooooooo  ooooooooooooooooooooooooooo.XXXXXXXXX@@@@@@#ooooooooooo######ooo@@@@oooooo#@@@@@ooo$$$$$$$$$$$$",
"$$$$$$$$$$$$$oooooooooooooooo   oooooooooooooooooooooooooo.XXXXXXXXXX@@@@@@#oooooooooo######oo @@@ooooooo#@@@@ooo$$$$$$$$$$$$$",
"$$$$$$$$$$$$$ooooooooooooooooo  oooooooooooooooooooooooooo.XXXXXXXXXXO@@@@@@#oooooooooo##@##oo @@@oooooo#@@@@@ooo$$$$$$$$$$$$$",
"$$$$$$$$$$$$$ooooooooooooooooo   oooooooooooooooooooo.XXXXXXXXXXXXXXXXX@@@@@@#ooooooooo@#@@@o  @@@oooooo#@@@@oooo$$$$$$$$$$$$$",
"$$$$$$$$$$$$$$ooooooooooooooooo  oooooooooooooooooooo.XXXXXXXXXXXXXXXXXX@@@@@@#oooooooo@@@@@o  @@@ooooo#@@@ooooo$$$$$$$$$$$$$$",
"$$$$$$$$$$$$$$ooooooooooooooooo   ooooooooooooooooooo.XXXXXXXXXXXXXXXXXXX@@@@@@#oooooooo@@@@@  @@oooooo#@@oooooo$$$$$$$$$$$$$$",
"$$$$$$$$$$$$$$oooooooooooooooooo  ooooooooooooooooooo.XXXXXXXXXXXXXXXXXXXX@@@@@@#ooooooo@@@@@ o@@ooooo#@@@oooooo$$$$$$$$$$$$$$",
"$$$$$$$$$$$$$$$ooooooooooooooooo   oooooooooooooooooo.XXXXXXXXXXXXXXXXXXXX+@@@@@@#oooooo@@@@@ o@@ooooo#@@oooooo$$$$$$$$$$$$$$$",
"$$$$$$$$$$$$$$$oooooooooooooooooo   ooooooooooooooooo++OOOOOOO++++OOOOOOO++o@@@@@@#oooooo@@@@@o@@ooooo@@@oooooo$$$$$$$$$$$$$$$",
"$$$$$$$$$$$$$$$$oooooooooooooooooo   oooooooooooooooooooooooooooooooooooooooo@@@@@@#ooooo@@@@@o@@ooooo@@oooooo$####$$$$$$$$$$$",
"$$$$$$$$$$$$$$$$ooooooooooooooooooo  ooooooooooooooooooooooooooooooooooooooooo@@@@@@#oooo@@@@@o@o@ooo@@@oooooo####$$$$$$$$$$$$",
"$$$$$$$$$$$$$$$$ooooooooooooooooooo   ooooooooooooooooooooooooooooooooooooooooo@@@@@@#oo  @@@@@@oooo#@@oooooo@####$$$$$$$$$$$$",
"$$$$$$$$$$$$$$$$$ooooooooooooooooooo   ooooooooooooooooooooooooooooooooooooooooo@@@@@@#   @@@@@@@@@#@@@@oooo@@####$$$$$$$$$$$$",
"$$$$$$$$$$$$$$$$$$ooooooooooooooooooo   ooooooooooooooooooooooooooooooooooooooooo@@@@@@# o@@@@@@@@@#@@@oooo@@@@###$$$$$$$$$$$$",
"$$$$$$$$$$$$$$$$$$oooooooooooooooooooo    oooooooooooooooooooooooooooooooooooooooo@@@@@@#oo@@@@@@@#@@@@ooo@@@@@#@$$$###$$$$$$$",
"$$$$$$$$$$$$$$$$$$$oooooooooooooooooooo    oooooooooooooooooooooooooooooooooooooooo@@@@@@#o@@@@@@@@@@@@oo@@@@@@@$$#####$$$$$$$",
"$$$$$$$$$$$$$$$$$$$oooooooooooooooooooooo   oooooooooooooooooooooooooooooooooooooo @@@@@@@#@@@@@@@@@@@@o@@@@@@@$$#######$$$$$$",
"$$$$$$$$$$$$$$$$$$$$oooooooooooooooooooooo    oooooooooooooooooooooooooooooooooo   @@@@@@@@#@########@o@@@@@@@$$@@@@@###$$$$$$",
"$$$$$$$$$$$$$$$$$$$$$oooooooooooooooooooooo     oooooooooooooooooooooooooooooo     @@@@@@@@@###########@@@@@@$@@@@@@@##$$$$$$$",
"$$$$$$$$$$$$$$$$$$$$$$ooooooooooooooooooooooo     oooooooooooooooooooooooooo     ooo@@@@@@@#############@@@@@@@@@@@@@##$$$$$$$",
"$$$$$$$$$$$$$$$$$$$$$$ooooooooooooooooooooooooo      oooooooooooooooooooo      oooooo@@@@@##############@@@@@@@@@@###$$$$$$$$$",
"$$$$$$$$$$$$$$$$$$$$$$$oooooooooooooooooooooooooo        oooooooooooo        ooooooooo@@@###############@@@@@@@@@@@$$$$$$$$$$$",
"$$$$$$$$$$$$$$$$$$$$$$$$oooooooooooooooooooooooooooo                      ooooooooooooo@@################@@@@@@@@$$$$$$$$$$$$$",
"$$$$$$$$$$$$$$$$$$$$$$$$$oooooooooooooooooooooooooooooooo            ooooooooooooooooooo@################@@@@@@$$$$$$$$$$$$$$$",
"$$$$$$$$$$$$$$$$$$$$$$$$$oooooooooooooooooooooooooooooooooooooooooooooooooooooooooooooooo################@@@@$$$$$$$$$$$$$$$$$",
"$$$$$$$$$$$$$$$$$$$$$$$$$$$oooooooooooooooooooooooooooooooooooooooooooooo################################@@@@@####$$$$$$$$$$$$",
"$$$$$$$$$$$$$$$$$$$$$$$$$$$$ooooooooooooooooooooooooooooooooooooooooooooo####@@@@@@@@@@@@#########$######@@@@@@####$$$$$$$$$$$",
"$$$$$$$$$$$$$$$$$$$$$$$$$$$$$ooooooooooooooooooooooooooooooooooooooooooo####@@@@@@@@@@@@@##########$$####@@@@@@@####$$$$$$$$$$",
"$$$$$$$$$$$$$$$$$$$$$$$$$$$$$$oooooooooooooooooooooooooooooooooooooooooo#####@@@@@@@@##@@##########$$$###@@@@@@#####$$$$$$$$$$",
"$$$$$$$$$$$$$$$$$$$$$$$$$$$$$$$$ooooooooooooooooooooooooooooooooooooooooooo#ooooooo##@@@@@##########$$$$$@@@@#$$$$$$$$$$$$$$$$",
"$$$$$$$$$$$$$$$$$$$$$$$$$$$$$$$$$oooooooooooooooooooooooooooooooooooooooooooooooo##@@@@@@@@##########$$$$$$@@@###$$$$$$$$$$$$$",
"$$$$$$$$$$$$$$$$$$$$$$$$$$$$$$$$$$ooooooooooooooooooooooooooooooooooooooooooooo##@@@@@@@@@@@##########@$$$$$$@@@@###$$$$$$$$$$",
"$$$$$$$$$$$$$$$$$$$$$$$$$$$$$$$$$$$$oooooooooooooooooooooooooooooooooooooooo###@@@@@@@@@@@@@@@@@@@@@@@@@@$$$$$$@@@@@###$$$$$$$",
"$$$$$$$$$$$$$$$$$$$$$$$$$$$$$$$$$$$$$$oooooooooooooooooooooooooooooooooooo###@@@@@@@@@o@@@@@@@@@@@@@@@@@@$$$$$$$@@@@@@@###$$$$",
"$$$$$$$$$$$$$$$$$$$$$$$$$$$$$$$$$$$$$$$ooooooooooooooooooooooooooooooooooo#@@@@@@@@@oo@@@@@@@@@@@@@@@@@@@@$$$$$$$$@@@@@@@@###$",
"$$$$$$$$$$$$$$$$$$$$$$$$$$$$$$$$$$$$$$$$$$oooooooooooooooooooooooooooooooo##@@#@@@oo$@@@@@@@@@@@@@@$@@@@@@@$$$$$$$$$@@@@@@@@##",
"$$$$$$$$$$$$$$$$$$$$$$$$$$$$$$$$$$$$$$$$$$$$ooooooooooooooooooooooooooooo#######oo$$$@@@@@@@@@$@@@@$$@@@@@@@$$$$$$$$$$@@@@@###",
"$$$$$$$$$$$$$$$$$$$$$$$$$$$$$$$$$$$$$$$$$$$$$$$oooooooooooooooooooooooooo##o####$$$$$@@@@@@@@@$@@@@$$$@@@@####$$$$$$$$$$######",
"$$$$$$$$$$$$$$$$$$$$$$$$$$$$$$$$$$$$$$$$$$$$$$$$$$ooooooooooooooooooooooo#oo$$$$$$$$$@@@@@@@@$$@@@@$$$$@@@####$$$$$$$$$$$$$###",
"$$$$$$$$$$$$$$$$$$$$$$$$$$$$$$$$$$$$$$$$$$$$$$$$$$$$$$$oooooooooooooooo$$$$$$$$$$$$$$$$@@@@@@$$@###$$$$$#######$$$$$$$$$$$$###",
"$$$$$$$$$$$$$$$$$$$$$$$$$$$$$$$$$$$$$$$$$$$$$$$$$$$$$$$$$$$$$$$$$$$$$$$$$$$$$$$$$$$$$$$@@@@@$$$####$$$$$#####$$$$$$$$$$$$$$$$$",
"$$$$$$$$$$$$$$$$$$$$$$$$$$$$$$$$$$$$$$$$$$$$$$$$$$$$$$$$$$$$$$$$$$$$$$$$$$$$$$$$$$$$$$@@@@@@$$#####$$$$$##$$$$$$$$$$$$$$$$$$$$",
"$$$$$$$$$$$$$$$$$$$$$$$$$$$$$$$$$$$$$$$$$$$$$$$$$$$$$$$$$$$$$$$$$$$$$$$$$$$$$$$$$$$$$$@@@@@$$$##$$$$$$$$#$$$$$$$$$$$$$$$$$$$$$",
"$$$$$$$$$$$$$$$$$$$$$$$$$$$$$$$$$$$$$$$$$$$$$$$$$$$$$$$$$$$$$$$$$$$$$$$$$$$$$$$$$$$$$@@@@@@$$$$$$$$$$$$$$$$$$$$$$$$$$$$$$$$$$$",
"$$$$$$$$$$$$$$$$$$$$$$$$$$$$$$$$$$$$$$$$$$$$$$$$$$$$$$$$$$$$$$$$$$$$$$$$$$$$$$$$$$$$$@@@@@$$$$$$$$$$$$$$$$$$$$$$$$$$$$$$$$$$$$",
"$$$$$$$$$$$$$$$$$$$$$$$$$$$$$$$$$$$$$$$$$$$$$$$$$$$$$$$$$$$$$$$$$$$$$$$$$$$$$$$$$$$$#@@@@@$$$$$$$$$$$$$$$$$$$$$$$$$$$$$$$$$$$$",
"$$$$$$$$$$$$$$$$$$$$$$$$$$$$$$$$$$$$$$$$$$$$$$$$$$$$$$$$$$$$$$$$$$$$$$$$$$$$$$$$$$$###@@@$$$$$$$$$$$$$$$$$$$$$$$$$$$$$$$$$$$$$",
"$$$$$$$$$$$$$$$$$$$$$$$$$$$$$$$$$$$$$$$$$$$$$$$$$$$$$$$$$$$$$$$$$$$$$$$$$$$$$$$$$$#####@@$$$$$$$$$$$$$$$$$$$$$$$$$$$$$$$$$$$$$",
"$$$$$$$$$$$$$$$$$$$$$$$$$$$$$$$$$$$$$$$$$$$$$$$$$$$$$$$$$$$$$$$$$$$$$$$$$$$$$$$$$#######$$$$$$$$$$$$$$$$$$$$$$$$$$$$$$$$$$$$$$",
"$$$$$$$$$$$$$$$$$$$$$$$$$$$$$$$$$$$$$$$$$$$$$$$$$$$$$$$$$$$$$$$$$$$$$$$$$$$$$$$$$$#####$$$$$$$$$$$$$$$$$$$$$$$$$$$$$$$$$$$$$$$",
"$$$$$$$$$$$$$$$$$$$$$$$$$$$$$$$$$$$$$$$$$$$$$$$$$$$$$$$$$$$$$$$$$$$$$$$$$$$$$$$$$$$$$$$$$$$$$$$$$$$$$$$$$$$$$$$$$$$$$$$$$$$$$$",
"$$$$$$$$$$$$$$$$$$$$$$$$$$$$$$$$$$$$$$$$$$$$$$$$$$$$$$$$$$$$$$$$$$$$$$$$$$$$$$$$$$$$$$$$$$$$$$$$$$$$$$$$$$$$$$$$$$$$$$$$$$$$$$",
"$$$$$$$$$$$$$$$$$$$$$$$$$$$$$$$$$$$$$$$$$$$$$$$$$$$$$$$$$$$$$$$$$$$$$$$$$$$$$$$$$$$$$$$$$$$$$$$$$$$$$$$$$$$$$$$$$$$$$$$$$$$$$$"
};
