/* XPM */
static char *_b3cca05f1f14ca497522fe7ab5a16967zLfPYz3Nm5TzAXK[] = {
/* columns rows colors chars-per-pixel */
"128 128 9 1 ",
"  c None",
". c #ECE47C",
"X c #5C4C94",
"o c #746CAC",
"O c #ECB4AC",
"+ c #DCD4DC",
"@ c #F4DCC4",
"# c #ECECC8",
"$ c #F4F4C4",
/* pixels */
"                        XXXXXXXXXXXXXXXXXXXXXXXX                                XXXXXXXXXXXXXXXXXXXXXXXX                        ",
"                        XXXXXXXXXXXXXXXXXXXXXXXX                                XXXXXXXXXXXXXXXXXXXXXXXX                        ",
"                        XXXXXXXXXXXXXXXXXXXXXXXX                                XXXXXXXXXXXXXXXXXXXXXXXX                        ",
"                        XXXXXXXXXXXXXXXXXXXXXXXX                                XXXXXXXXXXXXXXXXXXXXXXXX                        ",
"                        XXXXXXXXXXXXXXXXXXXXXXXX                                XXXXXXXXXXXXXXXXXXXXXXXX                        ",
"                        XXXXXXXXXXXXXXXXXXXXXXXX                                XXXXXXXXXXXXXXXXXXXXXXXX                        ",
"                        XXXXXXXXXXXXXXXXXXXXXXXX                                XXXXXXXXXXXXXXXXXXXXXXXX                        ",
"                        XXXXXXXXXXXXXXXXXXXXXXXX                                XXXXXXXXXXXXXXXXXXXXXXXX                        ",
"                XXXXXXXX$$$$$$$$$$$$$$$$$$$$$$$$XXXXXXXX                XXXXXXXX$$$$$$$$$$$$$$$$$$$$$$$$XXXXXXXX                ",
"                XXXXXXXX$$$$$$$$$$$$$$$$$$$$$$$$XXXXXXXX                XXXXXXXX$$$$$$$$$$$$$$$$$$$$$$$$XXXXXXXX                ",
"                XXXXXXXX$$$$$$$$$$$$$$$$$$$$$$$$XXXXXXXX                XXXXXXXX$$$$$$$$$$$$$$$$$$$$$$$$XXXXXXXX                ",
"                XXXXXXXX$$$$$$$$$$$$$$$$$$$$$$$$XXXXXXXX                XXXXXXXX$$$$$$$$$$$$$$$$$$$$$$$$XXXXXXXX                ",
"                XXXXXXXX$$$$$$$$$$$$$$$$$$$$$$$$XXXXXXXX                XXXXXXXX$$$$$$$$$$$$$$$$$$$$$$$$XXXXXXXX                ",
"                XXXXXXXX$$$$$$$$$$$$$$$$$$$$$$$$XXXXXXXX                XXXXXXXX$$$$$$$$$$$$$$$$$$$$$$$$XXXXXXXX                ",
"                XXXXXXXX$$$$$$$$$$$$$$$$$$$$$$$$XXXXXXXX                XXXXXXXX$$$$$$$$$$$$$$$$$$$$$$$$XXXXXXXX                ",
"                XXXXXXXX$$$$$$$$$$$$$$$$$$$$$$$$XXXXXXXX                XXXXXXXX$$$$$$$$$$$$$$$$$$$$$$$$XXXXXXXX                ",
"                XXXXXXXXOOOOOOOOOOOOOOOO$$$$$$$$XXXXXXXXXXXXXXXXXXXXXXXXXXXXXXXX$$$$$$$$OOOOOOOOOOOOOOOOXXXXXXXX                ",
"                XXXXXXXXOOOOOOOOOOOOOOOO$$$$$$$$XXXXXXXXXXXXXXXXXXXXXXXXXXXXXXXX$$$$$$$$OOOOOOOOOOOOOOOOXXXXXXXX                ",
"                XXXXXXXXOOOOOOOOOOOOOOOO$$$$$$$$XXXXXXXXXXXXXXXXXXXXXXXXXXXXXXXX$$$$$$$$OOOOOOOOOOOOOOOOXXXXXXXX                ",
"                XXXXXXXXOOOOOOOOOOOOOOOO$$$$$$$$XXXXXXXXXXXXXXXXXXXXXXXXXXXXXXXX$$$$$$$$OOOOOOOOOOOOOOOOXXXXXXXX                ",
"                XXXXXXXXOOOOOOOOOOOOOOOO$$$$$$$$XXXXXXXXXXXXXXXXXXXXXXXXXXXXXXXX$$$$$$$$OOOOOOOOOOOOOOOOXXXXXXXX                ",
"                XXXXXXXXOOOOOOOOOOOOOOOO$$$$$$$$XXXXXXXXXXXXXXXXXXXXXXXXXXXXXXXX$$$$$$$$OOOOOOOOOOOOOOOOXXXXXXXX                ",
"                XXXXXXXXOOOOOOOOOOOOOOOO$$$$$$$$XXXXXXXXXXXXXXXXXXXXXXXXXXXXXXXX$$$$$$$$OOOOOOOOOOOOOOOOXXXXXXXX                ",
"                XXXXXXXXOOOOOOOOOOOOOOOO$$$$$$$$XXXXXXXXXXXXXXXXXXXXXXXXXXXXXXXX$$$$$$$$OOOOOOOOOOOOOOOOXXXXXXXX                ",
"                XXXXXXXXOOOOOOOOOOOOOOOO$$$$$$$$++++++++++++++++++++++++++++++++$$$$$$$$OOOOOOOOOOOOOOOOXXXXXXXX                ",
"                XXXXXXXXOOOOOOOOOOOOOOOO$$$$$$$$++++++++++++++++++++++++++++++++$$$$$$$$OOOOOOOOOOOOOOOOXXXXXXXX                ",
"                XXXXXXXXOOOOOOOOOOOOOOOO$$$$$$$$++++++++++++++++++++++++++++++++$$$$$$$$OOOOOOOOOOOOOOOOXXXXXXXX                ",
"                XXXXXXXXOOOOOOOOOOOOOOOO$$$$$$$$++++++++++++++++++++++++++++++++$$$$$$$$OOOOOOOOOOOOOOOOXXXXXXXX                ",
"                XXXXXXXXOOOOOOOOOOOOOOOO$$$$$$$$++++++++++++++++++++++++++++++++$$$$$$$$OOOOOOOOOOOOOOOOXXXXXXXX                ",
"                XXXXXXXXOOOOOOOOOOOOOOOO$$$$$$$$++++++++++++++++++++++++++++++++$$$$$$$$OOOOOOOOOOOOOOOOXXXXXXXX                ",
"                XXXXXXXXOOOOOOOOOOOOOOOO$$$$$$$$++++++++++++++++++++++++++++++++$$$$$$$$OOOOOOOOOOOOOOOOXXXXXXXX                ",
"                XXXXXXXXOOOOOOOOOOOOOOOO$$$$$$$$++++++++++++++++++++++++++++++++$$$$$$$$OOOOOOOOOOOOOOOOXXXXXXXX                ",
"                XXXXXXXX$$$$$$$$$$$$$$$$$$$$$$$$++++++++++++++++++++++++++++++++$$$$$$$$$$$$$$$$$$$$$$$$XXXXXXXX                ",
"                XXXXXXXX$$$$$$$$$$$$$$$$$$$$$$$$++++++++++++++++++++++++++++++++$$$$$$$$$$$$$$$$$$$$$$$$XXXXXXXX                ",
"                XXXXXXXX$$$$$$$$$$$$$$$$$$$$$$$$++++++++++++++++++++++++++++++++$$$$$$$$$$$$$$$$$$$$$$$$XXXXXXXX                ",
"                XXXXXXXX$$$$$$$$$$$$$$$$$$$$$$$$++++++++++++++++++++++++++++++++$$$$$$$$$$$$$$$$$$$$$$$$XXXXXXXX                ",
"                XXXXXXXX$$$$$$$$$$$$$$$$$$$$$$$$++++++++++++++++++++++++++++++++$$$$$$$$$$$$$$$$$$$$$$$$XXXXXXXX                ",
"                XXXXXXXX$$$$$$$$$$$$$$$$$$$$$$$$++++++++++++++++++++++++++++++++$$$$$$$$$$$$$$$$$$$$$$$$XXXXXXXX                ",
"                XXXXXXXX$$$$$$$$$$$$$$$$$$$$$$$$++++++++++++++++++++++++++++++++$$$$$$$$$$$$$$$$$$$$$$$$XXXXXXXX                ",
"                XXXXXXXX$$$$$$$$$$$$$$$$$$$$$$$$++++++++++++++++++++++++++++++++$$$$$$$$$$$$$$$$$$$$$$$$XXXXXXXX                ",
"                XXXXXXXX$$$$$$$$$$$$$$$$$$$$$$$$++++++++++++++++++++++++++++++++$$$$$$$$$$$$$$$$$$$$$$$$XXXXXXXX                ",
"                XXXXXXXX$$$$$$$$$$$$$$$$$$$$$$$$++++++++++++++++++++++++++++++++$$$$$$$$$$$$$$$$$$$$$$$$XXXXXXXX                ",
"                XXXXXXXX$$$$$$$$$$$$$$$$$$$$$$$$++++++++++++++++++++++++++++++++$$$$$$$$$$$$$$$$$$$$$$$$XXXXXXXX                ",
"                XXXXXXXX$$$$$$$$$$$$$$$$$$$$$$$$++++++++++++++++++++++++++++++++$$$$$$$$$$$$$$$$$$$$$$$$XXXXXXXX                ",
"                XXXXXXXX$$$$$$$$$$$$$$$$$$$$$$$$++++++++++++++++++++++++++++++++$$$$$$$$$$$$$$$$$$$$$$$$XXXXXXXX                ",
"                XXXXXXXX$$$$$$$$$$$$$$$$$$$$$$$$++++++++++++++++++++++++++++++++$$$$$$$$$$$$$$$$$$$$$$$$XXXXXXXX                ",
"                XXXXXXXX$$$$$$$$$$$$$$$$$$$$$$$$++++++++++++++++++++++++++++++++$$$$$$$$$$$$$$$$$$$$$$$$XXXXXXXX                ",
"                XXXXXXXX$$$$$$$$$$$$$$$$$$$$$$$$++++++++++++++++++++++++++++++++$$$$$$$$$$$$$$$$$$$$$$$$XXXXXXXX                ",
"        XXXXXXXXXXXXXXXX$$$$$$$$$$$$$$$$$$$$$$$$$$$$$$$$$$$$$$$$$$$$$$$$$$$$$$$$$$$$$$$$$$$$$$$$$$$$$$$$XXXXXXXXXXXXXXXX        ",
"        XXXXXXXXXXXXXXXX$$$$$$$$$$$$$$$$$$$$$$$$$$$$$$$$$$$$$$$$$$$$$$$$$$$$$$$$$$$$$$$$$$$$$$$$$$$$$$$$XXXXXXXXXXXXXXXX        ",
"        XXXXXXXXXXXXXXXX$$$$$$$$$$$$$$$$$$$$$$$$$$$$$$$$$$$$$$$$$$$$$$$$$$$$$$$$$$$$$$$$$$$$$$$$$$$$$$$$XXXXXXXXXXXXXXXX        ",
"        XXXXXXXXXXXXXXXX$$$$$$$$$$$$$$$$$$$$$$$$$$$$$$$$$$$$$$$$$$$$$$$$$$$$$$$$$$$$$$$$$$$$$$$$$$$$$$$$XXXXXXXXXXXXXXXX        ",
"        XXXXXXXXXXXXXXXX$$$$$$$$$$$$$$$$$$$$$$$$$$$$$$$$$$$$$$$$$$$$$$$$$$$$$$$$$$$$$$$$$$$$$$$$$$$$$$$$XXXXXXXXXXXXXXXX        ",
"        XXXXXXXXXXXXXXXX$$$$$$$$$$$$$$$$$$$$$$$$$$$$$$$$$$$$$$$$$$$$$$$$$$$$$$$$$$$$$$$$$$$$$$$$$$$$$$$$XXXXXXXXXXXXXXXX        ",
"        XXXXXXXXXXXXXXXX$$$$$$$$$$$$$$$$$$$$$$$$$$$$$$$$$$$$$$$$$$$$$$$$$$$$$$$$$$$$$$$$$$$$$$$$$$$$$$$$XXXXXXXXXXXXXXXX        ",
"        XXXXXXXXXXXXXXXX$$$$$$$$$$$$$$$$$$$$$$$$$$$$$$$$$$$$$$$$$$$$$$$$$$$$$$$$$$$$$$$$$$$$$$$$$$$$$$$$XXXXXXXXXXXXXXXX        ",
"                XXXXXXXX$$$$$$$$XXXXXXXX$$$$$$$$$$$$$$$$$$$$$$$$$$$$$$$$$$$$$$$$$$$$$$$$XXXXXXXX$$$$$$$$XXXXXXXX                ",
"                XXXXXXXX$$$$$$$$XXXXXXXX$$$$$$$$$$$$$$$$$$$$$$$$$$$$$$$$$$$$$$$$$$$$$$$$XXXXXXXX$$$$$$$$XXXXXXXX                ",
"                XXXXXXXX$$$$$$$$XXXXXXXX$$$$$$$$$$$$$$$$$$$$$$$$$$$$$$$$$$$$$$$$$$$$$$$$XXXXXXXX$$$$$$$$XXXXXXXX                ",
"                XXXXXXXX$$$$$$$$XXXXXXXX$$$$$$$$$$$$$$$$$$$$$$$$$$$$$$$$$$$$$$$$$$$$$$$$XXXXXXXX$$$$$$$$XXXXXXXX                ",
"                XXXXXXXX$$$$$$$$XXXXXXXX$$$$$$$$$$$$$$$$$$$$$$$$$$$$$$$$$$$$$$$$$$$$$$$$XXXXXXXX$$$$$$$$XXXXXXXX                ",
"                XXXXXXXX$$$$$$$$XXXXXXXX$$$$$$$$$$$$$$$$$$$$$$$$$$$$$$$$$$$$$$$$$$$$$$$$XXXXXXXX$$$$$$$$XXXXXXXX                ",
"                XXXXXXXX$$$$$$$$XXXXXXXX$$$$$$$$$$$$$$$$$$$$$$$$$$$$$$$$$$$$$$$$$$$$$$$$XXXXXXXX$$$$$$$$XXXXXXXX                ",
"                XXXXXXXX$$$$$$$$XXXXXXXX$$$$$$$$$$$$$$$$$$$$$$$$$$$$$$$$$$$$$$$$$$$$$$$$XXXXXXXX$$$$$$$$XXXXXXXX                ",
"        XXXXXXXXXXXXXXXX$$$$$$$$$$$$$$$$$$$$$$$$$$$$$$$$$$$$$$$$$$$$$$$$$$$$$$$$$$$$$$$$$$$$$$$$$$$$$$$$XXXXXXXXXXXXXXXX        ",
"        XXXXXXXXXXXXXXXX$$$$$$$$$$$$$$$$$$$$$$$$$$$$$$$$$$$$$$$$$$$$$$$$$$$$$$$$$$$$$$$$$$$$$$$$$$$$$$$$XXXXXXXXXXXXXXXX        ",
"        XXXXXXXXXXXXXXXX$$$$$$$$$$$$$$$$$$$$$$$$$$$$$$$$$$$$$$$$$$$$$$$$$$$$$$$$$$$$$$$$$$$$$$$$$$$$$$$$XXXXXXXXXXXXXXXX        ",
"        XXXXXXXXXXXXXXXX$$$$$$$$$$$$$$$$$$$$$$$$$$$$$$$$$$$$$$$$$$$$$$$$$$$$$$$$$$$$$$$$$$$$$$$$$$$$$$$$XXXXXXXXXXXXXXXX        ",
"        XXXXXXXXXXXXXXXX$$$$$$$$$$$$$$$$$$$$$$$$$$$$$$$$$$$$$$$$$$$$$$$$$$$$$$$$$$$$$$$$$$$$$$$$$$$$$$$$XXXXXXXXXXXXXXXX        ",
"        XXXXXXXXXXXXXXXX$$$$$$$$$$$$$$$$$$$$$$$$$$$$$$$$$$$$$$$$$$$$$$$$$$$$$$$$$$$$$$$$$$$$$$$$$$$$$$$$XXXXXXXXXXXXXXXX        ",
"        XXXXXXXXXXXXXXXX$$$$$$$$$$$$$$$$$$$$$$$$$$$$$$$$$$$$$$$$$$$$$$$$$$$$$$$$$$$$$$$$$$$$$$$$$$$$$$$$XXXXXXXXXXXXXXXX        ",
"        XXXXXXXXXXXXXXXX$$$$$$$$$$$$$$$$$$$$$$$$$$$$$$$$$$$$$$$$$$$$$$$$$$$$$$$$$$$$$$$$$$$$$$$$$$$$$$$$XXXXXXXXXXXXXXXX        ",
"                XXXXXXXX@@@@@@@@@@@@@@@@$$$$$$$$$$$$$$$$$$$$$$$$$$$$$$$$$$$$$$$$$$$$$$$$@@@@@@@@@@@@@@@@XXXXXXXX                ",
"                XXXXXXXX@@@@@@@@@@@@@@@@$$$$$$$$$$$$$$$$$$$$$$$$$$$$$$$$$$$$$$$$$$$$$$$$@@@@@@@@@@@@@@@@XXXXXXXX                ",
"                XXXXXXXX@@@@@@@@@@@@@@@@$$$$$$$$$$$$$$$$$$$$$$$$$$$$$$$$$$$$$$$$$$$$$$$$@@@@@@@@@@@@@@@@XXXXXXXX                ",
"                XXXXXXXX@@@@@@@@@@@@@@@@$$$$$$$$$$$$$$$$$$$$$$$$$$$$$$$$$$$$$$$$$$$$$$$$@@@@@@@@@@@@@@@@XXXXXXXX                ",
"                XXXXXXXX@@@@@@@@@@@@@@@@$$$$$$$$$$$$$$$$$$$$$$$$$$$$$$$$$$$$$$$$$$$$$$$$@@@@@@@@@@@@@@@@XXXXXXXX                ",
"                XXXXXXXX@@@@@@@@@@@@@@@@$$$$$$$$$$$$$$$$$$$$$$$$$$$$$$$$$$$$$$$$$$$$$$$$@@@@@@@@@@@@@@@@XXXXXXXX                ",
"                XXXXXXXX@@@@@@@@@@@@@@@@$$$$$$$$$$$$$$$$$$$$$$$$$$$$$$$$$$$$$$$$$$$$$$$$@@@@@@@@@@@@@@@@XXXXXXXX                ",
"                XXXXXXXX@@@@@@@@@@@@@@@@$$$$$$$$$$$$$$$$$$$$$$$$$$$$$$$$$$$$$$$$$$$$$$$$@@@@@@@@@@@@@@@@XXXXXXXX                ",
"                        XXXXXXXXXXXXXXXXooooooooooooooooooooooooooooooooooooooooooooooooXXXXXXXXXXXXXXXX                        ",
"                        XXXXXXXXXXXXXXXXooooooooooooooooooooooooooooooooooooooooooooooooXXXXXXXXXXXXXXXX                        ",
"                        XXXXXXXXXXXXXXXXooooooooooooooooooooooooooooooooooooooooooooooooXXXXXXXXXXXXXXXX                        ",
"                        XXXXXXXXXXXXXXXXooooooooooooooooooooooooooooooooooooooooooooooooXXXXXXXXXXXXXXXX                        ",
"                        XXXXXXXXXXXXXXXXooooooooooooooooooooooooooooooooooooooooooooooooXXXXXXXXXXXXXXXX                        ",
"                        XXXXXXXXXXXXXXXXooooooooooooooooooooooooooooooooooooooooooooooooXXXXXXXXXXXXXXXX                        ",
"                        XXXXXXXXXXXXXXXXooooooooooooooooooooooooooooooooooooooooooooooooXXXXXXXXXXXXXXXX                        ",
"                        XXXXXXXXXXXXXXXXooooooooooooooooooooooooooooooooooooooooooooooooXXXXXXXXXXXXXXXX                        ",
"                XXXXXXXX++++++++$$$$$$$$oooooooooooooooo........########oooooooooooooooo$$$$$$$$++++++++XXXXXXXX                ",
"                XXXXXXXX++++++++$$$$$$$$oooooooooooooooo........########oooooooooooooooo$$$$$$$$++++++++XXXXXXXX                ",
"                XXXXXXXX++++++++$$$$$$$$oooooooooooooooo........########oooooooooooooooo$$$$$$$$++++++++XXXXXXXX                ",
"                XXXXXXXX++++++++$$$$$$$$oooooooooooooooo........########oooooooooooooooo$$$$$$$$++++++++XXXXXXXX                ",
"                XXXXXXXX++++++++$$$$$$$$oooooooooooooooo........########oooooooooooooooo$$$$$$$$++++++++XXXXXXXX                ",
"                XXXXXXXX++++++++$$$$$$$$oooooooooooooooo........########oooooooooooooooo$$$$$$$$++++++++XXXXXXXX                ",
"                XXXXXXXX++++++++$$$$$$$$oooooooooooooooo........########oooooooooooooooo$$$$$$$$++++++++XXXXXXXX                ",
"                XXXXXXXX++++++++$$$$$$$$oooooooooooooooo........########oooooooooooooooo$$$$$$$$++++++++XXXXXXXX                ",
"                XXXXXXXX++++++++$$$$$$$$$$$$$$$$$$$$$$$$................$$$$$$$$$$$$$$$$$$$$$$$$++++++++XXXXXXXX                ",
"                XXXXXXXX++++++++$$$$$$$$$$$$$$$$$$$$$$$$................$$$$$$$$$$$$$$$$$$$$$$$$++++++++XXXXXXXX                ",
"                XXXXXXXX++++++++$$$$$$$$$$$$$$$$$$$$$$$$................$$$$$$$$$$$$$$$$$$$$$$$$++++++++XXXXXXXX                ",
"                XXXXXXXX++++++++$$$$$$$$$$$$$$$$$$$$$$$$................$$$$$$$$$$$$$$$$$$$$$$$$++++++++XXXXXXXX                ",
"                XXXXXXXX++++++++$$$$$$$$$$$$$$$$$$$$$$$$................$$$$$$$$$$$$$$$$$$$$$$$$++++++++XXXXXXXX                ",
"                XXXXXXXX++++++++$$$$$$$$$$$$$$$$$$$$$$$$................$$$$$$$$$$$$$$$$$$$$$$$$++++++++XXXXXXXX                ",
"                XXXXXXXX++++++++$$$$$$$$$$$$$$$$$$$$$$$$................$$$$$$$$$$$$$$$$$$$$$$$$++++++++XXXXXXXX                ",
"                XXXXXXXX++++++++$$$$$$$$$$$$$$$$$$$$$$$$................$$$$$$$$$$$$$$$$$$$$$$$$++++++++XXXXXXXX                ",
"                        XXXXXXXXXXXXXXXX$$$$$$$$$$$$$$$$$$$$$$$$$$$$$$$$$$$$$$$$$$$$$$$$XXXXXXXXXXXXXXXX                        ",
"                        XXXXXXXXXXXXXXXX$$$$$$$$$$$$$$$$$$$$$$$$$$$$$$$$$$$$$$$$$$$$$$$$XXXXXXXXXXXXXXXX                        ",
"                        XXXXXXXXXXXXXXXX$$$$$$$$$$$$$$$$$$$$$$$$$$$$$$$$$$$$$$$$$$$$$$$$XXXXXXXXXXXXXXXX                        ",
"                        XXXXXXXXXXXXXXXX$$$$$$$$$$$$$$$$$$$$$$$$$$$$$$$$$$$$$$$$$$$$$$$$XXXXXXXXXXXXXXXX                        ",
"                        XXXXXXXXXXXXXXXX$$$$$$$$$$$$$$$$$$$$$$$$$$$$$$$$$$$$$$$$$$$$$$$$XXXXXXXXXXXXXXXX                        ",
"                        XXXXXXXXXXXXXXXX$$$$$$$$$$$$$$$$$$$$$$$$$$$$$$$$$$$$$$$$$$$$$$$$XXXXXXXXXXXXXXXX                        ",
"                        XXXXXXXXXXXXXXXX$$$$$$$$$$$$$$$$$$$$$$$$$$$$$$$$$$$$$$$$$$$$$$$$XXXXXXXXXXXXXXXX                        ",
"                        XXXXXXXXXXXXXXXX$$$$$$$$$$$$$$$$$$$$$$$$$$$$$$$$$$$$$$$$$$$$$$$$XXXXXXXXXXXXXXXX                        ",
"                                XXXXXXXX++++++++++++++++XXXXXXXXXXXXXXXX++++++++++++++++XXXXXXXX                                ",
"                                XXXXXXXX++++++++++++++++XXXXXXXXXXXXXXXX++++++++++++++++XXXXXXXX                                ",
"                                XXXXXXXX++++++++++++++++XXXXXXXXXXXXXXXX++++++++++++++++XXXXXXXX                                ",
"                                XXXXXXXX++++++++++++++++XXXXXXXXXXXXXXXX++++++++++++++++XXXXXXXX                                ",
"                                XXXXXXXX++++++++++++++++XXXXXXXXXXXXXXXX++++++++++++++++XXXXXXXX                                ",
"                                XXXXXXXX++++++++++++++++XXXXXXXXXXXXXXXX++++++++++++++++XXXXXXXX                                ",
"                                XXXXXXXX++++++++++++++++XXXXXXXXXXXXXXXX++++++++++++++++XXXXXXXX                                ",
"                                XXXXXXXX++++++++++++++++XXXXXXXXXXXXXXXX++++++++++++++++XXXXXXXX                                ",
"                                        XXXXXXXXXXXXXXXX                XXXXXXXXXXXXXXXX                                        ",
"                                        XXXXXXXXXXXXXXXX                XXXXXXXXXXXXXXXX                                        ",
"                                        XXXXXXXXXXXXXXXX                XXXXXXXXXXXXXXXX                                        ",
"                                        XXXXXXXXXXXXXXXX                XXXXXXXXXXXXXXXX                                        ",
"                                        XXXXXXXXXXXXXXXX                XXXXXXXXXXXXXXXX                                        ",
"                                        XXXXXXXXXXXXXXXX                XXXXXXXXXXXXXXXX                                        ",
"                                        XXXXXXXXXXXXXXXX                XXXXXXXXXXXXXXXX                                        ",
"                                        XXXXXXXXXXXXXXXX                XXXXXXXXXXXXXXXX                                        "
};
