/* XPM */
static char *char_left1704735441[] = {
/* columns rows colors chars-per-pixel */
"128 128 8 1 ",
"  c None",
". c #ECE47C",
"X c #5C4C94",
"o c #746CAC",
"O c #ECB4AC",
"+ c #DCD4DC",
"@ c #F4DCC4",
"# c #F4F4C4",
/* pixels */
"                                                        XXXXXXXXXXXXXXXXXXXXXXXX                                                ",
"                                                        XXXXXXXXXXXXXXXXXXXXXXXX                                                ",
"                                                        XXXXXXXXXXXXXXXXXXXXXXXX                                                ",
"                                                        XXXXXXXXXXXXXXXXXXXXXXXX                                                ",
"                                                        XXXXXXXXXXXXXXXXXXXXXXXX                                                ",
"                                                        XXXXXXXXXXXXXXXXXXXXXXXX                                                ",
"                                                        XXXXXXXXXXXXXXXXXXXXXXXX                                                ",
"                                                        XXXXXXXXXXXXXXXXXXXXXXXX                                                ",
"                                                XXXXXXXX########################XXXXXXXX                                        ",
"                                                XXXXXXXX########################XXXXXXXX                                        ",
"                                                XXXXXXXX########################XXXXXXXX                                        ",
"                                                XXXXXXXX########################XXXXXXXX                                        ",
"                                                XXXXXXXX########################XXXXXXXX                                        ",
"                                                XXXXXXXX########################XXXXXXXX                                        ",
"                                                XXXXXXXX########################XXXXXXXX                                        ",
"                                                XXXXXXXX########################XXXXXXXX                                        ",
"                                        XXXXXXXXXXXXXXXX########OOOOOOOOOOOOOOOO########XXXXXXXX                                ",
"                                        XXXXXXXXXXXXXXXX########OOOOOOOOOOOOOOOO########XXXXXXXX                                ",
"                                        XXXXXXXXXXXXXXXX########OOOOOOOOOOOOOOOO########XXXXXXXX                                ",
"                                        XXXXXXXXXXXXXXXX########OOOOOOOOOOOOOOOO########XXXXXXXX                                ",
"                                        XXXXXXXXXXXXXXXX########OOOOOOOOOOOOOOOO########XXXXXXXX                                ",
"                                        XXXXXXXXXXXXXXXX########OOOOOOOOOOOOOOOO########XXXXXXXX                                ",
"                                        XXXXXXXXXXXXXXXX########OOOOOOOOOOOOOOOO########XXXXXXXX                                ",
"                                        XXXXXXXXXXXXXXXX########OOOOOOOOOOOOOOOO########XXXXXXXX                                ",
"                                XXXXXXXX########################OOOOOOOOOOOOOOOO########XXXXXXXX                                ",
"                                XXXXXXXX########################OOOOOOOOOOOOOOOO########XXXXXXXX                                ",
"                                XXXXXXXX########################OOOOOOOOOOOOOOOO########XXXXXXXX                                ",
"                                XXXXXXXX########################OOOOOOOOOOOOOOOO########XXXXXXXX                                ",
"                                XXXXXXXX########################OOOOOOOOOOOOOOOO########XXXXXXXX                                ",
"                                XXXXXXXX########################OOOOOOOOOOOOOOOO########XXXXXXXX                                ",
"                                XXXXXXXX########################OOOOOOOOOOOOOOOO########XXXXXXXX                                ",
"                                XXXXXXXX########################OOOOOOOOOOOOOOOO########XXXXXXXX                                ",
"                                XXXXXXXX################################################XXXXXXXX                                ",
"                                XXXXXXXX################################################XXXXXXXX                                ",
"                                XXXXXXXX################################################XXXXXXXX                                ",
"                                XXXXXXXX################################################XXXXXXXX                                ",
"                                XXXXXXXX################################################XXXXXXXX                                ",
"                                XXXXXXXX################################################XXXXXXXX                                ",
"                                XXXXXXXX################################################XXXXXXXX                                ",
"                                XXXXXXXX################################################XXXXXXXX                                ",
"                                XXXXXXXX################################################XXXXXXXX                                ",
"                                XXXXXXXX################################################XXXXXXXX                                ",
"                                XXXXXXXX################################################XXXXXXXX                                ",
"                                XXXXXXXX################################################XXXXXXXX                                ",
"                                XXXXXXXX################################################XXXXXXXX                                ",
"                                XXXXXXXX################################################XXXXXXXX                                ",
"                                XXXXXXXX################################################XXXXXXXX                                ",
"                                XXXXXXXX################################################XXXXXXXX                                ",
"                        XXXXXXXXXXXXXXXX################################################XXXXXXXXXXXXXXXX                        ",
"                        XXXXXXXXXXXXXXXX################################################XXXXXXXXXXXXXXXX                        ",
"                        XXXXXXXXXXXXXXXX################################################XXXXXXXXXXXXXXXX                        ",
"                        XXXXXXXXXXXXXXXX################################################XXXXXXXXXXXXXXXX                        ",
"                        XXXXXXXXXXXXXXXX################################################XXXXXXXXXXXXXXXX                        ",
"                        XXXXXXXXXXXXXXXX################################################XXXXXXXXXXXXXXXX                        ",
"                        XXXXXXXXXXXXXXXX################################################XXXXXXXXXXXXXXXX                        ",
"                        XXXXXXXXXXXXXXXX################################################XXXXXXXXXXXXXXXX                        ",
"                        XXXXXXXX################XXXXXXXX################################XXXXXXXX                                ",
"                        XXXXXXXX################XXXXXXXX################################XXXXXXXX                                ",
"                        XXXXXXXX################XXXXXXXX################################XXXXXXXX                                ",
"                        XXXXXXXX################XXXXXXXX################################XXXXXXXX                                ",
"                        XXXXXXXX################XXXXXXXX################################XXXXXXXX                                ",
"                        XXXXXXXX################XXXXXXXX################################XXXXXXXX                                ",
"                        XXXXXXXX################XXXXXXXX################################XXXXXXXX                                ",
"                        XXXXXXXX################XXXXXXXX################################XXXXXXXX                                ",
"                        XXXXXXXX########################################################XXXXXXXXXXXXXXXX                        ",
"                        XXXXXXXX########################################################XXXXXXXXXXXXXXXX                        ",
"                        XXXXXXXX########################################################XXXXXXXXXXXXXXXX                        ",
"                        XXXXXXXX########################################################XXXXXXXXXXXXXXXX                        ",
"                        XXXXXXXX########################################################XXXXXXXXXXXXXXXX                        ",
"                        XXXXXXXX########################################################XXXXXXXXXXXXXXXX                        ",
"                        XXXXXXXX########################################################XXXXXXXXXXXXXXXX                        ",
"                        XXXXXXXX########################################################XXXXXXXXXXXXXXXX                        ",
"                        XXXXXXXX########################@@@@@@@@@@@@@@@@################XXXXXXXX                                ",
"                        XXXXXXXX########################@@@@@@@@@@@@@@@@################XXXXXXXX                                ",
"                        XXXXXXXX########################@@@@@@@@@@@@@@@@################XXXXXXXX                                ",
"                        XXXXXXXX########################@@@@@@@@@@@@@@@@################XXXXXXXX                                ",
"                        XXXXXXXX########################@@@@@@@@@@@@@@@@################XXXXXXXX                                ",
"                        XXXXXXXX########################@@@@@@@@@@@@@@@@################XXXXXXXX                                ",
"                        XXXXXXXX########################@@@@@@@@@@@@@@@@################XXXXXXXX                                ",
"                        XXXXXXXX########################@@@@@@@@@@@@@@@@################XXXXXXXX                                ",
"                                XXXXXXXXooooooooooooooooooooooooooooooooooooooooXXXXXXXX                                        ",
"                                XXXXXXXXooooooooooooooooooooooooooooooooooooooooXXXXXXXX                                        ",
"                                XXXXXXXXooooooooooooooooooooooooooooooooooooooooXXXXXXXX                                        ",
"                                XXXXXXXXooooooooooooooooooooooooooooooooooooooooXXXXXXXX                                        ",
"                                XXXXXXXXooooooooooooooooooooooooooooooooooooooooXXXXXXXX                                        ",
"                                XXXXXXXXooooooooooooooooooooooooooooooooooooooooXXXXXXXX                                        ",
"                                XXXXXXXXooooooooooooooooooooooooooooooooooooooooXXXXXXXX                                        ",
"                                XXXXXXXXooooooooooooooooooooooooooooooooooooooooXXXXXXXX                                        ",
"                                ........oooooooooooooooooooooooooooooooo########++++++++XXXXXXXX                                ",
"                                ........oooooooooooooooooooooooooooooooo########++++++++XXXXXXXX                                ",
"                                ........oooooooooooooooooooooooooooooooo########++++++++XXXXXXXX                                ",
"                                ........oooooooooooooooooooooooooooooooo########++++++++XXXXXXXX                                ",
"                                ........oooooooooooooooooooooooooooooooo########++++++++XXXXXXXX                                ",
"                                ........oooooooooooooooooooooooooooooooo########++++++++XXXXXXXX                                ",
"                                ........oooooooooooooooooooooooooooooooo########++++++++XXXXXXXX                                ",
"                                ........oooooooooooooooooooooooooooooooo########++++++++XXXXXXXX                                ",
"                                ........XXXXXXXX################################++++++++XXXXXXXX                                ",
"                                ........XXXXXXXX################################++++++++XXXXXXXX                                ",
"                                ........XXXXXXXX################################++++++++XXXXXXXX                                ",
"                                ........XXXXXXXX################################++++++++XXXXXXXX                                ",
"                                ........XXXXXXXX################################++++++++XXXXXXXX                                ",
"                                ........XXXXXXXX################################++++++++XXXXXXXX                                ",
"                                ........XXXXXXXX################################++++++++XXXXXXXX                                ",
"                                ........XXXXXXXX################################++++++++XXXXXXXX                                ",
"                                        XXXXXXXX################################XXXXXXXX                                        ",
"                                        XXXXXXXX################################XXXXXXXX                                        ",
"                                        XXXXXXXX################################XXXXXXXX                                        ",
"                                        XXXXXXXX################################XXXXXXXX                                        ",
"                                        XXXXXXXX################################XXXXXXXX                                        ",
"                                        XXXXXXXX################################XXXXXXXX                                        ",
"                                        XXXXXXXX################################XXXXXXXX                                        ",
"                                        XXXXXXXX################################XXXXXXXX                                        ",
"                                                XXXXXXXX++++++++++++++++XXXXXXXX                                                ",
"                                                XXXXXXXX++++++++++++++++XXXXXXXX                                                ",
"                                                XXXXXXXX++++++++++++++++XXXXXXXX                                                ",
"                                                XXXXXXXX++++++++++++++++XXXXXXXX                                                ",
"                                                XXXXXXXX++++++++++++++++XXXXXXXX                                                ",
"                                                XXXXXXXX++++++++++++++++XXXXXXXX                                                ",
"                                                XXXXXXXX++++++++++++++++XXXXXXXX                                                ",
"                                                XXXXXXXX++++++++++++++++XXXXXXXX                                                ",
"                                                        XXXXXXXXXXXXXXXX                                                        ",
"                                                        XXXXXXXXXXXXXXXX                                                        ",
"                                                        XXXXXXXXXXXXXXXX                                                        ",
"                                                        XXXXXXXXXXXXXXXX                                                        ",
"                                                        XXXXXXXXXXXXXXXX                                                        ",
"                                                        XXXXXXXXXXXXXXXX                                                        ",
"                                                        XXXXXXXXXXXXXXXX                                                        ",
"                                                        XXXXXXXXXXXXXXXX                                                        "
};
