/* XPM */
static char *char_back_bg1705337378[] = {
/* columns rows colors chars-per-pixel */
"128 128 7 1 ",
"  c #A5BF65",
". c #5C4C94",
"X c #746CAC",
"o c #DCBC8C",
"O c #ECCCA4",
"+ c #DCD4DC",
"@ c #F4F4C4",
/* pixels */
"OOOOOOOOOOOOOOOOOOOOOOOO........................OOOOOOOOOOOOOOOOOOOOOOOOOOOOOOOO........................OOOOOOOO        OOOOOOOO",
"OOOOOOOOOOOOOOOOOOOOOOOO........................OOOOOOOOOOOOOOOOOOOOOOOOOOOOOOOO........................OOOOOOOO        OOOOOOOO",
"OOOOOOOOOOOOOOOOOOOOOOOO........................OOOOOOOOOOOOOOOOOOOOOOOOOOOOOOOO........................OOOOOOOO        OOOOOOOO",
"OOOOOOOOOOOOOOOOOOOOOOOO........................OOOOOOOOOOOOOOOOOOOOOOOOOOOOOOOO........................OOOOOOOO        OOOOOOOO",
"OOOOOOOOOOOOOOOOOOOOOOOO........................OOOOOOOOOOOOOOOOOOOOOOOOOOOOOOOO........................OOOOOOOO        OOOOOOOO",
"OOOOOOOOOOOOOOOOOOOOOOOO........................OOOOOOOOOOOOOOOOOOOOOOOOOOOOOOOO........................OOOOOOOO        OOOOOOOO",
"OOOOOOOOOOOOOOOOOOOOOOOO........................OOOOOOOOOOOOOOOOOOOOOOOOOOOOOOOO........................OOOOOOOO        OOOOOOOO",
"OOOOOOOOOOOOOOOOOOOOOOOO........................OOOOOOOOOOOOOOOOOOOOOOOOOOOOOOOO........................OOOOOOOO        OOOOOOOO",
"OOOOOOOOOOOOOOOO........@@@@@@@@@@@@@@@@@@@@@@@@........OOOOOOOOOOOOOOOO........@@@@@@@@@@@@@@@@@@@@@@@@........        OOOOOOOO",
"OOOOOOOOOOOOOOOO........@@@@@@@@@@@@@@@@@@@@@@@@........OOOOOOOOOOOOOOOO........@@@@@@@@@@@@@@@@@@@@@@@@........        OOOOOOOO",
"OOOOOOOOOOOOOOOO........@@@@@@@@@@@@@@@@@@@@@@@@........OOOOOOOOOOOOOOOO........@@@@@@@@@@@@@@@@@@@@@@@@........        OOOOOOOO",
"OOOOOOOOOOOOOOOO........@@@@@@@@@@@@@@@@@@@@@@@@........OOOOOOOOOOOOOOOO........@@@@@@@@@@@@@@@@@@@@@@@@........        OOOOOOOO",
"OOOOOOOOOOOOOOOO........@@@@@@@@@@@@@@@@@@@@@@@@........OOOOOOOOOOOOOOOO........@@@@@@@@@@@@@@@@@@@@@@@@........        OOOOOOOO",
"OOOOOOOOOOOOOOOO........@@@@@@@@@@@@@@@@@@@@@@@@........OOOOOOOOOOOOOOOO........@@@@@@@@@@@@@@@@@@@@@@@@........        OOOOOOOO",
"OOOOOOOOOOOOOOOO........@@@@@@@@@@@@@@@@@@@@@@@@........OOOOOOOOOOOOOOOO........@@@@@@@@@@@@@@@@@@@@@@@@........        OOOOOOOO",
"OOOOOOOOOOOOOOOO........@@@@@@@@@@@@@@@@@@@@@@@@........OOOOOOOOOOOOOOOO........@@@@@@@@@@@@@@@@@@@@@@@@........        OOOOOOOO",
"OOOOOOOOOOOOOOOO........@@@@@@@@@@@@@@@@@@@@@@@@................................@@@@@@@@@@@@@@@@@@@@@@@@........OOOOOOOOOOOOOOOO",
"OOOOOOOOOOOOOOOO........@@@@@@@@@@@@@@@@@@@@@@@@................................@@@@@@@@@@@@@@@@@@@@@@@@........OOOOOOOOOOOOOOOO",
"OOOOOOOOOOOOOOOO........@@@@@@@@@@@@@@@@@@@@@@@@................................@@@@@@@@@@@@@@@@@@@@@@@@........OOOOOOOOOOOOOOOO",
"OOOOOOOOOOOOOOOO........@@@@@@@@@@@@@@@@@@@@@@@@................................@@@@@@@@@@@@@@@@@@@@@@@@........OOOOOOOOOOOOOOOO",
"OOOOOOOOOOOOOOOO........@@@@@@@@@@@@@@@@@@@@@@@@................................@@@@@@@@@@@@@@@@@@@@@@@@........OOOOOOOOOOOOOOOO",
"OOOOOOOOOOOOOOOO........@@@@@@@@@@@@@@@@@@@@@@@@................................@@@@@@@@@@@@@@@@@@@@@@@@........OOOOOOOOOOOOOOOO",
"OOOOOOOOOOOOOOOO........@@@@@@@@@@@@@@@@@@@@@@@@................................@@@@@@@@@@@@@@@@@@@@@@@@........OOOOOOOOOOOOOOOO",
"OOOOOOOOOOOOOOOO........@@@@@@@@@@@@@@@@@@@@@@@@................................@@@@@@@@@@@@@@@@@@@@@@@@........OOOOOOOOOOOOOOOO",
"OOOOOOOOOOOOOOOO........@@@@@@@@@@@@@@@@@@@@@@@@++++++++++++++++++++++++++++++++@@@@@@@@@@@@@@@@@@@@@@@@........OOOOOOOOOOOOOOOO",
"OOOOOOOOOOOOOOOO........@@@@@@@@@@@@@@@@@@@@@@@@++++++++++++++++++++++++++++++++@@@@@@@@@@@@@@@@@@@@@@@@........OOOOOOOOOOOOOOOO",
"OOOOOOOOOOOOOOOO........@@@@@@@@@@@@@@@@@@@@@@@@++++++++++++++++++++++++++++++++@@@@@@@@@@@@@@@@@@@@@@@@........OOOOOOOOOOOOOOOO",
"OOOOOOOOOOOOOOOO........@@@@@@@@@@@@@@@@@@@@@@@@++++++++++++++++++++++++++++++++@@@@@@@@@@@@@@@@@@@@@@@@........OOOOOOOOOOOOOOOO",
"OOOOOOOOOOOOOOOO........@@@@@@@@@@@@@@@@@@@@@@@@++++++++++++++++++++++++++++++++@@@@@@@@@@@@@@@@@@@@@@@@........OOOOOOOOOOOOOOOO",
"OOOOOOOOOOOOOOOO........@@@@@@@@@@@@@@@@@@@@@@@@++++++++++++++++++++++++++++++++@@@@@@@@@@@@@@@@@@@@@@@@........OOOOOOOOOOOOOOOO",
"OOOOOOOOOOOOOOOO........@@@@@@@@@@@@@@@@@@@@@@@@++++++++++++++++++++++++++++++++@@@@@@@@@@@@@@@@@@@@@@@@........OOOOOOOOOOOOOOOO",
"OOOOOOOOOOOOOOOO........@@@@@@@@@@@@@@@@@@@@@@@@++++++++++++++++++++++++++++++++@@@@@@@@@@@@@@@@@@@@@@@@........OOOOOOOOOOOOOOOO",
"OOOOOOOOOOOOOOOO........@@@@@@@@@@@@@@@@@@@@@@@@@@@@@@@@@@@@@@@@@@@@@@@@@@@@@@@@@@@@@@@@@@@@@@@@@@@@@@@@........OOOOOOOOOOOOOOOO",
"OOOOOOOOOOOOOOOO........@@@@@@@@@@@@@@@@@@@@@@@@@@@@@@@@@@@@@@@@@@@@@@@@@@@@@@@@@@@@@@@@@@@@@@@@@@@@@@@@........OOOOOOOOOOOOOOOO",
"OOOOOOOOOOOOOOOO........@@@@@@@@@@@@@@@@@@@@@@@@@@@@@@@@@@@@@@@@@@@@@@@@@@@@@@@@@@@@@@@@@@@@@@@@@@@@@@@@........OOOOOOOOOOOOOOOO",
"OOOOOOOOOOOOOOOO........@@@@@@@@@@@@@@@@@@@@@@@@@@@@@@@@@@@@@@@@@@@@@@@@@@@@@@@@@@@@@@@@@@@@@@@@@@@@@@@@........OOOOOOOOOOOOOOOO",
"OOOOOOOOOOOOOOOO........@@@@@@@@@@@@@@@@@@@@@@@@@@@@@@@@@@@@@@@@@@@@@@@@@@@@@@@@@@@@@@@@@@@@@@@@@@@@@@@@........OOOOOOOOOOOOOOOO",
"OOOOOOOOOOOOOOOO........@@@@@@@@@@@@@@@@@@@@@@@@@@@@@@@@@@@@@@@@@@@@@@@@@@@@@@@@@@@@@@@@@@@@@@@@@@@@@@@@........OOOOOOOOOOOOOOOO",
"OOOOOOOOOOOOOOOO........@@@@@@@@@@@@@@@@@@@@@@@@@@@@@@@@@@@@@@@@@@@@@@@@@@@@@@@@@@@@@@@@@@@@@@@@@@@@@@@@........OOOOOOOOOOOOOOOO",
"OOOOOOOOOOOOOOOO........@@@@@@@@@@@@@@@@@@@@@@@@@@@@@@@@@@@@@@@@@@@@@@@@@@@@@@@@@@@@@@@@@@@@@@@@@@@@@@@@........OOOOOOOOOOOOOOOO",
"OOOOOOOOOOOOOOOO........@@@@@@@@@@@@@@@@@@@@@@@@@@@@@@@@@@@@@@@@@@@@@@@@@@@@@@@@@@@@@@@@@@@@@@@@@@@@@@@@........OOOOOOOOOOOOOOOO",
"OOOOOOOOOOOOOOOO........@@@@@@@@@@@@@@@@@@@@@@@@@@@@@@@@@@@@@@@@@@@@@@@@@@@@@@@@@@@@@@@@@@@@@@@@@@@@@@@@........OOOOOOOOOOOOOOOO",
"OOOOOOOOOOOOOOOO........@@@@@@@@@@@@@@@@@@@@@@@@@@@@@@@@@@@@@@@@@@@@@@@@@@@@@@@@@@@@@@@@@@@@@@@@@@@@@@@@........OOOOOOOOOOOOOOOO",
"OOOOOOOOOOOOOOOO........@@@@@@@@@@@@@@@@@@@@@@@@@@@@@@@@@@@@@@@@@@@@@@@@@@@@@@@@@@@@@@@@@@@@@@@@@@@@@@@@........OOOOOOOOOOOOOOOO",
"OOOOOOOOOOOOOOOO........@@@@@@@@@@@@@@@@@@@@@@@@@@@@@@@@@@@@@@@@@@@@@@@@@@@@@@@@@@@@@@@@@@@@@@@@@@@@@@@@........OOOOOOOOOOOOOOOO",
"OOOOOOOOOOOOOOOO........@@@@@@@@@@@@@@@@@@@@@@@@@@@@@@@@@@@@@@@@@@@@@@@@@@@@@@@@@@@@@@@@@@@@@@@@@@@@@@@@........OOOOOOOOOOOOOOOO",
"OOOOOOOOOOOOOOOO........@@@@@@@@@@@@@@@@@@@@@@@@@@@@@@@@@@@@@@@@@@@@@@@@@@@@@@@@@@@@@@@@@@@@@@@@@@@@@@@@........OOOOOOOOOOOOOOOO",
"OOOOOOOOOOOOOOOO........@@@@@@@@@@@@@@@@@@@@@@@@@@@@@@@@@@@@@@@@@@@@@@@@@@@@@@@@@@@@@@@@@@@@@@@@@@@@@@@@........OOOOOOOOOOOOOOOO",
"OOOOOOOO................@@@@@@@@@@@@@@@@@@@@@@@@@@@@@@@@@@@@@@@@@@@@@@@@@@@@@@@@@@@@@@@@@@@@@@@@@@@@@@@@................OOOOOOOO",
"OOOOOOOO................@@@@@@@@@@@@@@@@@@@@@@@@@@@@@@@@@@@@@@@@@@@@@@@@@@@@@@@@@@@@@@@@@@@@@@@@@@@@@@@@................OOOOOOOO",
"OOOOOOOO................@@@@@@@@@@@@@@@@@@@@@@@@@@@@@@@@@@@@@@@@@@@@@@@@@@@@@@@@@@@@@@@@@@@@@@@@@@@@@@@@................OOOOOOOO",
"OOOOOOOO................@@@@@@@@@@@@@@@@@@@@@@@@@@@@@@@@@@@@@@@@@@@@@@@@@@@@@@@@@@@@@@@@@@@@@@@@@@@@@@@@................OOOOOOOO",
"OOOOOOOO................@@@@@@@@@@@@@@@@@@@@@@@@@@@@@@@@@@@@@@@@@@@@@@@@@@@@@@@@@@@@@@@@@@@@@@@@@@@@@@@@................OOOOOOOO",
"OOOOOOOO................@@@@@@@@@@@@@@@@@@@@@@@@@@@@@@@@@@@@@@@@@@@@@@@@@@@@@@@@@@@@@@@@@@@@@@@@@@@@@@@@................OOOOOOOO",
"OOOOOOOO................@@@@@@@@@@@@@@@@@@@@@@@@@@@@@@@@@@@@@@@@@@@@@@@@@@@@@@@@@@@@@@@@@@@@@@@@@@@@@@@@................OOOOOOOO",
"OOOOOOOO................@@@@@@@@@@@@@@@@@@@@@@@@@@@@@@@@@@@@@@@@@@@@@@@@@@@@@@@@@@@@@@@@@@@@@@@@@@@@@@@@................OOOOOOOO",
"OOOOOOOOOOOOOOOO........@@@@@@@@@@@@@@@@@@@@@@@@@@@@@@@@@@@@@@@@@@@@@@@@@@@@@@@@@@@@@@@@@@@@@@@@@@@@@@@@........OOOOOOOOOOOOOOOO",
"OOOOOOOOOOOOOOOO........@@@@@@@@@@@@@@@@@@@@@@@@@@@@@@@@@@@@@@@@@@@@@@@@@@@@@@@@@@@@@@@@@@@@@@@@@@@@@@@@........OOOOOOOOOOOOOOOO",
"OOOOOOOOOOOOOOOO........@@@@@@@@@@@@@@@@@@@@@@@@@@@@@@@@@@@@@@@@@@@@@@@@@@@@@@@@@@@@@@@@@@@@@@@@@@@@@@@@........OOOOOOOOOOOOOOOO",
"OOOOOOOOOOOOOOOO........@@@@@@@@@@@@@@@@@@@@@@@@@@@@@@@@@@@@@@@@@@@@@@@@@@@@@@@@@@@@@@@@@@@@@@@@@@@@@@@@........OOOOOOOOOOOOOOOO",
"OOOOOOOOOOOOOOOO........@@@@@@@@@@@@@@@@@@@@@@@@@@@@@@@@@@@@@@@@@@@@@@@@@@@@@@@@@@@@@@@@@@@@@@@@@@@@@@@@........OOOOOOOOOOOOOOOO",
"OOOOOOOOOOOOOOOO........@@@@@@@@@@@@@@@@@@@@@@@@@@@@@@@@@@@@@@@@@@@@@@@@@@@@@@@@@@@@@@@@@@@@@@@@@@@@@@@@........OOOOOOOOOOOOOOOO",
"OOOOOOOOOOOOOOOO........@@@@@@@@@@@@@@@@@@@@@@@@@@@@@@@@@@@@@@@@@@@@@@@@@@@@@@@@@@@@@@@@@@@@@@@@@@@@@@@@........OOOOOOOOOOOOOOOO",
"OOOOOOOOOOOOOOOO........@@@@@@@@@@@@@@@@@@@@@@@@@@@@@@@@@@@@@@@@@@@@@@@@@@@@@@@@@@@@@@@@@@@@@@@@@@@@@@@@........OOOOOOOOOOOOOOOO",
"OOOOOOOO................@@@@@@@@@@@@@@@@@@@@@@@@@@@@@@@@@@@@@@@@@@@@@@@@@@@@@@@@@@@@@@@@@@@@@@@@@@@@@@@@................OOOOOOOO",
"OOOOOOOO................@@@@@@@@@@@@@@@@@@@@@@@@@@@@@@@@@@@@@@@@@@@@@@@@@@@@@@@@@@@@@@@@@@@@@@@@@@@@@@@@................OOOOOOOO",
"OOOOOOOO................@@@@@@@@@@@@@@@@@@@@@@@@@@@@@@@@@@@@@@@@@@@@@@@@@@@@@@@@@@@@@@@@@@@@@@@@@@@@@@@@................OOOOOOOO",
"OOOOOOOO................@@@@@@@@@@@@@@@@@@@@@@@@@@@@@@@@@@@@@@@@@@@@@@@@@@@@@@@@@@@@@@@@@@@@@@@@@@@@@@@@................OOOOOOOO",
"OOOOOOOO................@@@@@@@@@@@@@@@@@@@@@@@@@@@@@@@@@@@@@@@@@@@@@@@@@@@@@@@@@@@@@@@@@@@@@@@@@@@@@@@@................OOOOOOOO",
"OOOOOOOO................@@@@@@@@@@@@@@@@@@@@@@@@@@@@@@@@@@@@@@@@@@@@@@@@@@@@@@@@@@@@@@@@@@@@@@@@@@@@@@@@................OOOOOOOO",
"OOOOOOOO................@@@@@@@@@@@@@@@@@@@@@@@@@@@@@@@@@@@@@@@@@@@@@@@@@@@@@@@@@@@@@@@@@@@@@@@@@@@@@@@@................OOOOOOOO",
"OOOOOOOO................@@@@@@@@@@@@@@@@@@@@@@@@@@@@@@@@@@@@@@@@@@@@@@@@@@@@@@@@@@@@@@@@@@@@@@@@@@@@@@@@................OOOOOOOO",
"OOOOOOOOOOOOOOOO........@@@@@@@@@@@@@@@@@@@@@@@@@@@@@@@@@@@@@@@@@@@@@@@@@@@@@@@@@@@@@@@@@@@@@@@@@@@@@@@@........OOOOOOOOOOOOOOOO",
"OOOOOOOOOOOOOOOO........@@@@@@@@@@@@@@@@@@@@@@@@@@@@@@@@@@@@@@@@@@@@@@@@@@@@@@@@@@@@@@@@@@@@@@@@@@@@@@@@........OOOOOOOOOOOOOOOO",
"OOOOOOOOOOOOOOOO........@@@@@@@@@@@@@@@@@@@@@@@@@@@@@@@@@@@@@@@@@@@@@@@@@@@@@@@@@@@@@@@@@@@@@@@@@@@@@@@@........OOOOOOOOOOOOOOOO",
"OOOOOOOOOOOOOOOO........@@@@@@@@@@@@@@@@@@@@@@@@@@@@@@@@@@@@@@@@@@@@@@@@@@@@@@@@@@@@@@@@@@@@@@@@@@@@@@@@........OOOOOOOOOOOOOOOO",
"OOOOOOOOOOOOOOOO........@@@@@@@@@@@@@@@@@@@@@@@@@@@@@@@@@@@@@@@@@@@@@@@@@@@@@@@@@@@@@@@@@@@@@@@@@@@@@@@@........OOOOOOOOOOOOOOOO",
"OOOOOOOOOOOOOOOO........@@@@@@@@@@@@@@@@@@@@@@@@@@@@@@@@@@@@@@@@@@@@@@@@@@@@@@@@@@@@@@@@@@@@@@@@@@@@@@@@........OOOOOOOOOOOOOOOO",
"OOOOOOOOOOOOOOOO........@@@@@@@@@@@@@@@@@@@@@@@@@@@@@@@@@@@@@@@@@@@@@@@@@@@@@@@@@@@@@@@@@@@@@@@@@@@@@@@@........OOOOOOOOOOOOOOOO",
"OOOOOOOOOOOOOOOO........@@@@@@@@@@@@@@@@@@@@@@@@@@@@@@@@@@@@@@@@@@@@@@@@@@@@@@@@@@@@@@@@@@@@@@@@@@@@@@@@........OOOOOOOOOOOOOOOO",
"OOOOOOOOOOOOOOOOOOOOOOOO................XXXXXXXXXXXXXXXXXXXXXXXXXXXXXXXXXXXXXXXXXXXXXXXX................OOOOOOOOOOOOOOOOOOOOOOOO",
"OOOOOOOOOOOOOOOOOOOOOOOO................XXXXXXXXXXXXXXXXXXXXXXXXXXXXXXXXXXXXXXXXXXXXXXXX................OOOOOOOOOOOOOOOOOOOOOOOO",
"OOOOOOOOOOOOOOOOOOOOOOOO................XXXXXXXXXXXXXXXXXXXXXXXXXXXXXXXXXXXXXXXXXXXXXXXX................OOOOOOOOOOOOOOOOOOOOOOOO",
"OOOOOOOOOOOOOOOOOOOOOOOO................XXXXXXXXXXXXXXXXXXXXXXXXXXXXXXXXXXXXXXXXXXXXXXXX................OOOOOOOOOOOOOOOOOOOOOOOO",
"OOOOOOOOOOOOOOOOOOOOOOOO................XXXXXXXXXXXXXXXXXXXXXXXXXXXXXXXXXXXXXXXXXXXXXXXX................OOOOOOOOOOOOOOOOOOOOOOOO",
"OOOOOOOOOOOOOOOOOOOOOOOO................XXXXXXXXXXXXXXXXXXXXXXXXXXXXXXXXXXXXXXXXXXXXXXXX................OOOOOOOOOOOOOOOOOOOOOOOO",
"OOOOOOOOOOOOOOOOOOOOOOOO................XXXXXXXXXXXXXXXXXXXXXXXXXXXXXXXXXXXXXXXXXXXXXXXX................OOOOOOOOOOOOOOOOOOOOOOOO",
"OOOOOOOOOOOOOOOOOOOOOOOO................XXXXXXXXXXXXXXXXXXXXXXXXXXXXXXXXXXXXXXXXXXXXXXXX................OOOOOOOOOOOOOOOOOOOOOOOO",
"OOOOOOOOOOOOOOOO........++++++++@@@@@@@@XXXXXXXXXXXXXXXX................XXXXXXXXXXXXXXXX@@@@@@@@++++++++........OOOOOOOOOOOOOOOO",
"OOOOOOOOOOOOOOOO........++++++++@@@@@@@@XXXXXXXXXXXXXXXX................XXXXXXXXXXXXXXXX@@@@@@@@++++++++........OOOOOOOOOOOOOOOO",
"OOOOOOOOOOOOOOOO........++++++++@@@@@@@@XXXXXXXXXXXXXXXX................XXXXXXXXXXXXXXXX@@@@@@@@++++++++........OOOOOOOOOOOOOOOO",
"OOOOOOOOOOOOOOOO........++++++++@@@@@@@@XXXXXXXXXXXXXXXX................XXXXXXXXXXXXXXXX@@@@@@@@++++++++........OOOOOOOOOOOOOOOO",
"OOOOOOOOOOOOOOOO........++++++++@@@@@@@@XXXXXXXXXXXXXXXX................XXXXXXXXXXXXXXXX@@@@@@@@++++++++........OOOOOOOOOOOOOOOO",
"OOOOOOOOOOOOOOOO........++++++++@@@@@@@@XXXXXXXXXXXXXXXX................XXXXXXXXXXXXXXXX@@@@@@@@++++++++........OOOOOOOOOOOOOOOO",
"OOOOOOOOOOOOOOOO........++++++++@@@@@@@@XXXXXXXXXXXXXXXX................XXXXXXXXXXXXXXXX@@@@@@@@++++++++........OOOOOOOOOOOOOOOO",
"OOOOOOOOOOOOOOOO........++++++++@@@@@@@@XXXXXXXXXXXXXXXX................XXXXXXXXXXXXXXXX@@@@@@@@++++++++........OOOOOOOOOOOOOOOO",
"OOOOOOOOOOOOOOOO........++++++++@@@@@@@@@@@@@@@@........@@@@@@@@@@@@@@@@........@@@@@@@@@@@@@@@@++++++++........OOOOOOOOOOOOOOOO",
"OOOOOOOOOOOOOOOO........++++++++@@@@@@@@@@@@@@@@........@@@@@@@@@@@@@@@@........@@@@@@@@@@@@@@@@++++++++........OOOOOOOOOOOOOOOO",
"OOOOOOOOOOOOOOOO........++++++++@@@@@@@@@@@@@@@@........@@@@@@@@@@@@@@@@........@@@@@@@@@@@@@@@@++++++++........OOOOOOOOOOOOOOOO",
"OOOOOOOOOOOOOOOO........++++++++@@@@@@@@@@@@@@@@........@@@@@@@@@@@@@@@@........@@@@@@@@@@@@@@@@++++++++........OOOOOOOOOOOOOOOO",
"OOOOOOOOOOOOOOOO........++++++++@@@@@@@@@@@@@@@@........@@@@@@@@@@@@@@@@........@@@@@@@@@@@@@@@@++++++++........OOOOOOOOOOOOOOOO",
"OOOOOOOOOOOOOOOO........++++++++@@@@@@@@@@@@@@@@........@@@@@@@@@@@@@@@@........@@@@@@@@@@@@@@@@++++++++........OOOOOOOOOOOOOOOO",
"OOOOOOOOOOOOOOOO........++++++++@@@@@@@@@@@@@@@@........@@@@@@@@@@@@@@@@........@@@@@@@@@@@@@@@@++++++++........OOOOOOOOOOOOOOOO",
"OOOOOOOOOOOOOOOO........++++++++@@@@@@@@@@@@@@@@........@@@@@@@@@@@@@@@@........@@@@@@@@@@@@@@@@++++++++........OOOOOOOOOOOOOOOO",
"OOOOOOOOOOOOOOOOOOOOOOOO................@@@@@@@@@@@@@@@@@@@@@@@@@@@@@@@@@@@@@@@@@@@@@@@@................OOOOOOOOOOOOOOOOOOOOOOOO",
"OOOOOOOOOOOOOOOOOOOOOOOO................@@@@@@@@@@@@@@@@@@@@@@@@@@@@@@@@@@@@@@@@@@@@@@@@................OOOOOOOOOOOOOOOOOOOOOOOO",
"OOOOOOOOOOOOOOOOOOOOOOOO................@@@@@@@@@@@@@@@@@@@@@@@@@@@@@@@@@@@@@@@@@@@@@@@@................OOOOOOOOOOOOOOOOOOOOOOOO",
"OOOOOOOOOOOOOOOOOOOOOOOO................@@@@@@@@@@@@@@@@@@@@@@@@@@@@@@@@@@@@@@@@@@@@@@@@................OOOOOOOOOOOOOOOOOOOOOOOO",
"OOOOOOOOOOOOOOOOOOOOOOOO................@@@@@@@@@@@@@@@@@@@@@@@@@@@@@@@@@@@@@@@@@@@@@@@@................OOOOOOOOOOOOOOOOOOOOOOOO",
"OOOOOOOOOOOOOOOOOOOOOOOO................@@@@@@@@@@@@@@@@@@@@@@@@@@@@@@@@@@@@@@@@@@@@@@@@................OOOOOOOOOOOOOOOOOOOOOOOO",
"OOOOOOOOOOOOOOOOOOOOOOOO................@@@@@@@@@@@@@@@@@@@@@@@@@@@@@@@@@@@@@@@@@@@@@@@@................OOOOOOOOOOOOOOOOOOOOOOOO",
"OOOOOOOOOOOOOOOOOOOOOOOO................@@@@@@@@@@@@@@@@@@@@@@@@@@@@@@@@@@@@@@@@@@@@@@@@................OOOOOOOOOOOOOOOOOOOOOOOO",
"OOOOOOOOOOOOOOOOOOOOOOOOOOOOOOOO........++++++++++++++++................++++++++++++++++........OOOOOOOOOOOOOOOOOOOOOOOOoooooooo",
"OOOOOOOOOOOOOOOOOOOOOOOOOOOOOOOO........++++++++++++++++................++++++++++++++++........OOOOOOOOOOOOOOOOOOOOOOOOoooooooo",
"OOOOOOOOOOOOOOOOOOOOOOOOOOOOOOOO........++++++++++++++++................++++++++++++++++........OOOOOOOOOOOOOOOOOOOOOOOOoooooooo",
"OOOOOOOOOOOOOOOOOOOOOOOOOOOOOOOO........++++++++++++++++................++++++++++++++++........OOOOOOOOOOOOOOOOOOOOOOOOoooooooo",
"OOOOOOOOOOOOOOOOOOOOOOOOOOOOOOOO........++++++++++++++++................++++++++++++++++........OOOOOOOOOOOOOOOOOOOOOOOOoooooooo",
"OOOOOOOOOOOOOOOOOOOOOOOOOOOOOOOO........++++++++++++++++................++++++++++++++++........OOOOOOOOOOOOOOOOOOOOOOOOoooooooo",
"OOOOOOOOOOOOOOOOOOOOOOOOOOOOOOOO........++++++++++++++++................++++++++++++++++........OOOOOOOOOOOOOOOOOOOOOOOOoooooooo",
"OOOOOOOOOOOOOOOOOOOOOOOOOOOOOOOO........++++++++++++++++................++++++++++++++++........OOOOOOOOOOOOOOOOOOOOOOOOoooooooo",
"OOOOOOOOOOOOOOOOOOOOOOOOOOOOOOOOOOOOOOOO................OOOOOOOOOOOOOOOO................OOOOOOOOOOOOOOOOOOOOOOOOOOOOOOOOOOOOOOOO",
"OOOOOOOOOOOOOOOOOOOOOOOOOOOOOOOOOOOOOOOO................OOOOOOOOOOOOOOOO................OOOOOOOOOOOOOOOOOOOOOOOOOOOOOOOOOOOOOOOO",
"OOOOOOOOOOOOOOOOOOOOOOOOOOOOOOOOOOOOOOOO................OOOOOOOOOOOOOOOO................OOOOOOOOOOOOOOOOOOOOOOOOOOOOOOOOOOOOOOOO",
"OOOOOOOOOOOOOOOOOOOOOOOOOOOOOOOOOOOOOOOO................OOOOOOOOOOOOOOOO................OOOOOOOOOOOOOOOOOOOOOOOOOOOOOOOOOOOOOOOO",
"OOOOOOOOOOOOOOOOOOOOOOOOOOOOOOOOOOOOOOOO................OOOOOOOOOOOOOOOO................OOOOOOOOOOOOOOOOOOOOOOOOOOOOOOOOOOOOOOOO",
"OOOOOOOOOOOOOOOOOOOOOOOOOOOOOOOOOOOOOOOO................OOOOOOOOOOOOOOOO................OOOOOOOOOOOOOOOOOOOOOOOOOOOOOOOOOOOOOOOO",
"OOOOOOOOOOOOOOOOOOOOOOOOOOOOOOOOOOOOOOOO................OOOOOOOOOOOOOOOO................OOOOOOOOOOOOOOOOOOOOOOOOOOOOOOOOOOOOOOOO",
"OOOOOOOOOOOOOOOOOOOOOOOOOOOOOOOOOOOOOOOO................OOOOOOOOOOOOOOOO................OOOOOOOOOOOOOOOOOOOOOOOOOOOOOOOOOOOOOOOO"
};
