/* XPM */
static char *char_front_2_bg1705689242[] = {
/* columns rows colors chars-per-pixel */
"128 128 12 1 ",
"  c #A8BF65",
". c #ECE47C",
"X c #5C4C94",
"o c #746CAC",
"O c #DCBC8C",
"+ c #ECB4AC",
"@ c #ECCCA4",
"# c #ECDCB4",
"$ c #DCD4DC",
"% c #F4DCC4",
"& c #ECECC8",
"* c #F4F4C4",
/* pixels */
"@@@@@@@@@@@@@@@@XXXXXXXXXXXXXXXXXXXXXXXXXXXXXXXX@@@@@@@@@@@@@@@@@@@@@@@@@@@@@@@@@@@@@@@@XXXXXXXXXXXXXXXXXXXXXXXX        @@@@@@@@",
"@@@@@@@@@@@@@@@@XXXXXXXXXXXXXXXXXXXXXXXXXXXXXXXX@@@@@@@@@@@@@@@@@@@@@@@@@@@@@@@@@@@@@@@@XXXXXXXXXXXXXXXXXXXXXXXX        @@@@@@@@",
"@@@@@@@@@@@@@@@@XXXXXXXXXXXXXXXXXXXXXXXXXXXXXXXX@@@@@@@@@@@@@@@@@@@@@@@@@@@@@@@@@@@@@@@@XXXXXXXXXXXXXXXXXXXXXXXX        @@@@@@@@",
"@@@@@@@@@@@@@@@@XXXXXXXXXXXXXXXXXXXXXXXXXXXXXXXX@@@@@@@@@@@@@@@@@@@@@@@@@@@@@@@@@@@@@@@@XXXXXXXXXXXXXXXXXXXXXXXX        @@@@@@@@",
"@@@@@@@@@@@@@@@@XXXXXXXXXXXXXXXXXXXXXXXXXXXXXXXX@@@@@@@@@@@@@@@@@@@@@@@@@@@@@@@@@@@@@@@@XXXXXXXXXXXXXXXXXXXXXXXX        @@@@@@@@",
"@@@@@@@@@@@@@@@@XXXXXXXXXXXXXXXXXXXXXXXXXXXXXXXX@@@@@@@@@@@@@@@@@@@@@@@@@@@@@@@@@@@@@@@@XXXXXXXXXXXXXXXXXXXXXXXX        @@@@@@@@",
"@@@@@@@@@@@@@@@@XXXXXXXXXXXXXXXXXXXXXXXXXXXXXXXX@@@@@@@@@@@@@@@@@@@@@@@@@@@@@@@@@@@@@@@@XXXXXXXXXXXXXXXXXXXXXXXX        @@@@@@@@",
"@@@@@@@@@@@@@@@@XXXXXXXXXXXXXXXXXXXXXXXXXXXXXXXX@@@@@@@@@@@@@@@@@@@@@@@@@@@@@@@@@@@@@@@@XXXXXXXXXXXXXXXXXXXXXXXX        @@@@@@@@",
"@@@@@@@@XXXXXXXX************************XXXXXXXXXXXXXXXXXXXXXXXXXXXXXXXXXXXXXXXXXXXXXXXX************************XXXXXXXX@@@@@@@@",
"@@@@@@@@XXXXXXXX************************XXXXXXXXXXXXXXXXXXXXXXXXXXXXXXXXXXXXXXXXXXXXXXXX************************XXXXXXXX@@@@@@@@",
"@@@@@@@@XXXXXXXX************************XXXXXXXXXXXXXXXXXXXXXXXXXXXXXXXXXXXXXXXXXXXXXXXX************************XXXXXXXX@@@@@@@@",
"@@@@@@@@XXXXXXXX************************XXXXXXXXXXXXXXXXXXXXXXXXXXXXXXXXXXXXXXXXXXXXXXXX************************XXXXXXXX@@@@@@@@",
"@@@@@@@@XXXXXXXX************************XXXXXXXXXXXXXXXXXXXXXXXXXXXXXXXXXXXXXXXXXXXXXXXX************************XXXXXXXX@@@@@@@@",
"@@@@@@@@XXXXXXXX************************XXXXXXXXXXXXXXXXXXXXXXXXXXXXXXXXXXXXXXXXXXXXXXXX************************XXXXXXXX@@@@@@@@",
"@@@@@@@@XXXXXXXX************************XXXXXXXXXXXXXXXXXXXXXXXXXXXXXXXXXXXXXXXXXXXXXXXX************************XXXXXXXX@@@@@@@@",
"@@@@@@@@XXXXXXXX************************XXXXXXXXXXXXXXXXXXXXXXXXXXXXXXXXXXXXXXXXXXXXXXXX************************XXXXXXXX@@@@@@@@",
"@@@@@@@@XXXXXXXX++++++++++++++++****************$$$$$$$$$$$$$$$$$$$$$$$$$$$$$$$$****************++++++++++++++++XXXXXXXX@@@@@@@@",
"@@@@@@@@XXXXXXXX++++++++++++++++****************$$$$$$$$$$$$$$$$$$$$$$$$$$$$$$$$****************++++++++++++++++XXXXXXXX@@@@@@@@",
"@@@@@@@@XXXXXXXX++++++++++++++++****************$$$$$$$$$$$$$$$$$$$$$$$$$$$$$$$$****************++++++++++++++++XXXXXXXX@@@@@@@@",
"@@@@@@@@XXXXXXXX++++++++++++++++****************$$$$$$$$$$$$$$$$$$$$$$$$$$$$$$$$****************++++++++++++++++XXXXXXXX@@@@@@@@",
"@@@@@@@@XXXXXXXX++++++++++++++++****************$$$$$$$$$$$$$$$$$$$$$$$$$$$$$$$$****************++++++++++++++++XXXXXXXX@@@@@@@@",
"@@@@@@@@XXXXXXXX++++++++++++++++****************$$$$$$$$$$$$$$$$$$$$$$$$$$$$$$$$****************++++++++++++++++XXXXXXXX@@@@@@@@",
"@@@@@@@@XXXXXXXX++++++++++++++++****************$$$$$$$$$$$$$$$$$$$$$$$$$$$$$$$$****************++++++++++++++++XXXXXXXX@@@@@@@@",
"@@@@@@@@XXXXXXXX++++++++++++++++****************$$$$$$$$$$$$$$$$$$$$$$$$$$$$$$$$****************++++++++++++++++XXXXXXXX@@@@@@@@",
"@@@@@@@@XXXXXXXX++++++++++++++++****************$$$$$$$$$$$$$$$$$$$$$$$$$$$$$$$$****************++++++++++++++++XXXXXXXX@@@@@@@@",
"@@@@@@@@XXXXXXXX++++++++++++++++****************$$$$$$$$$$$$$$$$$$$$$$$$$$$$$$$$****************++++++++++++++++XXXXXXXX@@@@@@@@",
"@@@@@@@@XXXXXXXX++++++++++++++++****************$$$$$$$$$$$$$$$$$$$$$$$$$$$$$$$$****************++++++++++++++++XXXXXXXX@@@@@@@@",
"@@@@@@@@XXXXXXXX++++++++++++++++****************$$$$$$$$$$$$$$$$$$$$$$$$$$$$$$$$****************++++++++++++++++XXXXXXXX@@@@@@@@",
"@@@@@@@@XXXXXXXX++++++++++++++++****************$$$$$$$$$$$$$$$$$$$$$$$$$$$$$$$$****************++++++++++++++++XXXXXXXX@@@@@@@@",
"@@@@@@@@XXXXXXXX++++++++++++++++****************$$$$$$$$$$$$$$$$$$$$$$$$$$$$$$$$****************++++++++++++++++XXXXXXXX@@@@@@@@",
"@@@@@@@@XXXXXXXX++++++++++++++++****************$$$$$$$$$$$$$$$$$$$$$$$$$$$$$$$$****************++++++++++++++++XXXXXXXX@@@@@@@@",
"@@@@@@@@XXXXXXXX++++++++++++++++****************$$$$$$$$$$$$$$$$$$$$$$$$$$$$$$$$****************++++++++++++++++XXXXXXXX@@@@@@@@",
"@@@@@@@@@@@@@@@@XXXXXXXX************************$$$$$$$$$$$$$$$$$$$$$$$$$$$$$$$$************************XXXXXXXX@@@@@@@@@@@@@@@@",
"@@@@@@@@@@@@@@@@XXXXXXXX************************$$$$$$$$$$$$$$$$$$$$$$$$$$$$$$$$************************XXXXXXXX@@@@@@@@@@@@@@@@",
"@@@@@@@@@@@@@@@@XXXXXXXX************************$$$$$$$$$$$$$$$$$$$$$$$$$$$$$$$$************************XXXXXXXX@@@@@@@@@@@@@@@@",
"@@@@@@@@@@@@@@@@XXXXXXXX************************$$$$$$$$$$$$$$$$$$$$$$$$$$$$$$$$************************XXXXXXXX@@@@@@@@@@@@@@@@",
"@@@@@@@@@@@@@@@@XXXXXXXX************************$$$$$$$$$$$$$$$$$$$$$$$$$$$$$$$$************************XXXXXXXX@@@@@@@@@@@@@@@@",
"@@@@@@@@@@@@@@@@XXXXXXXX************************$$$$$$$$$$$$$$$$$$$$$$$$$$$$$$$$************************XXXXXXXX@@@@@@@@@@@@@@@@",
"@@@@@@@@@@@@@@@@XXXXXXXX************************$$$$$$$$$$$$$$$$$$$$$$$$$$$$$$$$************************XXXXXXXX@@@@@@@@@@@@@@@@",
"@@@@@@@@@@@@@@@@XXXXXXXX************************$$$$$$$$$$$$$$$$$$$$$$$$$$$$$$$$************************XXXXXXXX@@@@@@@@@@@@@@@@",
"@@@@@@@@XXXXXXXXXXXXXXXX********************************************************************************XXXXXXXXXXXXXXXX@@@@@@@@",
"@@@@@@@@XXXXXXXXXXXXXXXX********************************************************************************XXXXXXXXXXXXXXXX@@@@@@@@",
"@@@@@@@@XXXXXXXXXXXXXXXX********************************************************************************XXXXXXXXXXXXXXXX@@@@@@@@",
"@@@@@@@@XXXXXXXXXXXXXXXX********************************************************************************XXXXXXXXXXXXXXXX@@@@@@@@",
"@@@@@@@@XXXXXXXXXXXXXXXX********************************************************************************XXXXXXXXXXXXXXXX@@@@@@@@",
"@@@@@@@@XXXXXXXXXXXXXXXX********************************************************************************XXXXXXXXXXXXXXXX@@@@@@@@",
"@@@@@@@@XXXXXXXXXXXXXXXX********************************************************************************XXXXXXXXXXXXXXXX@@@@@@@@",
"@@@@@@@@XXXXXXXXXXXXXXXX********************************************************************************XXXXXXXXXXXXXXXX@@@@@@@@",
"@@@@@@@@@@@@@@@@XXXXXXXX********XXXXXXXX************************************************XXXXXXXX********XXXXXXXX@@@@@@@@@@@@@@@@",
"@@@@@@@@@@@@@@@@XXXXXXXX********XXXXXXXX************************************************XXXXXXXX********XXXXXXXX@@@@@@@@@@@@@@@@",
"@@@@@@@@@@@@@@@@XXXXXXXX********XXXXXXXX************************************************XXXXXXXX********XXXXXXXX@@@@@@@@@@@@@@@@",
"@@@@@@@@@@@@@@@@XXXXXXXX********XXXXXXXX************************************************XXXXXXXX********XXXXXXXX@@@@@@@@@@@@@@@@",
"@@@@@@@@@@@@@@@@XXXXXXXX********XXXXXXXX************************************************XXXXXXXX********XXXXXXXX@@@@@@@@@@@@@@@@",
"@@@@@@@@@@@@@@@@XXXXXXXX********XXXXXXXX************************************************XXXXXXXX********XXXXXXXX@@@@@@@@@@@@@@@@",
"@@@@@@@@@@@@@@@@XXXXXXXX********XXXXXXXX************************************************XXXXXXXX********XXXXXXXX@@@@@@@@@@@@@@@@",
"@@@@@@@@@@@@@@@@XXXXXXXX********XXXXXXXX************************************************XXXXXXXX********XXXXXXXX@@@@@@@@@@@@@@@@",
"@@@@@@@@XXXXXXXXXXXXXXXX********************************************************************************XXXXXXXXXXXXXXXX@@@@@@@@",
"@@@@@@@@XXXXXXXXXXXXXXXX********************************************************************************XXXXXXXXXXXXXXXX@@@@@@@@",
"@@@@@@@@XXXXXXXXXXXXXXXX********************************************************************************XXXXXXXXXXXXXXXX@@@@@@@@",
"@@@@@@@@XXXXXXXXXXXXXXXX********************************************************************************XXXXXXXXXXXXXXXX@@@@@@@@",
"@@@@@@@@XXXXXXXXXXXXXXXX********************************************************************************XXXXXXXXXXXXXXXX@@@@@@@@",
"@@@@@@@@XXXXXXXXXXXXXXXX********************************************************************************XXXXXXXXXXXXXXXX@@@@@@@@",
"@@@@@@@@XXXXXXXXXXXXXXXX********************************************************************************XXXXXXXXXXXXXXXX@@@@@@@@",
"@@@@@@@@XXXXXXXXXXXXXXXX********************************************************************************XXXXXXXXXXXXXXXX@@@@@@@@",
"@@@@@@@@@@@@@@@@XXXXXXXX%%%%%%%%%%%%%%%%************************************************%%%%%%%%%%%%%%%%XXXXXXXX@@@@@@@@@@@@@@@@",
"@@@@@@@@@@@@@@@@XXXXXXXX%%%%%%%%%%%%%%%%************************************************%%%%%%%%%%%%%%%%XXXXXXXX@@@@@@@@@@@@@@@@",
"@@@@@@@@@@@@@@@@XXXXXXXX%%%%%%%%%%%%%%%%************************************************%%%%%%%%%%%%%%%%XXXXXXXX@@@@@@@@@@@@@@@@",
"@@@@@@@@@@@@@@@@XXXXXXXX%%%%%%%%%%%%%%%%************************************************%%%%%%%%%%%%%%%%XXXXXXXX@@@@@@@@@@@@@@@@",
"@@@@@@@@@@@@@@@@XXXXXXXX%%%%%%%%%%%%%%%%************************************************%%%%%%%%%%%%%%%%XXXXXXXX@@@@@@@@@@@@@@@@",
"@@@@@@@@@@@@@@@@XXXXXXXX%%%%%%%%%%%%%%%%************************************************%%%%%%%%%%%%%%%%XXXXXXXX@@@@@@@@@@@@@@@@",
"@@@@@@@@@@@@@@@@XXXXXXXX%%%%%%%%%%%%%%%%************************************************%%%%%%%%%%%%%%%%XXXXXXXX@@@@@@@@@@@@@@@@",
"@@@@@@@@@@@@@@@@XXXXXXXX%%%%%%%%%%%%%%%%************************************************%%%%%%%%%%%%%%%%XXXXXXXX@@@@@@@@@@@@@@@@",
"@@@@@@@@@@@@@@@@@@@@@@@@XXXXXXXXXXXXXXXXooooooooooooooooooooooooooooooooooooooooooooooooXXXXXXXXXXXXXXXX@@@@@@@@@@@@@@@@@@@@@@@@",
"@@@@@@@@@@@@@@@@@@@@@@@@XXXXXXXXXXXXXXXXooooooooooooooooooooooooooooooooooooooooooooooooXXXXXXXXXXXXXXXX@@@@@@@@@@@@@@@@@@@@@@@@",
"@@@@@@@@@@@@@@@@@@@@@@@@XXXXXXXXXXXXXXXXooooooooooooooooooooooooooooooooooooooooooooooooXXXXXXXXXXXXXXXX@@@@@@@@@@@@@@@@@@@@@@@@",
"@@@@@@@@@@@@@@@@@@@@@@@@XXXXXXXXXXXXXXXXooooooooooooooooooooooooooooooooooooooooooooooooXXXXXXXXXXXXXXXX@@@@@@@@@@@@@@@@@@@@@@@@",
"@@@@@@@@@@@@@@@@@@@@@@@@XXXXXXXXXXXXXXXXooooooooooooooooooooooooooooooooooooooooooooooooXXXXXXXXXXXXXXXX@@@@@@@@@@@@@@@@@@@@@@@@",
"@@@@@@@@@@@@@@@@@@@@@@@@XXXXXXXXXXXXXXXXooooooooooooooooooooooooooooooooooooooooooooooooXXXXXXXXXXXXXXXX@@@@@@@@@@@@@@@@@@@@@@@@",
"@@@@@@@@@@@@@@@@@@@@@@@@XXXXXXXXXXXXXXXXooooooooooooooooooooooooooooooooooooooooooooooooXXXXXXXXXXXXXXXX@@@@@@@@@@@@@@@@@@@@@@@@",
"@@@@@@@@@@@@@@@@@@@@@@@@XXXXXXXXXXXXXXXXooooooooooooooooooooooooooooooooooooooooooooooooXXXXXXXXXXXXXXXX@@@@@@@@@@@@@@@@@@@@@@@@",
"@@@@@@@@@@@@@@@@@@@@@@@@@@@@@@@@XXXXXXXXoooooooooooooooo........&&&&&&&&ooooooooooooooooXXXXXXXX@@@@@@@@@@@@@@@@@@@@@@@@@@@@@@@@",
"@@@@@@@@@@@@@@@@@@@@@@@@@@@@@@@@XXXXXXXXoooooooooooooooo........&&&&&&&&ooooooooooooooooXXXXXXXX@@@@@@@@@@@@@@@@@@@@@@@@@@@@@@@@",
"@@@@@@@@@@@@@@@@@@@@@@@@@@@@@@@@XXXXXXXXoooooooooooooooo........&&&&&&&&ooooooooooooooooXXXXXXXX@@@@@@@@@@@@@@@@@@@@@@@@@@@@@@@@",
"@@@@@@@@@@@@@@@@@@@@@@@@@@@@@@@@XXXXXXXXoooooooooooooooo........&&&&&&&&ooooooooooooooooXXXXXXXX@@@@@@@@@@@@@@@@@@@@@@@@@@@@@@@@",
"@@@@@@@@@@@@@@@@@@@@@@@@@@@@@@@@XXXXXXXXoooooooooooooooo........&&&&&&&&ooooooooooooooooXXXXXXXX@@@@@@@@@@@@@@@@@@@@@@@@@@@@@@@@",
"@@@@@@@@@@@@@@@@@@@@@@@@@@@@@@@@XXXXXXXXoooooooooooooooo........&&&&&&&&ooooooooooooooooXXXXXXXX@@@@@@@@@@@@@@@@@@@@@@@@@@@@@@@@",
"@@@@@@@@@@@@@@@@@@@@@@@@@@@@@@@@XXXXXXXXoooooooooooooooo........&&&&&&&&ooooooooooooooooXXXXXXXX@@@@@@@@@@@@@@@@@@@@@@@@@@@@@@@@",
"@@@@@@@@@@@@@@@@@@@@@@@@@@@@@@@@XXXXXXXXoooooooooooooooo........&&&&&&&&ooooooooooooooooXXXXXXXX@@@@@@@@@@@@@@@@@@@@@@@@@@@@@@@@",
"@@@@@@@@@@@@@@@@@@@@@@@@XXXXXXXX$$$$$$$$****************................****************$$$$$$$$XXXXXXXX########@@@@@@@@@@@@@@@@",
"@@@@@@@@@@@@@@@@@@@@@@@@XXXXXXXX$$$$$$$$****************................****************$$$$$$$$XXXXXXXX########@@@@@@@@@@@@@@@@",
"@@@@@@@@@@@@@@@@@@@@@@@@XXXXXXXX$$$$$$$$****************................****************$$$$$$$$XXXXXXXX########@@@@@@@@@@@@@@@@",
"@@@@@@@@@@@@@@@@@@@@@@@@XXXXXXXX$$$$$$$$****************................****************$$$$$$$$XXXXXXXX########@@@@@@@@@@@@@@@@",
"@@@@@@@@@@@@@@@@@@@@@@@@XXXXXXXX$$$$$$$$****************................****************$$$$$$$$XXXXXXXX########@@@@@@@@@@@@@@@@",
"@@@@@@@@@@@@@@@@@@@@@@@@XXXXXXXX$$$$$$$$****************................****************$$$$$$$$XXXXXXXX########@@@@@@@@@@@@@@@@",
"@@@@@@@@@@@@@@@@@@@@@@@@XXXXXXXX$$$$$$$$****************................****************$$$$$$$$XXXXXXXX########@@@@@@@@@@@@@@@@",
"@@@@@@@@@@@@@@@@@@@@@@@@XXXXXXXX$$$$$$$$****************................****************$$$$$$$$XXXXXXXX########@@@@@@@@@@@@@@@@",
"@@@@@@@@@@@@@@@@        XXXXXXXX$$$$$$$$************************************************$$$$$$$$XXXXXXXX@@@@@@@@@@@@@@@@@@@@@@@@",
"@@@@@@@@@@@@@@@@        XXXXXXXX$$$$$$$$************************************************$$$$$$$$XXXXXXXX@@@@@@@@@@@@@@@@@@@@@@@@",
"@@@@@@@@@@@@@@@@        XXXXXXXX$$$$$$$$************************************************$$$$$$$$XXXXXXXX@@@@@@@@@@@@@@@@@@@@@@@@",
"@@@@@@@@@@@@@@@@        XXXXXXXX$$$$$$$$************************************************$$$$$$$$XXXXXXXX@@@@@@@@@@@@@@@@@@@@@@@@",
"@@@@@@@@@@@@@@@@        XXXXXXXX$$$$$$$$************************************************$$$$$$$$XXXXXXXX@@@@@@@@@@@@@@@@@@@@@@@@",
"@@@@@@@@@@@@@@@@        XXXXXXXX$$$$$$$$************************************************$$$$$$$$XXXXXXXX@@@@@@@@@@@@@@@@@@@@@@@@",
"@@@@@@@@@@@@@@@@        XXXXXXXX$$$$$$$$************************************************$$$$$$$$XXXXXXXX@@@@@@@@@@@@@@@@@@@@@@@@",
"@@@@@@@@@@@@@@@@        XXXXXXXX$$$$$$$$************************************************$$$$$$$$XXXXXXXX@@@@@@@@@@@@@@@@@@@@@@@@",
"@@@@@@@@@@@@@@@@@@@@@@@@        XXXXXXXX************************************************XXXXXXXX@@@@@@@@@@@@@@@@@@@@@@@@@@@@@@@@",
"@@@@@@@@@@@@@@@@@@@@@@@@        XXXXXXXX************************************************XXXXXXXX@@@@@@@@@@@@@@@@@@@@@@@@@@@@@@@@",
"@@@@@@@@@@@@@@@@@@@@@@@@        XXXXXXXX************************************************XXXXXXXX@@@@@@@@@@@@@@@@@@@@@@@@@@@@@@@@",
"@@@@@@@@@@@@@@@@@@@@@@@@        XXXXXXXX************************************************XXXXXXXX@@@@@@@@@@@@@@@@@@@@@@@@@@@@@@@@",
"@@@@@@@@@@@@@@@@@@@@@@@@        XXXXXXXX************************************************XXXXXXXX@@@@@@@@@@@@@@@@@@@@@@@@@@@@@@@@",
"@@@@@@@@@@@@@@@@@@@@@@@@        XXXXXXXX************************************************XXXXXXXX@@@@@@@@@@@@@@@@@@@@@@@@@@@@@@@@",
"@@@@@@@@@@@@@@@@@@@@@@@@        XXXXXXXX************************************************XXXXXXXX@@@@@@@@@@@@@@@@@@@@@@@@@@@@@@@@",
"@@@@@@@@@@@@@@@@@@@@@@@@        XXXXXXXX************************************************XXXXXXXX@@@@@@@@@@@@@@@@@@@@@@@@@@@@@@@@",
"@@@@@@@@@@@@@@@@@@@@@@@@@@@@@@@@XXXXXXXX$$$$$$$$$$$$$$$$XXXXXXXXXXXXXXXX$$$$$$$$$$$$$$$$XXXXXXXX@@@@@@@@@@@@@@@@@@@@@@@@OOOOOOOO",
"@@@@@@@@@@@@@@@@@@@@@@@@@@@@@@@@XXXXXXXX$$$$$$$$$$$$$$$$XXXXXXXXXXXXXXXX$$$$$$$$$$$$$$$$XXXXXXXX@@@@@@@@@@@@@@@@@@@@@@@@OOOOOOOO",
"@@@@@@@@@@@@@@@@@@@@@@@@@@@@@@@@XXXXXXXX$$$$$$$$$$$$$$$$XXXXXXXXXXXXXXXX$$$$$$$$$$$$$$$$XXXXXXXX@@@@@@@@@@@@@@@@@@@@@@@@OOOOOOOO",
"@@@@@@@@@@@@@@@@@@@@@@@@@@@@@@@@XXXXXXXX$$$$$$$$$$$$$$$$XXXXXXXXXXXXXXXX$$$$$$$$$$$$$$$$XXXXXXXX@@@@@@@@@@@@@@@@@@@@@@@@OOOOOOOO",
"@@@@@@@@@@@@@@@@@@@@@@@@@@@@@@@@XXXXXXXX$$$$$$$$$$$$$$$$XXXXXXXXXXXXXXXX$$$$$$$$$$$$$$$$XXXXXXXX@@@@@@@@@@@@@@@@@@@@@@@@OOOOOOOO",
"@@@@@@@@@@@@@@@@@@@@@@@@@@@@@@@@XXXXXXXX$$$$$$$$$$$$$$$$XXXXXXXXXXXXXXXX$$$$$$$$$$$$$$$$XXXXXXXX@@@@@@@@@@@@@@@@@@@@@@@@OOOOOOOO",
"@@@@@@@@@@@@@@@@@@@@@@@@@@@@@@@@XXXXXXXX$$$$$$$$$$$$$$$$XXXXXXXXXXXXXXXX$$$$$$$$$$$$$$$$XXXXXXXX@@@@@@@@@@@@@@@@@@@@@@@@OOOOOOOO",
"@@@@@@@@@@@@@@@@@@@@@@@@@@@@@@@@XXXXXXXX$$$$$$$$$$$$$$$$XXXXXXXXXXXXXXXX$$$$$$$$$$$$$$$$XXXXXXXX@@@@@@@@@@@@@@@@@@@@@@@@OOOOOOOO",
"@@@@@@@@@@@@@@@@@@@@@@@@@@@@@@@@@@@@@@@@XXXXXXXXXXXXXXXX@@@@@@@@@@@@@@@@XXXXXXXXXXXXXXXX@@@@@@@@@@@@@@@@@@@@@@@@@@@@@@@@@@@@@@@@",
"@@@@@@@@@@@@@@@@@@@@@@@@@@@@@@@@@@@@@@@@XXXXXXXXXXXXXXXX@@@@@@@@@@@@@@@@XXXXXXXXXXXXXXXX@@@@@@@@@@@@@@@@@@@@@@@@@@@@@@@@@@@@@@@@",
"@@@@@@@@@@@@@@@@@@@@@@@@@@@@@@@@@@@@@@@@XXXXXXXXXXXXXXXX@@@@@@@@@@@@@@@@XXXXXXXXXXXXXXXX@@@@@@@@@@@@@@@@@@@@@@@@@@@@@@@@@@@@@@@@",
"@@@@@@@@@@@@@@@@@@@@@@@@@@@@@@@@@@@@@@@@XXXXXXXXXXXXXXXX@@@@@@@@@@@@@@@@XXXXXXXXXXXXXXXX@@@@@@@@@@@@@@@@@@@@@@@@@@@@@@@@@@@@@@@@",
"@@@@@@@@@@@@@@@@@@@@@@@@@@@@@@@@@@@@@@@@XXXXXXXXXXXXXXXX@@@@@@@@@@@@@@@@XXXXXXXXXXXXXXXX@@@@@@@@@@@@@@@@@@@@@@@@@@@@@@@@@@@@@@@@",
"@@@@@@@@@@@@@@@@@@@@@@@@@@@@@@@@@@@@@@@@XXXXXXXXXXXXXXXX@@@@@@@@@@@@@@@@XXXXXXXXXXXXXXXX@@@@@@@@@@@@@@@@@@@@@@@@@@@@@@@@@@@@@@@@",
"@@@@@@@@@@@@@@@@@@@@@@@@@@@@@@@@@@@@@@@@XXXXXXXXXXXXXXXX@@@@@@@@@@@@@@@@XXXXXXXXXXXXXXXX@@@@@@@@@@@@@@@@@@@@@@@@@@@@@@@@@@@@@@@@",
"@@@@@@@@@@@@@@@@@@@@@@@@@@@@@@@@@@@@@@@@XXXXXXXXXXXXXXXX@@@@@@@@@@@@@@@@XXXXXXXXXXXXXXXX@@@@@@@@@@@@@@@@@@@@@@@@@@@@@@@@@@@@@@@@"
};
