/* XPM */
static char *_e85443d862444b1a042f21592344f033VBGM0QTYmu5a4yt[] = {
/* columns rows colors chars-per-pixel */
"128 128 12 1 ",
"  c #A5BF65",
". c #ECE47C",
"X c #5C4C94",
"o c #746CAC",
"O c #DCBC8C",
"+ c #ECB4AC",
"@ c #ECCCA4",
"# c #ECDCB4",
"$ c #DCD4DC",
"% c #F4DCC4",
"& c #ECECC8",
"* c #F4F4C4",
/* pixels */
"@@@@@@@@@@@@@@@@@@@@@@@@XXXXXXXXXXXXXXXXXXXXXXXX@@@@@@@@@@@@@@@@@@@@@@@@@@@@@@@@XXXXXXXXXXXXXXXXXXXXXXXX@@@@@@@@        @@@@@@@@",
"@@@@@@@@@@@@@@@@@@@@@@@@XXXXXXXXXXXXXXXXXXXXXXXX@@@@@@@@@@@@@@@@@@@@@@@@@@@@@@@@XXXXXXXXXXXXXXXXXXXXXXXX@@@@@@@@        @@@@@@@@",
"@@@@@@@@@@@@@@@@@@@@@@@@XXXXXXXXXXXXXXXXXXXXXXXX@@@@@@@@@@@@@@@@@@@@@@@@@@@@@@@@XXXXXXXXXXXXXXXXXXXXXXXX@@@@@@@@        @@@@@@@@",
"@@@@@@@@@@@@@@@@@@@@@@@@XXXXXXXXXXXXXXXXXXXXXXXX@@@@@@@@@@@@@@@@@@@@@@@@@@@@@@@@XXXXXXXXXXXXXXXXXXXXXXXX@@@@@@@@        @@@@@@@@",
"@@@@@@@@@@@@@@@@@@@@@@@@XXXXXXXXXXXXXXXXXXXXXXXX@@@@@@@@@@@@@@@@@@@@@@@@@@@@@@@@XXXXXXXXXXXXXXXXXXXXXXXX@@@@@@@@        @@@@@@@@",
"@@@@@@@@@@@@@@@@@@@@@@@@XXXXXXXXXXXXXXXXXXXXXXXX@@@@@@@@@@@@@@@@@@@@@@@@@@@@@@@@XXXXXXXXXXXXXXXXXXXXXXXX@@@@@@@@        @@@@@@@@",
"@@@@@@@@@@@@@@@@@@@@@@@@XXXXXXXXXXXXXXXXXXXXXXXX@@@@@@@@@@@@@@@@@@@@@@@@@@@@@@@@XXXXXXXXXXXXXXXXXXXXXXXX@@@@@@@@        @@@@@@@@",
"@@@@@@@@@@@@@@@@@@@@@@@@XXXXXXXXXXXXXXXXXXXXXXXX@@@@@@@@@@@@@@@@@@@@@@@@@@@@@@@@XXXXXXXXXXXXXXXXXXXXXXXX@@@@@@@@        @@@@@@@@",
"@@@@@@@@@@@@@@@@XXXXXXXX************************XXXXXXXX@@@@@@@@@@@@@@@@XXXXXXXX************************XXXXXXXX        @@@@@@@@",
"@@@@@@@@@@@@@@@@XXXXXXXX************************XXXXXXXX@@@@@@@@@@@@@@@@XXXXXXXX************************XXXXXXXX        @@@@@@@@",
"@@@@@@@@@@@@@@@@XXXXXXXX************************XXXXXXXX@@@@@@@@@@@@@@@@XXXXXXXX************************XXXXXXXX        @@@@@@@@",
"@@@@@@@@@@@@@@@@XXXXXXXX************************XXXXXXXX@@@@@@@@@@@@@@@@XXXXXXXX************************XXXXXXXX        @@@@@@@@",
"@@@@@@@@@@@@@@@@XXXXXXXX************************XXXXXXXX@@@@@@@@@@@@@@@@XXXXXXXX************************XXXXXXXX        @@@@@@@@",
"@@@@@@@@@@@@@@@@XXXXXXXX************************XXXXXXXX@@@@@@@@@@@@@@@@XXXXXXXX************************XXXXXXXX        @@@@@@@@",
"@@@@@@@@@@@@@@@@XXXXXXXX************************XXXXXXXX@@@@@@@@@@@@@@@@XXXXXXXX************************XXXXXXXX        @@@@@@@@",
"@@@@@@@@@@@@@@@@XXXXXXXX************************XXXXXXXX@@@@@@@@@@@@@@@@XXXXXXXX************************XXXXXXXX        @@@@@@@@",
"@@@@@@@@@@@@@@@@XXXXXXXX++++++++++++++++********XXXXXXXXXXXXXXXXXXXXXXXXXXXXXXXX********++++++++++++++++XXXXXXXX@@@@@@@@@@@@@@@@",
"@@@@@@@@@@@@@@@@XXXXXXXX++++++++++++++++********XXXXXXXXXXXXXXXXXXXXXXXXXXXXXXXX********++++++++++++++++XXXXXXXX@@@@@@@@@@@@@@@@",
"@@@@@@@@@@@@@@@@XXXXXXXX++++++++++++++++********XXXXXXXXXXXXXXXXXXXXXXXXXXXXXXXX********++++++++++++++++XXXXXXXX@@@@@@@@@@@@@@@@",
"@@@@@@@@@@@@@@@@XXXXXXXX++++++++++++++++********XXXXXXXXXXXXXXXXXXXXXXXXXXXXXXXX********++++++++++++++++XXXXXXXX@@@@@@@@@@@@@@@@",
"@@@@@@@@@@@@@@@@XXXXXXXX++++++++++++++++********XXXXXXXXXXXXXXXXXXXXXXXXXXXXXXXX********++++++++++++++++XXXXXXXX@@@@@@@@@@@@@@@@",
"@@@@@@@@@@@@@@@@XXXXXXXX++++++++++++++++********XXXXXXXXXXXXXXXXXXXXXXXXXXXXXXXX********++++++++++++++++XXXXXXXX@@@@@@@@@@@@@@@@",
"@@@@@@@@@@@@@@@@XXXXXXXX++++++++++++++++********XXXXXXXXXXXXXXXXXXXXXXXXXXXXXXXX********++++++++++++++++XXXXXXXX@@@@@@@@@@@@@@@@",
"@@@@@@@@@@@@@@@@XXXXXXXX++++++++++++++++********XXXXXXXXXXXXXXXXXXXXXXXXXXXXXXXX********++++++++++++++++XXXXXXXX@@@@@@@@@@@@@@@@",
"@@@@@@@@@@@@@@@@XXXXXXXX++++++++++++++++********$$$$$$$$$$$$$$$$$$$$$$$$$$$$$$$$********++++++++++++++++XXXXXXXX@@@@@@@@@@@@@@@@",
"@@@@@@@@@@@@@@@@XXXXXXXX++++++++++++++++********$$$$$$$$$$$$$$$$$$$$$$$$$$$$$$$$********++++++++++++++++XXXXXXXX@@@@@@@@@@@@@@@@",
"@@@@@@@@@@@@@@@@XXXXXXXX++++++++++++++++********$$$$$$$$$$$$$$$$$$$$$$$$$$$$$$$$********++++++++++++++++XXXXXXXX@@@@@@@@@@@@@@@@",
"@@@@@@@@@@@@@@@@XXXXXXXX++++++++++++++++********$$$$$$$$$$$$$$$$$$$$$$$$$$$$$$$$********++++++++++++++++XXXXXXXX@@@@@@@@@@@@@@@@",
"@@@@@@@@@@@@@@@@XXXXXXXX++++++++++++++++********$$$$$$$$$$$$$$$$$$$$$$$$$$$$$$$$********++++++++++++++++XXXXXXXX@@@@@@@@@@@@@@@@",
"@@@@@@@@@@@@@@@@XXXXXXXX++++++++++++++++********$$$$$$$$$$$$$$$$$$$$$$$$$$$$$$$$********++++++++++++++++XXXXXXXX@@@@@@@@@@@@@@@@",
"@@@@@@@@@@@@@@@@XXXXXXXX++++++++++++++++********$$$$$$$$$$$$$$$$$$$$$$$$$$$$$$$$********++++++++++++++++XXXXXXXX@@@@@@@@@@@@@@@@",
"@@@@@@@@@@@@@@@@XXXXXXXX++++++++++++++++********$$$$$$$$$$$$$$$$$$$$$$$$$$$$$$$$********++++++++++++++++XXXXXXXX@@@@@@@@@@@@@@@@",
"@@@@@@@@@@@@@@@@XXXXXXXX************************$$$$$$$$$$$$$$$$$$$$$$$$$$$$$$$$************************XXXXXXXX@@@@@@@@@@@@@@@@",
"@@@@@@@@@@@@@@@@XXXXXXXX************************$$$$$$$$$$$$$$$$$$$$$$$$$$$$$$$$************************XXXXXXXX@@@@@@@@@@@@@@@@",
"@@@@@@@@@@@@@@@@XXXXXXXX************************$$$$$$$$$$$$$$$$$$$$$$$$$$$$$$$$************************XXXXXXXX@@@@@@@@@@@@@@@@",
"@@@@@@@@@@@@@@@@XXXXXXXX************************$$$$$$$$$$$$$$$$$$$$$$$$$$$$$$$$************************XXXXXXXX@@@@@@@@@@@@@@@@",
"@@@@@@@@@@@@@@@@XXXXXXXX************************$$$$$$$$$$$$$$$$$$$$$$$$$$$$$$$$************************XXXXXXXX@@@@@@@@@@@@@@@@",
"@@@@@@@@@@@@@@@@XXXXXXXX************************$$$$$$$$$$$$$$$$$$$$$$$$$$$$$$$$************************XXXXXXXX@@@@@@@@@@@@@@@@",
"@@@@@@@@@@@@@@@@XXXXXXXX************************$$$$$$$$$$$$$$$$$$$$$$$$$$$$$$$$************************XXXXXXXX@@@@@@@@@@@@@@@@",
"@@@@@@@@@@@@@@@@XXXXXXXX************************$$$$$$$$$$$$$$$$$$$$$$$$$$$$$$$$************************XXXXXXXX@@@@@@@@@@@@@@@@",
"@@@@@@@@@@@@@@@@XXXXXXXX************************$$$$$$$$$$$$$$$$$$$$$$$$$$$$$$$$************************XXXXXXXX@@@@@@@@@@@@@@@@",
"@@@@@@@@@@@@@@@@XXXXXXXX************************$$$$$$$$$$$$$$$$$$$$$$$$$$$$$$$$************************XXXXXXXX@@@@@@@@@@@@@@@@",
"@@@@@@@@@@@@@@@@XXXXXXXX************************$$$$$$$$$$$$$$$$$$$$$$$$$$$$$$$$************************XXXXXXXX@@@@@@@@@@@@@@@@",
"@@@@@@@@@@@@@@@@XXXXXXXX************************$$$$$$$$$$$$$$$$$$$$$$$$$$$$$$$$************************XXXXXXXX@@@@@@@@@@@@@@@@",
"@@@@@@@@@@@@@@@@XXXXXXXX************************$$$$$$$$$$$$$$$$$$$$$$$$$$$$$$$$************************XXXXXXXX@@@@@@@@@@@@@@@@",
"@@@@@@@@@@@@@@@@XXXXXXXX************************$$$$$$$$$$$$$$$$$$$$$$$$$$$$$$$$************************XXXXXXXX@@@@@@@@@@@@@@@@",
"@@@@@@@@@@@@@@@@XXXXXXXX************************$$$$$$$$$$$$$$$$$$$$$$$$$$$$$$$$************************XXXXXXXX@@@@@@@@@@@@@@@@",
"@@@@@@@@@@@@@@@@XXXXXXXX************************$$$$$$$$$$$$$$$$$$$$$$$$$$$$$$$$************************XXXXXXXX@@@@@@@@@@@@@@@@",
"@@@@@@@@XXXXXXXXXXXXXXXX********************************************************************************XXXXXXXXXXXXXXXX@@@@@@@@",
"@@@@@@@@XXXXXXXXXXXXXXXX********************************************************************************XXXXXXXXXXXXXXXX@@@@@@@@",
"@@@@@@@@XXXXXXXXXXXXXXXX********************************************************************************XXXXXXXXXXXXXXXX@@@@@@@@",
"@@@@@@@@XXXXXXXXXXXXXXXX********************************************************************************XXXXXXXXXXXXXXXX@@@@@@@@",
"@@@@@@@@XXXXXXXXXXXXXXXX********************************************************************************XXXXXXXXXXXXXXXX@@@@@@@@",
"@@@@@@@@XXXXXXXXXXXXXXXX********************************************************************************XXXXXXXXXXXXXXXX@@@@@@@@",
"@@@@@@@@XXXXXXXXXXXXXXXX********************************************************************************XXXXXXXXXXXXXXXX@@@@@@@@",
"@@@@@@@@XXXXXXXXXXXXXXXX********************************************************************************XXXXXXXXXXXXXXXX@@@@@@@@",
"@@@@@@@@@@@@@@@@XXXXXXXX********XXXXXXXX************************************************XXXXXXXX********XXXXXXXX@@@@@@@@@@@@@@@@",
"@@@@@@@@@@@@@@@@XXXXXXXX********XXXXXXXX************************************************XXXXXXXX********XXXXXXXX@@@@@@@@@@@@@@@@",
"@@@@@@@@@@@@@@@@XXXXXXXX********XXXXXXXX************************************************XXXXXXXX********XXXXXXXX@@@@@@@@@@@@@@@@",
"@@@@@@@@@@@@@@@@XXXXXXXX********XXXXXXXX************************************************XXXXXXXX********XXXXXXXX@@@@@@@@@@@@@@@@",
"@@@@@@@@@@@@@@@@XXXXXXXX********XXXXXXXX************************************************XXXXXXXX********XXXXXXXX@@@@@@@@@@@@@@@@",
"@@@@@@@@@@@@@@@@XXXXXXXX********XXXXXXXX************************************************XXXXXXXX********XXXXXXXX@@@@@@@@@@@@@@@@",
"@@@@@@@@@@@@@@@@XXXXXXXX********XXXXXXXX************************************************XXXXXXXX********XXXXXXXX@@@@@@@@@@@@@@@@",
"@@@@@@@@@@@@@@@@XXXXXXXX********XXXXXXXX************************************************XXXXXXXX********XXXXXXXX@@@@@@@@@@@@@@@@",
"@@@@@@@@XXXXXXXXXXXXXXXX********************************************************************************XXXXXXXXXXXXXXXX@@@@@@@@",
"@@@@@@@@XXXXXXXXXXXXXXXX********************************************************************************XXXXXXXXXXXXXXXX@@@@@@@@",
"@@@@@@@@XXXXXXXXXXXXXXXX********************************************************************************XXXXXXXXXXXXXXXX@@@@@@@@",
"@@@@@@@@XXXXXXXXXXXXXXXX********************************************************************************XXXXXXXXXXXXXXXX@@@@@@@@",
"@@@@@@@@XXXXXXXXXXXXXXXX********************************************************************************XXXXXXXXXXXXXXXX@@@@@@@@",
"@@@@@@@@XXXXXXXXXXXXXXXX********************************************************************************XXXXXXXXXXXXXXXX@@@@@@@@",
"@@@@@@@@XXXXXXXXXXXXXXXX********************************************************************************XXXXXXXXXXXXXXXX@@@@@@@@",
"@@@@@@@@XXXXXXXXXXXXXXXX********************************************************************************XXXXXXXXXXXXXXXX@@@@@@@@",
"@@@@@@@@@@@@@@@@XXXXXXXX%%%%%%%%%%%%%%%%************************************************%%%%%%%%%%%%%%%%XXXXXXXX@@@@@@@@@@@@@@@@",
"@@@@@@@@@@@@@@@@XXXXXXXX%%%%%%%%%%%%%%%%************************************************%%%%%%%%%%%%%%%%XXXXXXXX@@@@@@@@@@@@@@@@",
"@@@@@@@@@@@@@@@@XXXXXXXX%%%%%%%%%%%%%%%%************************************************%%%%%%%%%%%%%%%%XXXXXXXX@@@@@@@@@@@@@@@@",
"@@@@@@@@@@@@@@@@XXXXXXXX%%%%%%%%%%%%%%%%************************************************%%%%%%%%%%%%%%%%XXXXXXXX@@@@@@@@@@@@@@@@",
"@@@@@@@@@@@@@@@@XXXXXXXX%%%%%%%%%%%%%%%%************************************************%%%%%%%%%%%%%%%%XXXXXXXX@@@@@@@@@@@@@@@@",
"@@@@@@@@@@@@@@@@XXXXXXXX%%%%%%%%%%%%%%%%************************************************%%%%%%%%%%%%%%%%XXXXXXXX@@@@@@@@@@@@@@@@",
"@@@@@@@@@@@@@@@@XXXXXXXX%%%%%%%%%%%%%%%%************************************************%%%%%%%%%%%%%%%%XXXXXXXX@@@@@@@@@@@@@@@@",
"@@@@@@@@@@@@@@@@XXXXXXXX%%%%%%%%%%%%%%%%************************************************%%%%%%%%%%%%%%%%XXXXXXXX@@@@@@@@@@@@@@@@",
"@@@@@@@@@@@@@@@@XXXXXXXXXXXXXXXXXXXXXXXXooooooooooooooooooooooooooooooooooooooooooooooooXXXXXXXXXXXXXXXX@@@@@@@@@@@@@@@@@@@@@@@@",
"@@@@@@@@@@@@@@@@XXXXXXXXXXXXXXXXXXXXXXXXooooooooooooooooooooooooooooooooooooooooooooooooXXXXXXXXXXXXXXXX@@@@@@@@@@@@@@@@@@@@@@@@",
"@@@@@@@@@@@@@@@@XXXXXXXXXXXXXXXXXXXXXXXXooooooooooooooooooooooooooooooooooooooooooooooooXXXXXXXXXXXXXXXX@@@@@@@@@@@@@@@@@@@@@@@@",
"@@@@@@@@@@@@@@@@XXXXXXXXXXXXXXXXXXXXXXXXooooooooooooooooooooooooooooooooooooooooooooooooXXXXXXXXXXXXXXXX@@@@@@@@@@@@@@@@@@@@@@@@",
"@@@@@@@@@@@@@@@@XXXXXXXXXXXXXXXXXXXXXXXXooooooooooooooooooooooooooooooooooooooooooooooooXXXXXXXXXXXXXXXX@@@@@@@@@@@@@@@@@@@@@@@@",
"@@@@@@@@@@@@@@@@XXXXXXXXXXXXXXXXXXXXXXXXooooooooooooooooooooooooooooooooooooooooooooooooXXXXXXXXXXXXXXXX@@@@@@@@@@@@@@@@@@@@@@@@",
"@@@@@@@@@@@@@@@@XXXXXXXXXXXXXXXXXXXXXXXXooooooooooooooooooooooooooooooooooooooooooooooooXXXXXXXXXXXXXXXX@@@@@@@@@@@@@@@@@@@@@@@@",
"@@@@@@@@@@@@@@@@XXXXXXXXXXXXXXXXXXXXXXXXooooooooooooooooooooooooooooooooooooooooooooooooXXXXXXXXXXXXXXXX@@@@@@@@@@@@@@@@@@@@@@@@",
"@@@@@@@@@@@@@@@@XXXXXXXX$$$$$$$$********oooooooooooooooo........&&&&&&&&ooooooooooooooooXXXXXXXXXXXXXXXX########@@@@@@@@@@@@@@@@",
"@@@@@@@@@@@@@@@@XXXXXXXX$$$$$$$$********oooooooooooooooo........&&&&&&&&ooooooooooooooooXXXXXXXXXXXXXXXX########@@@@@@@@@@@@@@@@",
"@@@@@@@@@@@@@@@@XXXXXXXX$$$$$$$$********oooooooooooooooo........&&&&&&&&ooooooooooooooooXXXXXXXXXXXXXXXX########@@@@@@@@@@@@@@@@",
"@@@@@@@@@@@@@@@@XXXXXXXX$$$$$$$$********oooooooooooooooo........&&&&&&&&ooooooooooooooooXXXXXXXXXXXXXXXX########@@@@@@@@@@@@@@@@",
"@@@@@@@@@@@@@@@@XXXXXXXX$$$$$$$$********oooooooooooooooo........&&&&&&&&ooooooooooooooooXXXXXXXXXXXXXXXX########@@@@@@@@@@@@@@@@",
"@@@@@@@@@@@@@@@@XXXXXXXX$$$$$$$$********oooooooooooooooo........&&&&&&&&ooooooooooooooooXXXXXXXXXXXXXXXX########@@@@@@@@@@@@@@@@",
"@@@@@@@@@@@@@@@@XXXXXXXX$$$$$$$$********oooooooooooooooo........&&&&&&&&ooooooooooooooooXXXXXXXXXXXXXXXX########@@@@@@@@@@@@@@@@",
"@@@@@@@@@@@@@@@@XXXXXXXX$$$$$$$$********oooooooooooooooo........&&&&&&&&ooooooooooooooooXXXXXXXXXXXXXXXX########@@@@@@@@@@@@@@@@",
"@@@@@@@@@@@@@@@@        XXXXXXXX************************................************************$$$$$$$$XXXXXXXX@@@@@@@@@@@@@@@@",
"@@@@@@@@@@@@@@@@        XXXXXXXX************************................************************$$$$$$$$XXXXXXXX@@@@@@@@@@@@@@@@",
"@@@@@@@@@@@@@@@@        XXXXXXXX************************................************************$$$$$$$$XXXXXXXX@@@@@@@@@@@@@@@@",
"@@@@@@@@@@@@@@@@        XXXXXXXX************************................************************$$$$$$$$XXXXXXXX@@@@@@@@@@@@@@@@",
"@@@@@@@@@@@@@@@@        XXXXXXXX************************................************************$$$$$$$$XXXXXXXX@@@@@@@@@@@@@@@@",
"@@@@@@@@@@@@@@@@        XXXXXXXX************************................************************$$$$$$$$XXXXXXXX@@@@@@@@@@@@@@@@",
"@@@@@@@@@@@@@@@@        XXXXXXXX************************................************************$$$$$$$$XXXXXXXX@@@@@@@@@@@@@@@@",
"@@@@@@@@@@@@@@@@        XXXXXXXX************************................************************$$$$$$$$XXXXXXXX@@@@@@@@@@@@@@@@",
"@@@@@@@@@@@@@@@@@@@@@@@@        XXXXXXXX****************************************XXXXXXXX********$$$$$$$$XXXXXXXX@@@@@@@@@@@@@@@@",
"@@@@@@@@@@@@@@@@@@@@@@@@        XXXXXXXX****************************************XXXXXXXX********$$$$$$$$XXXXXXXX@@@@@@@@@@@@@@@@",
"@@@@@@@@@@@@@@@@@@@@@@@@        XXXXXXXX****************************************XXXXXXXX********$$$$$$$$XXXXXXXX@@@@@@@@@@@@@@@@",
"@@@@@@@@@@@@@@@@@@@@@@@@        XXXXXXXX****************************************XXXXXXXX********$$$$$$$$XXXXXXXX@@@@@@@@@@@@@@@@",
"@@@@@@@@@@@@@@@@@@@@@@@@        XXXXXXXX****************************************XXXXXXXX********$$$$$$$$XXXXXXXX@@@@@@@@@@@@@@@@",
"@@@@@@@@@@@@@@@@@@@@@@@@        XXXXXXXX****************************************XXXXXXXX********$$$$$$$$XXXXXXXX@@@@@@@@@@@@@@@@",
"@@@@@@@@@@@@@@@@@@@@@@@@        XXXXXXXX****************************************XXXXXXXX********$$$$$$$$XXXXXXXX@@@@@@@@@@@@@@@@",
"@@@@@@@@@@@@@@@@@@@@@@@@        XXXXXXXX****************************************XXXXXXXX********$$$$$$$$XXXXXXXX@@@@@@@@@@@@@@@@",
"@@@@@@@@@@@@@@@@@@@@@@@@@@@@@@@@XXXXXXXX$$$$$$$$$$$$$$$$XXXXXXXXXXXXXXXXXXXXXXXXXXXXXXXXXXXXXXXXXXXXXXXXXXXXXXXX@@@@@@@@OOOOOOOO",
"@@@@@@@@@@@@@@@@@@@@@@@@@@@@@@@@XXXXXXXX$$$$$$$$$$$$$$$$XXXXXXXXXXXXXXXXXXXXXXXXXXXXXXXXXXXXXXXXXXXXXXXXXXXXXXXX@@@@@@@@OOOOOOOO",
"@@@@@@@@@@@@@@@@@@@@@@@@@@@@@@@@XXXXXXXX$$$$$$$$$$$$$$$$XXXXXXXXXXXXXXXXXXXXXXXXXXXXXXXXXXXXXXXXXXXXXXXXXXXXXXXX@@@@@@@@OOOOOOOO",
"@@@@@@@@@@@@@@@@@@@@@@@@@@@@@@@@XXXXXXXX$$$$$$$$$$$$$$$$XXXXXXXXXXXXXXXXXXXXXXXXXXXXXXXXXXXXXXXXXXXXXXXXXXXXXXXX@@@@@@@@OOOOOOOO",
"@@@@@@@@@@@@@@@@@@@@@@@@@@@@@@@@XXXXXXXX$$$$$$$$$$$$$$$$XXXXXXXXXXXXXXXXXXXXXXXXXXXXXXXXXXXXXXXXXXXXXXXXXXXXXXXX@@@@@@@@OOOOOOOO",
"@@@@@@@@@@@@@@@@@@@@@@@@@@@@@@@@XXXXXXXX$$$$$$$$$$$$$$$$XXXXXXXXXXXXXXXXXXXXXXXXXXXXXXXXXXXXXXXXXXXXXXXXXXXXXXXX@@@@@@@@OOOOOOOO",
"@@@@@@@@@@@@@@@@@@@@@@@@@@@@@@@@XXXXXXXX$$$$$$$$$$$$$$$$XXXXXXXXXXXXXXXXXXXXXXXXXXXXXXXXXXXXXXXXXXXXXXXXXXXXXXXX@@@@@@@@OOOOOOOO",
"@@@@@@@@@@@@@@@@@@@@@@@@@@@@@@@@XXXXXXXX$$$$$$$$$$$$$$$$XXXXXXXXXXXXXXXXXXXXXXXXXXXXXXXXXXXXXXXXXXXXXXXXXXXXXXXX@@@@@@@@OOOOOOOO",
"@@@@@@@@@@@@@@@@@@@@@@@@@@@@@@@@@@@@@@@@XXXXXXXXXXXXXXXX@@@@@@@@@@@@@@@@@@@@@@@@@@@@@@@@@@@@@@@@@@@@@@@@@@@@@@@@@@@@@@@@@@@@@@@@",
"@@@@@@@@@@@@@@@@@@@@@@@@@@@@@@@@@@@@@@@@XXXXXXXXXXXXXXXX@@@@@@@@@@@@@@@@@@@@@@@@@@@@@@@@@@@@@@@@@@@@@@@@@@@@@@@@@@@@@@@@@@@@@@@@",
"@@@@@@@@@@@@@@@@@@@@@@@@@@@@@@@@@@@@@@@@XXXXXXXXXXXXXXXX@@@@@@@@@@@@@@@@@@@@@@@@@@@@@@@@@@@@@@@@@@@@@@@@@@@@@@@@@@@@@@@@@@@@@@@@",
"@@@@@@@@@@@@@@@@@@@@@@@@@@@@@@@@@@@@@@@@XXXXXXXXXXXXXXXX@@@@@@@@@@@@@@@@@@@@@@@@@@@@@@@@@@@@@@@@@@@@@@@@@@@@@@@@@@@@@@@@@@@@@@@@",
"@@@@@@@@@@@@@@@@@@@@@@@@@@@@@@@@@@@@@@@@XXXXXXXXXXXXXXXX@@@@@@@@@@@@@@@@@@@@@@@@@@@@@@@@@@@@@@@@@@@@@@@@@@@@@@@@@@@@@@@@@@@@@@@@",
"@@@@@@@@@@@@@@@@@@@@@@@@@@@@@@@@@@@@@@@@XXXXXXXXXXXXXXXX@@@@@@@@@@@@@@@@@@@@@@@@@@@@@@@@@@@@@@@@@@@@@@@@@@@@@@@@@@@@@@@@@@@@@@@@",
"@@@@@@@@@@@@@@@@@@@@@@@@@@@@@@@@@@@@@@@@XXXXXXXXXXXXXXXX@@@@@@@@@@@@@@@@@@@@@@@@@@@@@@@@@@@@@@@@@@@@@@@@@@@@@@@@@@@@@@@@@@@@@@@@",
"@@@@@@@@@@@@@@@@@@@@@@@@@@@@@@@@@@@@@@@@XXXXXXXXXXXXXXXX@@@@@@@@@@@@@@@@@@@@@@@@@@@@@@@@@@@@@@@@@@@@@@@@@@@@@@@@@@@@@@@@@@@@@@@@"
};
