/* XPM */
static char *char_back_31705689241[] = {
/* columns rows colors chars-per-pixel */
"128 128 7 1 ",
"  c #A5BF65",
". c #5C4C94",
"X c #746CAC",
"o c #DCBC8C",
"O c #ECCCA4",
"+ c #DCD4DC",
"@ c #F4F4C4",
/* pixels */
"OOOOOOOOOOOOOOOOOOOOOOOO........................OOOOOOOOOOOOOOOOOOOOOOOOOOOOOOOO........................OOOOOOOO        OOOOOOOO",
"OOOOOOOOOOOOOOOOOOOOOOOO........................OOOOOOOOOOOOOOOOOOOOOOOOOOOOOOOO........................OOOOOOOO        OOOOOOOO",
"OOOOOOOOOOOOOOOOOOOOOOOO........................OOOOOOOOOOOOOOOOOOOOOOOOOOOOOOOO........................OOOOOOOO        OOOOOOOO",
"OOOOOOOOOOOOOOOOOOOOOOOO........................OOOOOOOOOOOOOOOOOOOOOOOOOOOOOOOO........................OOOOOOOO        OOOOOOOO",
"OOOOOOOOOOOOOOOOOOOOOOOO........................OOOOOOOOOOOOOOOOOOOOOOOOOOOOOOOO........................OOOOOOOO        OOOOOOOO",
"OOOOOOOOOOOOOOOOOOOOOOOO........................OOOOOOOOOOOOOOOOOOOOOOOOOOOOOOOO........................OOOOOOOO        OOOOOOOO",
"OOOOOOOOOOOOOOOOOOOOOOOO........................OOOOOOOOOOOOOOOOOOOOOOOOOOOOOOOO........................OOOOOOOO        OOOOOOOO",
"OOOOOOOOOOOOOOOOOOOOOOOO........................OOOOOOOOOOOOOOOOOOOOOOOOOOOOOOOO........................OOOOOOOO        OOOOOOOO",
"OOOOOOOOOOOOOOOO........@@@@@@@@@@@@@@@@@@@@@@@@........OOOOOOOOOOOOOOOO........@@@@@@@@@@@@@@@@@@@@@@@@........        OOOOOOOO",
"OOOOOOOOOOOOOOOO........@@@@@@@@@@@@@@@@@@@@@@@@........OOOOOOOOOOOOOOOO........@@@@@@@@@@@@@@@@@@@@@@@@........        OOOOOOOO",
"OOOOOOOOOOOOOOOO........@@@@@@@@@@@@@@@@@@@@@@@@........OOOOOOOOOOOOOOOO........@@@@@@@@@@@@@@@@@@@@@@@@........        OOOOOOOO",
"OOOOOOOOOOOOOOOO........@@@@@@@@@@@@@@@@@@@@@@@@........OOOOOOOOOOOOOOOO........@@@@@@@@@@@@@@@@@@@@@@@@........        OOOOOOOO",
"OOOOOOOOOOOOOOOO........@@@@@@@@@@@@@@@@@@@@@@@@........OOOOOOOOOOOOOOOO........@@@@@@@@@@@@@@@@@@@@@@@@........        OOOOOOOO",
"OOOOOOOOOOOOOOOO........@@@@@@@@@@@@@@@@@@@@@@@@........OOOOOOOOOOOOOOOO........@@@@@@@@@@@@@@@@@@@@@@@@........        OOOOOOOO",
"OOOOOOOOOOOOOOOO........@@@@@@@@@@@@@@@@@@@@@@@@........OOOOOOOOOOOOOOOO........@@@@@@@@@@@@@@@@@@@@@@@@........        OOOOOOOO",
"OOOOOOOOOOOOOOOO........@@@@@@@@@@@@@@@@@@@@@@@@........OOOOOOOOOOOOOOOO........@@@@@@@@@@@@@@@@@@@@@@@@........        OOOOOOOO",
"OOOOOOOOOOOOOOOO........@@@@@@@@@@@@@@@@@@@@@@@@................................@@@@@@@@@@@@@@@@@@@@@@@@........OOOOOOOOOOOOOOOO",
"OOOOOOOOOOOOOOOO........@@@@@@@@@@@@@@@@@@@@@@@@................................@@@@@@@@@@@@@@@@@@@@@@@@........OOOOOOOOOOOOOOOO",
"OOOOOOOOOOOOOOOO........@@@@@@@@@@@@@@@@@@@@@@@@................................@@@@@@@@@@@@@@@@@@@@@@@@........OOOOOOOOOOOOOOOO",
"OOOOOOOOOOOOOOOO........@@@@@@@@@@@@@@@@@@@@@@@@................................@@@@@@@@@@@@@@@@@@@@@@@@........OOOOOOOOOOOOOOOO",
"OOOOOOOOOOOOOOOO........@@@@@@@@@@@@@@@@@@@@@@@@................................@@@@@@@@@@@@@@@@@@@@@@@@........OOOOOOOOOOOOOOOO",
"OOOOOOOOOOOOOOOO........@@@@@@@@@@@@@@@@@@@@@@@@................................@@@@@@@@@@@@@@@@@@@@@@@@........OOOOOOOOOOOOOOOO",
"OOOOOOOOOOOOOOOO........@@@@@@@@@@@@@@@@@@@@@@@@................................@@@@@@@@@@@@@@@@@@@@@@@@........OOOOOOOOOOOOOOOO",
"OOOOOOOOOOOOOOOO........@@@@@@@@@@@@@@@@@@@@@@@@................................@@@@@@@@@@@@@@@@@@@@@@@@........OOOOOOOOOOOOOOOO",
"OOOOOOOOOOOOOOOO........@@@@@@@@@@@@@@@@@@@@@@@@++++++++++++++++++++++++++++++++@@@@@@@@@@@@@@@@@@@@@@@@........OOOOOOOOOOOOOOOO",
"OOOOOOOOOOOOOOOO........@@@@@@@@@@@@@@@@@@@@@@@@++++++++++++++++++++++++++++++++@@@@@@@@@@@@@@@@@@@@@@@@........OOOOOOOOOOOOOOOO",
"OOOOOOOOOOOOOOOO........@@@@@@@@@@@@@@@@@@@@@@@@++++++++++++++++++++++++++++++++@@@@@@@@@@@@@@@@@@@@@@@@........OOOOOOOOOOOOOOOO",
"OOOOOOOOOOOOOOOO........@@@@@@@@@@@@@@@@@@@@@@@@++++++++++++++++++++++++++++++++@@@@@@@@@@@@@@@@@@@@@@@@........OOOOOOOOOOOOOOOO",
"OOOOOOOOOOOOOOOO........@@@@@@@@@@@@@@@@@@@@@@@@++++++++++++++++++++++++++++++++@@@@@@@@@@@@@@@@@@@@@@@@........OOOOOOOOOOOOOOOO",
"OOOOOOOOOOOOOOOO........@@@@@@@@@@@@@@@@@@@@@@@@++++++++++++++++++++++++++++++++@@@@@@@@@@@@@@@@@@@@@@@@........OOOOOOOOOOOOOOOO",
"OOOOOOOOOOOOOOOO........@@@@@@@@@@@@@@@@@@@@@@@@++++++++++++++++++++++++++++++++@@@@@@@@@@@@@@@@@@@@@@@@........OOOOOOOOOOOOOOOO",
"OOOOOOOOOOOOOOOO........@@@@@@@@@@@@@@@@@@@@@@@@++++++++++++++++++++++++++++++++@@@@@@@@@@@@@@@@@@@@@@@@........OOOOOOOOOOOOOOOO",
"OOOOOOOOOOOOOOOO........@@@@@@@@@@@@@@@@@@@@@@@@@@@@@@@@@@@@@@@@@@@@@@@@@@@@@@@@@@@@@@@@@@@@@@@@@@@@@@@@........OOOOOOOOOOOOOOOO",
"OOOOOOOOOOOOOOOO........@@@@@@@@@@@@@@@@@@@@@@@@@@@@@@@@@@@@@@@@@@@@@@@@@@@@@@@@@@@@@@@@@@@@@@@@@@@@@@@@........OOOOOOOOOOOOOOOO",
"OOOOOOOOOOOOOOOO........@@@@@@@@@@@@@@@@@@@@@@@@@@@@@@@@@@@@@@@@@@@@@@@@@@@@@@@@@@@@@@@@@@@@@@@@@@@@@@@@........OOOOOOOOOOOOOOOO",
"OOOOOOOOOOOOOOOO........@@@@@@@@@@@@@@@@@@@@@@@@@@@@@@@@@@@@@@@@@@@@@@@@@@@@@@@@@@@@@@@@@@@@@@@@@@@@@@@@........OOOOOOOOOOOOOOOO",
"OOOOOOOOOOOOOOOO........@@@@@@@@@@@@@@@@@@@@@@@@@@@@@@@@@@@@@@@@@@@@@@@@@@@@@@@@@@@@@@@@@@@@@@@@@@@@@@@@........OOOOOOOOOOOOOOOO",
"OOOOOOOOOOOOOOOO........@@@@@@@@@@@@@@@@@@@@@@@@@@@@@@@@@@@@@@@@@@@@@@@@@@@@@@@@@@@@@@@@@@@@@@@@@@@@@@@@........OOOOOOOOOOOOOOOO",
"OOOOOOOOOOOOOOOO........@@@@@@@@@@@@@@@@@@@@@@@@@@@@@@@@@@@@@@@@@@@@@@@@@@@@@@@@@@@@@@@@@@@@@@@@@@@@@@@@........OOOOOOOOOOOOOOOO",
"OOOOOOOOOOOOOOOO........@@@@@@@@@@@@@@@@@@@@@@@@@@@@@@@@@@@@@@@@@@@@@@@@@@@@@@@@@@@@@@@@@@@@@@@@@@@@@@@@........OOOOOOOOOOOOOOOO",
"OOOOOOOOOOOOOOOO........@@@@@@@@@@@@@@@@@@@@@@@@@@@@@@@@@@@@@@@@@@@@@@@@@@@@@@@@@@@@@@@@@@@@@@@@@@@@@@@@........OOOOOOOOOOOOOOOO",
"OOOOOOOOOOOOOOOO........@@@@@@@@@@@@@@@@@@@@@@@@@@@@@@@@@@@@@@@@@@@@@@@@@@@@@@@@@@@@@@@@@@@@@@@@@@@@@@@@........OOOOOOOOOOOOOOOO",
"OOOOOOOOOOOOOOOO........@@@@@@@@@@@@@@@@@@@@@@@@@@@@@@@@@@@@@@@@@@@@@@@@@@@@@@@@@@@@@@@@@@@@@@@@@@@@@@@@........OOOOOOOOOOOOOOOO",
"OOOOOOOOOOOOOOOO........@@@@@@@@@@@@@@@@@@@@@@@@@@@@@@@@@@@@@@@@@@@@@@@@@@@@@@@@@@@@@@@@@@@@@@@@@@@@@@@@........OOOOOOOOOOOOOOOO",
"OOOOOOOOOOOOOOOO........@@@@@@@@@@@@@@@@@@@@@@@@@@@@@@@@@@@@@@@@@@@@@@@@@@@@@@@@@@@@@@@@@@@@@@@@@@@@@@@@........OOOOOOOOOOOOOOOO",
"OOOOOOOOOOOOOOOO........@@@@@@@@@@@@@@@@@@@@@@@@@@@@@@@@@@@@@@@@@@@@@@@@@@@@@@@@@@@@@@@@@@@@@@@@@@@@@@@@........OOOOOOOOOOOOOOOO",
"OOOOOOOOOOOOOOOO........@@@@@@@@@@@@@@@@@@@@@@@@@@@@@@@@@@@@@@@@@@@@@@@@@@@@@@@@@@@@@@@@@@@@@@@@@@@@@@@@........OOOOOOOOOOOOOOOO",
"OOOOOOOOOOOOOOOO........@@@@@@@@@@@@@@@@@@@@@@@@@@@@@@@@@@@@@@@@@@@@@@@@@@@@@@@@@@@@@@@@@@@@@@@@@@@@@@@@........OOOOOOOOOOOOOOOO",
"OOOOOOOO................@@@@@@@@@@@@@@@@@@@@@@@@@@@@@@@@@@@@@@@@@@@@@@@@@@@@@@@@@@@@@@@@@@@@@@@@@@@@@@@@................OOOOOOOO",
"OOOOOOOO................@@@@@@@@@@@@@@@@@@@@@@@@@@@@@@@@@@@@@@@@@@@@@@@@@@@@@@@@@@@@@@@@@@@@@@@@@@@@@@@@................OOOOOOOO",
"OOOOOOOO................@@@@@@@@@@@@@@@@@@@@@@@@@@@@@@@@@@@@@@@@@@@@@@@@@@@@@@@@@@@@@@@@@@@@@@@@@@@@@@@@................OOOOOOOO",
"OOOOOOOO................@@@@@@@@@@@@@@@@@@@@@@@@@@@@@@@@@@@@@@@@@@@@@@@@@@@@@@@@@@@@@@@@@@@@@@@@@@@@@@@@................OOOOOOOO",
"OOOOOOOO................@@@@@@@@@@@@@@@@@@@@@@@@@@@@@@@@@@@@@@@@@@@@@@@@@@@@@@@@@@@@@@@@@@@@@@@@@@@@@@@@................OOOOOOOO",
"OOOOOOOO................@@@@@@@@@@@@@@@@@@@@@@@@@@@@@@@@@@@@@@@@@@@@@@@@@@@@@@@@@@@@@@@@@@@@@@@@@@@@@@@@................OOOOOOOO",
"OOOOOOOO................@@@@@@@@@@@@@@@@@@@@@@@@@@@@@@@@@@@@@@@@@@@@@@@@@@@@@@@@@@@@@@@@@@@@@@@@@@@@@@@@................OOOOOOOO",
"OOOOOOOO................@@@@@@@@@@@@@@@@@@@@@@@@@@@@@@@@@@@@@@@@@@@@@@@@@@@@@@@@@@@@@@@@@@@@@@@@@@@@@@@@................OOOOOOOO",
"OOOOOOOOOOOOOOOO........@@@@@@@@@@@@@@@@@@@@@@@@@@@@@@@@@@@@@@@@@@@@@@@@@@@@@@@@@@@@@@@@@@@@@@@@@@@@@@@@........OOOOOOOOOOOOOOOO",
"OOOOOOOOOOOOOOOO........@@@@@@@@@@@@@@@@@@@@@@@@@@@@@@@@@@@@@@@@@@@@@@@@@@@@@@@@@@@@@@@@@@@@@@@@@@@@@@@@........OOOOOOOOOOOOOOOO",
"OOOOOOOOOOOOOOOO........@@@@@@@@@@@@@@@@@@@@@@@@@@@@@@@@@@@@@@@@@@@@@@@@@@@@@@@@@@@@@@@@@@@@@@@@@@@@@@@@........OOOOOOOOOOOOOOOO",
"OOOOOOOOOOOOOOOO........@@@@@@@@@@@@@@@@@@@@@@@@@@@@@@@@@@@@@@@@@@@@@@@@@@@@@@@@@@@@@@@@@@@@@@@@@@@@@@@@........OOOOOOOOOOOOOOOO",
"OOOOOOOOOOOOOOOO........@@@@@@@@@@@@@@@@@@@@@@@@@@@@@@@@@@@@@@@@@@@@@@@@@@@@@@@@@@@@@@@@@@@@@@@@@@@@@@@@........OOOOOOOOOOOOOOOO",
"OOOOOOOOOOOOOOOO........@@@@@@@@@@@@@@@@@@@@@@@@@@@@@@@@@@@@@@@@@@@@@@@@@@@@@@@@@@@@@@@@@@@@@@@@@@@@@@@@........OOOOOOOOOOOOOOOO",
"OOOOOOOOOOOOOOOO........@@@@@@@@@@@@@@@@@@@@@@@@@@@@@@@@@@@@@@@@@@@@@@@@@@@@@@@@@@@@@@@@@@@@@@@@@@@@@@@@........OOOOOOOOOOOOOOOO",
"OOOOOOOOOOOOOOOO........@@@@@@@@@@@@@@@@@@@@@@@@@@@@@@@@@@@@@@@@@@@@@@@@@@@@@@@@@@@@@@@@@@@@@@@@@@@@@@@@........OOOOOOOOOOOOOOOO",
"OOOOOOOO................@@@@@@@@@@@@@@@@@@@@@@@@@@@@@@@@@@@@@@@@@@@@@@@@@@@@@@@@@@@@@@@@@@@@@@@@@@@@@@@@................OOOOOOOO",
"OOOOOOOO................@@@@@@@@@@@@@@@@@@@@@@@@@@@@@@@@@@@@@@@@@@@@@@@@@@@@@@@@@@@@@@@@@@@@@@@@@@@@@@@@................OOOOOOOO",
"OOOOOOOO................@@@@@@@@@@@@@@@@@@@@@@@@@@@@@@@@@@@@@@@@@@@@@@@@@@@@@@@@@@@@@@@@@@@@@@@@@@@@@@@@................OOOOOOOO",
"OOOOOOOO................@@@@@@@@@@@@@@@@@@@@@@@@@@@@@@@@@@@@@@@@@@@@@@@@@@@@@@@@@@@@@@@@@@@@@@@@@@@@@@@@................OOOOOOOO",
"OOOOOOOO................@@@@@@@@@@@@@@@@@@@@@@@@@@@@@@@@@@@@@@@@@@@@@@@@@@@@@@@@@@@@@@@@@@@@@@@@@@@@@@@@................OOOOOOOO",
"OOOOOOOO................@@@@@@@@@@@@@@@@@@@@@@@@@@@@@@@@@@@@@@@@@@@@@@@@@@@@@@@@@@@@@@@@@@@@@@@@@@@@@@@@................OOOOOOOO",
"OOOOOOOO................@@@@@@@@@@@@@@@@@@@@@@@@@@@@@@@@@@@@@@@@@@@@@@@@@@@@@@@@@@@@@@@@@@@@@@@@@@@@@@@@................OOOOOOOO",
"OOOOOOOO................@@@@@@@@@@@@@@@@@@@@@@@@@@@@@@@@@@@@@@@@@@@@@@@@@@@@@@@@@@@@@@@@@@@@@@@@@@@@@@@@................OOOOOOOO",
"OOOOOOOOOOOOOOOO........@@@@@@@@@@@@@@@@@@@@@@@@@@@@@@@@@@@@@@@@@@@@@@@@@@@@@@@@@@@@@@@@@@@@@@@@@@@@@@@@........OOOOOOOOOOOOOOOO",
"OOOOOOOOOOOOOOOO........@@@@@@@@@@@@@@@@@@@@@@@@@@@@@@@@@@@@@@@@@@@@@@@@@@@@@@@@@@@@@@@@@@@@@@@@@@@@@@@@........OOOOOOOOOOOOOOOO",
"OOOOOOOOOOOOOOOO........@@@@@@@@@@@@@@@@@@@@@@@@@@@@@@@@@@@@@@@@@@@@@@@@@@@@@@@@@@@@@@@@@@@@@@@@@@@@@@@@........OOOOOOOOOOOOOOOO",
"OOOOOOOOOOOOOOOO........@@@@@@@@@@@@@@@@@@@@@@@@@@@@@@@@@@@@@@@@@@@@@@@@@@@@@@@@@@@@@@@@@@@@@@@@@@@@@@@@........OOOOOOOOOOOOOOOO",
"OOOOOOOOOOOOOOOO........@@@@@@@@@@@@@@@@@@@@@@@@@@@@@@@@@@@@@@@@@@@@@@@@@@@@@@@@@@@@@@@@@@@@@@@@@@@@@@@@........OOOOOOOOOOOOOOOO",
"OOOOOOOOOOOOOOOO........@@@@@@@@@@@@@@@@@@@@@@@@@@@@@@@@@@@@@@@@@@@@@@@@@@@@@@@@@@@@@@@@@@@@@@@@@@@@@@@@........OOOOOOOOOOOOOOOO",
"OOOOOOOOOOOOOOOO........@@@@@@@@@@@@@@@@@@@@@@@@@@@@@@@@@@@@@@@@@@@@@@@@@@@@@@@@@@@@@@@@@@@@@@@@@@@@@@@@........OOOOOOOOOOOOOOOO",
"OOOOOOOOOOOOOOOO........@@@@@@@@@@@@@@@@@@@@@@@@@@@@@@@@@@@@@@@@@@@@@@@@@@@@@@@@@@@@@@@@@@@@@@@@@@@@@@@@........OOOOOOOOOOOOOOOO",
"OOOOOOOOOOOOOOOOOOOOOOOO................XXXXXXXXXXXXXXXXXXXXXXXXXXXXXXXXXXXXXXXXXXXXXXXX........................OOOOOOOOOOOOOOOO",
"OOOOOOOOOOOOOOOOOOOOOOOO................XXXXXXXXXXXXXXXXXXXXXXXXXXXXXXXXXXXXXXXXXXXXXXXX........................OOOOOOOOOOOOOOOO",
"OOOOOOOOOOOOOOOOOOOOOOOO................XXXXXXXXXXXXXXXXXXXXXXXXXXXXXXXXXXXXXXXXXXXXXXXX........................OOOOOOOOOOOOOOOO",
"OOOOOOOOOOOOOOOOOOOOOOOO................XXXXXXXXXXXXXXXXXXXXXXXXXXXXXXXXXXXXXXXXXXXXXXXX........................OOOOOOOOOOOOOOOO",
"OOOOOOOOOOOOOOOOOOOOOOOO................XXXXXXXXXXXXXXXXXXXXXXXXXXXXXXXXXXXXXXXXXXXXXXXX........................OOOOOOOOOOOOOOOO",
"OOOOOOOOOOOOOOOOOOOOOOOO................XXXXXXXXXXXXXXXXXXXXXXXXXXXXXXXXXXXXXXXXXXXXXXXX........................OOOOOOOOOOOOOOOO",
"OOOOOOOOOOOOOOOOOOOOOOOO................XXXXXXXXXXXXXXXXXXXXXXXXXXXXXXXXXXXXXXXXXXXXXXXX........................OOOOOOOOOOOOOOOO",
"OOOOOOOOOOOOOOOOOOOOOOOO................XXXXXXXXXXXXXXXXXXXXXXXXXXXXXXXXXXXXXXXXXXXXXXXX........................OOOOOOOOOOOOOOOO",
"OOOOOOOOOOOOOOOOOOOOOOOO................XXXXXXXXXXXXXXXX................XXXXXXXXXXXXXXXX@@@@@@@@++++++++........OOOOOOOOOOOOOOOO",
"OOOOOOOOOOOOOOOOOOOOOOOO................XXXXXXXXXXXXXXXX................XXXXXXXXXXXXXXXX@@@@@@@@++++++++........OOOOOOOOOOOOOOOO",
"OOOOOOOOOOOOOOOOOOOOOOOO................XXXXXXXXXXXXXXXX................XXXXXXXXXXXXXXXX@@@@@@@@++++++++........OOOOOOOOOOOOOOOO",
"OOOOOOOOOOOOOOOOOOOOOOOO................XXXXXXXXXXXXXXXX................XXXXXXXXXXXXXXXX@@@@@@@@++++++++........OOOOOOOOOOOOOOOO",
"OOOOOOOOOOOOOOOOOOOOOOOO................XXXXXXXXXXXXXXXX................XXXXXXXXXXXXXXXX@@@@@@@@++++++++........OOOOOOOOOOOOOOOO",
"OOOOOOOOOOOOOOOOOOOOOOOO................XXXXXXXXXXXXXXXX................XXXXXXXXXXXXXXXX@@@@@@@@++++++++........OOOOOOOOOOOOOOOO",
"OOOOOOOOOOOOOOOOOOOOOOOO................XXXXXXXXXXXXXXXX................XXXXXXXXXXXXXXXX@@@@@@@@++++++++........OOOOOOOOOOOOOOOO",
"OOOOOOOOOOOOOOOOOOOOOOOO................XXXXXXXXXXXXXXXX................XXXXXXXXXXXXXXXX@@@@@@@@++++++++........OOOOOOOOOOOOOOOO",
"OOOOOOOOOOOOOOOO........++++++++@@@@@@@@@@@@@@@@........@@@@@@@@@@@@@@@@........@@@@@@@@@@@@@@@@........OOOOOOOOOOOOOOOOOOOOOOOO",
"OOOOOOOOOOOOOOOO........++++++++@@@@@@@@@@@@@@@@........@@@@@@@@@@@@@@@@........@@@@@@@@@@@@@@@@........OOOOOOOOOOOOOOOOOOOOOOOO",
"OOOOOOOOOOOOOOOO........++++++++@@@@@@@@@@@@@@@@........@@@@@@@@@@@@@@@@........@@@@@@@@@@@@@@@@........OOOOOOOOOOOOOOOOOOOOOOOO",
"OOOOOOOOOOOOOOOO........++++++++@@@@@@@@@@@@@@@@........@@@@@@@@@@@@@@@@........@@@@@@@@@@@@@@@@........OOOOOOOOOOOOOOOOOOOOOOOO",
"OOOOOOOOOOOOOOOO........++++++++@@@@@@@@@@@@@@@@........@@@@@@@@@@@@@@@@........@@@@@@@@@@@@@@@@........OOOOOOOOOOOOOOOOOOOOOOOO",
"OOOOOOOOOOOOOOOO........++++++++@@@@@@@@@@@@@@@@........@@@@@@@@@@@@@@@@........@@@@@@@@@@@@@@@@........OOOOOOOOOOOOOOOOOOOOOOOO",
"OOOOOOOOOOOOOOOO........++++++++@@@@@@@@@@@@@@@@........@@@@@@@@@@@@@@@@........@@@@@@@@@@@@@@@@........OOOOOOOOOOOOOOOOOOOOOOOO",
"OOOOOOOOOOOOOOOO........++++++++@@@@@@@@@@@@@@@@........@@@@@@@@@@@@@@@@........@@@@@@@@@@@@@@@@........OOOOOOOOOOOOOOOOOOOOOOOO",
"OOOOOOOOOOOOOOOO........++++++++@@@@@@@@........@@@@@@@@@@@@@@@@@@@@@@@@@@@@@@@@@@@@@@@@........OOOOOOOOOOOOOOOOOOOOOOOOOOOOOOOO",
"OOOOOOOOOOOOOOOO........++++++++@@@@@@@@........@@@@@@@@@@@@@@@@@@@@@@@@@@@@@@@@@@@@@@@@........OOOOOOOOOOOOOOOOOOOOOOOOOOOOOOOO",
"OOOOOOOOOOOOOOOO........++++++++@@@@@@@@........@@@@@@@@@@@@@@@@@@@@@@@@@@@@@@@@@@@@@@@@........OOOOOOOOOOOOOOOOOOOOOOOOOOOOOOOO",
"OOOOOOOOOOOOOOOO........++++++++@@@@@@@@........@@@@@@@@@@@@@@@@@@@@@@@@@@@@@@@@@@@@@@@@........OOOOOOOOOOOOOOOOOOOOOOOOOOOOOOOO",
"OOOOOOOOOOOOOOOO........++++++++@@@@@@@@........@@@@@@@@@@@@@@@@@@@@@@@@@@@@@@@@@@@@@@@@........OOOOOOOOOOOOOOOOOOOOOOOOOOOOOOOO",
"OOOOOOOOOOOOOOOO........++++++++@@@@@@@@........@@@@@@@@@@@@@@@@@@@@@@@@@@@@@@@@@@@@@@@@........OOOOOOOOOOOOOOOOOOOOOOOOOOOOOOOO",
"OOOOOOOOOOOOOOOO........++++++++@@@@@@@@........@@@@@@@@@@@@@@@@@@@@@@@@@@@@@@@@@@@@@@@@........OOOOOOOOOOOOOOOOOOOOOOOOOOOOOOOO",
"OOOOOOOOOOOOOOOO........++++++++@@@@@@@@........@@@@@@@@@@@@@@@@@@@@@@@@@@@@@@@@@@@@@@@@........OOOOOOOOOOOOOOOOOOOOOOOOOOOOOOOO",
"OOOOOOOOOOOOOOOO........................................................++++++++++++++++........OOOOOOOOOOOOOOOOOOOOOOOOoooooooo",
"OOOOOOOOOOOOOOOO........................................................++++++++++++++++........OOOOOOOOOOOOOOOOOOOOOOOOoooooooo",
"OOOOOOOOOOOOOOOO........................................................++++++++++++++++........OOOOOOOOOOOOOOOOOOOOOOOOoooooooo",
"OOOOOOOOOOOOOOOO........................................................++++++++++++++++........OOOOOOOOOOOOOOOOOOOOOOOOoooooooo",
"OOOOOOOOOOOOOOOO........................................................++++++++++++++++........OOOOOOOOOOOOOOOOOOOOOOOOoooooooo",
"OOOOOOOOOOOOOOOO........................................................++++++++++++++++........OOOOOOOOOOOOOOOOOOOOOOOOoooooooo",
"OOOOOOOOOOOOOOOO........................................................++++++++++++++++........OOOOOOOOOOOOOOOOOOOOOOOOoooooooo",
"OOOOOOOOOOOOOOOO........................................................++++++++++++++++........OOOOOOOOOOOOOOOOOOOOOOOOoooooooo",
"OOOOOOOOOOOOOOOOOOOOOOOOOOOOOOOOOOOOOOOOOOOOOOOOOOOOOOOOOOOOOOOOOOOOOOOO................OOOOOOOOOOOOOOOOOOOOOOOOOOOOOOOOOOOOOOOO",
"OOOOOOOOOOOOOOOOOOOOOOOOOOOOOOOOOOOOOOOOOOOOOOOOOOOOOOOOOOOOOOOOOOOOOOOO................OOOOOOOOOOOOOOOOOOOOOOOOOOOOOOOOOOOOOOOO",
"OOOOOOOOOOOOOOOOOOOOOOOOOOOOOOOOOOOOOOOOOOOOOOOOOOOOOOOOOOOOOOOOOOOOOOOO................OOOOOOOOOOOOOOOOOOOOOOOOOOOOOOOOOOOOOOOO",
"OOOOOOOOOOOOOOOOOOOOOOOOOOOOOOOOOOOOOOOOOOOOOOOOOOOOOOOOOOOOOOOOOOOOOOOO................OOOOOOOOOOOOOOOOOOOOOOOOOOOOOOOOOOOOOOOO",
"OOOOOOOOOOOOOOOOOOOOOOOOOOOOOOOOOOOOOOOOOOOOOOOOOOOOOOOOOOOOOOOOOOOOOOOO................OOOOOOOOOOOOOOOOOOOOOOOOOOOOOOOOOOOOOOOO",
"OOOOOOOOOOOOOOOOOOOOOOOOOOOOOOOOOOOOOOOOOOOOOOOOOOOOOOOOOOOOOOOOOOOOOOOO................OOOOOOOOOOOOOOOOOOOOOOOOOOOOOOOOOOOOOOOO",
"OOOOOOOOOOOOOOOOOOOOOOOOOOOOOOOOOOOOOOOOOOOOOOOOOOOOOOOOOOOOOOOOOOOOOOOO................OOOOOOOOOOOOOOOOOOOOOOOOOOOOOOOOOOOOOOOO",
"OOOOOOOOOOOOOOOOOOOOOOOOOOOOOOOOOOOOOOOOOOOOOOOOOOOOOOOOOOOOOOOOOOOOOOOO................OOOOOOOOOOOOOOOOOOOOOOOOOOOOOOOOOOOOOOOO"
};
