/* XPM */
static char *char_back_2_bg1705689242[] = {
/* columns rows colors chars-per-pixel */
"128 128 8 1 ",
"  c #A8BF65",
". c #5C4C94",
"X c #746CAC",
"o c #DCBC8C",
"O c #ECCCA4",
"+ c #ECDCB4",
"@ c #DCD4DC",
"# c #F4F4C4",
/* pixels */
"OOOOOOOOOOOOOOOO................................OOOOOOOOOOOOOOOOOOOOOOOOOOOOOOOOOOOOOOOO........................        OOOOOOOO",
"OOOOOOOOOOOOOOOO................................OOOOOOOOOOOOOOOOOOOOOOOOOOOOOOOOOOOOOOOO........................        OOOOOOOO",
"OOOOOOOOOOOOOOOO................................OOOOOOOOOOOOOOOOOOOOOOOOOOOOOOOOOOOOOOOO........................        OOOOOOOO",
"OOOOOOOOOOOOOOOO................................OOOOOOOOOOOOOOOOOOOOOOOOOOOOOOOOOOOOOOOO........................        OOOOOOOO",
"OOOOOOOOOOOOOOOO................................OOOOOOOOOOOOOOOOOOOOOOOOOOOOOOOOOOOOOOOO........................        OOOOOOOO",
"OOOOOOOOOOOOOOOO................................OOOOOOOOOOOOOOOOOOOOOOOOOOOOOOOOOOOOOOOO........................        OOOOOOOO",
"OOOOOOOOOOOOOOOO................................OOOOOOOOOOOOOOOOOOOOOOOOOOOOOOOOOOOOOOOO........................        OOOOOOOO",
"OOOOOOOOOOOOOOOO................................OOOOOOOOOOOOOOOOOOOOOOOOOOOOOOOOOOOOOOOO........................        OOOOOOOO",
"OOOOOOOO........########################................................................########################........OOOOOOOO",
"OOOOOOOO........########################................................................########################........OOOOOOOO",
"OOOOOOOO........########################................................................########################........OOOOOOOO",
"OOOOOOOO........########################................................................########################........OOOOOOOO",
"OOOOOOOO........########################................................................########################........OOOOOOOO",
"OOOOOOOO........########################................................................########################........OOOOOOOO",
"OOOOOOOO........########################................................................########################........OOOOOOOO",
"OOOOOOOO........########################................................................########################........OOOOOOOO",
"OOOOOOOO........################################@@@@@@@@@@@@@@@@@@@@@@@@@@@@@@@@################################........OOOOOOOO",
"OOOOOOOO........################################@@@@@@@@@@@@@@@@@@@@@@@@@@@@@@@@################################........OOOOOOOO",
"OOOOOOOO........################################@@@@@@@@@@@@@@@@@@@@@@@@@@@@@@@@################################........OOOOOOOO",
"OOOOOOOO........################################@@@@@@@@@@@@@@@@@@@@@@@@@@@@@@@@################################........OOOOOOOO",
"OOOOOOOO........################################@@@@@@@@@@@@@@@@@@@@@@@@@@@@@@@@################################........OOOOOOOO",
"OOOOOOOO........################################@@@@@@@@@@@@@@@@@@@@@@@@@@@@@@@@################################........OOOOOOOO",
"OOOOOOOO........################################@@@@@@@@@@@@@@@@@@@@@@@@@@@@@@@@################################........OOOOOOOO",
"OOOOOOOO........################################@@@@@@@@@@@@@@@@@@@@@@@@@@@@@@@@################################........OOOOOOOO",
"OOOOOOOO........################################################################################################........OOOOOOOO",
"OOOOOOOO........################################################################################################........OOOOOOOO",
"OOOOOOOO........################################################################################################........OOOOOOOO",
"OOOOOOOO........################################################################################################........OOOOOOOO",
"OOOOOOOO........################################################################################################........OOOOOOOO",
"OOOOOOOO........################################################################################################........OOOOOOOO",
"OOOOOOOO........################################################################################################........OOOOOOOO",
"OOOOOOOO........################################################################################################........OOOOOOOO",
"OOOOOOOOOOOOOOOO........################################################################################........OOOOOOOOOOOOOOOO",
"OOOOOOOOOOOOOOOO........################################################################################........OOOOOOOOOOOOOOOO",
"OOOOOOOOOOOOOOOO........################################################################################........OOOOOOOOOOOOOOOO",
"OOOOOOOOOOOOOOOO........################################################################################........OOOOOOOOOOOOOOOO",
"OOOOOOOOOOOOOOOO........################################################################################........OOOOOOOOOOOOOOOO",
"OOOOOOOOOOOOOOOO........################################################################################........OOOOOOOOOOOOOOOO",
"OOOOOOOOOOOOOOOO........################################################################################........OOOOOOOOOOOOOOOO",
"OOOOOOOOOOOOOOOO........################################################################################........OOOOOOOOOOOOOOOO",
"OOOOOOOO................################################################################################................OOOOOOOO",
"OOOOOOOO................################################################################################................OOOOOOOO",
"OOOOOOOO................################################################################################................OOOOOOOO",
"OOOOOOOO................################################################################################................OOOOOOOO",
"OOOOOOOO................################################################################################................OOOOOOOO",
"OOOOOOOO................################################################################################................OOOOOOOO",
"OOOOOOOO................################################################################################................OOOOOOOO",
"OOOOOOOO................################################################################################................OOOOOOOO",
"OOOOOOOOOOOOOOOO........################################################################################........OOOOOOOOOOOOOOOO",
"OOOOOOOOOOOOOOOO........################################################################################........OOOOOOOOOOOOOOOO",
"OOOOOOOOOOOOOOOO........################################################################################........OOOOOOOOOOOOOOOO",
"OOOOOOOOOOOOOOOO........################################################################################........OOOOOOOOOOOOOOOO",
"OOOOOOOOOOOOOOOO........################################################################################........OOOOOOOOOOOOOOOO",
"OOOOOOOOOOOOOOOO........################################################################################........OOOOOOOOOOOOOOOO",
"OOOOOOOOOOOOOOOO........################################################################################........OOOOOOOOOOOOOOOO",
"OOOOOOOOOOOOOOOO........################################################################################........OOOOOOOOOOOOOOOO",
"OOOOOOOO................################################################################################................OOOOOOOO",
"OOOOOOOO................################################################################################................OOOOOOOO",
"OOOOOOOO................################################################################################................OOOOOOOO",
"OOOOOOOO................################################################################################................OOOOOOOO",
"OOOOOOOO................################################################################################................OOOOOOOO",
"OOOOOOOO................################################################################################................OOOOOOOO",
"OOOOOOOO................################################################################################................OOOOOOOO",
"OOOOOOOO................################################################################################................OOOOOOOO",
"OOOOOOOOOOOOOOOO........################################################################################........OOOOOOOOOOOOOOOO",
"OOOOOOOOOOOOOOOO........################################################################################........OOOOOOOOOOOOOOOO",
"OOOOOOOOOOOOOOOO........################################################################################........OOOOOOOOOOOOOOOO",
"OOOOOOOOOOOOOOOO........################################################################################........OOOOOOOOOOOOOOOO",
"OOOOOOOOOOOOOOOO........################################################################################........OOOOOOOOOOOOOOOO",
"OOOOOOOOOOOOOOOO........################################################################################........OOOOOOOOOOOOOOOO",
"OOOOOOOOOOOOOOOO........################################################################################........OOOOOOOOOOOOOOOO",
"OOOOOOOOOOOOOOOO........################################################################################........OOOOOOOOOOOOOOOO",
"OOOOOOOOOOOOOOOOOOOOOOOO................XXXXXXXXXXXXXXXXXXXXXXXXXXXXXXXXXXXXXXXXXXXXXXXX................OOOOOOOOOOOOOOOOOOOOOOOO",
"OOOOOOOOOOOOOOOOOOOOOOOO................XXXXXXXXXXXXXXXXXXXXXXXXXXXXXXXXXXXXXXXXXXXXXXXX................OOOOOOOOOOOOOOOOOOOOOOOO",
"OOOOOOOOOOOOOOOOOOOOOOOO................XXXXXXXXXXXXXXXXXXXXXXXXXXXXXXXXXXXXXXXXXXXXXXXX................OOOOOOOOOOOOOOOOOOOOOOOO",
"OOOOOOOOOOOOOOOOOOOOOOOO................XXXXXXXXXXXXXXXXXXXXXXXXXXXXXXXXXXXXXXXXXXXXXXXX................OOOOOOOOOOOOOOOOOOOOOOOO",
"OOOOOOOOOOOOOOOOOOOOOOOO................XXXXXXXXXXXXXXXXXXXXXXXXXXXXXXXXXXXXXXXXXXXXXXXX................OOOOOOOOOOOOOOOOOOOOOOOO",
"OOOOOOOOOOOOOOOOOOOOOOOO................XXXXXXXXXXXXXXXXXXXXXXXXXXXXXXXXXXXXXXXXXXXXXXXX................OOOOOOOOOOOOOOOOOOOOOOOO",
"OOOOOOOOOOOOOOOOOOOOOOOO................XXXXXXXXXXXXXXXXXXXXXXXXXXXXXXXXXXXXXXXXXXXXXXXX................OOOOOOOOOOOOOOOOOOOOOOOO",
"OOOOOOOOOOOOOOOOOOOOOOOO................XXXXXXXXXXXXXXXXXXXXXXXXXXXXXXXXXXXXXXXXXXXXXXXX................OOOOOOOOOOOOOOOOOOOOOOOO",
"OOOOOOOOOOOOOOOOOOOOOOOOOOOOOOOO........XXXXXXXXXXXXXXXXXXXXXXXXXXXXXXXXXXXXXXXXXXXXXXXX........OOOOOOOOOOOOOOOOOOOOOOOOOOOOOOOO",
"OOOOOOOOOOOOOOOOOOOOOOOOOOOOOOOO........XXXXXXXXXXXXXXXXXXXXXXXXXXXXXXXXXXXXXXXXXXXXXXXX........OOOOOOOOOOOOOOOOOOOOOOOOOOOOOOOO",
"OOOOOOOOOOOOOOOOOOOOOOOOOOOOOOOO........XXXXXXXXXXXXXXXXXXXXXXXXXXXXXXXXXXXXXXXXXXXXXXXX........OOOOOOOOOOOOOOOOOOOOOOOOOOOOOOOO",
"OOOOOOOOOOOOOOOOOOOOOOOOOOOOOOOO........XXXXXXXXXXXXXXXXXXXXXXXXXXXXXXXXXXXXXXXXXXXXXXXX........OOOOOOOOOOOOOOOOOOOOOOOOOOOOOOOO",
"OOOOOOOOOOOOOOOOOOOOOOOOOOOOOOOO........XXXXXXXXXXXXXXXXXXXXXXXXXXXXXXXXXXXXXXXXXXXXXXXX........OOOOOOOOOOOOOOOOOOOOOOOOOOOOOOOO",
"OOOOOOOOOOOOOOOOOOOOOOOOOOOOOOOO........XXXXXXXXXXXXXXXXXXXXXXXXXXXXXXXXXXXXXXXXXXXXXXXX........OOOOOOOOOOOOOOOOOOOOOOOOOOOOOOOO",
"OOOOOOOOOOOOOOOOOOOOOOOOOOOOOOOO........XXXXXXXXXXXXXXXXXXXXXXXXXXXXXXXXXXXXXXXXXXXXXXXX........OOOOOOOOOOOOOOOOOOOOOOOOOOOOOOOO",
"OOOOOOOOOOOOOOOOOOOOOOOOOOOOOOOO........XXXXXXXXXXXXXXXXXXXXXXXXXXXXXXXXXXXXXXXXXXXXXXXX........OOOOOOOOOOOOOOOOOOOOOOOOOOOOOOOO",
"OOOOOOOOOOOOOOOOOOOOOOOO........@@@@@@@@################................################@@@@@@@@........++++++++OOOOOOOOOOOOOOOO",
"OOOOOOOOOOOOOOOOOOOOOOOO........@@@@@@@@################................################@@@@@@@@........++++++++OOOOOOOOOOOOOOOO",
"OOOOOOOOOOOOOOOOOOOOOOOO........@@@@@@@@################................################@@@@@@@@........++++++++OOOOOOOOOOOOOOOO",
"OOOOOOOOOOOOOOOOOOOOOOOO........@@@@@@@@################................################@@@@@@@@........++++++++OOOOOOOOOOOOOOOO",
"OOOOOOOOOOOOOOOOOOOOOOOO........@@@@@@@@################................################@@@@@@@@........++++++++OOOOOOOOOOOOOOOO",
"OOOOOOOOOOOOOOOOOOOOOOOO........@@@@@@@@################................################@@@@@@@@........++++++++OOOOOOOOOOOOOOOO",
"OOOOOOOOOOOOOOOOOOOOOOOO........@@@@@@@@################................################@@@@@@@@........++++++++OOOOOOOOOOOOOOOO",
"OOOOOOOOOOOOOOOOOOOOOOOO........@@@@@@@@################................################@@@@@@@@........++++++++OOOOOOOOOOOOOOOO",
"OOOOOOOOOOOOOOOO        ........@@@@@@@@########........################........########@@@@@@@@........OOOOOOOOOOOOOOOOOOOOOOOO",
"OOOOOOOOOOOOOOOO        ........@@@@@@@@########........################........########@@@@@@@@........OOOOOOOOOOOOOOOOOOOOOOOO",
"OOOOOOOOOOOOOOOO        ........@@@@@@@@########........################........########@@@@@@@@........OOOOOOOOOOOOOOOOOOOOOOOO",
"OOOOOOOOOOOOOOOO        ........@@@@@@@@########........################........########@@@@@@@@........OOOOOOOOOOOOOOOOOOOOOOOO",
"OOOOOOOOOOOOOOOO        ........@@@@@@@@########........################........########@@@@@@@@........OOOOOOOOOOOOOOOOOOOOOOOO",
"OOOOOOOOOOOOOOOO        ........@@@@@@@@########........################........########@@@@@@@@........OOOOOOOOOOOOOOOOOOOOOOOO",
"OOOOOOOOOOOOOOOO        ........@@@@@@@@########........################........########@@@@@@@@........OOOOOOOOOOOOOOOOOOOOOOOO",
"OOOOOOOOOOOOOOOO        ........@@@@@@@@########........################........########@@@@@@@@........OOOOOOOOOOOOOOOOOOOOOOOO",
"OOOOOOOOOOOOOOOOOOOOOOOO        ........################################################........OOOOOOOOOOOOOOOOOOOOOOOOOOOOOOOO",
"OOOOOOOOOOOOOOOOOOOOOOOO        ........################################################........OOOOOOOOOOOOOOOOOOOOOOOOOOOOOOOO",
"OOOOOOOOOOOOOOOOOOOOOOOO        ........################################################........OOOOOOOOOOOOOOOOOOOOOOOOOOOOOOOO",
"OOOOOOOOOOOOOOOOOOOOOOOO        ........################################################........OOOOOOOOOOOOOOOOOOOOOOOOOOOOOOOO",
"OOOOOOOOOOOOOOOOOOOOOOOO        ........################################################........OOOOOOOOOOOOOOOOOOOOOOOOOOOOOOOO",
"OOOOOOOOOOOOOOOOOOOOOOOO        ........################################################........OOOOOOOOOOOOOOOOOOOOOOOOOOOOOOOO",
"OOOOOOOOOOOOOOOOOOOOOOOO        ........################################################........OOOOOOOOOOOOOOOOOOOOOOOOOOOOOOOO",
"OOOOOOOOOOOOOOOOOOOOOOOO        ........################################################........OOOOOOOOOOOOOOOOOOOOOOOOOOOOOOOO",
"OOOOOOOOOOOOOOOOOOOOOOOOOOOOOOOO........@@@@@@@@@@@@@@@@................@@@@@@@@@@@@@@@@........OOOOOOOOOOOOOOOOOOOOOOOOoooooooo",
"OOOOOOOOOOOOOOOOOOOOOOOOOOOOOOOO........@@@@@@@@@@@@@@@@................@@@@@@@@@@@@@@@@........OOOOOOOOOOOOOOOOOOOOOOOOoooooooo",
"OOOOOOOOOOOOOOOOOOOOOOOOOOOOOOOO........@@@@@@@@@@@@@@@@................@@@@@@@@@@@@@@@@........OOOOOOOOOOOOOOOOOOOOOOOOoooooooo",
"OOOOOOOOOOOOOOOOOOOOOOOOOOOOOOOO........@@@@@@@@@@@@@@@@................@@@@@@@@@@@@@@@@........OOOOOOOOOOOOOOOOOOOOOOOOoooooooo",
"OOOOOOOOOOOOOOOOOOOOOOOOOOOOOOOO........@@@@@@@@@@@@@@@@................@@@@@@@@@@@@@@@@........OOOOOOOOOOOOOOOOOOOOOOOOoooooooo",
"OOOOOOOOOOOOOOOOOOOOOOOOOOOOOOOO........@@@@@@@@@@@@@@@@................@@@@@@@@@@@@@@@@........OOOOOOOOOOOOOOOOOOOOOOOOoooooooo",
"OOOOOOOOOOOOOOOOOOOOOOOOOOOOOOOO........@@@@@@@@@@@@@@@@................@@@@@@@@@@@@@@@@........OOOOOOOOOOOOOOOOOOOOOOOOoooooooo",
"OOOOOOOOOOOOOOOOOOOOOOOOOOOOOOOO........@@@@@@@@@@@@@@@@................@@@@@@@@@@@@@@@@........OOOOOOOOOOOOOOOOOOOOOOOOoooooooo",
"OOOOOOOOOOOOOOOOOOOOOOOOOOOOOOOOOOOOOOOO................OOOOOOOOOOOOOOOO................OOOOOOOOOOOOOOOOOOOOOOOOOOOOOOOOOOOOOOOO",
"OOOOOOOOOOOOOOOOOOOOOOOOOOOOOOOOOOOOOOOO................OOOOOOOOOOOOOOOO................OOOOOOOOOOOOOOOOOOOOOOOOOOOOOOOOOOOOOOOO",
"OOOOOOOOOOOOOOOOOOOOOOOOOOOOOOOOOOOOOOOO................OOOOOOOOOOOOOOOO................OOOOOOOOOOOOOOOOOOOOOOOOOOOOOOOOOOOOOOOO",
"OOOOOOOOOOOOOOOOOOOOOOOOOOOOOOOOOOOOOOOO................OOOOOOOOOOOOOOOO................OOOOOOOOOOOOOOOOOOOOOOOOOOOOOOOOOOOOOOOO",
"OOOOOOOOOOOOOOOOOOOOOOOOOOOOOOOOOOOOOOOO................OOOOOOOOOOOOOOOO................OOOOOOOOOOOOOOOOOOOOOOOOOOOOOOOOOOOOOOOO",
"OOOOOOOOOOOOOOOOOOOOOOOOOOOOOOOOOOOOOOOO................OOOOOOOOOOOOOOOO................OOOOOOOOOOOOOOOOOOOOOOOOOOOOOOOOOOOOOOOO",
"OOOOOOOOOOOOOOOOOOOOOOOOOOOOOOOOOOOOOOOO................OOOOOOOOOOOOOOOO................OOOOOOOOOOOOOOOOOOOOOOOOOOOOOOOOOOOOOOOO",
"OOOOOOOOOOOOOOOOOOOOOOOOOOOOOOOOOOOOOOOO................OOOOOOOOOOOOOOOO................OOOOOOOOOOOOOOOOOOOOOOOOOOOOOOOOOOOOOOOO"
};
