/* XPM */
static char *char_front_bg1705337378[] = {
/* columns rows colors chars-per-pixel */
"128 128 9 1 ",
"  c #A5BF65",
". c #ECE47C",
"X c #5C4C94",
"o c #746CAC",
"O c #DCBC8C",
"+ c #ECB4AC",
"@ c #ECCCA4",
"# c #DCD4DC",
"$ c #F4F4C4",
/* pixels */
"@@@@@@@@@@@@@@@@@@@@@@@@XXXXXXXXXXXXXXXXXXXXXXXX@@@@@@@@@@@@@@@@@@@@@@@@@@@@@@@@XXXXXXXXXXXXXXXXXXXXXXXX@@@@@@@@        @@@@@@@@",
"@@@@@@@@@@@@@@@@@@@@@@@@XXXXXXXXXXXXXXXXXXXXXXXX@@@@@@@@@@@@@@@@@@@@@@@@@@@@@@@@XXXXXXXXXXXXXXXXXXXXXXXX@@@@@@@@        @@@@@@@@",
"@@@@@@@@@@@@@@@@@@@@@@@@XXXXXXXXXXXXXXXXXXXXXXXX@@@@@@@@@@@@@@@@@@@@@@@@@@@@@@@@XXXXXXXXXXXXXXXXXXXXXXXX@@@@@@@@        @@@@@@@@",
"@@@@@@@@@@@@@@@@@@@@@@@@XXXXXXXXXXXXXXXXXXXXXXXX@@@@@@@@@@@@@@@@@@@@@@@@@@@@@@@@XXXXXXXXXXXXXXXXXXXXXXXX@@@@@@@@        @@@@@@@@",
"@@@@@@@@@@@@@@@@@@@@@@@@XXXXXXXXXXXXXXXXXXXXXXXX@@@@@@@@@@@@@@@@@@@@@@@@@@@@@@@@XXXXXXXXXXXXXXXXXXXXXXXX@@@@@@@@        @@@@@@@@",
"@@@@@@@@@@@@@@@@@@@@@@@@XXXXXXXXXXXXXXXXXXXXXXXX@@@@@@@@@@@@@@@@@@@@@@@@@@@@@@@@XXXXXXXXXXXXXXXXXXXXXXXX@@@@@@@@        @@@@@@@@",
"@@@@@@@@@@@@@@@@@@@@@@@@XXXXXXXXXXXXXXXXXXXXXXXX@@@@@@@@@@@@@@@@@@@@@@@@@@@@@@@@XXXXXXXXXXXXXXXXXXXXXXXX@@@@@@@@        @@@@@@@@",
"@@@@@@@@@@@@@@@@@@@@@@@@XXXXXXXXXXXXXXXXXXXXXXXX@@@@@@@@@@@@@@@@@@@@@@@@@@@@@@@@XXXXXXXXXXXXXXXXXXXXXXXX@@@@@@@@        @@@@@@@@",
"@@@@@@@@@@@@@@@@XXXXXXXX$$$$$$$$$$$$$$$$$$$$$$$$XXXXXXXX@@@@@@@@@@@@@@@@XXXXXXXX$$$$$$$$$$$$$$$$$$$$$$$$XXXXXXXX        @@@@@@@@",
"@@@@@@@@@@@@@@@@XXXXXXXX$$$$$$$$$$$$$$$$$$$$$$$$XXXXXXXX@@@@@@@@@@@@@@@@XXXXXXXX$$$$$$$$$$$$$$$$$$$$$$$$XXXXXXXX        @@@@@@@@",
"@@@@@@@@@@@@@@@@XXXXXXXX$$$$$$$$$$$$$$$$$$$$$$$$XXXXXXXX@@@@@@@@@@@@@@@@XXXXXXXX$$$$$$$$$$$$$$$$$$$$$$$$XXXXXXXX        @@@@@@@@",
"@@@@@@@@@@@@@@@@XXXXXXXX$$$$$$$$$$$$$$$$$$$$$$$$XXXXXXXX@@@@@@@@@@@@@@@@XXXXXXXX$$$$$$$$$$$$$$$$$$$$$$$$XXXXXXXX        @@@@@@@@",
"@@@@@@@@@@@@@@@@XXXXXXXX$$$$$$$$$$$$$$$$$$$$$$$$XXXXXXXX@@@@@@@@@@@@@@@@XXXXXXXX$$$$$$$$$$$$$$$$$$$$$$$$XXXXXXXX        @@@@@@@@",
"@@@@@@@@@@@@@@@@XXXXXXXX$$$$$$$$$$$$$$$$$$$$$$$$XXXXXXXX@@@@@@@@@@@@@@@@XXXXXXXX$$$$$$$$$$$$$$$$$$$$$$$$XXXXXXXX        @@@@@@@@",
"@@@@@@@@@@@@@@@@XXXXXXXX$$$$$$$$$$$$$$$$$$$$$$$$XXXXXXXX@@@@@@@@@@@@@@@@XXXXXXXX$$$$$$$$$$$$$$$$$$$$$$$$XXXXXXXX        @@@@@@@@",
"@@@@@@@@@@@@@@@@XXXXXXXX$$$$$$$$$$$$$$$$$$$$$$$$XXXXXXXX@@@@@@@@@@@@@@@@XXXXXXXX$$$$$$$$$$$$$$$$$$$$$$$$XXXXXXXX        @@@@@@@@",
"@@@@@@@@@@@@@@@@XXXXXXXX++++++++++++++++$$$$$$$$XXXXXXXXXXXXXXXXXXXXXXXXXXXXXXXX$$$$$$$$++++++++++++++++XXXXXXXX@@@@@@@@@@@@@@@@",
"@@@@@@@@@@@@@@@@XXXXXXXX++++++++++++++++$$$$$$$$XXXXXXXXXXXXXXXXXXXXXXXXXXXXXXXX$$$$$$$$++++++++++++++++XXXXXXXX@@@@@@@@@@@@@@@@",
"@@@@@@@@@@@@@@@@XXXXXXXX++++++++++++++++$$$$$$$$XXXXXXXXXXXXXXXXXXXXXXXXXXXXXXXX$$$$$$$$++++++++++++++++XXXXXXXX@@@@@@@@@@@@@@@@",
"@@@@@@@@@@@@@@@@XXXXXXXX++++++++++++++++$$$$$$$$XXXXXXXXXXXXXXXXXXXXXXXXXXXXXXXX$$$$$$$$++++++++++++++++XXXXXXXX@@@@@@@@@@@@@@@@",
"@@@@@@@@@@@@@@@@XXXXXXXX++++++++++++++++$$$$$$$$XXXXXXXXXXXXXXXXXXXXXXXXXXXXXXXX$$$$$$$$++++++++++++++++XXXXXXXX@@@@@@@@@@@@@@@@",
"@@@@@@@@@@@@@@@@XXXXXXXX++++++++++++++++$$$$$$$$XXXXXXXXXXXXXXXXXXXXXXXXXXXXXXXX$$$$$$$$++++++++++++++++XXXXXXXX@@@@@@@@@@@@@@@@",
"@@@@@@@@@@@@@@@@XXXXXXXX++++++++++++++++$$$$$$$$XXXXXXXXXXXXXXXXXXXXXXXXXXXXXXXX$$$$$$$$++++++++++++++++XXXXXXXX@@@@@@@@@@@@@@@@",
"@@@@@@@@@@@@@@@@XXXXXXXX++++++++++++++++$$$$$$$$XXXXXXXXXXXXXXXXXXXXXXXXXXXXXXXX$$$$$$$$++++++++++++++++XXXXXXXX@@@@@@@@@@@@@@@@",
"@@@@@@@@@@@@@@@@XXXXXXXX++++++++++++++++$$$$$$$$################################$$$$$$$$++++++++++++++++XXXXXXXX@@@@@@@@@@@@@@@@",
"@@@@@@@@@@@@@@@@XXXXXXXX++++++++++++++++$$$$$$$$################################$$$$$$$$++++++++++++++++XXXXXXXX@@@@@@@@@@@@@@@@",
"@@@@@@@@@@@@@@@@XXXXXXXX++++++++++++++++$$$$$$$$################################$$$$$$$$++++++++++++++++XXXXXXXX@@@@@@@@@@@@@@@@",
"@@@@@@@@@@@@@@@@XXXXXXXX++++++++++++++++$$$$$$$$################################$$$$$$$$++++++++++++++++XXXXXXXX@@@@@@@@@@@@@@@@",
"@@@@@@@@@@@@@@@@XXXXXXXX++++++++++++++++$$$$$$$$################################$$$$$$$$++++++++++++++++XXXXXXXX@@@@@@@@@@@@@@@@",
"@@@@@@@@@@@@@@@@XXXXXXXX++++++++++++++++$$$$$$$$################################$$$$$$$$++++++++++++++++XXXXXXXX@@@@@@@@@@@@@@@@",
"@@@@@@@@@@@@@@@@XXXXXXXX++++++++++++++++$$$$$$$$################################$$$$$$$$++++++++++++++++XXXXXXXX@@@@@@@@@@@@@@@@",
"@@@@@@@@@@@@@@@@XXXXXXXX++++++++++++++++$$$$$$$$################################$$$$$$$$++++++++++++++++XXXXXXXX@@@@@@@@@@@@@@@@",
"@@@@@@@@@@@@@@@@XXXXXXXX$$$$$$$$$$$$$$$$$$$$$$$$################################$$$$$$$$$$$$$$$$$$$$$$$$XXXXXXXX@@@@@@@@@@@@@@@@",
"@@@@@@@@@@@@@@@@XXXXXXXX$$$$$$$$$$$$$$$$$$$$$$$$################################$$$$$$$$$$$$$$$$$$$$$$$$XXXXXXXX@@@@@@@@@@@@@@@@",
"@@@@@@@@@@@@@@@@XXXXXXXX$$$$$$$$$$$$$$$$$$$$$$$$################################$$$$$$$$$$$$$$$$$$$$$$$$XXXXXXXX@@@@@@@@@@@@@@@@",
"@@@@@@@@@@@@@@@@XXXXXXXX$$$$$$$$$$$$$$$$$$$$$$$$################################$$$$$$$$$$$$$$$$$$$$$$$$XXXXXXXX@@@@@@@@@@@@@@@@",
"@@@@@@@@@@@@@@@@XXXXXXXX$$$$$$$$$$$$$$$$$$$$$$$$################################$$$$$$$$$$$$$$$$$$$$$$$$XXXXXXXX@@@@@@@@@@@@@@@@",
"@@@@@@@@@@@@@@@@XXXXXXXX$$$$$$$$$$$$$$$$$$$$$$$$################################$$$$$$$$$$$$$$$$$$$$$$$$XXXXXXXX@@@@@@@@@@@@@@@@",
"@@@@@@@@@@@@@@@@XXXXXXXX$$$$$$$$$$$$$$$$$$$$$$$$################################$$$$$$$$$$$$$$$$$$$$$$$$XXXXXXXX@@@@@@@@@@@@@@@@",
"@@@@@@@@@@@@@@@@XXXXXXXX$$$$$$$$$$$$$$$$$$$$$$$$################################$$$$$$$$$$$$$$$$$$$$$$$$XXXXXXXX@@@@@@@@@@@@@@@@",
"@@@@@@@@@@@@@@@@XXXXXXXX$$$$$$$$$$$$$$$$$$$$$$$$################################$$$$$$$$$$$$$$$$$$$$$$$$XXXXXXXX@@@@@@@@@@@@@@@@",
"@@@@@@@@@@@@@@@@XXXXXXXX$$$$$$$$$$$$$$$$$$$$$$$$################################$$$$$$$$$$$$$$$$$$$$$$$$XXXXXXXX@@@@@@@@@@@@@@@@",
"@@@@@@@@@@@@@@@@XXXXXXXX$$$$$$$$$$$$$$$$$$$$$$$$################################$$$$$$$$$$$$$$$$$$$$$$$$XXXXXXXX@@@@@@@@@@@@@@@@",
"@@@@@@@@@@@@@@@@XXXXXXXX$$$$$$$$$$$$$$$$$$$$$$$$################################$$$$$$$$$$$$$$$$$$$$$$$$XXXXXXXX@@@@@@@@@@@@@@@@",
"@@@@@@@@@@@@@@@@XXXXXXXX$$$$$$$$$$$$$$$$$$$$$$$$################################$$$$$$$$$$$$$$$$$$$$$$$$XXXXXXXX@@@@@@@@@@@@@@@@",
"@@@@@@@@@@@@@@@@XXXXXXXX$$$$$$$$$$$$$$$$$$$$$$$$################################$$$$$$$$$$$$$$$$$$$$$$$$XXXXXXXX@@@@@@@@@@@@@@@@",
"@@@@@@@@@@@@@@@@XXXXXXXX$$$$$$$$$$$$$$$$$$$$$$$$################################$$$$$$$$$$$$$$$$$$$$$$$$XXXXXXXX@@@@@@@@@@@@@@@@",
"@@@@@@@@@@@@@@@@XXXXXXXX$$$$$$$$$$$$$$$$$$$$$$$$################################$$$$$$$$$$$$$$$$$$$$$$$$XXXXXXXX@@@@@@@@@@@@@@@@",
"@@@@@@@@XXXXXXXXXXXXXXXX$$$$$$$$$$$$$$$$$$$$$$$$$$$$$$$$$$$$$$$$$$$$$$$$$$$$$$$$$$$$$$$$$$$$$$$$$$$$$$$$XXXXXXXXXXXXXXXX@@@@@@@@",
"@@@@@@@@XXXXXXXXXXXXXXXX$$$$$$$$$$$$$$$$$$$$$$$$$$$$$$$$$$$$$$$$$$$$$$$$$$$$$$$$$$$$$$$$$$$$$$$$$$$$$$$$XXXXXXXXXXXXXXXX@@@@@@@@",
"@@@@@@@@XXXXXXXXXXXXXXXX$$$$$$$$$$$$$$$$$$$$$$$$$$$$$$$$$$$$$$$$$$$$$$$$$$$$$$$$$$$$$$$$$$$$$$$$$$$$$$$$XXXXXXXXXXXXXXXX@@@@@@@@",
"@@@@@@@@XXXXXXXXXXXXXXXX$$$$$$$$$$$$$$$$$$$$$$$$$$$$$$$$$$$$$$$$$$$$$$$$$$$$$$$$$$$$$$$$$$$$$$$$$$$$$$$$XXXXXXXXXXXXXXXX@@@@@@@@",
"@@@@@@@@XXXXXXXXXXXXXXXX$$$$$$$$$$$$$$$$$$$$$$$$$$$$$$$$$$$$$$$$$$$$$$$$$$$$$$$$$$$$$$$$$$$$$$$$$$$$$$$$XXXXXXXXXXXXXXXX@@@@@@@@",
"@@@@@@@@XXXXXXXXXXXXXXXX$$$$$$$$$$$$$$$$$$$$$$$$$$$$$$$$$$$$$$$$$$$$$$$$$$$$$$$$$$$$$$$$$$$$$$$$$$$$$$$$XXXXXXXXXXXXXXXX@@@@@@@@",
"@@@@@@@@XXXXXXXXXXXXXXXX$$$$$$$$$$$$$$$$$$$$$$$$$$$$$$$$$$$$$$$$$$$$$$$$$$$$$$$$$$$$$$$$$$$$$$$$$$$$$$$$XXXXXXXXXXXXXXXX@@@@@@@@",
"@@@@@@@@XXXXXXXXXXXXXXXX$$$$$$$$$$$$$$$$$$$$$$$$$$$$$$$$$$$$$$$$$$$$$$$$$$$$$$$$$$$$$$$$$$$$$$$$$$$$$$$$XXXXXXXXXXXXXXXX@@@@@@@@",
"@@@@@@@@@@@@@@@@XXXXXXXX$$$$$$$$XXXXXXXX$$$$$$$$$$$$$$$$$$$$$$$$$$$$$$$$$$$$$$$$$$$$$$$$XXXXXXXX$$$$$$$$XXXXXXXX@@@@@@@@@@@@@@@@",
"@@@@@@@@@@@@@@@@XXXXXXXX$$$$$$$$XXXXXXXX$$$$$$$$$$$$$$$$$$$$$$$$$$$$$$$$$$$$$$$$$$$$$$$$XXXXXXXX$$$$$$$$XXXXXXXX@@@@@@@@@@@@@@@@",
"@@@@@@@@@@@@@@@@XXXXXXXX$$$$$$$$XXXXXXXX$$$$$$$$$$$$$$$$$$$$$$$$$$$$$$$$$$$$$$$$$$$$$$$$XXXXXXXX$$$$$$$$XXXXXXXX@@@@@@@@@@@@@@@@",
"@@@@@@@@@@@@@@@@XXXXXXXX$$$$$$$$XXXXXXXX$$$$$$$$$$$$$$$$$$$$$$$$$$$$$$$$$$$$$$$$$$$$$$$$XXXXXXXX$$$$$$$$XXXXXXXX@@@@@@@@@@@@@@@@",
"@@@@@@@@@@@@@@@@XXXXXXXX$$$$$$$$XXXXXXXX$$$$$$$$$$$$$$$$$$$$$$$$$$$$$$$$$$$$$$$$$$$$$$$$XXXXXXXX$$$$$$$$XXXXXXXX@@@@@@@@@@@@@@@@",
"@@@@@@@@@@@@@@@@XXXXXXXX$$$$$$$$XXXXXXXX$$$$$$$$$$$$$$$$$$$$$$$$$$$$$$$$$$$$$$$$$$$$$$$$XXXXXXXX$$$$$$$$XXXXXXXX@@@@@@@@@@@@@@@@",
"@@@@@@@@@@@@@@@@XXXXXXXX$$$$$$$$XXXXXXXX$$$$$$$$$$$$$$$$$$$$$$$$$$$$$$$$$$$$$$$$$$$$$$$$XXXXXXXX$$$$$$$$XXXXXXXX@@@@@@@@@@@@@@@@",
"@@@@@@@@@@@@@@@@XXXXXXXX$$$$$$$$XXXXXXXX$$$$$$$$$$$$$$$$$$$$$$$$$$$$$$$$$$$$$$$$$$$$$$$$XXXXXXXX$$$$$$$$XXXXXXXX@@@@@@@@@@@@@@@@",
"@@@@@@@@XXXXXXXXXXXXXXXX$$$$$$$$$$$$$$$$$$$$$$$$$$$$$$$$$$$$$$$$$$$$$$$$$$$$$$$$$$$$$$$$$$$$$$$$$$$$$$$$XXXXXXXXXXXXXXXX@@@@@@@@",
"@@@@@@@@XXXXXXXXXXXXXXXX$$$$$$$$$$$$$$$$$$$$$$$$$$$$$$$$$$$$$$$$$$$$$$$$$$$$$$$$$$$$$$$$$$$$$$$$$$$$$$$$XXXXXXXXXXXXXXXX@@@@@@@@",
"@@@@@@@@XXXXXXXXXXXXXXXX$$$$$$$$$$$$$$$$$$$$$$$$$$$$$$$$$$$$$$$$$$$$$$$$$$$$$$$$$$$$$$$$$$$$$$$$$$$$$$$$XXXXXXXXXXXXXXXX@@@@@@@@",
"@@@@@@@@XXXXXXXXXXXXXXXX$$$$$$$$$$$$$$$$$$$$$$$$$$$$$$$$$$$$$$$$$$$$$$$$$$$$$$$$$$$$$$$$$$$$$$$$$$$$$$$$XXXXXXXXXXXXXXXX@@@@@@@@",
"@@@@@@@@XXXXXXXXXXXXXXXX$$$$$$$$$$$$$$$$$$$$$$$$$$$$$$$$$$$$$$$$$$$$$$$$$$$$$$$$$$$$$$$$$$$$$$$$$$$$$$$$XXXXXXXXXXXXXXXX@@@@@@@@",
"@@@@@@@@XXXXXXXXXXXXXXXX$$$$$$$$$$$$$$$$$$$$$$$$$$$$$$$$$$$$$$$$$$$$$$$$$$$$$$$$$$$$$$$$$$$$$$$$$$$$$$$$XXXXXXXXXXXXXXXX@@@@@@@@",
"@@@@@@@@XXXXXXXXXXXXXXXX$$$$$$$$$$$$$$$$$$$$$$$$$$$$$$$$$$$$$$$$$$$$$$$$$$$$$$$$$$$$$$$$$$$$$$$$$$$$$$$$XXXXXXXXXXXXXXXX@@@@@@@@",
"@@@@@@@@XXXXXXXXXXXXXXXX$$$$$$$$$$$$$$$$$$$$$$$$$$$$$$$$$$$$$$$$$$$$$$$$$$$$$$$$$$$$$$$$$$$$$$$$$$$$$$$$XXXXXXXXXXXXXXXX@@@@@@@@",
"@@@@@@@@@@@@@@@@XXXXXXXX@@@@@@@@@@@@@@@@$$$$$$$$$$$$$$$$$$$$$$$$$$$$$$$$$$$$$$$$$$$$$$$$@@@@@@@@@@@@@@@@XXXXXXX@@@@@@@@@@@@@@@@@",
"@@@@@@@@@@@@@@@@XXXXXXXX@@@@@@@@@@@@@@@@$$$$$$$$$$$$$$$$$$$$$$$$$$$$$$$$$$$$$$$$$$$$$$$$@@@@@@@@@@@@@@@@XXXXXXX@@@@@@@@@@@@@@@@@",
"@@@@@@@@@@@@@@@@XXXXXXXX@@@@@@@@@@@@@@@@$$$$$$$$$$$$$$$$$$$$$$$$$$$$$$$$$$$$$$$$$$$$$$$$@@@@@@@@@@@@@@@@XXXXXXX@@@@@@@@@@@@@@@@@",
"@@@@@@@@@@@@@@@@XXXXXXXX@@@@@@@@@@@@@@@@$$$$$$$$$$$$$$$$$$$$$$$$$$$$$$$$$$$$$$$$$$$$$$$$@@@@@@@@@@@@@@@@XXXXXXX@@@@@@@@@@@@@@@@@",
"@@@@@@@@@@@@@@@@XXXXXXXX@@@@@@@@@@@@@@@@$$$$$$$$$$$$$$$$$$$$$$$$$$$$$$$$$$$$$$$$$$$$$$$$@@@@@@@@@@@@@@@@XXXXXXX@@@@@@@@@@@@@@@@@",
"@@@@@@@@@@@@@@@@XXXXXXXX@@@@@@@@@@@@@@@@$$$$$$$$$$$$$$$$$$$$$$$$$$$$$$$$$$$$$$$$$$$$$$$$@@@@@@@@@@@@@@@@XXXXXXX@@@@@@@@@@@@@@@@@",
"@@@@@@@@@@@@@@@@XXXXXXXX@@@@@@@@@@@@@@@@$$$$$$$$$$$$$$$$$$$$$$$$$$$$$$$$$$$$$$$$$$$$$$$$@@@@@@@@@@@@@@@@XXXXXXX@@@@@@@@@@@@@@@@@",
"@@@@@@@@@@@@@@@@XXXXXXXX@@@@@@@@@@@@@@@@$$$$$$$$$$$$$$$$$$$$$$$$$$$$$$$$$$$$$$$$$$$$$$$$@@@@@@@@@@@@@@@@XXXXXXX@@@@@@@@@@@@@@@@@",
"@@@@@@@@@@@@@@@@@@@@@@@@XXXXXXXXXXXXXXXXooooooooooooooooooooooooooooooooooooooooooooooooXXXXXXXXXXXXXXXX@@@@@@@@@@@@@@@@@@@@@@@@",
"@@@@@@@@@@@@@@@@@@@@@@@@XXXXXXXXXXXXXXXXooooooooooooooooooooooooooooooooooooooooooooooooXXXXXXXXXXXXXXXX@@@@@@@@@@@@@@@@@@@@@@@@",
"@@@@@@@@@@@@@@@@@@@@@@@@XXXXXXXXXXXXXXXXooooooooooooooooooooooooooooooooooooooooooooooooXXXXXXXXXXXXXXXX@@@@@@@@@@@@@@@@@@@@@@@@",
"@@@@@@@@@@@@@@@@@@@@@@@@XXXXXXXXXXXXXXXXooooooooooooooooooooooooooooooooooooooooooooooooXXXXXXXXXXXXXXXX@@@@@@@@@@@@@@@@@@@@@@@@",
"@@@@@@@@@@@@@@@@@@@@@@@@XXXXXXXXXXXXXXXXooooooooooooooooooooooooooooooooooooooooooooooooXXXXXXXXXXXXXXXX@@@@@@@@@@@@@@@@@@@@@@@@",
"@@@@@@@@@@@@@@@@@@@@@@@@XXXXXXXXXXXXXXXXooooooooooooooooooooooooooooooooooooooooooooooooXXXXXXXXXXXXXXXX@@@@@@@@@@@@@@@@@@@@@@@@",
"@@@@@@@@@@@@@@@@@@@@@@@@XXXXXXXXXXXXXXXXooooooooooooooooooooooooooooooooooooooooooooooooXXXXXXXXXXXXXXXX@@@@@@@@@@@@@@@@@@@@@@@@",
"@@@@@@@@@@@@@@@@@@@@@@@@XXXXXXXXXXXXXXXXooooooooooooooooooooooooooooooooooooooooooooooooXXXXXXXXXXXXXXXX@@@@@@@@@@@@@@@@@@@@@@@@",
"@@@@@@@@@@@@@@@@XXXXXXXX########$$$$$$$$oooooooooooooooo........########oooooooooooooooo$$$$$$$$########XXXXXXXX@@@@@@@@@@@@@@@@",
"@@@@@@@@@@@@@@@@XXXXXXXX########$$$$$$$$oooooooooooooooo........########oooooooooooooooo$$$$$$$$########XXXXXXXX@@@@@@@@@@@@@@@@",
"@@@@@@@@@@@@@@@@XXXXXXXX########$$$$$$$$oooooooooooooooo........########oooooooooooooooo$$$$$$$$########XXXXXXXX@@@@@@@@@@@@@@@@",
"@@@@@@@@@@@@@@@@XXXXXXXX########$$$$$$$$oooooooooooooooo........########oooooooooooooooo$$$$$$$$########XXXXXXXX@@@@@@@@@@@@@@@@",
"@@@@@@@@@@@@@@@@XXXXXXXX########$$$$$$$$oooooooooooooooo........########oooooooooooooooo$$$$$$$$########XXXXXXXX@@@@@@@@@@@@@@@@",
"@@@@@@@@@@@@@@@@XXXXXXXX########$$$$$$$$oooooooooooooooo........########oooooooooooooooo$$$$$$$$########XXXXXXXX@@@@@@@@@@@@@@@@",
"@@@@@@@@@@@@@@@@XXXXXXXX########$$$$$$$$oooooooooooooooo........########oooooooooooooooo$$$$$$$$########XXXXXXXX@@@@@@@@@@@@@@@@",
"@@@@@@@@@@@@@@@@XXXXXXXX########$$$$$$$$oooooooooooooooo........########oooooooooooooooo$$$$$$$$########XXXXXXXX@@@@@@@@@@@@@@@@",
"@@@@@@@@@@@@@@@@XXXXXXXX########$$$$$$$$$$$$$$$$$$$$$$$$................$$$$$$$$$$$$$$$$$$$$$$$$########XXXXXXXX@@@@@@@@@@@@@@@@",
"@@@@@@@@@@@@@@@@XXXXXXXX########$$$$$$$$$$$$$$$$$$$$$$$$................$$$$$$$$$$$$$$$$$$$$$$$$########XXXXXXXX@@@@@@@@@@@@@@@@",
"@@@@@@@@@@@@@@@@XXXXXXXX########$$$$$$$$$$$$$$$$$$$$$$$$................$$$$$$$$$$$$$$$$$$$$$$$$########XXXXXXXX@@@@@@@@@@@@@@@@",
"@@@@@@@@@@@@@@@@XXXXXXXX########$$$$$$$$$$$$$$$$$$$$$$$$................$$$$$$$$$$$$$$$$$$$$$$$$########XXXXXXXX@@@@@@@@@@@@@@@@",
"@@@@@@@@@@@@@@@@XXXXXXXX########$$$$$$$$$$$$$$$$$$$$$$$$................$$$$$$$$$$$$$$$$$$$$$$$$########XXXXXXXX@@@@@@@@@@@@@@@@",
"@@@@@@@@@@@@@@@@XXXXXXXX########$$$$$$$$$$$$$$$$$$$$$$$$................$$$$$$$$$$$$$$$$$$$$$$$$########XXXXXXXX@@@@@@@@@@@@@@@@",
"@@@@@@@@@@@@@@@@XXXXXXXX########$$$$$$$$$$$$$$$$$$$$$$$$................$$$$$$$$$$$$$$$$$$$$$$$$########XXXXXXXX@@@@@@@@@@@@@@@@",
"@@@@@@@@@@@@@@@@XXXXXXXX########$$$$$$$$$$$$$$$$$$$$$$$$................$$$$$$$$$$$$$$$$$$$$$$$$########XXXXXXXX@@@@@@@@@@@@@@@@",
"@@@@@@@@@@@@@@@@@@@@@@@@XXXXXXXXXXXXXXXX$$$$$$$$$$$$$$$$$$$$$$$$$$$$$$$$$$$$$$$$$$$$$$$$XXXXXXXXXXXXXXXX@@@@@@@@@@@@@@@@@@@@@@@@",
"@@@@@@@@@@@@@@@@@@@@@@@@XXXXXXXXXXXXXXXX$$$$$$$$$$$$$$$$$$$$$$$$$$$$$$$$$$$$$$$$$$$$$$$$XXXXXXXXXXXXXXXX@@@@@@@@@@@@@@@@@@@@@@@@",
"@@@@@@@@@@@@@@@@@@@@@@@@XXXXXXXXXXXXXXXX$$$$$$$$$$$$$$$$$$$$$$$$$$$$$$$$$$$$$$$$$$$$$$$$XXXXXXXXXXXXXXXX@@@@@@@@@@@@@@@@@@@@@@@@",
"@@@@@@@@@@@@@@@@@@@@@@@@XXXXXXXXXXXXXXXX$$$$$$$$$$$$$$$$$$$$$$$$$$$$$$$$$$$$$$$$$$$$$$$$XXXXXXXXXXXXXXXX@@@@@@@@@@@@@@@@@@@@@@@@",
"@@@@@@@@@@@@@@@@@@@@@@@@XXXXXXXXXXXXXXXX$$$$$$$$$$$$$$$$$$$$$$$$$$$$$$$$$$$$$$$$$$$$$$$$XXXXXXXXXXXXXXXX@@@@@@@@@@@@@@@@@@@@@@@@",
"@@@@@@@@@@@@@@@@@@@@@@@@XXXXXXXXXXXXXXXX$$$$$$$$$$$$$$$$$$$$$$$$$$$$$$$$$$$$$$$$$$$$$$$$XXXXXXXXXXXXXXXX@@@@@@@@@@@@@@@@@@@@@@@@",
"@@@@@@@@@@@@@@@@@@@@@@@@XXXXXXXXXXXXXXXX$$$$$$$$$$$$$$$$$$$$$$$$$$$$$$$$$$$$$$$$$$$$$$$$XXXXXXXXXXXXXXXX@@@@@@@@@@@@@@@@@@@@@@@@",
"@@@@@@@@@@@@@@@@@@@@@@@@XXXXXXXXXXXXXXXX$$$$$$$$$$$$$$$$$$$$$$$$$$$$$$$$$$$$$$$$$$$$$$$$XXXXXXXXXXXXXXXX@@@@@@@@@@@@@@@@@@@@@@@@",
"@@@@@@@@@@@@@@@@@@@@@@@@@@@@@@@@XXXXXXXX################XXXXXXXXXXXXXXXX################XXXXXXXX@@@@@@@@@@@@@@@@@@@@@@@@OOOOOOOO",
"@@@@@@@@@@@@@@@@@@@@@@@@@@@@@@@@XXXXXXXX################XXXXXXXXXXXXXXXX################XXXXXXXX@@@@@@@@@@@@@@@@@@@@@@@@OOOOOOOO",
"@@@@@@@@@@@@@@@@@@@@@@@@@@@@@@@@XXXXXXXX################XXXXXXXXXXXXXXXX################XXXXXXXX@@@@@@@@@@@@@@@@@@@@@@@@OOOOOOOO",
"@@@@@@@@@@@@@@@@@@@@@@@@@@@@@@@@XXXXXXXX################XXXXXXXXXXXXXXXX################XXXXXXXX@@@@@@@@@@@@@@@@@@@@@@@@OOOOOOOO",
"@@@@@@@@@@@@@@@@@@@@@@@@@@@@@@@@XXXXXXXX################XXXXXXXXXXXXXXXX################XXXXXXXX@@@@@@@@@@@@@@@@@@@@@@@@OOOOOOOO",
"@@@@@@@@@@@@@@@@@@@@@@@@@@@@@@@@XXXXXXXX################XXXXXXXXXXXXXXXX################XXXXXXXX@@@@@@@@@@@@@@@@@@@@@@@@OOOOOOOO",
"@@@@@@@@@@@@@@@@@@@@@@@@@@@@@@@@XXXXXXXX################XXXXXXXXXXXXXXXX################XXXXXXXX@@@@@@@@@@@@@@@@@@@@@@@@OOOOOOOO",
"@@@@@@@@@@@@@@@@@@@@@@@@@@@@@@@@XXXXXXXX################XXXXXXXXXXXXXXXX################XXXXXXXX@@@@@@@@@@@@@@@@@@@@@@@@OOOOOOOO",
"@@@@@@@@@@@@@@@@@@@@@@@@@@@@@@@@@@@@@@@@XXXXXXXXXXXXXXXX@@@@@@@@@@@@@@@@XXXXXXXXXXXXXXXX@@@@@@@@@@@@@@@@@@@@@@@@@@@@@@@@@@@@@@@@",
"@@@@@@@@@@@@@@@@@@@@@@@@@@@@@@@@@@@@@@@@XXXXXXXXXXXXXXXX@@@@@@@@@@@@@@@@XXXXXXXXXXXXXXXX@@@@@@@@@@@@@@@@@@@@@@@@@@@@@@@@@@@@@@@@",
"@@@@@@@@@@@@@@@@@@@@@@@@@@@@@@@@@@@@@@@@XXXXXXXXXXXXXXXX@@@@@@@@@@@@@@@@XXXXXXXXXXXXXXXX@@@@@@@@@@@@@@@@@@@@@@@@@@@@@@@@@@@@@@@@",
"@@@@@@@@@@@@@@@@@@@@@@@@@@@@@@@@@@@@@@@@XXXXXXXXXXXXXXXX@@@@@@@@@@@@@@@@XXXXXXXXXXXXXXXX@@@@@@@@@@@@@@@@@@@@@@@@@@@@@@@@@@@@@@@@",
"@@@@@@@@@@@@@@@@@@@@@@@@@@@@@@@@@@@@@@@@XXXXXXXXXXXXXXXX@@@@@@@@@@@@@@@@XXXXXXXXXXXXXXXX@@@@@@@@@@@@@@@@@@@@@@@@@@@@@@@@@@@@@@@@",
"@@@@@@@@@@@@@@@@@@@@@@@@@@@@@@@@@@@@@@@@XXXXXXXXXXXXXXXX@@@@@@@@@@@@@@@@XXXXXXXXXXXXXXXX@@@@@@@@@@@@@@@@@@@@@@@@@@@@@@@@@@@@@@@@",
"@@@@@@@@@@@@@@@@@@@@@@@@@@@@@@@@@@@@@@@@XXXXXXXXXXXXXXXX@@@@@@@@@@@@@@@@XXXXXXXXXXXXXXXX@@@@@@@@@@@@@@@@@@@@@@@@@@@@@@@@@@@@@@@@",
"@@@@@@@@@@@@@@@@@@@@@@@@@@@@@@@@@@@@@@@@XXXXXXXXXXXXXXXX@@@@@@@@@@@@@@@@XXXXXXXXXXXXXXXX@@@@@@@@@@@@@@@@@@@@@@@@@@@@@@@@@@@@@@@@"
};
