/* XPM */
static char *char_back1704735441[] = {
/* columns rows colors chars-per-pixel */
"128 128 5 1 ",
"  c None",
". c #5C4C94",
"X c #746CAC",
"o c #DCD4DC",
"O c #F4F4C4",
/* pixels */
"                        ........................                                ........................                        ",
"                        ........................                                ........................                        ",
"                        ........................                                ........................                        ",
"                        ........................                                ........................                        ",
"                        ........................                                ........................                        ",
"                        ........................                                ........................                        ",
"                        ........................                                ........................                        ",
"                        ........................                                ........................                        ",
"                ........OOOOOOOOOOOOOOOOOOOOOOOO........                ........OOOOOOOOOOOOOOOOOOOOOOOO........                ",
"                ........OOOOOOOOOOOOOOOOOOOOOOOO........                ........OOOOOOOOOOOOOOOOOOOOOOOO........                ",
"                ........OOOOOOOOOOOOOOOOOOOOOOOO........                ........OOOOOOOOOOOOOOOOOOOOOOOO........                ",
"                ........OOOOOOOOOOOOOOOOOOOOOOOO........                ........OOOOOOOOOOOOOOOOOOOOOOOO........                ",
"                ........OOOOOOOOOOOOOOOOOOOOOOOO........                ........OOOOOOOOOOOOOOOOOOOOOOOO........                ",
"                ........OOOOOOOOOOOOOOOOOOOOOOOO........                ........OOOOOOOOOOOOOOOOOOOOOOOO........                ",
"                ........OOOOOOOOOOOOOOOOOOOOOOOO........                ........OOOOOOOOOOOOOOOOOOOOOOOO........                ",
"                ........OOOOOOOOOOOOOOOOOOOOOOOO........                ........OOOOOOOOOOOOOOOOOOOOOOOO........                ",
"                ........OOOOOOOOOOOOOOOOOOOOOOOO................................OOOOOOOOOOOOOOOOOOOOOOOO........                ",
"                ........OOOOOOOOOOOOOOOOOOOOOOOO................................OOOOOOOOOOOOOOOOOOOOOOOO........                ",
"                ........OOOOOOOOOOOOOOOOOOOOOOOO................................OOOOOOOOOOOOOOOOOOOOOOOO........                ",
"                ........OOOOOOOOOOOOOOOOOOOOOOOO................................OOOOOOOOOOOOOOOOOOOOOOOO........                ",
"                ........OOOOOOOOOOOOOOOOOOOOOOOO................................OOOOOOOOOOOOOOOOOOOOOOOO........                ",
"                ........OOOOOOOOOOOOOOOOOOOOOOOO................................OOOOOOOOOOOOOOOOOOOOOOOO........                ",
"                ........OOOOOOOOOOOOOOOOOOOOOOOO................................OOOOOOOOOOOOOOOOOOOOOOOO........                ",
"                ........OOOOOOOOOOOOOOOOOOOOOOOO................................OOOOOOOOOOOOOOOOOOOOOOOO........                ",
"                ........OOOOOOOOOOOOOOOOOOOOOOOOooooooooooooooooooooooooooooooooOOOOOOOOOOOOOOOOOOOOOOOO........                ",
"                ........OOOOOOOOOOOOOOOOOOOOOOOOooooooooooooooooooooooooooooooooOOOOOOOOOOOOOOOOOOOOOOOO........                ",
"                ........OOOOOOOOOOOOOOOOOOOOOOOOooooooooooooooooooooooooooooooooOOOOOOOOOOOOOOOOOOOOOOOO........                ",
"                ........OOOOOOOOOOOOOOOOOOOOOOOOooooooooooooooooooooooooooooooooOOOOOOOOOOOOOOOOOOOOOOOO........                ",
"                ........OOOOOOOOOOOOOOOOOOOOOOOOooooooooooooooooooooooooooooooooOOOOOOOOOOOOOOOOOOOOOOOO........                ",
"                ........OOOOOOOOOOOOOOOOOOOOOOOOooooooooooooooooooooooooooooooooOOOOOOOOOOOOOOOOOOOOOOOO........                ",
"                ........OOOOOOOOOOOOOOOOOOOOOOOOooooooooooooooooooooooooooooooooOOOOOOOOOOOOOOOOOOOOOOOO........                ",
"                ........OOOOOOOOOOOOOOOOOOOOOOOOooooooooooooooooooooooooooooooooOOOOOOOOOOOOOOOOOOOOOOOO........                ",
"                ........OOOOOOOOOOOOOOOOOOOOOOOOOOOOOOOOOOOOOOOOOOOOOOOOOOOOOOOOOOOOOOOOOOOOOOOOOOOOOOOO........                ",
"                ........OOOOOOOOOOOOOOOOOOOOOOOOOOOOOOOOOOOOOOOOOOOOOOOOOOOOOOOOOOOOOOOOOOOOOOOOOOOOOOOO........                ",
"                ........OOOOOOOOOOOOOOOOOOOOOOOOOOOOOOOOOOOOOOOOOOOOOOOOOOOOOOOOOOOOOOOOOOOOOOOOOOOOOOOO........                ",
"                ........OOOOOOOOOOOOOOOOOOOOOOOOOOOOOOOOOOOOOOOOOOOOOOOOOOOOOOOOOOOOOOOOOOOOOOOOOOOOOOOO........                ",
"                ........OOOOOOOOOOOOOOOOOOOOOOOOOOOOOOOOOOOOOOOOOOOOOOOOOOOOOOOOOOOOOOOOOOOOOOOOOOOOOOOO........                ",
"                ........OOOOOOOOOOOOOOOOOOOOOOOOOOOOOOOOOOOOOOOOOOOOOOOOOOOOOOOOOOOOOOOOOOOOOOOOOOOOOOOO........                ",
"                ........OOOOOOOOOOOOOOOOOOOOOOOOOOOOOOOOOOOOOOOOOOOOOOOOOOOOOOOOOOOOOOOOOOOOOOOOOOOOOOOO........                ",
"                ........OOOOOOOOOOOOOOOOOOOOOOOOOOOOOOOOOOOOOOOOOOOOOOOOOOOOOOOOOOOOOOOOOOOOOOOOOOOOOOOO........                ",
"                ........OOOOOOOOOOOOOOOOOOOOOOOOOOOOOOOOOOOOOOOOOOOOOOOOOOOOOOOOOOOOOOOOOOOOOOOOOOOOOOOO........                ",
"                ........OOOOOOOOOOOOOOOOOOOOOOOOOOOOOOOOOOOOOOOOOOOOOOOOOOOOOOOOOOOOOOOOOOOOOOOOOOOOOOOO........                ",
"                ........OOOOOOOOOOOOOOOOOOOOOOOOOOOOOOOOOOOOOOOOOOOOOOOOOOOOOOOOOOOOOOOOOOOOOOOOOOOOOOOO........                ",
"                ........OOOOOOOOOOOOOOOOOOOOOOOOOOOOOOOOOOOOOOOOOOOOOOOOOOOOOOOOOOOOOOOOOOOOOOOOOOOOOOOO........                ",
"                ........OOOOOOOOOOOOOOOOOOOOOOOOOOOOOOOOOOOOOOOOOOOOOOOOOOOOOOOOOOOOOOOOOOOOOOOOOOOOOOOO........                ",
"                ........OOOOOOOOOOOOOOOOOOOOOOOOOOOOOOOOOOOOOOOOOOOOOOOOOOOOOOOOOOOOOOOOOOOOOOOOOOOOOOOO........                ",
"                ........OOOOOOOOOOOOOOOOOOOOOOOOOOOOOOOOOOOOOOOOOOOOOOOOOOOOOOOOOOOOOOOOOOOOOOOOOOOOOOOO........                ",
"                ........OOOOOOOOOOOOOOOOOOOOOOOOOOOOOOOOOOOOOOOOOOOOOOOOOOOOOOOOOOOOOOOOOOOOOOOOOOOOOOOO........                ",
"        ................OOOOOOOOOOOOOOOOOOOOOOOOOOOOOOOOOOOOOOOOOOOOOOOOOOOOOOOOOOOOOOOOOOOOOOOOOOOOOOOO................        ",
"        ................OOOOOOOOOOOOOOOOOOOOOOOOOOOOOOOOOOOOOOOOOOOOOOOOOOOOOOOOOOOOOOOOOOOOOOOOOOOOOOOO................        ",
"        ................OOOOOOOOOOOOOOOOOOOOOOOOOOOOOOOOOOOOOOOOOOOOOOOOOOOOOOOOOOOOOOOOOOOOOOOOOOOOOOOO................        ",
"        ................OOOOOOOOOOOOOOOOOOOOOOOOOOOOOOOOOOOOOOOOOOOOOOOOOOOOOOOOOOOOOOOOOOOOOOOOOOOOOOOO................        ",
"        ................OOOOOOOOOOOOOOOOOOOOOOOOOOOOOOOOOOOOOOOOOOOOOOOOOOOOOOOOOOOOOOOOOOOOOOOOOOOOOOOO................        ",
"        ................OOOOOOOOOOOOOOOOOOOOOOOOOOOOOOOOOOOOOOOOOOOOOOOOOOOOOOOOOOOOOOOOOOOOOOOOOOOOOOOO................        ",
"        ................OOOOOOOOOOOOOOOOOOOOOOOOOOOOOOOOOOOOOOOOOOOOOOOOOOOOOOOOOOOOOOOOOOOOOOOOOOOOOOOO................        ",
"        ................OOOOOOOOOOOOOOOOOOOOOOOOOOOOOOOOOOOOOOOOOOOOOOOOOOOOOOOOOOOOOOOOOOOOOOOOOOOOOOOO................        ",
"                ........OOOOOOOOOOOOOOOOOOOOOOOOOOOOOOOOOOOOOOOOOOOOOOOOOOOOOOOOOOOOOOOOOOOOOOOOOOOOOOOO........                ",
"                ........OOOOOOOOOOOOOOOOOOOOOOOOOOOOOOOOOOOOOOOOOOOOOOOOOOOOOOOOOOOOOOOOOOOOOOOOOOOOOOOO........                ",
"                ........OOOOOOOOOOOOOOOOOOOOOOOOOOOOOOOOOOOOOOOOOOOOOOOOOOOOOOOOOOOOOOOOOOOOOOOOOOOOOOOO........                ",
"                ........OOOOOOOOOOOOOOOOOOOOOOOOOOOOOOOOOOOOOOOOOOOOOOOOOOOOOOOOOOOOOOOOOOOOOOOOOOOOOOOO........                ",
"                ........OOOOOOOOOOOOOOOOOOOOOOOOOOOOOOOOOOOOOOOOOOOOOOOOOOOOOOOOOOOOOOOOOOOOOOOOOOOOOOOO........                ",
"                ........OOOOOOOOOOOOOOOOOOOOOOOOOOOOOOOOOOOOOOOOOOOOOOOOOOOOOOOOOOOOOOOOOOOOOOOOOOOOOOOO........                ",
"                ........OOOOOOOOOOOOOOOOOOOOOOOOOOOOOOOOOOOOOOOOOOOOOOOOOOOOOOOOOOOOOOOOOOOOOOOOOOOOOOOO........                ",
"                ........OOOOOOOOOOOOOOOOOOOOOOOOOOOOOOOOOOOOOOOOOOOOOOOOOOOOOOOOOOOOOOOOOOOOOOOOOOOOOOOO........                ",
"        ................OOOOOOOOOOOOOOOOOOOOOOOOOOOOOOOOOOOOOOOOOOOOOOOOOOOOOOOOOOOOOOOOOOOOOOOOOOOOOOOO................        ",
"        ................OOOOOOOOOOOOOOOOOOOOOOOOOOOOOOOOOOOOOOOOOOOOOOOOOOOOOOOOOOOOOOOOOOOOOOOOOOOOOOOO................        ",
"        ................OOOOOOOOOOOOOOOOOOOOOOOOOOOOOOOOOOOOOOOOOOOOOOOOOOOOOOOOOOOOOOOOOOOOOOOOOOOOOOOO................        ",
"        ................OOOOOOOOOOOOOOOOOOOOOOOOOOOOOOOOOOOOOOOOOOOOOOOOOOOOOOOOOOOOOOOOOOOOOOOOOOOOOOOO................        ",
"        ................OOOOOOOOOOOOOOOOOOOOOOOOOOOOOOOOOOOOOOOOOOOOOOOOOOOOOOOOOOOOOOOOOOOOOOOOOOOOOOOO................        ",
"        ................OOOOOOOOOOOOOOOOOOOOOOOOOOOOOOOOOOOOOOOOOOOOOOOOOOOOOOOOOOOOOOOOOOOOOOOOOOOOOOOO................        ",
"        ................OOOOOOOOOOOOOOOOOOOOOOOOOOOOOOOOOOOOOOOOOOOOOOOOOOOOOOOOOOOOOOOOOOOOOOOOOOOOOOOO................        ",
"        ................OOOOOOOOOOOOOOOOOOOOOOOOOOOOOOOOOOOOOOOOOOOOOOOOOOOOOOOOOOOOOOOOOOOOOOOOOOOOOOOO................        ",
"                ........OOOOOOOOOOOOOOOOOOOOOOOOOOOOOOOOOOOOOOOOOOOOOOOOOOOOOOOOOOOOOOOOOOOOOOOOOOOOOOOO........                ",
"                ........OOOOOOOOOOOOOOOOOOOOOOOOOOOOOOOOOOOOOOOOOOOOOOOOOOOOOOOOOOOOOOOOOOOOOOOOOOOOOOOO........                ",
"                ........OOOOOOOOOOOOOOOOOOOOOOOOOOOOOOOOOOOOOOOOOOOOOOOOOOOOOOOOOOOOOOOOOOOOOOOOOOOOOOOO........                ",
"                ........OOOOOOOOOOOOOOOOOOOOOOOOOOOOOOOOOOOOOOOOOOOOOOOOOOOOOOOOOOOOOOOOOOOOOOOOOOOOOOOO........                ",
"                ........OOOOOOOOOOOOOOOOOOOOOOOOOOOOOOOOOOOOOOOOOOOOOOOOOOOOOOOOOOOOOOOOOOOOOOOOOOOOOOOO........                ",
"                ........OOOOOOOOOOOOOOOOOOOOOOOOOOOOOOOOOOOOOOOOOOOOOOOOOOOOOOOOOOOOOOOOOOOOOOOOOOOOOOOO........                ",
"                ........OOOOOOOOOOOOOOOOOOOOOOOOOOOOOOOOOOOOOOOOOOOOOOOOOOOOOOOOOOOOOOOOOOOOOOOOOOOOOOOO........                ",
"                ........OOOOOOOOOOOOOOOOOOOOOOOOOOOOOOOOOOOOOOOOOOOOOOOOOOOOOOOOOOOOOOOOOOOOOOOOOOOOOOOO........                ",
"                        ................XXXXXXXXXXXXXXXXXXXXXXXXXXXXXXXXXXXXXXXXXXXXXXXX................                        ",
"                        ................XXXXXXXXXXXXXXXXXXXXXXXXXXXXXXXXXXXXXXXXXXXXXXXX................                        ",
"                        ................XXXXXXXXXXXXXXXXXXXXXXXXXXXXXXXXXXXXXXXXXXXXXXXX................                        ",
"                        ................XXXXXXXXXXXXXXXXXXXXXXXXXXXXXXXXXXXXXXXXXXXXXXXX................                        ",
"                        ................XXXXXXXXXXXXXXXXXXXXXXXXXXXXXXXXXXXXXXXXXXXXXXXX................                        ",
"                        ................XXXXXXXXXXXXXXXXXXXXXXXXXXXXXXXXXXXXXXXXXXXXXXXX................                        ",
"                        ................XXXXXXXXXXXXXXXXXXXXXXXXXXXXXXXXXXXXXXXXXXXXXXXX................                        ",
"                        ................XXXXXXXXXXXXXXXXXXXXXXXXXXXXXXXXXXXXXXXXXXXXXXXX................                        ",
"                ........ooooooooOOOOOOOOXXXXXXXXXXXXXXXX................XXXXXXXXXXXXXXXXOOOOOOOOoooooooo........                ",
"                ........ooooooooOOOOOOOOXXXXXXXXXXXXXXXX................XXXXXXXXXXXXXXXXOOOOOOOOoooooooo........                ",
"                ........ooooooooOOOOOOOOXXXXXXXXXXXXXXXX................XXXXXXXXXXXXXXXXOOOOOOOOoooooooo........                ",
"                ........ooooooooOOOOOOOOXXXXXXXXXXXXXXXX................XXXXXXXXXXXXXXXXOOOOOOOOoooooooo........                ",
"                ........ooooooooOOOOOOOOXXXXXXXXXXXXXXXX................XXXXXXXXXXXXXXXXOOOOOOOOoooooooo........                ",
"                ........ooooooooOOOOOOOOXXXXXXXXXXXXXXXX................XXXXXXXXXXXXXXXXOOOOOOOOoooooooo........                ",
"                ........ooooooooOOOOOOOOXXXXXXXXXXXXXXXX................XXXXXXXXXXXXXXXXOOOOOOOOoooooooo........                ",
"                ........ooooooooOOOOOOOOXXXXXXXXXXXXXXXX................XXXXXXXXXXXXXXXXOOOOOOOOoooooooo........                ",
"                ........ooooooooOOOOOOOOOOOOOOOO........OOOOOOOOOOOOOOOO........OOOOOOOOOOOOOOOOoooooooo........                ",
"                ........ooooooooOOOOOOOOOOOOOOOO........OOOOOOOOOOOOOOOO........OOOOOOOOOOOOOOOOoooooooo........                ",
"                ........ooooooooOOOOOOOOOOOOOOOO........OOOOOOOOOOOOOOOO........OOOOOOOOOOOOOOOOoooooooo........                ",
"                ........ooooooooOOOOOOOOOOOOOOOO........OOOOOOOOOOOOOOOO........OOOOOOOOOOOOOOOOoooooooo........                ",
"                ........ooooooooOOOOOOOOOOOOOOOO........OOOOOOOOOOOOOOOO........OOOOOOOOOOOOOOOOoooooooo........                ",
"                ........ooooooooOOOOOOOOOOOOOOOO........OOOOOOOOOOOOOOOO........OOOOOOOOOOOOOOOOoooooooo........                ",
"                ........ooooooooOOOOOOOOOOOOOOOO........OOOOOOOOOOOOOOOO........OOOOOOOOOOOOOOOOoooooooo........                ",
"                ........ooooooooOOOOOOOOOOOOOOOO........OOOOOOOOOOOOOOOO........OOOOOOOOOOOOOOOOoooooooo........                ",
"                        ................OOOOOOOOOOOOOOOOOOOOOOOOOOOOOOOOOOOOOOOOOOOOOOOO................                        ",
"                        ................OOOOOOOOOOOOOOOOOOOOOOOOOOOOOOOOOOOOOOOOOOOOOOOO................                        ",
"                        ................OOOOOOOOOOOOOOOOOOOOOOOOOOOOOOOOOOOOOOOOOOOOOOOO................                        ",
"                        ................OOOOOOOOOOOOOOOOOOOOOOOOOOOOOOOOOOOOOOOOOOOOOOOO................                        ",
"                        ................OOOOOOOOOOOOOOOOOOOOOOOOOOOOOOOOOOOOOOOOOOOOOOOO................                        ",
"                        ................OOOOOOOOOOOOOOOOOOOOOOOOOOOOOOOOOOOOOOOOOOOOOOOO................                        ",
"                        ................OOOOOOOOOOOOOOOOOOOOOOOOOOOOOOOOOOOOOOOOOOOOOOOO................                        ",
"                        ................OOOOOOOOOOOOOOOOOOOOOOOOOOOOOOOOOOOOOOOOOOOOOOOO................                        ",
"                                ........oooooooooooooooo................oooooooooooooooo........                                ",
"                                ........oooooooooooooooo................oooooooooooooooo........                                ",
"                                ........oooooooooooooooo................oooooooooooooooo........                                ",
"                                ........oooooooooooooooo................oooooooooooooooo........                                ",
"                                ........oooooooooooooooo................oooooooooooooooo........                                ",
"                                ........oooooooooooooooo................oooooooooooooooo........                                ",
"                                ........oooooooooooooooo................oooooooooooooooo........                                ",
"                                ........oooooooooooooooo................oooooooooooooooo........                                ",
"                                        ................                ................                                        ",
"                                        ................                ................                                        ",
"                                        ................                ................                                        ",
"                                        ................                ................                                        ",
"                                        ................                ................                                        ",
"                                        ................                ................                                        ",
"                                        ................                ................                                        ",
"                                        ................                ................                                        "
};
