/* XPM */
static char *char_back_41705689242[] = {
/* columns rows colors chars-per-pixel */
"128 128 8 1 ",
"  c #A5BF65",
". c #5C4C94",
"X c #746CAC",
"o c #DCBC8C",
"O c #ECCCA4",
"+ c #ECDCB4",
"@ c #DCD4DC",
"# c #F4F4C4",
/* pixels */
"OOOOOOOOOOOOOOOOOOOOOOOO........................OOOOOOOOOOOOOOOOOOOOOOOOOOOOOOOO........................OOOOOOOO        OOOOOOOO",
"OOOOOOOOOOOOOOOOOOOOOOOO........................OOOOOOOOOOOOOOOOOOOOOOOOOOOOOOOO........................OOOOOOOO        OOOOOOOO",
"OOOOOOOOOOOOOOOOOOOOOOOO........................OOOOOOOOOOOOOOOOOOOOOOOOOOOOOOOO........................OOOOOOOO        OOOOOOOO",
"OOOOOOOOOOOOOOOOOOOOOOOO........................OOOOOOOOOOOOOOOOOOOOOOOOOOOOOOOO........................OOOOOOOO        OOOOOOOO",
"OOOOOOOOOOOOOOOOOOOOOOOO........................OOOOOOOOOOOOOOOOOOOOOOOOOOOOOOOO........................OOOOOOOO        OOOOOOOO",
"OOOOOOOOOOOOOOOOOOOOOOOO........................OOOOOOOOOOOOOOOOOOOOOOOOOOOOOOOO........................OOOOOOOO        OOOOOOOO",
"OOOOOOOOOOOOOOOOOOOOOOOO........................OOOOOOOOOOOOOOOOOOOOOOOOOOOOOOOO........................OOOOOOOO        OOOOOOOO",
"OOOOOOOOOOOOOOOOOOOOOOOO........................OOOOOOOOOOOOOOOOOOOOOOOOOOOOOOOO........................OOOOOOOO        OOOOOOOO",
"OOOOOOOOOOOOOOOO........########################........OOOOOOOOOOOOOOOO........########################........        OOOOOOOO",
"OOOOOOOOOOOOOOOO........########################........OOOOOOOOOOOOOOOO........########################........        OOOOOOOO",
"OOOOOOOOOOOOOOOO........########################........OOOOOOOOOOOOOOOO........########################........        OOOOOOOO",
"OOOOOOOOOOOOOOOO........########################........OOOOOOOOOOOOOOOO........########################........        OOOOOOOO",
"OOOOOOOOOOOOOOOO........########################........OOOOOOOOOOOOOOOO........########################........        OOOOOOOO",
"OOOOOOOOOOOOOOOO........########################........OOOOOOOOOOOOOOOO........########################........        OOOOOOOO",
"OOOOOOOOOOOOOOOO........########################........OOOOOOOOOOOOOOOO........########################........        OOOOOOOO",
"OOOOOOOOOOOOOOOO........########################........OOOOOOOOOOOOOOOO........########################........        OOOOOOOO",
"OOOOOOOOOOOOOOOO........########################................................########################........OOOOOOOOOOOOOOOO",
"OOOOOOOOOOOOOOOO........########################................................########################........OOOOOOOOOOOOOOOO",
"OOOOOOOOOOOOOOOO........########################................................########################........OOOOOOOOOOOOOOOO",
"OOOOOOOOOOOOOOOO........########################................................########################........OOOOOOOOOOOOOOOO",
"OOOOOOOOOOOOOOOO........########################................................########################........OOOOOOOOOOOOOOOO",
"OOOOOOOOOOOOOOOO........########################................................########################........OOOOOOOOOOOOOOOO",
"OOOOOOOOOOOOOOOO........########################................................########################........OOOOOOOOOOOOOOOO",
"OOOOOOOOOOOOOOOO........########################................................########################........OOOOOOOOOOOOOOOO",
"OOOOOOOOOOOOOOOO........########################@@@@@@@@@@@@@@@@@@@@@@@@@@@@@@@@########################........OOOOOOOOOOOOOOOO",
"OOOOOOOOOOOOOOOO........########################@@@@@@@@@@@@@@@@@@@@@@@@@@@@@@@@########################........OOOOOOOOOOOOOOOO",
"OOOOOOOOOOOOOOOO........########################@@@@@@@@@@@@@@@@@@@@@@@@@@@@@@@@########################........OOOOOOOOOOOOOOOO",
"OOOOOOOOOOOOOOOO........########################@@@@@@@@@@@@@@@@@@@@@@@@@@@@@@@@########################........OOOOOOOOOOOOOOOO",
"OOOOOOOOOOOOOOOO........########################@@@@@@@@@@@@@@@@@@@@@@@@@@@@@@@@########################........OOOOOOOOOOOOOOOO",
"OOOOOOOOOOOOOOOO........########################@@@@@@@@@@@@@@@@@@@@@@@@@@@@@@@@########################........OOOOOOOOOOOOOOOO",
"OOOOOOOOOOOOOOOO........########################@@@@@@@@@@@@@@@@@@@@@@@@@@@@@@@@########################........OOOOOOOOOOOOOOOO",
"OOOOOOOOOOOOOOOO........########################@@@@@@@@@@@@@@@@@@@@@@@@@@@@@@@@########################........OOOOOOOOOOOOOOOO",
"OOOOOOOOOOOOOOOO........################################################################################........OOOOOOOOOOOOOOOO",
"OOOOOOOOOOOOOOOO........################################################################################........OOOOOOOOOOOOOOOO",
"OOOOOOOOOOOOOOOO........################################################################################........OOOOOOOOOOOOOOOO",
"OOOOOOOOOOOOOOOO........################################################################################........OOOOOOOOOOOOOOOO",
"OOOOOOOOOOOOOOOO........################################################################################........OOOOOOOOOOOOOOOO",
"OOOOOOOOOOOOOOOO........################################################################################........OOOOOOOOOOOOOOOO",
"OOOOOOOOOOOOOOOO........################################################################################........OOOOOOOOOOOOOOOO",
"OOOOOOOOOOOOOOOO........################################################################################........OOOOOOOOOOOOOOOO",
"OOOOOOOOOOOOOOOO........################################################################################........OOOOOOOOOOOOOOOO",
"OOOOOOOOOOOOOOOO........################################################################################........OOOOOOOOOOOOOOOO",
"OOOOOOOOOOOOOOOO........################################################################################........OOOOOOOOOOOOOOOO",
"OOOOOOOOOOOOOOOO........################################################################################........OOOOOOOOOOOOOOOO",
"OOOOOOOOOOOOOOOO........################################################################################........OOOOOOOOOOOOOOOO",
"OOOOOOOOOOOOOOOO........################################################################################........OOOOOOOOOOOOOOOO",
"OOOOOOOOOOOOOOOO........################################################################################........OOOOOOOOOOOOOOOO",
"OOOOOOOOOOOOOOOO........################################################################################........OOOOOOOOOOOOOOOO",
"OOOOOOOO................################################################################################................OOOOOOOO",
"OOOOOOOO................################################################################################................OOOOOOOO",
"OOOOOOOO................################################################################################................OOOOOOOO",
"OOOOOOOO................################################################################################................OOOOOOOO",
"OOOOOOOO................################################################################################................OOOOOOOO",
"OOOOOOOO................################################################################################................OOOOOOOO",
"OOOOOOOO................################################################################################................OOOOOOOO",
"OOOOOOOO................################################################################################................OOOOOOOO",
"OOOOOOOOOOOOOOOO........################################################################################........OOOOOOOOOOOOOOOO",
"OOOOOOOOOOOOOOOO........################################################################################........OOOOOOOOOOOOOOOO",
"OOOOOOOOOOOOOOOO........################################################################################........OOOOOOOOOOOOOOOO",
"OOOOOOOOOOOOOOOO........################################################################################........OOOOOOOOOOOOOOOO",
"OOOOOOOOOOOOOOOO........################################################################################........OOOOOOOOOOOOOOOO",
"OOOOOOOOOOOOOOOO........################################################################################........OOOOOOOOOOOOOOOO",
"OOOOOOOOOOOOOOOO........################################################################################........OOOOOOOOOOOOOOOO",
"OOOOOOOOOOOOOOOO........################################################################################........OOOOOOOOOOOOOOOO",
"OOOOOOOO................################################################################################................OOOOOOOO",
"OOOOOOOO................################################################################################................OOOOOOOO",
"OOOOOOOO................################################################################################................OOOOOOOO",
"OOOOOOOO................################################################################################................OOOOOOOO",
"OOOOOOOO................################################################################################................OOOOOOOO",
"OOOOOOOO................################################################################################................OOOOOOOO",
"OOOOOOOO................################################################################################................OOOOOOOO",
"OOOOOOOO................################################################################################................OOOOOOOO",
"OOOOOOOOOOOOOOOO........################################################################################........OOOOOOOOOOOOOOOO",
"OOOOOOOOOOOOOOOO........################################################################################........OOOOOOOOOOOOOOOO",
"OOOOOOOOOOOOOOOO........################################################################################........OOOOOOOOOOOOOOOO",
"OOOOOOOOOOOOOOOO........################################################################################........OOOOOOOOOOOOOOOO",
"OOOOOOOOOOOOOOOO........################################################################################........OOOOOOOOOOOOOOOO",
"OOOOOOOOOOOOOOOO........################################################################################........OOOOOOOOOOOOOOOO",
"OOOOOOOOOOOOOOOO........################################################################################........OOOOOOOOOOOOOOOO",
"OOOOOOOOOOOOOOOO........################################################################################........OOOOOOOOOOOOOOOO",
"OOOOOOOOOOOOOOOO........................XXXXXXXXXXXXXXXXXXXXXXXXXXXXXXXXXXXXXXXXXXXXXXXX................OOOOOOOOOOOOOOOOOOOOOOOO",
"OOOOOOOOOOOOOOOO........................XXXXXXXXXXXXXXXXXXXXXXXXXXXXXXXXXXXXXXXXXXXXXXXX................OOOOOOOOOOOOOOOOOOOOOOOO",
"OOOOOOOOOOOOOOOO........................XXXXXXXXXXXXXXXXXXXXXXXXXXXXXXXXXXXXXXXXXXXXXXXX................OOOOOOOOOOOOOOOOOOOOOOOO",
"OOOOOOOOOOOOOOOO........................XXXXXXXXXXXXXXXXXXXXXXXXXXXXXXXXXXXXXXXXXXXXXXXX................OOOOOOOOOOOOOOOOOOOOOOOO",
"OOOOOOOOOOOOOOOO........................XXXXXXXXXXXXXXXXXXXXXXXXXXXXXXXXXXXXXXXXXXXXXXXX................OOOOOOOOOOOOOOOOOOOOOOOO",
"OOOOOOOOOOOOOOOO........................XXXXXXXXXXXXXXXXXXXXXXXXXXXXXXXXXXXXXXXXXXXXXXXX................OOOOOOOOOOOOOOOOOOOOOOOO",
"OOOOOOOOOOOOOOOO........................XXXXXXXXXXXXXXXXXXXXXXXXXXXXXXXXXXXXXXXXXXXXXXXX................OOOOOOOOOOOOOOOOOOOOOOOO",
"OOOOOOOOOOOOOOOO........................XXXXXXXXXXXXXXXXXXXXXXXXXXXXXXXXXXXXXXXXXXXXXXXX................OOOOOOOOOOOOOOOOOOOOOOOO",
"OOOOOOOOOOOOOOOO........@@@@@@@@########XXXXXXXXXXXXXXXX................XXXXXXXXXXXXXXXX................++++++++OOOOOOOOOOOOOOOO",
"OOOOOOOOOOOOOOOO........@@@@@@@@########XXXXXXXXXXXXXXXX................XXXXXXXXXXXXXXXX................++++++++OOOOOOOOOOOOOOOO",
"OOOOOOOOOOOOOOOO........@@@@@@@@########XXXXXXXXXXXXXXXX................XXXXXXXXXXXXXXXX................++++++++OOOOOOOOOOOOOOOO",
"OOOOOOOOOOOOOOOO........@@@@@@@@########XXXXXXXXXXXXXXXX................XXXXXXXXXXXXXXXX................++++++++OOOOOOOOOOOOOOOO",
"OOOOOOOOOOOOOOOO........@@@@@@@@########XXXXXXXXXXXXXXXX................XXXXXXXXXXXXXXXX................++++++++OOOOOOOOOOOOOOOO",
"OOOOOOOOOOOOOOOO........@@@@@@@@########XXXXXXXXXXXXXXXX................XXXXXXXXXXXXXXXX................++++++++OOOOOOOOOOOOOOOO",
"OOOOOOOOOOOOOOOO........@@@@@@@@########XXXXXXXXXXXXXXXX................XXXXXXXXXXXXXXXX................++++++++OOOOOOOOOOOOOOOO",
"OOOOOOOOOOOOOOOO........@@@@@@@@########XXXXXXXXXXXXXXXX................XXXXXXXXXXXXXXXX................++++++++OOOOOOOOOOOOOOOO",
"OOOOOOOOOOOOOOOO        ........################........################........################@@@@@@@@........OOOOOOOOOOOOOOOO",
"OOOOOOOOOOOOOOOO        ........################........################........################@@@@@@@@........OOOOOOOOOOOOOOOO",
"OOOOOOOOOOOOOOOO        ........################........################........################@@@@@@@@........OOOOOOOOOOOOOOOO",
"OOOOOOOOOOOOOOOO        ........################........################........################@@@@@@@@........OOOOOOOOOOOOOOOO",
"OOOOOOOOOOOOOOOO        ........################........################........################@@@@@@@@........OOOOOOOOOOOOOOOO",
"OOOOOOOOOOOOOOOO        ........################........################........################@@@@@@@@........OOOOOOOOOOOOOOOO",
"OOOOOOOOOOOOOOOO        ........################........################........################@@@@@@@@........OOOOOOOOOOOOOOOO",
"OOOOOOOOOOOOOOOO        ........################........################........################@@@@@@@@........OOOOOOOOOOOOOOOO",
"OOOOOOOOOOOOOOOOOOOOOOOO        ........########################################........########@@@@@@@@........OOOOOOOOOOOOOOOO",
"OOOOOOOOOOOOOOOOOOOOOOOO        ........########################################........########@@@@@@@@........OOOOOOOOOOOOOOOO",
"OOOOOOOOOOOOOOOOOOOOOOOO        ........########################################........########@@@@@@@@........OOOOOOOOOOOOOOOO",
"OOOOOOOOOOOOOOOOOOOOOOOO        ........########################################........########@@@@@@@@........OOOOOOOOOOOOOOOO",
"OOOOOOOOOOOOOOOOOOOOOOOO        ........########################################........########@@@@@@@@........OOOOOOOOOOOOOOOO",
"OOOOOOOOOOOOOOOOOOOOOOOO        ........########################################........########@@@@@@@@........OOOOOOOOOOOOOOOO",
"OOOOOOOOOOOOOOOOOOOOOOOO        ........########################################........########@@@@@@@@........OOOOOOOOOOOOOOOO",
"OOOOOOOOOOOOOOOOOOOOOOOO        ........########################################........########@@@@@@@@........OOOOOOOOOOOOOOOO",
"OOOOOOOOOOOOOOOOOOOOOOOOOOOOOOOO........@@@@@@@@@@@@@@@@........................................................OOOOOOOOoooooooo",
"OOOOOOOOOOOOOOOOOOOOOOOOOOOOOOOO........@@@@@@@@@@@@@@@@........................................................OOOOOOOOoooooooo",
"OOOOOOOOOOOOOOOOOOOOOOOOOOOOOOOO........@@@@@@@@@@@@@@@@........................................................OOOOOOOOoooooooo",
"OOOOOOOOOOOOOOOOOOOOOOOOOOOOOOOO........@@@@@@@@@@@@@@@@........................................................OOOOOOOOoooooooo",
"OOOOOOOOOOOOOOOOOOOOOOOOOOOOOOOO........@@@@@@@@@@@@@@@@........................................................OOOOOOOOoooooooo",
"OOOOOOOOOOOOOOOOOOOOOOOOOOOOOOOO........@@@@@@@@@@@@@@@@........................................................OOOOOOOOoooooooo",
"OOOOOOOOOOOOOOOOOOOOOOOOOOOOOOOO........@@@@@@@@@@@@@@@@........................................................OOOOOOOOoooooooo",
"OOOOOOOOOOOOOOOOOOOOOOOOOOOOOOOO........@@@@@@@@@@@@@@@@........................................................OOOOOOOOoooooooo",
"OOOOOOOOOOOOOOOOOOOOOOOOOOOOOOOOOOOOOOOO................OOOOOOOOOOOOOOOOOOOOOOOOOOOOOOOOOOOOOOOOOOOOOOOOOOOOOOOOOOOOOOOOOOOOOOOO",
"OOOOOOOOOOOOOOOOOOOOOOOOOOOOOOOOOOOOOOOO................OOOOOOOOOOOOOOOOOOOOOOOOOOOOOOOOOOOOOOOOOOOOOOOOOOOOOOOOOOOOOOOOOOOOOOOO",
"OOOOOOOOOOOOOOOOOOOOOOOOOOOOOOOOOOOOOOOO................OOOOOOOOOOOOOOOOOOOOOOOOOOOOOOOOOOOOOOOOOOOOOOOOOOOOOOOOOOOOOOOOOOOOOOOO",
"OOOOOOOOOOOOOOOOOOOOOOOOOOOOOOOOOOOOOOOO................OOOOOOOOOOOOOOOOOOOOOOOOOOOOOOOOOOOOOOOOOOOOOOOOOOOOOOOOOOOOOOOOOOOOOOOO",
"OOOOOOOOOOOOOOOOOOOOOOOOOOOOOOOOOOOOOOOO................OOOOOOOOOOOOOOOOOOOOOOOOOOOOOOOOOOOOOOOOOOOOOOOOOOOOOOOOOOOOOOOOOOOOOOOO",
"OOOOOOOOOOOOOOOOOOOOOOOOOOOOOOOOOOOOOOOO................OOOOOOOOOOOOOOOOOOOOOOOOOOOOOOOOOOOOOOOOOOOOOOOOOOOOOOOOOOOOOOOOOOOOOOOO",
"OOOOOOOOOOOOOOOOOOOOOOOOOOOOOOOOOOOOOOOO................OOOOOOOOOOOOOOOOOOOOOOOOOOOOOOOOOOOOOOOOOOOOOOOOOOOOOOOOOOOOOOOOOOOOOOOO",
"OOOOOOOOOOOOOOOOOOOOOOOOOOOOOOOOOOOOOOOO................OOOOOOOOOOOOOOOOOOOOOOOOOOOOOOOOOOOOOOOOOOOOOOOOOOOOOOOOOOOOOOOOOOOOOOOO"
};
