/* XPM */
static char *_ca59fb9cf294a08a60644c0ba40b84eFwCwQgfA5acqBcvn[] = {
/* columns rows colors chars-per-pixel */
"128 128 12 1 ",
"  c #A5BF65",
". c #B9CF6D",
"X c #ECE47C",
"o c #5C4C94",
"O c #746CAC",
"+ c #DCBC8C",
"@ c #ECB4AC",
"# c #ECCCA4",
"$ c #ECDCB4",
"% c #DCD4DC",
"& c #F4DCC4",
"* c #F4F4C4",
/* pixels */
"################################################oooooooooooooooooooooooo########        ########################        ########",
"################################################oooooooooooooooooooooooo########        ########################        ########",
"################################################oooooooooooooooooooooooo########        ########################        ########",
"################################################oooooooooooooooooooooooo########        ########################        ########",
"################################################oooooooooooooooooooooooo########        ########################        ########",
"################################################oooooooooooooooooooooooo########        ########################        ########",
"################################################oooooooooooooooooooooooo########        ########################        ########",
"################################################oooooooooooooooooooooooo########        ########################        ########",
"########################################oooooooo************************oooooooo########        ................        ########",
"########################################oooooooo************************oooooooo########        ................        ########",
"########################################oooooooo************************oooooooo########        ................        ########",
"########################################oooooooo************************oooooooo########        ................        ########",
"########################################oooooooo************************oooooooo########        ................        ########",
"########################################oooooooo************************oooooooo########        ................        ########",
"########################################oooooooo************************oooooooo########        ................        ########",
"########################################oooooooo************************oooooooo########        ................        ########",
"################++++++++########oooooooo********@@@@@@@@@@@@@@@@********oooooooooooooooo        ........        ################",
"################++++++++########oooooooo********@@@@@@@@@@@@@@@@********oooooooooooooooo        ........        ################",
"################++++++++########oooooooo********@@@@@@@@@@@@@@@@********oooooooooooooooo        ........        ################",
"################++++++++########oooooooo********@@@@@@@@@@@@@@@@********oooooooooooooooo        ........        ################",
"################++++++++########oooooooo********@@@@@@@@@@@@@@@@********oooooooooooooooo        ........        ################",
"################++++++++########oooooooo********@@@@@@@@@@@@@@@@********oooooooooooooooo        ........        ################",
"################++++++++########oooooooo********@@@@@@@@@@@@@@@@********oooooooooooooooo        ........        ################",
"################++++++++########oooooooo********@@@@@@@@@@@@@@@@********oooooooooooooooo        ........        ################",
"########################++++++++oooooooo********@@@@@@@@@@@@@@@@************************oooooooo        ########################",
"########################++++++++oooooooo********@@@@@@@@@@@@@@@@************************oooooooo        ########################",
"########################++++++++oooooooo********@@@@@@@@@@@@@@@@************************oooooooo        ########################",
"########################++++++++oooooooo********@@@@@@@@@@@@@@@@************************oooooooo        ########################",
"########################++++++++oooooooo********@@@@@@@@@@@@@@@@************************oooooooo        ########################",
"########################++++++++oooooooo********@@@@@@@@@@@@@@@@************************oooooooo        ########################",
"########################++++++++oooooooo********@@@@@@@@@@@@@@@@************************oooooooo        ########################",
"########################++++++++oooooooo********@@@@@@@@@@@@@@@@************************oooooooo        ########################",
"################################oooooooo************************************************oooooooo################################",
"################################oooooooo************************************************oooooooo################################",
"################################oooooooo************************************************oooooooo################################",
"################################oooooooo************************************************oooooooo################################",
"################################oooooooo************************************************oooooooo################################",
"################################oooooooo************************************************oooooooo################################",
"################################oooooooo************************************************oooooooo################################",
"################################oooooooo************************************************oooooooo################################",
"################################oooooooo************************************************oooooooo################################",
"################################oooooooo************************************************oooooooo################################",
"################################oooooooo************************************************oooooooo################################",
"################################oooooooo************************************************oooooooo################################",
"################################oooooooo************************************************oooooooo################################",
"################################oooooooo************************************************oooooooo################################",
"################################oooooooo************************************************oooooooo################################",
"################################oooooooo************************************************oooooooo################################",
"########################oooooooooooooooo************************************************oooooooooooooooo########################",
"########################oooooooooooooooo************************************************oooooooooooooooo########################",
"########################oooooooooooooooo************************************************oooooooooooooooo########################",
"########################oooooooooooooooo************************************************oooooooooooooooo########################",
"########################oooooooooooooooo************************************************oooooooooooooooo########################",
"########################oooooooooooooooo************************************************oooooooooooooooo########################",
"########################oooooooooooooooo************************************************oooooooooooooooo########################",
"########################oooooooooooooooo************************************************oooooooooooooooo########################",
"################$$$$$$$$########oooooooo********************************oooooooo****************oooooooo########################",
"################$$$$$$$$########oooooooo********************************oooooooo****************oooooooo########################",
"################$$$$$$$$########oooooooo********************************oooooooo****************oooooooo########################",
"################$$$$$$$$########oooooooo********************************oooooooo****************oooooooo########################",
"################$$$$$$$$########oooooooo********************************oooooooo****************oooooooo########################",
"################$$$$$$$$########oooooooo********************************oooooooo****************oooooooo########################",
"################$$$$$$$$########oooooooo********************************oooooooo****************oooooooo########################",
"################$$$$$$$$########oooooooo********************************oooooooo****************oooooooo########################",
"########################oooooooooooooooo********************************************************oooooooo########################",
"########################oooooooooooooooo********************************************************oooooooo########################",
"########################oooooooooooooooo********************************************************oooooooo########################",
"########################oooooooooooooooo********************************************************oooooooo########################",
"########################oooooooooooooooo********************************************************oooooooo########################",
"########################oooooooooooooooo********************************************************oooooooo########################",
"########################oooooooooooooooo********************************************************oooooooo########################",
"########################oooooooooooooooo********************************************************oooooooo########################",
"################################oooooooo****************&&&&&&&&&&&&&&&&************************oooooooo########################",
"################################oooooooo****************&&&&&&&&&&&&&&&&************************oooooooo########################",
"################################oooooooo****************&&&&&&&&&&&&&&&&************************oooooooo########################",
"################################oooooooo****************&&&&&&&&&&&&&&&&************************oooooooo########################",
"################################oooooooo****************&&&&&&&&&&&&&&&&************************oooooooo########################",
"################################oooooooo****************&&&&&&&&&&&&&&&&************************oooooooo########################",
"################################oooooooo****************&&&&&&&&&&&&&&&&************************oooooooo########################",
"################################oooooooo****************&&&&&&&&&&&&&&&&************************oooooooo########################",
"########################################ooooooooOOOOOOOOOOOOOOOOOOOOOOOOOOOOOOOOOOOOOOOOoooooooo################################",
"########################################ooooooooOOOOOOOOOOOOOOOOOOOOOOOOOOOOOOOOOOOOOOOOoooooooo################################",
"########################################ooooooooOOOOOOOOOOOOOOOOOOOOOOOOOOOOOOOOOOOOOOOOoooooooo################################",
"########################################ooooooooOOOOOOOOOOOOOOOOOOOOOOOOOOOOOOOOOOOOOOOOoooooooo################################",
"########################################ooooooooOOOOOOOOOOOOOOOOOOOOOOOOOOOOOOOOOOOOOOOOoooooooo################################",
"########################################ooooooooOOOOOOOOOOOOOOOOOOOOOOOOOOOOOOOOOOOOOOOOoooooooo################################",
"########################################ooooooooOOOOOOOOOOOOOOOOOOOOOOOOOOOOOOOOOOOOOOOOoooooooo################################",
"########################################ooooooooOOOOOOOOOOOOOOOOOOOOOOOOOOOOOOOOOOOOOOOOoooooooo################################",
"########################################oooooooo****************%%%%%%%%ooooooooOOOOOOOOXXXXXXXX########$$$$$$$$################",
"########################################oooooooo****************%%%%%%%%ooooooooOOOOOOOOXXXXXXXX########$$$$$$$$################",
"########################################oooooooo****************%%%%%%%%ooooooooOOOOOOOOXXXXXXXX########$$$$$$$$################",
"########################################oooooooo****************%%%%%%%%ooooooooOOOOOOOOXXXXXXXX########$$$$$$$$################",
"########################################oooooooo****************%%%%%%%%ooooooooOOOOOOOOXXXXXXXX########$$$$$$$$################",
"########################################oooooooo****************%%%%%%%%ooooooooOOOOOOOOXXXXXXXX########$$$$$$$$################",
"########################################oooooooo****************%%%%%%%%ooooooooOOOOOOOOXXXXXXXX########$$$$$$$$################",
"########################################oooooooo****************%%%%%%%%ooooooooOOOOOOOOXXXXXXXX########$$$$$$$$################",
"################        ################oooooooo****************%%%%%%%%ooooooooooooooooXXXXXXXX$$$$$$$$########################",
"################        ################oooooooo****************%%%%%%%%ooooooooooooooooXXXXXXXX$$$$$$$$########################",
"################        ################oooooooo****************%%%%%%%%ooooooooooooooooXXXXXXXX$$$$$$$$########################",
"################        ################oooooooo****************%%%%%%%%ooooooooooooooooXXXXXXXX$$$$$$$$########################",
"################        ################oooooooo****************%%%%%%%%ooooooooooooooooXXXXXXXX$$$$$$$$########################",
"################        ################oooooooo****************%%%%%%%%ooooooooooooooooXXXXXXXX$$$$$$$$########################",
"################        ################oooooooo****************%%%%%%%%ooooooooooooooooXXXXXXXX$$$$$$$$########################",
"################        ################oooooooo****************%%%%%%%%ooooooooooooooooXXXXXXXX$$$$$$$$########################",
"########################        oooooooo************************oooooooo********oooooooooooooooo################################",
"########################        oooooooo************************oooooooo********oooooooooooooooo################################",
"########################        oooooooo************************oooooooo********oooooooooooooooo################################",
"########################        oooooooo************************oooooooo********oooooooooooooooo################################",
"########################        oooooooo************************oooooooo********oooooooooooooooo################################",
"########################        oooooooo************************oooooooo********oooooooooooooooo################################",
"########################        oooooooo************************oooooooo********oooooooooooooooo################################",
"########################        oooooooo************************oooooooo********oooooooooooooooo################################",
"################################oooooooo%%%%%%%%%%%%%%%%oooooooooooooooooooooooooooooooooooooooo########################++++++++",
"################################oooooooo%%%%%%%%%%%%%%%%oooooooooooooooooooooooooooooooooooooooo########################++++++++",
"################################oooooooo%%%%%%%%%%%%%%%%oooooooooooooooooooooooooooooooooooooooo########################++++++++",
"################################oooooooo%%%%%%%%%%%%%%%%oooooooooooooooooooooooooooooooooooooooo########################++++++++",
"################################oooooooo%%%%%%%%%%%%%%%%oooooooooooooooooooooooooooooooooooooooo########################++++++++",
"################################oooooooo%%%%%%%%%%%%%%%%oooooooooooooooooooooooooooooooooooooooo########################++++++++",
"################################oooooooo%%%%%%%%%%%%%%%%oooooooooooooooooooooooooooooooooooooooo########################++++++++",
"################################oooooooo%%%%%%%%%%%%%%%%oooooooooooooooooooooooooooooooooooooooo########################++++++++",
"########################################oooooooooooooooo################oooooooooooooooo########################################",
"########################################oooooooooooooooo################oooooooooooooooo########################################",
"########################################oooooooooooooooo################oooooooooooooooo########################################",
"########################################oooooooooooooooo################oooooooooooooooo########################################",
"########################################oooooooooooooooo################oooooooooooooooo########################################",
"########################################oooooooooooooooo################oooooooooooooooo########################################",
"########################################oooooooooooooooo################oooooooooooooooo########################################",
"########################################oooooooooooooooo################oooooooooooooooo########################################"
};
