/* XPM */
static char *_a36526c2f09482fabc17fc379bacb66GS3Ybcmc9iT8OWAh[] = {
/* columns rows colors chars-per-pixel */
"128 128 11 1 ",
"  c #A5BF65",
". c #ECE47C",
"X c #5C4C94",
"o c #746CAC",
"O c #DCBC8C",
"+ c #ECB4AC",
"@ c #ECCCA4",
"# c #DCD4DC",
"$ c #F4DCC4",
"% c #ECECC8",
"& c #F4F4C4",
/* pixels */
"@@@@@@@@@@@@@@@@@@@@@@@@XXXXXXXXXXXXXXXXXXXXXXXX@@@@@@@@@@@@@@@@@@@@@@@@@@@@@@@@XXXXXXXXXXXXXXXXXXXXXXXX@@@@@@@@        @@@@@@@@",
"@@@@@@@@@@@@@@@@@@@@@@@@XXXXXXXXXXXXXXXXXXXXXXXX@@@@@@@@@@@@@@@@@@@@@@@@@@@@@@@@XXXXXXXXXXXXXXXXXXXXXXXX@@@@@@@@        @@@@@@@@",
"@@@@@@@@@@@@@@@@@@@@@@@@XXXXXXXXXXXXXXXXXXXXXXXX@@@@@@@@@@@@@@@@@@@@@@@@@@@@@@@@XXXXXXXXXXXXXXXXXXXXXXXX@@@@@@@@        @@@@@@@@",
"@@@@@@@@@@@@@@@@@@@@@@@@XXXXXXXXXXXXXXXXXXXXXXXX@@@@@@@@@@@@@@@@@@@@@@@@@@@@@@@@XXXXXXXXXXXXXXXXXXXXXXXX@@@@@@@@        @@@@@@@@",
"@@@@@@@@@@@@@@@@@@@@@@@@XXXXXXXXXXXXXXXXXXXXXXXX@@@@@@@@@@@@@@@@@@@@@@@@@@@@@@@@XXXXXXXXXXXXXXXXXXXXXXXX@@@@@@@@        @@@@@@@@",
"@@@@@@@@@@@@@@@@@@@@@@@@XXXXXXXXXXXXXXXXXXXXXXXX@@@@@@@@@@@@@@@@@@@@@@@@@@@@@@@@XXXXXXXXXXXXXXXXXXXXXXXX@@@@@@@@        @@@@@@@@",
"@@@@@@@@@@@@@@@@@@@@@@@@XXXXXXXXXXXXXXXXXXXXXXXX@@@@@@@@@@@@@@@@@@@@@@@@@@@@@@@@XXXXXXXXXXXXXXXXXXXXXXXX@@@@@@@@        @@@@@@@@",
"@@@@@@@@@@@@@@@@@@@@@@@@XXXXXXXXXXXXXXXXXXXXXXXX@@@@@@@@@@@@@@@@@@@@@@@@@@@@@@@@XXXXXXXXXXXXXXXXXXXXXXXX@@@@@@@@        @@@@@@@@",
"@@@@@@@@@@@@@@@@XXXXXXXX&&&&&&&&&&&&&&&&&&&&&&&&XXXXXXXX@@@@@@@@@@@@@@@@XXXXXXXX&&&&&&&&&&&&&&&&&&&&&&&&XXXXXXXX        @@@@@@@@",
"@@@@@@@@@@@@@@@@XXXXXXXX&&&&&&&&&&&&&&&&&&&&&&&&XXXXXXXX@@@@@@@@@@@@@@@@XXXXXXXX&&&&&&&&&&&&&&&&&&&&&&&&XXXXXXXX        @@@@@@@@",
"@@@@@@@@@@@@@@@@XXXXXXXX&&&&&&&&&&&&&&&&&&&&&&&&XXXXXXXX@@@@@@@@@@@@@@@@XXXXXXXX&&&&&&&&&&&&&&&&&&&&&&&&XXXXXXXX        @@@@@@@@",
"@@@@@@@@@@@@@@@@XXXXXXXX&&&&&&&&&&&&&&&&&&&&&&&&XXXXXXXX@@@@@@@@@@@@@@@@XXXXXXXX&&&&&&&&&&&&&&&&&&&&&&&&XXXXXXXX        @@@@@@@@",
"@@@@@@@@@@@@@@@@XXXXXXXX&&&&&&&&&&&&&&&&&&&&&&&&XXXXXXXX@@@@@@@@@@@@@@@@XXXXXXXX&&&&&&&&&&&&&&&&&&&&&&&&XXXXXXXX        @@@@@@@@",
"@@@@@@@@@@@@@@@@XXXXXXXX&&&&&&&&&&&&&&&&&&&&&&&&XXXXXXXX@@@@@@@@@@@@@@@@XXXXXXXX&&&&&&&&&&&&&&&&&&&&&&&&XXXXXXXX        @@@@@@@@",
"@@@@@@@@@@@@@@@@XXXXXXXX&&&&&&&&&&&&&&&&&&&&&&&&XXXXXXXX@@@@@@@@@@@@@@@@XXXXXXXX&&&&&&&&&&&&&&&&&&&&&&&&XXXXXXXX        @@@@@@@@",
"@@@@@@@@@@@@@@@@XXXXXXXX&&&&&&&&&&&&&&&&&&&&&&&&XXXXXXXX@@@@@@@@@@@@@@@@XXXXXXXX&&&&&&&&&&&&&&&&&&&&&&&&XXXXXXXX        @@@@@@@@",
"@@@@@@@@@@@@@@@@XXXXXXXX++++++++++++++++&&&&&&&&XXXXXXXXXXXXXXXXXXXXXXXXXXXXXXXX&&&&&&&&++++++++++++++++XXXXXXXX@@@@@@@@@@@@@@@@",
"@@@@@@@@@@@@@@@@XXXXXXXX++++++++++++++++&&&&&&&&XXXXXXXXXXXXXXXXXXXXXXXXXXXXXXXX&&&&&&&&++++++++++++++++XXXXXXXX@@@@@@@@@@@@@@@@",
"@@@@@@@@@@@@@@@@XXXXXXXX++++++++++++++++&&&&&&&&XXXXXXXXXXXXXXXXXXXXXXXXXXXXXXXX&&&&&&&&++++++++++++++++XXXXXXXX@@@@@@@@@@@@@@@@",
"@@@@@@@@@@@@@@@@XXXXXXXX++++++++++++++++&&&&&&&&XXXXXXXXXXXXXXXXXXXXXXXXXXXXXXXX&&&&&&&&++++++++++++++++XXXXXXXX@@@@@@@@@@@@@@@@",
"@@@@@@@@@@@@@@@@XXXXXXXX++++++++++++++++&&&&&&&&XXXXXXXXXXXXXXXXXXXXXXXXXXXXXXXX&&&&&&&&++++++++++++++++XXXXXXXX@@@@@@@@@@@@@@@@",
"@@@@@@@@@@@@@@@@XXXXXXXX++++++++++++++++&&&&&&&&XXXXXXXXXXXXXXXXXXXXXXXXXXXXXXXX&&&&&&&&++++++++++++++++XXXXXXXX@@@@@@@@@@@@@@@@",
"@@@@@@@@@@@@@@@@XXXXXXXX++++++++++++++++&&&&&&&&XXXXXXXXXXXXXXXXXXXXXXXXXXXXXXXX&&&&&&&&++++++++++++++++XXXXXXXX@@@@@@@@@@@@@@@@",
"@@@@@@@@@@@@@@@@XXXXXXXX++++++++++++++++&&&&&&&&XXXXXXXXXXXXXXXXXXXXXXXXXXXXXXXX&&&&&&&&++++++++++++++++XXXXXXXX@@@@@@@@@@@@@@@@",
"@@@@@@@@@@@@@@@@XXXXXXXX++++++++++++++++&&&&&&&&################################&&&&&&&&++++++++++++++++XXXXXXXX@@@@@@@@@@@@@@@@",
"@@@@@@@@@@@@@@@@XXXXXXXX++++++++++++++++&&&&&&&&################################&&&&&&&&++++++++++++++++XXXXXXXX@@@@@@@@@@@@@@@@",
"@@@@@@@@@@@@@@@@XXXXXXXX++++++++++++++++&&&&&&&&################################&&&&&&&&++++++++++++++++XXXXXXXX@@@@@@@@@@@@@@@@",
"@@@@@@@@@@@@@@@@XXXXXXXX++++++++++++++++&&&&&&&&################################&&&&&&&&++++++++++++++++XXXXXXXX@@@@@@@@@@@@@@@@",
"@@@@@@@@@@@@@@@@XXXXXXXX++++++++++++++++&&&&&&&&################################&&&&&&&&++++++++++++++++XXXXXXXX@@@@@@@@@@@@@@@@",
"@@@@@@@@@@@@@@@@XXXXXXXX++++++++++++++++&&&&&&&&################################&&&&&&&&++++++++++++++++XXXXXXXX@@@@@@@@@@@@@@@@",
"@@@@@@@@@@@@@@@@XXXXXXXX++++++++++++++++&&&&&&&&################################&&&&&&&&++++++++++++++++XXXXXXXX@@@@@@@@@@@@@@@@",
"@@@@@@@@@@@@@@@@XXXXXXXX++++++++++++++++&&&&&&&&################################&&&&&&&&++++++++++++++++XXXXXXXX@@@@@@@@@@@@@@@@",
"@@@@@@@@@@@@@@@@XXXXXXXX&&&&&&&&&&&&&&&&&&&&&&&&################################&&&&&&&&&&&&&&&&&&&&&&&&XXXXXXXX@@@@@@@@@@@@@@@@",
"@@@@@@@@@@@@@@@@XXXXXXXX&&&&&&&&&&&&&&&&&&&&&&&&################################&&&&&&&&&&&&&&&&&&&&&&&&XXXXXXXX@@@@@@@@@@@@@@@@",
"@@@@@@@@@@@@@@@@XXXXXXXX&&&&&&&&&&&&&&&&&&&&&&&&################################&&&&&&&&&&&&&&&&&&&&&&&&XXXXXXXX@@@@@@@@@@@@@@@@",
"@@@@@@@@@@@@@@@@XXXXXXXX&&&&&&&&&&&&&&&&&&&&&&&&################################&&&&&&&&&&&&&&&&&&&&&&&&XXXXXXXX@@@@@@@@@@@@@@@@",
"@@@@@@@@@@@@@@@@XXXXXXXX&&&&&&&&&&&&&&&&&&&&&&&&################################&&&&&&&&&&&&&&&&&&&&&&&&XXXXXXXX@@@@@@@@@@@@@@@@",
"@@@@@@@@@@@@@@@@XXXXXXXX&&&&&&&&&&&&&&&&&&&&&&&&################################&&&&&&&&&&&&&&&&&&&&&&&&XXXXXXXX@@@@@@@@@@@@@@@@",
"@@@@@@@@@@@@@@@@XXXXXXXX&&&&&&&&&&&&&&&&&&&&&&&&################################&&&&&&&&&&&&&&&&&&&&&&&&XXXXXXXX@@@@@@@@@@@@@@@@",
"@@@@@@@@@@@@@@@@XXXXXXXX&&&&&&&&&&&&&&&&&&&&&&&&################################&&&&&&&&&&&&&&&&&&&&&&&&XXXXXXXX@@@@@@@@@@@@@@@@",
"@@@@@@@@@@@@@@@@XXXXXXXX&&&&&&&&&&&&&&&&&&&&&&&&################################&&&&&&&&&&&&&&&&&&&&&&&&XXXXXXXX@@@@@@@@@@@@@@@@",
"@@@@@@@@@@@@@@@@XXXXXXXX&&&&&&&&&&&&&&&&&&&&&&&&################################&&&&&&&&&&&&&&&&&&&&&&&&XXXXXXXX@@@@@@@@@@@@@@@@",
"@@@@@@@@@@@@@@@@XXXXXXXX&&&&&&&&&&&&&&&&&&&&&&&&################################&&&&&&&&&&&&&&&&&&&&&&&&XXXXXXXX@@@@@@@@@@@@@@@@",
"@@@@@@@@@@@@@@@@XXXXXXXX&&&&&&&&&&&&&&&&&&&&&&&&################################&&&&&&&&&&&&&&&&&&&&&&&&XXXXXXXX@@@@@@@@@@@@@@@@",
"@@@@@@@@@@@@@@@@XXXXXXXX&&&&&&&&&&&&&&&&&&&&&&&&################################&&&&&&&&&&&&&&&&&&&&&&&&XXXXXXXX@@@@@@@@@@@@@@@@",
"@@@@@@@@@@@@@@@@XXXXXXXX&&&&&&&&&&&&&&&&&&&&&&&&################################&&&&&&&&&&&&&&&&&&&&&&&&XXXXXXXX@@@@@@@@@@@@@@@@",
"@@@@@@@@@@@@@@@@XXXXXXXX&&&&&&&&&&&&&&&&&&&&&&&&################################&&&&&&&&&&&&&&&&&&&&&&&&XXXXXXXX@@@@@@@@@@@@@@@@",
"@@@@@@@@@@@@@@@@XXXXXXXX&&&&&&&&&&&&&&&&&&&&&&&&################################&&&&&&&&&&&&&&&&&&&&&&&&XXXXXXXX@@@@@@@@@@@@@@@@",
"@@@@@@@@XXXXXXXXXXXXXXXX&&&&&&&&&&&&&&&&&&&&&&&&&&&&&&&&&&&&&&&&&&&&&&&&&&&&&&&&&&&&&&&&&&&&&&&&&&&&&&&&XXXXXXXXXXXXXXXX@@@@@@@@",
"@@@@@@@@XXXXXXXXXXXXXXXX&&&&&&&&&&&&&&&&&&&&&&&&&&&&&&&&&&&&&&&&&&&&&&&&&&&&&&&&&&&&&&&&&&&&&&&&&&&&&&&&XXXXXXXXXXXXXXXX@@@@@@@@",
"@@@@@@@@XXXXXXXXXXXXXXXX&&&&&&&&&&&&&&&&&&&&&&&&&&&&&&&&&&&&&&&&&&&&&&&&&&&&&&&&&&&&&&&&&&&&&&&&&&&&&&&&XXXXXXXXXXXXXXXX@@@@@@@@",
"@@@@@@@@XXXXXXXXXXXXXXXX&&&&&&&&&&&&&&&&&&&&&&&&&&&&&&&&&&&&&&&&&&&&&&&&&&&&&&&&&&&&&&&&&&&&&&&&&&&&&&&&XXXXXXXXXXXXXXXX@@@@@@@@",
"@@@@@@@@XXXXXXXXXXXXXXXX&&&&&&&&&&&&&&&&&&&&&&&&&&&&&&&&&&&&&&&&&&&&&&&&&&&&&&&&&&&&&&&&&&&&&&&&&&&&&&&&XXXXXXXXXXXXXXXX@@@@@@@@",
"@@@@@@@@XXXXXXXXXXXXXXXX&&&&&&&&&&&&&&&&&&&&&&&&&&&&&&&&&&&&&&&&&&&&&&&&&&&&&&&&&&&&&&&&&&&&&&&&&&&&&&&&XXXXXXXXXXXXXXXX@@@@@@@@",
"@@@@@@@@XXXXXXXXXXXXXXXX&&&&&&&&&&&&&&&&&&&&&&&&&&&&&&&&&&&&&&&&&&&&&&&&&&&&&&&&&&&&&&&&&&&&&&&&&&&&&&&&XXXXXXXXXXXXXXXX@@@@@@@@",
"@@@@@@@@XXXXXXXXXXXXXXXX&&&&&&&&&&&&&&&&&&&&&&&&&&&&&&&&&&&&&&&&&&&&&&&&&&&&&&&&&&&&&&&&&&&&&&&&&&&&&&&&XXXXXXXXXXXXXXXX@@@@@@@@",
"@@@@@@@@@@@@@@@@XXXXXXXX&&&&&&&&XXXXXXXX&&&&&&&&&&&&&&&&&&&&&&&&&&&&&&&&&&&&&&&&&&&&&&&&XXXXXXXX&&&&&&&&XXXXXXXX@@@@@@@@@@@@@@@@",
"@@@@@@@@@@@@@@@@XXXXXXXX&&&&&&&&XXXXXXXX&&&&&&&&&&&&&&&&&&&&&&&&&&&&&&&&&&&&&&&&&&&&&&&&XXXXXXXX&&&&&&&&XXXXXXXX@@@@@@@@@@@@@@@@",
"@@@@@@@@@@@@@@@@XXXXXXXX&&&&&&&&XXXXXXXX&&&&&&&&&&&&&&&&&&&&&&&&&&&&&&&&&&&&&&&&&&&&&&&&XXXXXXXX&&&&&&&&XXXXXXXX@@@@@@@@@@@@@@@@",
"@@@@@@@@@@@@@@@@XXXXXXXX&&&&&&&&XXXXXXXX&&&&&&&&&&&&&&&&&&&&&&&&&&&&&&&&&&&&&&&&&&&&&&&&XXXXXXXX&&&&&&&&XXXXXXXX@@@@@@@@@@@@@@@@",
"@@@@@@@@@@@@@@@@XXXXXXXX&&&&&&&&XXXXXXXX&&&&&&&&&&&&&&&&&&&&&&&&&&&&&&&&&&&&&&&&&&&&&&&&XXXXXXXX&&&&&&&&XXXXXXXX@@@@@@@@@@@@@@@@",
"@@@@@@@@@@@@@@@@XXXXXXXX&&&&&&&&XXXXXXXX&&&&&&&&&&&&&&&&&&&&&&&&&&&&&&&&&&&&&&&&&&&&&&&&XXXXXXXX&&&&&&&&XXXXXXXX@@@@@@@@@@@@@@@@",
"@@@@@@@@@@@@@@@@XXXXXXXX&&&&&&&&XXXXXXXX&&&&&&&&&&&&&&&&&&&&&&&&&&&&&&&&&&&&&&&&&&&&&&&&XXXXXXXX&&&&&&&&XXXXXXXX@@@@@@@@@@@@@@@@",
"@@@@@@@@@@@@@@@@XXXXXXXX&&&&&&&&XXXXXXXX&&&&&&&&&&&&&&&&&&&&&&&&&&&&&&&&&&&&&&&&&&&&&&&&XXXXXXXX&&&&&&&&XXXXXXXX@@@@@@@@@@@@@@@@",
"@@@@@@@@XXXXXXXXXXXXXXXX&&&&&&&&&&&&&&&&&&&&&&&&&&&&&&&&&&&&&&&&&&&&&&&&&&&&&&&&&&&&&&&&&&&&&&&&&&&&&&&&XXXXXXXXXXXXXXXX@@@@@@@@",
"@@@@@@@@XXXXXXXXXXXXXXXX&&&&&&&&&&&&&&&&&&&&&&&&&&&&&&&&&&&&&&&&&&&&&&&&&&&&&&&&&&&&&&&&&&&&&&&&&&&&&&&&XXXXXXXXXXXXXXXX@@@@@@@@",
"@@@@@@@@XXXXXXXXXXXXXXXX&&&&&&&&&&&&&&&&&&&&&&&&&&&&&&&&&&&&&&&&&&&&&&&&&&&&&&&&&&&&&&&&&&&&&&&&&&&&&&&&XXXXXXXXXXXXXXXX@@@@@@@@",
"@@@@@@@@XXXXXXXXXXXXXXXX&&&&&&&&&&&&&&&&&&&&&&&&&&&&&&&&&&&&&&&&&&&&&&&&&&&&&&&&&&&&&&&&&&&&&&&&&&&&&&&&XXXXXXXXXXXXXXXX@@@@@@@@",
"@@@@@@@@XXXXXXXXXXXXXXXX&&&&&&&&&&&&&&&&&&&&&&&&&&&&&&&&&&&&&&&&&&&&&&&&&&&&&&&&&&&&&&&&&&&&&&&&&&&&&&&&XXXXXXXXXXXXXXXX@@@@@@@@",
"@@@@@@@@XXXXXXXXXXXXXXXX&&&&&&&&&&&&&&&&&&&&&&&&&&&&&&&&&&&&&&&&&&&&&&&&&&&&&&&&&&&&&&&&&&&&&&&&&&&&&&&&XXXXXXXXXXXXXXXX@@@@@@@@",
"@@@@@@@@XXXXXXXXXXXXXXXX&&&&&&&&&&&&&&&&&&&&&&&&&&&&&&&&&&&&&&&&&&&&&&&&&&&&&&&&&&&&&&&&&&&&&&&&&&&&&&&&XXXXXXXXXXXXXXXX@@@@@@@@",
"@@@@@@@@XXXXXXXXXXXXXXXX&&&&&&&&&&&&&&&&&&&&&&&&&&&&&&&&&&&&&&&&&&&&&&&&&&&&&&&&&&&&&&&&&&&&&&&&&&&&&&&&XXXXXXXXXXXXXXXX@@@@@@@@",
"@@@@@@@@@@@@@@@@XXXXXXXX$$$$$$$$$$$$$$$$&&&&&&&&&&&&&&&&&&&&&&&&&&&&&&&&&&&&&&&&&&&&&&&&$$$$$$$$$$$$$$$$XXXXXXXX@@@@@@@@@@@@@@@@",
"@@@@@@@@@@@@@@@@XXXXXXXX$$$$$$$$$$$$$$$$&&&&&&&&&&&&&&&&&&&&&&&&&&&&&&&&&&&&&&&&&&&&&&&&$$$$$$$$$$$$$$$$XXXXXXXX@@@@@@@@@@@@@@@@",
"@@@@@@@@@@@@@@@@XXXXXXXX$$$$$$$$$$$$$$$$&&&&&&&&&&&&&&&&&&&&&&&&&&&&&&&&&&&&&&&&&&&&&&&&$$$$$$$$$$$$$$$$XXXXXXXX@@@@@@@@@@@@@@@@",
"@@@@@@@@@@@@@@@@XXXXXXXX$$$$$$$$$$$$$$$$&&&&&&&&&&&&&&&&&&&&&&&&&&&&&&&&&&&&&&&&&&&&&&&&$$$$$$$$$$$$$$$$XXXXXXXX@@@@@@@@@@@@@@@@",
"@@@@@@@@@@@@@@@@XXXXXXXX$$$$$$$$$$$$$$$$&&&&&&&&&&&&&&&&&&&&&&&&&&&&&&&&&&&&&&&&&&&&&&&&$$$$$$$$$$$$$$$$XXXXXXXX@@@@@@@@@@@@@@@@",
"@@@@@@@@@@@@@@@@XXXXXXXX$$$$$$$$$$$$$$$$&&&&&&&&&&&&&&&&&&&&&&&&&&&&&&&&&&&&&&&&&&&&&&&&$$$$$$$$$$$$$$$$XXXXXXXX@@@@@@@@@@@@@@@@",
"@@@@@@@@@@@@@@@@XXXXXXXX$$$$$$$$$$$$$$$$&&&&&&&&&&&&&&&&&&&&&&&&&&&&&&&&&&&&&&&&&&&&&&&&$$$$$$$$$$$$$$$$XXXXXXXX@@@@@@@@@@@@@@@@",
"@@@@@@@@@@@@@@@@XXXXXXXX$$$$$$$$$$$$$$$$&&&&&&&&&&&&&&&&&&&&&&&&&&&&&&&&&&&&&&&&&&&&&&&&$$$$$$$$$$$$$$$$XXXXXXXX@@@@@@@@@@@@@@@@",
"@@@@@@@@@@@@@@@@@@@@@@@@XXXXXXXXXXXXXXXXooooooooooooooooooooooooooooooooooooooooooooooooXXXXXXXXXXXXXXXXXXXXXXXX@@@@@@@@@@@@@@@@",
"@@@@@@@@@@@@@@@@@@@@@@@@XXXXXXXXXXXXXXXXooooooooooooooooooooooooooooooooooooooooooooooooXXXXXXXXXXXXXXXXXXXXXXXX@@@@@@@@@@@@@@@@",
"@@@@@@@@@@@@@@@@@@@@@@@@XXXXXXXXXXXXXXXXooooooooooooooooooooooooooooooooooooooooooooooooXXXXXXXXXXXXXXXXXXXXXXXX@@@@@@@@@@@@@@@@",
"@@@@@@@@@@@@@@@@@@@@@@@@XXXXXXXXXXXXXXXXooooooooooooooooooooooooooooooooooooooooooooooooXXXXXXXXXXXXXXXXXXXXXXXX@@@@@@@@@@@@@@@@",
"@@@@@@@@@@@@@@@@@@@@@@@@XXXXXXXXXXXXXXXXooooooooooooooooooooooooooooooooooooooooooooooooXXXXXXXXXXXXXXXXXXXXXXXX@@@@@@@@@@@@@@@@",
"@@@@@@@@@@@@@@@@@@@@@@@@XXXXXXXXXXXXXXXXooooooooooooooooooooooooooooooooooooooooooooooooXXXXXXXXXXXXXXXXXXXXXXXX@@@@@@@@@@@@@@@@",
"@@@@@@@@@@@@@@@@@@@@@@@@XXXXXXXXXXXXXXXXooooooooooooooooooooooooooooooooooooooooooooooooXXXXXXXXXXXXXXXXXXXXXXXX@@@@@@@@@@@@@@@@",
"@@@@@@@@@@@@@@@@@@@@@@@@XXXXXXXXXXXXXXXXooooooooooooooooooooooooooooooooooooooooooooooooXXXXXXXXXXXXXXXXXXXXXXXX@@@@@@@@@@@@@@@@",
"@@@@@@@@@@@@@@@@@@@@@@@@XXXXXXXXXXXXXXXXoooooooooooooooo%%%%%%%%........oooooooooooooooo&&&&&&&&########XXXXXXXX@@@@@@@@@@@@@@@@",
"@@@@@@@@@@@@@@@@@@@@@@@@XXXXXXXXXXXXXXXXoooooooooooooooo%%%%%%%%........oooooooooooooooo&&&&&&&&########XXXXXXXX@@@@@@@@@@@@@@@@",
"@@@@@@@@@@@@@@@@@@@@@@@@XXXXXXXXXXXXXXXXoooooooooooooooo%%%%%%%%........oooooooooooooooo&&&&&&&&########XXXXXXXX@@@@@@@@@@@@@@@@",
"@@@@@@@@@@@@@@@@@@@@@@@@XXXXXXXXXXXXXXXXoooooooooooooooo%%%%%%%%........oooooooooooooooo&&&&&&&&########XXXXXXXX@@@@@@@@@@@@@@@@",
"@@@@@@@@@@@@@@@@@@@@@@@@XXXXXXXXXXXXXXXXoooooooooooooooo%%%%%%%%........oooooooooooooooo&&&&&&&&########XXXXXXXX@@@@@@@@@@@@@@@@",
"@@@@@@@@@@@@@@@@@@@@@@@@XXXXXXXXXXXXXXXXoooooooooooooooo%%%%%%%%........oooooooooooooooo&&&&&&&&########XXXXXXXX@@@@@@@@@@@@@@@@",
"@@@@@@@@@@@@@@@@@@@@@@@@XXXXXXXXXXXXXXXXoooooooooooooooo%%%%%%%%........oooooooooooooooo&&&&&&&&########XXXXXXXX@@@@@@@@@@@@@@@@",
"@@@@@@@@@@@@@@@@@@@@@@@@XXXXXXXXXXXXXXXXoooooooooooooooo%%%%%%%%........oooooooooooooooo&&&&&&&&########XXXXXXXX@@@@@@@@@@@@@@@@",
"@@@@@@@@@@@@@@@@XXXXXXXX########&&&&&&&&&&&&&&&&&&&&&&&&................&&&&&&&&&&&&&&&&&&&&&&&&XXXXXXXX@@@@@@@@@@@@@@@@@@@@@@@@",
"@@@@@@@@@@@@@@@@XXXXXXXX########&&&&&&&&&&&&&&&&&&&&&&&&................&&&&&&&&&&&&&&&&&&&&&&&&XXXXXXXX@@@@@@@@@@@@@@@@@@@@@@@@",
"@@@@@@@@@@@@@@@@XXXXXXXX########&&&&&&&&&&&&&&&&&&&&&&&&................&&&&&&&&&&&&&&&&&&&&&&&&XXXXXXXX@@@@@@@@@@@@@@@@@@@@@@@@",
"@@@@@@@@@@@@@@@@XXXXXXXX########&&&&&&&&&&&&&&&&&&&&&&&&................&&&&&&&&&&&&&&&&&&&&&&&&XXXXXXXX@@@@@@@@@@@@@@@@@@@@@@@@",
"@@@@@@@@@@@@@@@@XXXXXXXX########&&&&&&&&&&&&&&&&&&&&&&&&................&&&&&&&&&&&&&&&&&&&&&&&&XXXXXXXX@@@@@@@@@@@@@@@@@@@@@@@@",
"@@@@@@@@@@@@@@@@XXXXXXXX########&&&&&&&&&&&&&&&&&&&&&&&&................&&&&&&&&&&&&&&&&&&&&&&&&XXXXXXXX@@@@@@@@@@@@@@@@@@@@@@@@",
"@@@@@@@@@@@@@@@@XXXXXXXX########&&&&&&&&&&&&&&&&&&&&&&&&................&&&&&&&&&&&&&&&&&&&&&&&&XXXXXXXX@@@@@@@@@@@@@@@@@@@@@@@@",
"@@@@@@@@@@@@@@@@XXXXXXXX########&&&&&&&&&&&&&&&&&&&&&&&&................&&&&&&&&&&&&&&&&&&&&&&&&XXXXXXXX@@@@@@@@@@@@@@@@@@@@@@@@",
"@@@@@@@@@@@@@@@@XXXXXXXX########&&&&&&&&XXXXXXXX&&&&&&&&&&&&&&&&&&&&&&&&&&&&&&&&&&&&&&&&XXXXXXXX@@@@@@@@@@@@@@@@@@@@@@@@@@@@@@@@",
"@@@@@@@@@@@@@@@@XXXXXXXX########&&&&&&&&XXXXXXXX&&&&&&&&&&&&&&&&&&&&&&&&&&&&&&&&&&&&&&&&XXXXXXXX@@@@@@@@@@@@@@@@@@@@@@@@@@@@@@@@",
"@@@@@@@@@@@@@@@@XXXXXXXX########&&&&&&&&XXXXXXXX&&&&&&&&&&&&&&&&&&&&&&&&&&&&&&&&&&&&&&&&XXXXXXXX@@@@@@@@@@@@@@@@@@@@@@@@@@@@@@@@",
"@@@@@@@@@@@@@@@@XXXXXXXX########&&&&&&&&XXXXXXXX&&&&&&&&&&&&&&&&&&&&&&&&&&&&&&&&&&&&&&&&XXXXXXXX@@@@@@@@@@@@@@@@@@@@@@@@@@@@@@@@",
"@@@@@@@@@@@@@@@@XXXXXXXX########&&&&&&&&XXXXXXXX&&&&&&&&&&&&&&&&&&&&&&&&&&&&&&&&&&&&&&&&XXXXXXXX@@@@@@@@@@@@@@@@@@@@@@@@@@@@@@@@",
"@@@@@@@@@@@@@@@@XXXXXXXX########&&&&&&&&XXXXXXXX&&&&&&&&&&&&&&&&&&&&&&&&&&&&&&&&&&&&&&&&XXXXXXXX@@@@@@@@@@@@@@@@@@@@@@@@@@@@@@@@",
"@@@@@@@@@@@@@@@@XXXXXXXX########&&&&&&&&XXXXXXXX&&&&&&&&&&&&&&&&&&&&&&&&&&&&&&&&&&&&&&&&XXXXXXXX@@@@@@@@@@@@@@@@@@@@@@@@@@@@@@@@",
"@@@@@@@@@@@@@@@@XXXXXXXX########&&&&&&&&XXXXXXXX&&&&&&&&&&&&&&&&&&&&&&&&&&&&&&&&&&&&&&&&XXXXXXXX@@@@@@@@@@@@@@@@@@@@@@@@@@@@@@@@",
"@@@@@@@@@@@@@@@@XXXXXXXXXXXXXXXXXXXXXXXXXXXXXXXXXXXXXXXXXXXXXXXXXXXXXXXX################XXXXXXXX@@@@@@@@@@@@@@@@@@@@@@@@OOOOOOOO",
"@@@@@@@@@@@@@@@@XXXXXXXXXXXXXXXXXXXXXXXXXXXXXXXXXXXXXXXXXXXXXXXXXXXXXXXX################XXXXXXXX@@@@@@@@@@@@@@@@@@@@@@@@OOOOOOOO",
"@@@@@@@@@@@@@@@@XXXXXXXXXXXXXXXXXXXXXXXXXXXXXXXXXXXXXXXXXXXXXXXXXXXXXXXX################XXXXXXXX@@@@@@@@@@@@@@@@@@@@@@@@OOOOOOOO",
"@@@@@@@@@@@@@@@@XXXXXXXXXXXXXXXXXXXXXXXXXXXXXXXXXXXXXXXXXXXXXXXXXXXXXXXX################XXXXXXXX@@@@@@@@@@@@@@@@@@@@@@@@OOOOOOOO",
"@@@@@@@@@@@@@@@@XXXXXXXXXXXXXXXXXXXXXXXXXXXXXXXXXXXXXXXXXXXXXXXXXXXXXXXX################XXXXXXXX@@@@@@@@@@@@@@@@@@@@@@@@OOOOOOOO",
"@@@@@@@@@@@@@@@@XXXXXXXXXXXXXXXXXXXXXXXXXXXXXXXXXXXXXXXXXXXXXXXXXXXXXXXX################XXXXXXXX@@@@@@@@@@@@@@@@@@@@@@@@OOOOOOOO",
"@@@@@@@@@@@@@@@@XXXXXXXXXXXXXXXXXXXXXXXXXXXXXXXXXXXXXXXXXXXXXXXXXXXXXXXX################XXXXXXXX@@@@@@@@@@@@@@@@@@@@@@@@OOOOOOOO",
"@@@@@@@@@@@@@@@@XXXXXXXXXXXXXXXXXXXXXXXXXXXXXXXXXXXXXXXXXXXXXXXXXXXXXXXX################XXXXXXXX@@@@@@@@@@@@@@@@@@@@@@@@OOOOOOOO",
"@@@@@@@@@@@@@@@@@@@@@@@@@@@@@@@@@@@@@@@@@@@@@@@@@@@@@@@@@@@@@@@@@@@@@@@@XXXXXXXXXXXXXXXX@@@@@@@@@@@@@@@@@@@@@@@@@@@@@@@@@@@@@@@@",
"@@@@@@@@@@@@@@@@@@@@@@@@@@@@@@@@@@@@@@@@@@@@@@@@@@@@@@@@@@@@@@@@@@@@@@@@XXXXXXXXXXXXXXXX@@@@@@@@@@@@@@@@@@@@@@@@@@@@@@@@@@@@@@@@",
"@@@@@@@@@@@@@@@@@@@@@@@@@@@@@@@@@@@@@@@@@@@@@@@@@@@@@@@@@@@@@@@@@@@@@@@@XXXXXXXXXXXXXXXX@@@@@@@@@@@@@@@@@@@@@@@@@@@@@@@@@@@@@@@@",
"@@@@@@@@@@@@@@@@@@@@@@@@@@@@@@@@@@@@@@@@@@@@@@@@@@@@@@@@@@@@@@@@@@@@@@@@XXXXXXXXXXXXXXXX@@@@@@@@@@@@@@@@@@@@@@@@@@@@@@@@@@@@@@@@",
"@@@@@@@@@@@@@@@@@@@@@@@@@@@@@@@@@@@@@@@@@@@@@@@@@@@@@@@@@@@@@@@@@@@@@@@@XXXXXXXXXXXXXXXX@@@@@@@@@@@@@@@@@@@@@@@@@@@@@@@@@@@@@@@@",
"@@@@@@@@@@@@@@@@@@@@@@@@@@@@@@@@@@@@@@@@@@@@@@@@@@@@@@@@@@@@@@@@@@@@@@@@XXXXXXXXXXXXXXXX@@@@@@@@@@@@@@@@@@@@@@@@@@@@@@@@@@@@@@@@",
"@@@@@@@@@@@@@@@@@@@@@@@@@@@@@@@@@@@@@@@@@@@@@@@@@@@@@@@@@@@@@@@@@@@@@@@@XXXXXXXXXXXXXXXX@@@@@@@@@@@@@@@@@@@@@@@@@@@@@@@@@@@@@@@@",
"@@@@@@@@@@@@@@@@@@@@@@@@@@@@@@@@@@@@@@@@@@@@@@@@@@@@@@@@@@@@@@@@@@@@@@@@XXXXXXXXXXXXXXXX@@@@@@@@@@@@@@@@@@@@@@@@@@@@@@@@@@@@@@@@"
};
