/* XPM */
static char *_a879bed77da4ce8c8b169b0c0778d6avcFFBcnGJQrw8uaS[] = {
/* columns rows colors chars-per-pixel */
"128 128 12 1 ",
"  c #A5BF65",
". c #B9CF6D",
"X c #ECE47C",
"o c #5C4C94",
"O c #746CAC",
"+ c #DCBC8C",
"@ c #ECB4AC",
"# c #ECCCA4",
"$ c #ECDCB4",
"% c #DCD4DC",
"& c #F4DCC4",
"* c #F4F4C4",
/* pixels */
"########################################oooooooooooooooooooooooo################        ########################        ########",
"########################################oooooooooooooooooooooooo################        ########################        ########",
"########################################oooooooooooooooooooooooo################        ########################        ########",
"########################################oooooooooooooooooooooooo################        ########################        ########",
"########################################oooooooooooooooooooooooo################        ########################        ########",
"########################################oooooooooooooooooooooooo################        ########################        ########",
"########################################oooooooooooooooooooooooo################        ########################        ########",
"########################################oooooooooooooooooooooooo################        ########################        ########",
"################################oooooooo************************oooooooooooooooooooooooo        ................        ########",
"################################oooooooo************************oooooooooooooooooooooooo        ................        ########",
"################################oooooooo************************oooooooooooooooooooooooo        ................        ########",
"################################oooooooo************************oooooooooooooooooooooooo        ................        ########",
"################################oooooooo************************oooooooooooooooooooooooo        ................        ########",
"################################oooooooo************************oooooooooooooooooooooooo        ................        ########",
"################################oooooooo************************oooooooooooooooooooooooo        ................        ########",
"################################oooooooo************************oooooooooooooooooooooooo        ................        ########",
"################++++++++oooooooo********@@@@@@@@@@@@@@@@********************************oooooooo........        ################",
"################++++++++oooooooo********@@@@@@@@@@@@@@@@********************************oooooooo........        ################",
"################++++++++oooooooo********@@@@@@@@@@@@@@@@********************************oooooooo........        ################",
"################++++++++oooooooo********@@@@@@@@@@@@@@@@********************************oooooooo........        ################",
"################++++++++oooooooo********@@@@@@@@@@@@@@@@********************************oooooooo........        ################",
"################++++++++oooooooo********@@@@@@@@@@@@@@@@********************************oooooooo........        ################",
"################++++++++oooooooo********@@@@@@@@@@@@@@@@********************************oooooooo........        ################",
"################++++++++oooooooo********@@@@@@@@@@@@@@@@********************************oooooooo........        ################",
"########################oooooooo********@@@@@@@@@@@@@@@@********************************oooooooo        ########################",
"########################oooooooo********@@@@@@@@@@@@@@@@********************************oooooooo        ########################",
"########################oooooooo********@@@@@@@@@@@@@@@@********************************oooooooo        ########################",
"########################oooooooo********@@@@@@@@@@@@@@@@********************************oooooooo        ########################",
"########################oooooooo********@@@@@@@@@@@@@@@@********************************oooooooo        ########################",
"########################oooooooo********@@@@@@@@@@@@@@@@********************************oooooooo        ########################",
"########################oooooooo********@@@@@@@@@@@@@@@@********************************oooooooo        ########################",
"########################oooooooo********@@@@@@@@@@@@@@@@********************************oooooooo        ########################",
"################################oooooooo************************************************oooooooo################################",
"################################oooooooo************************************************oooooooo################################",
"################################oooooooo************************************************oooooooo################################",
"################################oooooooo************************************************oooooooo################################",
"################################oooooooo************************************************oooooooo################################",
"################################oooooooo************************************************oooooooo################################",
"################################oooooooo************************************************oooooooo################################",
"################################oooooooo************************************************oooooooo################################",
"########################oooooooooooooooo************************************************oooooooooooooooo########################",
"########################oooooooooooooooo************************************************oooooooooooooooo########################",
"########################oooooooooooooooo************************************************oooooooooooooooo########################",
"########################oooooooooooooooo************************************************oooooooooooooooo########################",
"########################oooooooooooooooo************************************************oooooooooooooooo########################",
"########################oooooooooooooooo************************************************oooooooooooooooo########################",
"########################oooooooooooooooo************************************************oooooooooooooooo########################",
"########################oooooooooooooooo************************************************oooooooooooooooo########################",
"################################oooooooo********************************oooooooo****************oooooooo########################",
"################################oooooooo********************************oooooooo****************oooooooo########################",
"################################oooooooo********************************oooooooo****************oooooooo########################",
"################################oooooooo********************************oooooooo****************oooooooo########################",
"################################oooooooo********************************oooooooo****************oooooooo########################",
"################################oooooooo********************************oooooooo****************oooooooo########################",
"################################oooooooo********************************oooooooo****************oooooooo########################",
"################################oooooooo********************************oooooooo****************oooooooo########################",
"################$$$$$$$$oooooooooooooooo********************************************************oooooooo########################",
"################$$$$$$$$oooooooooooooooo********************************************************oooooooo########################",
"################$$$$$$$$oooooooooooooooo********************************************************oooooooo########################",
"################$$$$$$$$oooooooooooooooo********************************************************oooooooo########################",
"################$$$$$$$$oooooooooooooooo********************************************************oooooooo########################",
"################$$$$$$$$oooooooooooooooo********************************************************oooooooo########################",
"################$$$$$$$$oooooooooooooooo********************************************************oooooooo########################",
"################$$$$$$$$oooooooooooooooo********************************************************oooooooo########################",
"################################oooooooo****************&&&&&&&&&&&&&&&&************************oooooooo########################",
"################################oooooooo****************&&&&&&&&&&&&&&&&************************oooooooo########################",
"################################oooooooo****************&&&&&&&&&&&&&&&&************************oooooooo########################",
"################################oooooooo****************&&&&&&&&&&&&&&&&************************oooooooo########################",
"################################oooooooo****************&&&&&&&&&&&&&&&&************************oooooooo########################",
"################################oooooooo****************&&&&&&&&&&&&&&&&************************oooooooo########################",
"################################oooooooo****************&&&&&&&&&&&&&&&&************************oooooooo########################",
"################################oooooooo****************&&&&&&&&&&&&&&&&************************oooooooo########################",
"########################################ooooooooOOOOOOOOOOOOOOOOOOOOOOOOOOOOOOOOOOOOOOOOoooooooo################################",
"########################################ooooooooOOOOOOOOOOOOOOOOOOOOOOOOOOOOOOOOOOOOOOOOoooooooo################################",
"########################################ooooooooOOOOOOOOOOOOOOOOOOOOOOOOOOOOOOOOOOOOOOOOoooooooo################################",
"########################################ooooooooOOOOOOOOOOOOOOOOOOOOOOOOOOOOOOOOOOOOOOOOoooooooo################################",
"########################################ooooooooOOOOOOOOOOOOOOOOOOOOOOOOOOOOOOOOOOOOOOOOoooooooo################################",
"########################################ooooooooOOOOOOOOOOOOOOOOOOOOOOOOOOOOOOOOOOOOOOOOoooooooo################################",
"########################################ooooooooOOOOOOOOOOOOOOOOOOOOOOOOOOOOOOOOOOOOOOOOoooooooo################################",
"########################################ooooooooOOOOOOOOOOOOOOOOOOOOOOOOOOOOOOOOOOOOOOOOoooooooo################################",
"################################oooooooo%%%%%%%%********OOOOOOOOOOOOOOOOOOOOOOOOOOOOOOOOXXXXXXXX################################",
"################################oooooooo%%%%%%%%********OOOOOOOOOOOOOOOOOOOOOOOOOOOOOOOOXXXXXXXX################################",
"################################oooooooo%%%%%%%%********OOOOOOOOOOOOOOOOOOOOOOOOOOOOOOOOXXXXXXXX################################",
"################################oooooooo%%%%%%%%********OOOOOOOOOOOOOOOOOOOOOOOOOOOOOOOOXXXXXXXX################################",
"################################oooooooo%%%%%%%%********OOOOOOOOOOOOOOOOOOOOOOOOOOOOOOOOXXXXXXXX################################",
"################################oooooooo%%%%%%%%********OOOOOOOOOOOOOOOOOOOOOOOOOOOOOOOOXXXXXXXX################################",
"################################oooooooo%%%%%%%%********OOOOOOOOOOOOOOOOOOOOOOOOOOOOOOOOXXXXXXXX################################",
"################################oooooooo%%%%%%%%********OOOOOOOOOOOOOOOOOOOOOOOOOOOOOOOOXXXXXXXX################################",
"################################oooooooo%%%%%%%%********************************ooooooooXXXXXXXX########$$$$$$$$################",
"################################oooooooo%%%%%%%%********************************ooooooooXXXXXXXX########$$$$$$$$################",
"################################oooooooo%%%%%%%%********************************ooooooooXXXXXXXX########$$$$$$$$################",
"################################oooooooo%%%%%%%%********************************ooooooooXXXXXXXX########$$$$$$$$################",
"################################oooooooo%%%%%%%%********************************ooooooooXXXXXXXX########$$$$$$$$################",
"################################oooooooo%%%%%%%%********************************ooooooooXXXXXXXX########$$$$$$$$################",
"################################oooooooo%%%%%%%%********************************ooooooooXXXXXXXX########$$$$$$$$################",
"################################oooooooo%%%%%%%%********************************ooooooooXXXXXXXX########$$$$$$$$################",
"################        ################oooooooo********************************oooooooo########$$$$$$$$########################",
"################        ################oooooooo********************************oooooooo########$$$$$$$$########################",
"################        ################oooooooo********************************oooooooo########$$$$$$$$########################",
"################        ################oooooooo********************************oooooooo########$$$$$$$$########################",
"################        ################oooooooo********************************oooooooo########$$$$$$$$########################",
"################        ################oooooooo********************************oooooooo########$$$$$$$$########################",
"################        ################oooooooo********************************oooooooo########$$$$$$$$########################",
"################        ################oooooooo********************************oooooooo########$$$$$$$$########################",
"########################                oooooooo********************************oooooooo########################################",
"########################                oooooooo********************************oooooooo########################################",
"########################                oooooooo********************************oooooooo########################################",
"########################                oooooooo********************************oooooooo########################################",
"########################                oooooooo********************************oooooooo########################################",
"########################                oooooooo********************************oooooooo########################################",
"########################                oooooooo********************************oooooooo########################################",
"########################                oooooooo********************************oooooooo########################################",
"################################################oooooooo%%%%%%%%%%%%%%%%oooooooo########################################++++++++",
"################################################oooooooo%%%%%%%%%%%%%%%%oooooooo########################################++++++++",
"################################################oooooooo%%%%%%%%%%%%%%%%oooooooo########################################++++++++",
"################################################oooooooo%%%%%%%%%%%%%%%%oooooooo########################################++++++++",
"################################################oooooooo%%%%%%%%%%%%%%%%oooooooo########################################++++++++",
"################################################oooooooo%%%%%%%%%%%%%%%%oooooooo########################################++++++++",
"################################################oooooooo%%%%%%%%%%%%%%%%oooooooo########################################++++++++",
"################################################oooooooo%%%%%%%%%%%%%%%%oooooooo########################################++++++++",
"########################################################oooooooooooooooo########################################################",
"########################################################oooooooooooooooo########################################################",
"########################################################oooooooooooooooo########################################################",
"########################################################oooooooooooooooo########################################################",
"########################################################oooooooooooooooo########################################################",
"########################################################oooooooooooooooo########################################################",
"########################################################oooooooooooooooo########################################################",
"########################################################oooooooooooooooo########################################################"
};
