/* XPM */
static char *chimken_bg1705337379[] = {
/* columns rows colors chars-per-pixel */
"128 128 11 1 ",
"  c #90625D",
". c #825A65",
"X c #A5BF65",
"o c #C49C6C",
"O c #B9CF6D",
"+ c #D4C46C",
"@ c #C48484",
"# c #DCBC8C",
"$ c #ECCCA4",
"% c #ECDCB4",
"& c #F4F4C4",
/* pixels */
"$$$$$$$$$$$$$$$$$$$$$$$$$$$$$$$$$$$$$$$$$$$$$$$$$$$$$$$$$$$$$$$$$$$$$$$$$$$$$$$$XXXXXXXX$$$$$$$$$$$$$$$$$$$$$$$$XXXXXXXX$$$$$$$$",
"$$$$$$$$$$$$$$$$$$$$$$$$$$$$$$$$$$$$$$$$$$$$$$$$$$$$$$$$$$$$$$$$$$$$$$$$$$$$$$$$XXXXXXXX$$$$$$$$$$$$$$$$$$$$$$$$XXXXXXXX$$$$$$$$",
"$$$$$$$$$$$$$$$$$$$$$$$$$$$$$$$$$$$$$$$$$$$$$$$$$$$$$$$$$$$$$$$$$$$$$$$$$$$$$$$$XXXXXXXX$$$$$$$$$$$$$$$$$$$$$$$$XXXXXXXX$$$$$$$$",
"$$$$$$$$$$$$$$$$$$$$$$$$$$$$$$$$$$$$$$$$$$$$$$$$$$$$$$$$$$$$$$$$$$$$$$$$$$$$$$$$XXXXXXXX$$$$$$$$$$$$$$$$$$$$$$$$XXXXXXXX$$$$$$$$",
"$$$$$$$$$$$$$$$$$$$$$$$$$$$$$$$$$$$$$$$$$$$$$$$$$$$$$$$$$$$$$$$$$$$$$$$$$$$$$$$$XXXXXXXX$$$$$$$$$$$$$$$$$$$$$$$$XXXXXXXX$$$$$$$$",
"$$$$$$$$$$$$$$$$$$$$$$$$$$$$$$$$$$$$$$$$$$$$$$$$$$$$$$$$$$$$$$$$$$$$$$$$$$$$$$$$XXXXXXXX$$$$$$$$$$$$$$$$$$$$$$$$XXXXXXXX$$$$$$$$",
"$$$$$$$$$$$$$$$$$$$$$$$$$$$$$$$$$$$$$$$$$$$$$$$$$$$$$$$$$$$$$$$$$$$$$$$$$$$$$$$$XXXXXXXX$$$$$$$$$$$$$$$$$$$$$$$$XXXXXXXX$$$$$$$$",
"$$$$$$$$$$$$$$$$$$$$$$$$$$$$$$$$$$$$$$$$$$$$$$$$$$$$$$$$$$$$$$$$$$$$$$$$$$$$$$$$XXXXXXXX$$$$$$$$$$$$$$$$$$$$$$$$XXXXXXXX$$$$$$$$",
"$$$$$$$$$$$$$$$$$$$$$$$$$$$$$$$$$$$$$$$$$$$$$$$$$$$$$$$$$$$$$$$$$$$$$$$$$$$$$$$$$$$$$$$$XXXXXXXXOOOOOOOOOOOOOOOOXXXXXXXX$$$$$$$$",
"$$$$$$$$$$$$$$$$$$$$$$$$$$$$$$$$$$$$$$$$$$$$$$$$$$$$$$$$$$$$$$$$$$$$$$$$$$$$$$$$$$$$$$$$XXXXXXXXOOOOOOOOOOOOOOOOXXXXXXXX$$$$$$$$",
"$$$$$$$$$$$$$$$$$$$$$$$$$$$$$$$$$$$$$$$$$$$$$$$$$$$$$$$$$$$$$$$$$$$$$$$$$$$$$$$$$$$$$$$$XXXXXXXXOOOOOOOOOOOOOOOOXXXXXXXX$$$$$$$$",
"$$$$$$$$$$$$$$$$$$$$$$$$$$$$$$$$$$$$$$$$$$$$$$$$$$$$$$$$$$$$$$$$$$$$$$$$$$$$$$$$$$$$$$$$XXXXXXXXOOOOOOOOOOOOOOOOXXXXXXXX$$$$$$$$",
"$$$$$$$$$$$$$$$$$$$$$$$$$$$$$$$$$$$$$$$$$$$$$$$$$$$$$$$$$$$$$$$$$$$$$$$$$$$$$$$$$$$$$$$$XXXXXXXXOOOOOOOOOOOOOOOOXXXXXXXX$$$$$$$$",
"$$$$$$$$$$$$$$$$$$$$$$$$$$$$$$$$$$$$$$$$$$$$$$$$$$$$$$$$$$$$$$$$$$$$$$$$$$$$$$$$$$$$$$$$XXXXXXXXOOOOOOOOOOOOOOOOXXXXXXXX$$$$$$$$",
"$$$$$$$$$$$$$$$$$$$$$$$$$$$$$$$$$$$$$$$$$$$$$$$$$$$$$$$$$$$$$$$$$$$$$$$$$$$$$$$$$$$$$$$$XXXXXXXXOOOOOOOOOOOOOOOOXXXXXXXX$$$$$$$$",
"$$$$$$$$$$$$$$$$$$$$$$$$$$$$$$$$$$$$$$$$$$$$$$$$$$$$$$$$$$$$$$$$$$$$$$$$$$$$$$$$$$$$$$$$XXXXXXXXOOOOOOOOOOOOOOOOXXXXXXXX$$$$$$$$",
"$$$$$$$$$$$$$$$$########$$$$$$$$$$$$$$$$$$$$$$$$$$$$$$$$$$$$$$$$$$$$$$$$$$$$$$$$$$$$$$$$XXXXXXXXOOOOOOOOXXXXXXXX$$$$$$$$$$$$$$$$",
"$$$$$$$$$$$$$$$$########$$$$$$$$$$$$$$$$$$$$$$$$$$$$$$$$$$$$$$$$$$$$$$$$$$$$$$$$$$$$$$$$XXXXXXXXOOOOOOOOXXXXXXXX$$$$$$$$$$$$$$$$",
"$$$$$$$$$$$$$$$$########$$$$$$$$$$$$$$$$$$$$$$$$$$$$$$$$$$$$$$$$$$$$$$$$$$$$$$$$$$$$$$$$XXXXXXXXOOOOOOOOXXXXXXXX$$$$$$$$$$$$$$$$",
"$$$$$$$$$$$$$$$$########$$$$$$$$$$$$$$$$$$$$$$$$$$$$$$$$$$$$$$$$$$$$$$$$$$$$$$$$$$$$$$$$XXXXXXXXOOOOOOOOXXXXXXXX$$$$$$$$$$$$$$$$",
"$$$$$$$$$$$$$$$$########$$$$$$$$$$$$$$$$$$$$$$$$$$$$$$$$$$$$$$$$$$$$$$$$$$$$$$$$$$$$$$$$XXXXXXXXOOOOOOOOXXXXXXXX$$$$$$$$$$$$$$$$",
"$$$$$$$$$$$$$$$$########$$$$$$$$$$$$$$$$$$$$$$$$$$$$$$$$$$$$$$$$$$$$$$$$$$$$$$$$$$$$$$$$XXXXXXXXOOOOOOOOXXXXXXXX$$$$$$$$$$$$$$$$",
"$$$$$$$$$$$$$$$$########$$$$$$$$$$$$$$$$$$$$$$$$$$$$$$$$$$$$$$$$$$$$$$$$$$$$$$$$$$$$$$$$XXXXXXXXOOOOOOOOXXXXXXXX$$$$$$$$$$$$$$$$",
"$$$$$$$$$$$$$$$$########$$$$$$$$$$$$$$$$$$$$$$$$$$$$$$$$$$$$$$$$$$$$$$$$$$$$$$$$$$$$$$$$XXXXXXXXOOOOOOOOXXXXXXXX$$$$$$$$$$$$$$$$",
"$$$$$$$$$$$$$$$$$$$$$$$$################$$$$$$$$$$$$$$$$                        $$$$$$$$XXXXXXXXXXXXXXXX$$$$$$$$$$$$$$$$$$$$$$$$",
"$$$$$$$$$$$$$$$$$$$$$$$$################$$$$$$$$$$$$$$$$                        $$$$$$$$XXXXXXXXXXXXXXXX$$$$$$$$$$$$$$$$$$$$$$$$",
"$$$$$$$$$$$$$$$$$$$$$$$$################$$$$$$$$$$$$$$$$                        $$$$$$$$XXXXXXXXXXXXXXXX$$$$$$$$$$$$$$$$$$$$$$$$",
"$$$$$$$$$$$$$$$$$$$$$$$$################$$$$$$$$$$$$$$$$                        $$$$$$$$XXXXXXXXXXXXXXXX$$$$$$$$$$$$$$$$$$$$$$$$",
"$$$$$$$$$$$$$$$$$$$$$$$$################$$$$$$$$$$$$$$$$                        $$$$$$$$XXXXXXXXXXXXXXXX$$$$$$$$$$$$$$$$$$$$$$$$",
"$$$$$$$$$$$$$$$$$$$$$$$$################$$$$$$$$$$$$$$$$                        $$$$$$$$XXXXXXXXXXXXXXXX$$$$$$$$$$$$$$$$$$$$$$$$",
"$$$$$$$$$$$$$$$$$$$$$$$$################$$$$$$$$$$$$$$$$                        $$$$$$$$XXXXXXXXXXXXXXXX$$$$$$$$$$$$$$$$$$$$$$$$",
"$$$$$$$$$$$$$$$$$$$$$$$$################$$$$$$$$$$$$$$$$                        $$$$$$$$XXXXXXXXXXXXXXXX$$$$$$$$$$$$$$$$$$$$$$$$",
"$$$$$$$$$$$$$$$$$$$$$$$$$$$$$$$$$$$$$$$$$$$$$$$$        @@@@@@@@@@@@@@@@@@@@@@@@        $$$$$$$$$$$$$$$$$$$$$$$$$$$$$$$$$$$$$$$$",
"$$$$$$$$$$$$$$$$$$$$$$$$$$$$$$$$$$$$$$$$$$$$$$$$        @@@@@@@@@@@@@@@@@@@@@@@@        $$$$$$$$$$$$$$$$$$$$$$$$$$$$$$$$$$$$$$$$",
"$$$$$$$$$$$$$$$$$$$$$$$$$$$$$$$$$$$$$$$$$$$$$$$$        @@@@@@@@@@@@@@@@@@@@@@@@        $$$$$$$$$$$$$$$$$$$$$$$$$$$$$$$$$$$$$$$$",
"$$$$$$$$$$$$$$$$$$$$$$$$$$$$$$$$$$$$$$$$$$$$$$$$        @@@@@@@@@@@@@@@@@@@@@@@@        $$$$$$$$$$$$$$$$$$$$$$$$$$$$$$$$$$$$$$$$",
"$$$$$$$$$$$$$$$$$$$$$$$$$$$$$$$$$$$$$$$$$$$$$$$$        @@@@@@@@@@@@@@@@@@@@@@@@        $$$$$$$$$$$$$$$$$$$$$$$$$$$$$$$$$$$$$$$$",
"$$$$$$$$$$$$$$$$$$$$$$$$$$$$$$$$$$$$$$$$$$$$$$$$        @@@@@@@@@@@@@@@@@@@@@@@@        $$$$$$$$$$$$$$$$$$$$$$$$$$$$$$$$$$$$$$$$",
"$$$$$$$$$$$$$$$$$$$$$$$$$$$$$$$$$$$$$$$$$$$$$$$$        @@@@@@@@@@@@@@@@@@@@@@@@        $$$$$$$$$$$$$$$$$$$$$$$$$$$$$$$$$$$$$$$$",
"$$$$$$$$$$$$$$$$$$$$$$$$$$$$$$$$$$$$$$$$$$$$$$$$        @@@@@@@@@@@@@@@@@@@@@@@@        $$$$$$$$$$$$$$$$$$$$$$$$$$$$$$$$$$$$$$$$",
"$$$$$$$$$$$$$$$$$$$$$$$$$$$$$$$$$$$$$$$$        &&&&&&&&&&&&&&&&&&&&&&&&&&&&&&&&&&&&&&&&        $$$$$$$$$$$$$$$$$$$$$$$$$$$$$$$$",
"$$$$$$$$$$$$$$$$$$$$$$$$$$$$$$$$$$$$$$$$        &&&&&&&&&&&&&&&&&&&&&&&&&&&&&&&&&&&&&&&&        $$$$$$$$$$$$$$$$$$$$$$$$$$$$$$$$",
"$$$$$$$$$$$$$$$$$$$$$$$$$$$$$$$$$$$$$$$$        &&&&&&&&&&&&&&&&&&&&&&&&&&&&&&&&&&&&&&&&        $$$$$$$$$$$$$$$$$$$$$$$$$$$$$$$$",
"$$$$$$$$$$$$$$$$$$$$$$$$$$$$$$$$$$$$$$$$        &&&&&&&&&&&&&&&&&&&&&&&&&&&&&&&&&&&&&&&&        $$$$$$$$$$$$$$$$$$$$$$$$$$$$$$$$",
"$$$$$$$$$$$$$$$$$$$$$$$$$$$$$$$$$$$$$$$$        &&&&&&&&&&&&&&&&&&&&&&&&&&&&&&&&&&&&&&&&        $$$$$$$$$$$$$$$$$$$$$$$$$$$$$$$$",
"$$$$$$$$$$$$$$$$$$$$$$$$$$$$$$$$$$$$$$$$        &&&&&&&&&&&&&&&&&&&&&&&&&&&&&&&&&&&&&&&&        $$$$$$$$$$$$$$$$$$$$$$$$$$$$$$$$",
"$$$$$$$$$$$$$$$$$$$$$$$$$$$$$$$$$$$$$$$$        &&&&&&&&&&&&&&&&&&&&&&&&&&&&&&&&&&&&&&&&        $$$$$$$$$$$$$$$$$$$$$$$$$$$$$$$$",
"$$$$$$$$$$$$$$$$$$$$$$$$$$$$$$$$$$$$$$$$        &&&&&&&&&&&&&&&&&&&&&&&&&&&&&&&&&&&&&&&&        $$$$$$$$$$$$$$$$$$$$$$$$$$$$$$$$",
"$$$$$$$$$$$$$$$$$$$$$$$$$$$$$$$$        &&&&&&&&................&&&&&&&&&&&&&&&&................        $$$$$$$$$$$$$$$$$$$$$$$$",
"$$$$$$$$$$$$$$$$$$$$$$$$$$$$$$$$        &&&&&&&&................&&&&&&&&&&&&&&&&................        $$$$$$$$$$$$$$$$$$$$$$$$",
"$$$$$$$$$$$$$$$$$$$$$$$$$$$$$$$$        &&&&&&&&................&&&&&&&&&&&&&&&&................        $$$$$$$$$$$$$$$$$$$$$$$$",
"$$$$$$$$$$$$$$$$$$$$$$$$$$$$$$$$        &&&&&&&&................&&&&&&&&&&&&&&&&................        $$$$$$$$$$$$$$$$$$$$$$$$",
"$$$$$$$$$$$$$$$$$$$$$$$$$$$$$$$$        &&&&&&&&................&&&&&&&&&&&&&&&&................        $$$$$$$$$$$$$$$$$$$$$$$$",
"$$$$$$$$$$$$$$$$$$$$$$$$$$$$$$$$        &&&&&&&&................&&&&&&&&&&&&&&&&................        $$$$$$$$$$$$$$$$$$$$$$$$",
"$$$$$$$$$$$$$$$$$$$$$$$$$$$$$$$$        &&&&&&&&................&&&&&&&&&&&&&&&&................        $$$$$$$$$$$$$$$$$$$$$$$$",
"$$$$$$$$$$$$$$$$$$$$$$$$$$$$$$$$        &&&&&&&&................&&&&&&&&&&&&&&&&................        $$$$$$$$$$$$$$$$$$$$$$$$",
"$$$$$$$$$$$$$$$$%%%%%%%%$$$$$$$$        &&&&&&&&&&&&&&&&&&&&&&&&&&&&&&&&++++++++++++++++&&&&&&&&        $$$$$$$$$$$$$$$$$$$$$$$$",
"$$$$$$$$$$$$$$$$%%%%%%%%$$$$$$$$        &&&&&&&&&&&&&&&&&&&&&&&&&&&&&&&&++++++++++++++++&&&&&&&&        $$$$$$$$$$$$$$$$$$$$$$$$",
"$$$$$$$$$$$$$$$$%%%%%%%%$$$$$$$$        &&&&&&&&&&&&&&&&&&&&&&&&&&&&&&&&++++++++++++++++&&&&&&&&        $$$$$$$$$$$$$$$$$$$$$$$$",
"$$$$$$$$$$$$$$$$%%%%%%%%$$$$$$$$        &&&&&&&&&&&&&&&&&&&&&&&&&&&&&&&&++++++++++++++++&&&&&&&&        $$$$$$$$$$$$$$$$$$$$$$$$",
"$$$$$$$$$$$$$$$$%%%%%%%%$$$$$$$$        &&&&&&&&&&&&&&&&&&&&&&&&&&&&&&&&++++++++++++++++&&&&&&&&        $$$$$$$$$$$$$$$$$$$$$$$$",
"$$$$$$$$$$$$$$$$%%%%%%%%$$$$$$$$        &&&&&&&&&&&&&&&&&&&&&&&&&&&&&&&&++++++++++++++++&&&&&&&&        $$$$$$$$$$$$$$$$$$$$$$$$",
"$$$$$$$$$$$$$$$$%%%%%%%%$$$$$$$$        &&&&&&&&&&&&&&&&&&&&&&&&&&&&&&&&++++++++++++++++&&&&&&&&        $$$$$$$$$$$$$$$$$$$$$$$$",
"$$$$$$$$$$$$$$$$%%%%%%%%$$$$$$$$        &&&&&&&&&&&&&&&&&&&&&&&&&&&&&&&&++++++++++++++++&&&&&&&&        $$$$$$$$$$$$$$$$$$$$$$$$",
"$$$$$$$$$$$$$$$$$$$$$$$$        &&&&&&&&&&&&&&&&&&&&&&&&&&&&&&&&&&&&&&&&&&&&&&&&&&&&&&&&&&&&&&&&        $$$$$$$$$$$$$$$$$$$$$$$$",
"$$$$$$$$$$$$$$$$$$$$$$$$        &&&&&&&&&&&&&&&&&&&&&&&&&&&&&&&&&&&&&&&&&&&&&&&&&&&&&&&&&&&&&&&&        $$$$$$$$$$$$$$$$$$$$$$$$",
"$$$$$$$$$$$$$$$$$$$$$$$$        &&&&&&&&&&&&&&&&&&&&&&&&&&&&&&&&&&&&&&&&&&&&&&&&&&&&&&&&&&&&&&&&        $$$$$$$$$$$$$$$$$$$$$$$$",
"$$$$$$$$$$$$$$$$$$$$$$$$        &&&&&&&&&&&&&&&&&&&&&&&&&&&&&&&&&&&&&&&&&&&&&&&&&&&&&&&&&&&&&&&&        $$$$$$$$$$$$$$$$$$$$$$$$",
"$$$$$$$$$$$$$$$$$$$$$$$$        &&&&&&&&&&&&&&&&&&&&&&&&&&&&&&&&&&&&&&&&&&&&&&&&&&&&&&&&&&&&&&&&        $$$$$$$$$$$$$$$$$$$$$$$$",
"$$$$$$$$$$$$$$$$$$$$$$$$        &&&&&&&&&&&&&&&&&&&&&&&&&&&&&&&&&&&&&&&&&&&&&&&&&&&&&&&&&&&&&&&&        $$$$$$$$$$$$$$$$$$$$$$$$",
"$$$$$$$$$$$$$$$$$$$$$$$$        &&&&&&&&&&&&&&&&&&&&&&&&&&&&&&&&&&&&&&&&&&&&&&&&&&&&&&&&&&&&&&&&        $$$$$$$$$$$$$$$$$$$$$$$$",
"$$$$$$$$$$$$$$$$$$$$$$$$        &&&&&&&&&&&&&&&&&&&&&&&&&&&&&&&&&&&&&&&&&&&&&&&&&&&&&&&&&&&&&&&&        $$$$$$$$$$$$$$$$$$$$$$$$",
"$$$$$$$$$$$$$$$$        &&&&&&&&&&&&&&&&&&&&&&&&&&&&&&&&&&&&&&&&&&&&&&&&&&&&&&&&&&&&&&&&&&&&&&&&        $$$$$$$$$$$$$$$$$$$$$$$$",
"$$$$$$$$$$$$$$$$        &&&&&&&&&&&&&&&&&&&&&&&&&&&&&&&&&&&&&&&&&&&&&&&&&&&&&&&&&&&&&&&&&&&&&&&&        $$$$$$$$$$$$$$$$$$$$$$$$",
"$$$$$$$$$$$$$$$$        &&&&&&&&&&&&&&&&&&&&&&&&&&&&&&&&&&&&&&&&&&&&&&&&&&&&&&&&&&&&&&&&&&&&&&&&        $$$$$$$$$$$$$$$$$$$$$$$$",
"$$$$$$$$$$$$$$$$        &&&&&&&&&&&&&&&&&&&&&&&&&&&&&&&&&&&&&&&&&&&&&&&&&&&&&&&&&&&&&&&&&&&&&&&&        $$$$$$$$$$$$$$$$$$$$$$$$",
"$$$$$$$$$$$$$$$$        &&&&&&&&&&&&&&&&&&&&&&&&&&&&&&&&&&&&&&&&&&&&&&&&&&&&&&&&&&&&&&&&&&&&&&&&        $$$$$$$$$$$$$$$$$$$$$$$$",
"$$$$$$$$$$$$$$$$        &&&&&&&&&&&&&&&&&&&&&&&&&&&&&&&&&&&&&&&&&&&&&&&&&&&&&&&&&&&&&&&&&&&&&&&&        $$$$$$$$$$$$$$$$$$$$$$$$",
"$$$$$$$$$$$$$$$$        &&&&&&&&&&&&&&&&&&&&&&&&&&&&&&&&&&&&&&&&&&&&&&&&&&&&&&&&&&&&&&&&&&&&&&&&        $$$$$$$$$$$$$$$$$$$$$$$$",
"$$$$$$$$$$$$$$$$        &&&&&&&&&&&&&&&&&&&&&&&&&&&&&&&&&&&&&&&&&&&&&&&&&&&&&&&&&&&&&&&&&&&&&&&&        $$$$$$$$$$$$$$$$$$$$$$$$",
"$$$$$$$$$$$$$$$$        $$$$$$$$&&&&&&&&&&&&&&&&&&&&&&&&oooooooo&&&&&&&&&&&&&&&&&&&&&&&&$$$$$$$$        $$$$$$$$$$$$$$$$$$$$$$$$",
"$$$$$$$$$$$$$$$$        $$$$$$$$&&&&&&&&&&&&&&&&&&&&&&&&oooooooo&&&&&&&&&&&&&&&&&&&&&&&&$$$$$$$$        $$$$$$$$$$$$$$$$$$$$$$$$",
"$$$$$$$$$$$$$$$$        $$$$$$$$&&&&&&&&&&&&&&&&&&&&&&&&oooooooo&&&&&&&&&&&&&&&&&&&&&&&&$$$$$$$$        $$$$$$$$$$$$$$$$$$$$$$$$",
"$$$$$$$$$$$$$$$$        $$$$$$$$&&&&&&&&&&&&&&&&&&&&&&&&oooooooo&&&&&&&&&&&&&&&&&&&&&&&&$$$$$$$$        $$$$$$$$$$$$$$$$$$$$$$$$",
"$$$$$$$$$$$$$$$$        $$$$$$$$&&&&&&&&&&&&&&&&&&&&&&&&oooooooo&&&&&&&&&&&&&&&&&&&&&&&&$$$$$$$$        $$$$$$$$$$$$$$$$$$$$$$$$",
"$$$$$$$$$$$$$$$$        $$$$$$$$&&&&&&&&&&&&&&&&&&&&&&&&oooooooo&&&&&&&&&&&&&&&&&&&&&&&&$$$$$$$$        $$$$$$$$$$$$$$$$$$$$$$$$",
"$$$$$$$$$$$$$$$$        $$$$$$$$&&&&&&&&&&&&&&&&&&&&&&&&oooooooo&&&&&&&&&&&&&&&&&&&&&&&&$$$$$$$$        $$$$$$$$$$$$$$$$$$$$$$$$",
"$$$$$$$$$$$$$$$$        $$$$$$$$&&&&&&&&&&&&&&&&&&&&&&&&oooooooo&&&&&&&&&&&&&&&&&&&&&&&&$$$$$$$$        $$$$$$$$$$$$$$$$$$$$$$$$",
"$$$$$$$$$$$$$$$$$$$$$$$$        oooooooooooooooooooooooo$$$$$$$$$$$$$$$$$$$$$$$$$$$$$$$$        $$$$$$$$%%%%%%%%$$$$$$$$$$$$$$$$",
"$$$$$$$$$$$$$$$$$$$$$$$$        oooooooooooooooooooooooo$$$$$$$$$$$$$$$$$$$$$$$$$$$$$$$$        $$$$$$$$%%%%%%%%$$$$$$$$$$$$$$$$",
"$$$$$$$$$$$$$$$$$$$$$$$$        oooooooooooooooooooooooo$$$$$$$$$$$$$$$$$$$$$$$$$$$$$$$$        $$$$$$$$%%%%%%%%$$$$$$$$$$$$$$$$",
"$$$$$$$$$$$$$$$$$$$$$$$$        oooooooooooooooooooooooo$$$$$$$$$$$$$$$$$$$$$$$$$$$$$$$$        $$$$$$$$%%%%%%%%$$$$$$$$$$$$$$$$",
"$$$$$$$$$$$$$$$$$$$$$$$$        oooooooooooooooooooooooo$$$$$$$$$$$$$$$$$$$$$$$$$$$$$$$$        $$$$$$$$%%%%%%%%$$$$$$$$$$$$$$$$",
"$$$$$$$$$$$$$$$$$$$$$$$$        oooooooooooooooooooooooo$$$$$$$$$$$$$$$$$$$$$$$$$$$$$$$$        $$$$$$$$%%%%%%%%$$$$$$$$$$$$$$$$",
"$$$$$$$$$$$$$$$$$$$$$$$$        oooooooooooooooooooooooo$$$$$$$$$$$$$$$$$$$$$$$$$$$$$$$$        $$$$$$$$%%%%%%%%$$$$$$$$$$$$$$$$",
"$$$$$$$$$$$$$$$$$$$$$$$$        oooooooooooooooooooooooo$$$$$$$$$$$$$$$$$$$$$$$$$$$$$$$$        $$$$$$$$%%%%%%%%$$$$$$$$$$$$$$$$",
"$$$$$$$$$$$$$$$$XXXXXXXX$$$$$$$$        ++++++++++++++++        ++++++++++++++++        $$$$$$$$%%%%%%%%$$$$$$$$$$$$$$$$$$$$$$$$",
"$$$$$$$$$$$$$$$$XXXXXXXX$$$$$$$$        ++++++++++++++++        ++++++++++++++++        $$$$$$$$%%%%%%%%$$$$$$$$$$$$$$$$$$$$$$$$",
"$$$$$$$$$$$$$$$$XXXXXXXX$$$$$$$$        ++++++++++++++++        ++++++++++++++++        $$$$$$$$%%%%%%%%$$$$$$$$$$$$$$$$$$$$$$$$",
"$$$$$$$$$$$$$$$$XXXXXXXX$$$$$$$$        ++++++++++++++++        ++++++++++++++++        $$$$$$$$%%%%%%%%$$$$$$$$$$$$$$$$$$$$$$$$",
"$$$$$$$$$$$$$$$$XXXXXXXX$$$$$$$$        ++++++++++++++++        ++++++++++++++++        $$$$$$$$%%%%%%%%$$$$$$$$$$$$$$$$$$$$$$$$",
"$$$$$$$$$$$$$$$$XXXXXXXX$$$$$$$$        ++++++++++++++++        ++++++++++++++++        $$$$$$$$%%%%%%%%$$$$$$$$$$$$$$$$$$$$$$$$",
"$$$$$$$$$$$$$$$$XXXXXXXX$$$$$$$$        ++++++++++++++++        ++++++++++++++++        $$$$$$$$%%%%%%%%$$$$$$$$$$$$$$$$$$$$$$$$",
"$$$$$$$$$$$$$$$$XXXXXXXX$$$$$$$$        ++++++++++++++++        ++++++++++++++++        $$$$$$$$%%%%%%%%$$$$$$$$$$$$$$$$$$$$$$$$",
"$$$$$$$$$$$$$$$$$$$$$$$$XXXXXXXXXXXXXXXX                $$$$$$$$                $$$$$$$$$$$$$$$$$$$$$$$$$$$$$$$$$$$$$$$$$$$$$$$$",
"$$$$$$$$$$$$$$$$$$$$$$$$XXXXXXXXXXXXXXXX                $$$$$$$$                $$$$$$$$$$$$$$$$$$$$$$$$$$$$$$$$$$$$$$$$$$$$$$$$",
"$$$$$$$$$$$$$$$$$$$$$$$$XXXXXXXXXXXXXXXX                $$$$$$$$                $$$$$$$$$$$$$$$$$$$$$$$$$$$$$$$$$$$$$$$$$$$$$$$$",
"$$$$$$$$$$$$$$$$$$$$$$$$XXXXXXXXXXXXXXXX                $$$$$$$$                $$$$$$$$$$$$$$$$$$$$$$$$$$$$$$$$$$$$$$$$$$$$$$$$",
"$$$$$$$$$$$$$$$$$$$$$$$$XXXXXXXXXXXXXXXX                $$$$$$$$                $$$$$$$$$$$$$$$$$$$$$$$$$$$$$$$$$$$$$$$$$$$$$$$$",
"$$$$$$$$$$$$$$$$$$$$$$$$XXXXXXXXXXXXXXXX                $$$$$$$$                $$$$$$$$$$$$$$$$$$$$$$$$$$$$$$$$$$$$$$$$$$$$$$$$",
"$$$$$$$$$$$$$$$$$$$$$$$$XXXXXXXXXXXXXXXX                $$$$$$$$                $$$$$$$$$$$$$$$$$$$$$$$$$$$$$$$$$$$$$$$$$$$$$$$$",
"$$$$$$$$$$$$$$$$$$$$$$$$XXXXXXXXXXXXXXXX                $$$$$$$$                $$$$$$$$$$$$$$$$$$$$$$$$$$$$$$$$$$$$$$$$$$$$$$$$",
"$$$$$$$$$$$$$$$$$$$$$$$$$$$$$$$$$$$$$$$$$$$$$$$$$$$$$$$$$$$$$$$$$$$$$$$$$$$$$$$$$$$$$$$$$$$$$$$$$$$$$$$$$$$$$$$$$$$$$$$$########",
"$$$$$$$$$$$$$$$$$$$$$$$$$$$$$$$$$$$$$$$$$$$$$$$$$$$$$$$$$$$$$$$$$$$$$$$$$$$$$$$$$$$$$$$$$$$$$$$$$$$$$$$$$$$$$$$$$$$$$$$$########",
"$$$$$$$$$$$$$$$$$$$$$$$$$$$$$$$$$$$$$$$$$$$$$$$$$$$$$$$$$$$$$$$$$$$$$$$$$$$$$$$$$$$$$$$$$$$$$$$$$$$$$$$$$$$$$$$$$$$$$$$$########",
"$$$$$$$$$$$$$$$$$$$$$$$$$$$$$$$$$$$$$$$$$$$$$$$$$$$$$$$$$$$$$$$$$$$$$$$$$$$$$$$$$$$$$$$$$$$$$$$$$$$$$$$$$$$$$$$$$$$$$$$$########",
"$$$$$$$$$$$$$$$$$$$$$$$$$$$$$$$$$$$$$$$$$$$$$$$$$$$$$$$$$$$$$$$$$$$$$$$$$$$$$$$$$$$$$$$$$$$$$$$$$$$$$$$$$$$$$$$$$$$$$$$$########",
"$$$$$$$$$$$$$$$$$$$$$$$$$$$$$$$$$$$$$$$$$$$$$$$$$$$$$$$$$$$$$$$$$$$$$$$$$$$$$$$$$$$$$$$$$$$$$$$$$$$$$$$$$$$$$$$$$$$$$$$$########",
"$$$$$$$$$$$$$$$$$$$$$$$$$$$$$$$$$$$$$$$$$$$$$$$$$$$$$$$$$$$$$$$$$$$$$$$$$$$$$$$$$$$$$$$$$$$$$$$$$$$$$$$$$$$$$$$$$$$$$$$$########",
"$$$$$$$$$$$$$$$$$$$$$$$$$$$$$$$$$$$$$$$$$$$$$$$$$$$$$$$$$$$$$$$$$$$$$$$$$$$$$$$$$$$$$$$$$$$$$$$$$$$$$$$$$$$$$$$$$$$$$$$$########",
"$$$$$$$$$$$$$$$$$$$$$$$$$$$$$$$$$$$$$$$$$$$$$$$$$$$$$$$$$$$$$$$$$$$$$$$$$$$$$$$$$$$$$$$$$$$$$$$$$$$$$$$$$$$$$$$$$$$$$$$$$$$$$$$$",
"$$$$$$$$$$$$$$$$$$$$$$$$$$$$$$$$$$$$$$$$$$$$$$$$$$$$$$$$$$$$$$$$$$$$$$$$$$$$$$$$$$$$$$$$$$$$$$$$$$$$$$$$$$$$$$$$$$$$$$$$$$$$$$$$",
"$$$$$$$$$$$$$$$$$$$$$$$$$$$$$$$$$$$$$$$$$$$$$$$$$$$$$$$$$$$$$$$$$$$$$$$$$$$$$$$$$$$$$$$$$$$$$$$$$$$$$$$$$$$$$$$$$$$$$$$$$$$$$$$$",
"$$$$$$$$$$$$$$$$$$$$$$$$$$$$$$$$$$$$$$$$$$$$$$$$$$$$$$$$$$$$$$$$$$$$$$$$$$$$$$$$$$$$$$$$$$$$$$$$$$$$$$$$$$$$$$$$$$$$$$$$$$$$$$$$",
"$$$$$$$$$$$$$$$$$$$$$$$$$$$$$$$$$$$$$$$$$$$$$$$$$$$$$$$$$$$$$$$$$$$$$$$$$$$$$$$$$$$$$$$$$$$$$$$$$$$$$$$$$$$$$$$$$$$$$$$$$$$$$$$$",
"$$$$$$$$$$$$$$$$$$$$$$$$$$$$$$$$$$$$$$$$$$$$$$$$$$$$$$$$$$$$$$$$$$$$$$$$$$$$$$$$$$$$$$$$$$$$$$$$$$$$$$$$$$$$$$$$$$$$$$$$$$$$$$$$",
"$$$$$$$$$$$$$$$$$$$$$$$$$$$$$$$$$$$$$$$$$$$$$$$$$$$$$$$$$$$$$$$$$$$$$$$$$$$$$$$$$$$$$$$$$$$$$$$$$$$$$$$$$$$$$$$$$$$$$$$$$$$$$$$$",
"$$$$$$$$$$$$$$$$$$$$$$$$$$$$$$$$$$$$$$$$$$$$$$$$$$$$$$$$$$$$$$$$$$$$$$$$$$$$$$$$$$$$$$$$$$$$$$$$$$$$$$$$$$$$$$$$$$$$$$$$$$$$$$$$"
};
