/* XPM */
static char *chimken1704735442[] = {
/* columns rows colors chars-per-pixel */
"128 128 8 1 ",
"  c None",
". c #90625D",
"X c #825A65",
"o c #C49C6C",
"O c #D4C46C",
"+ c #C48484",
"@ c #ECCCA4",
"# c #F4F4C4",
/* pixels */
"                                                                                                                                ",
"                                                                                                                                ",
"                                                                                                                                ",
"                                                                                                                                ",
"                                                                                                                                ",
"                                                                                                                                ",
"                                                                                                                                ",
"                                                                                                                                ",
"                                                                                                                                ",
"                                                                                                                                ",
"                                                                                                                                ",
"                                                                                                                                ",
"                                                                                                                                ",
"                                                                                                                                ",
"                                                                                                                                ",
"                                                                                                                                ",
"                                                                                                                                ",
"                                                                                                                                ",
"                                                                                                                                ",
"                                                                                                                                ",
"                                                                                                                                ",
"                                                                                                                                ",
"                                                                                                                                ",
"                                                                                                                                ",
"                                                        ........................                                                ",
"                                                        ........................                                                ",
"                                                        ........................                                                ",
"                                                        ........................                                                ",
"                                                        ........................                                                ",
"                                                        ........................                                                ",
"                                                        ........................                                                ",
"                                                        ........................                                                ",
"                                                ........++++++++++++++++++++++++........                                        ",
"                                                ........++++++++++++++++++++++++........                                        ",
"                                                ........++++++++++++++++++++++++........                                        ",
"                                                ........++++++++++++++++++++++++........                                        ",
"                                                ........++++++++++++++++++++++++........                                        ",
"                                                ........++++++++++++++++++++++++........                                        ",
"                                                ........++++++++++++++++++++++++........                                        ",
"                                                ........++++++++++++++++++++++++........                                        ",
"                                        ........########################################........                                ",
"                                        ........########################################........                                ",
"                                        ........########################################........                                ",
"                                        ........########################################........                                ",
"                                        ........########################################........                                ",
"                                        ........########################################........                                ",
"                                        ........########################################........                                ",
"                                        ........########################################........                                ",
"                                ........########XXXXXXXXXXXXXXXX################XXXXXXXXXXXXXXXX........                        ",
"                                ........########XXXXXXXXXXXXXXXX################XXXXXXXXXXXXXXXX........                        ",
"                                ........########XXXXXXXXXXXXXXXX################XXXXXXXXXXXXXXXX........                        ",
"                                ........########XXXXXXXXXXXXXXXX################XXXXXXXXXXXXXXXX........                        ",
"                                ........########XXXXXXXXXXXXXXXX################XXXXXXXXXXXXXXXX........                        ",
"                                ........########XXXXXXXXXXXXXXXX################XXXXXXXXXXXXXXXX........                        ",
"                                ........########XXXXXXXXXXXXXXXX################XXXXXXXXXXXXXXXX........                        ",
"                                ........########XXXXXXXXXXXXXXXX################XXXXXXXXXXXXXXXX........                        ",
"                                ........################################OOOOOOOOOOOOOOOO########........                        ",
"                                ........################################OOOOOOOOOOOOOOOO########........                        ",
"                                ........################################OOOOOOOOOOOOOOOO########........                        ",
"                                ........################################OOOOOOOOOOOOOOOO########........                        ",
"                                ........################################OOOOOOOOOOOOOOOO########........                        ",
"                                ........################################OOOOOOOOOOOOOOOO########........                        ",
"                                ........################################OOOOOOOOOOOOOOOO########........                        ",
"                                ........################################OOOOOOOOOOOOOOOO########........                        ",
"                        ........################################################################........                        ",
"                        ........################################################################........                        ",
"                        ........################################################################........                        ",
"                        ........################################################################........                        ",
"                        ........################################################################........                        ",
"                        ........################################################################........                        ",
"                        ........################################################################........                        ",
"                        ........################################################################........                        ",
"                ........########################################################################........                        ",
"                ........########################################################################........                        ",
"                ........########################################################################........                        ",
"                ........########################################################################........                        ",
"                ........########################################################################........                        ",
"                ........########################################################################........                        ",
"                ........########################################################################........                        ",
"                ........########################################################################........                        ",
"                ........@@@@@@@@########################oooooooo########################@@@@@@@@........                        ",
"                ........@@@@@@@@########################oooooooo########################@@@@@@@@........                        ",
"                ........@@@@@@@@########################oooooooo########################@@@@@@@@........                        ",
"                ........@@@@@@@@########################oooooooo########################@@@@@@@@........                        ",
"                ........@@@@@@@@########################oooooooo########################@@@@@@@@........                        ",
"                ........@@@@@@@@########################oooooooo########################@@@@@@@@........                        ",
"                ........@@@@@@@@########################oooooooo########################@@@@@@@@........                        ",
"                ........@@@@@@@@########################oooooooo########################@@@@@@@@........                        ",
"                        ........oooooooooooooooooooooooo@@@@@@@@@@@@@@@@@@@@@@@@@@@@@@@@........                                ",
"                        ........oooooooooooooooooooooooo@@@@@@@@@@@@@@@@@@@@@@@@@@@@@@@@........                                ",
"                        ........oooooooooooooooooooooooo@@@@@@@@@@@@@@@@@@@@@@@@@@@@@@@@........                                ",
"                        ........oooooooooooooooooooooooo@@@@@@@@@@@@@@@@@@@@@@@@@@@@@@@@........                                ",
"                        ........oooooooooooooooooooooooo@@@@@@@@@@@@@@@@@@@@@@@@@@@@@@@@........                                ",
"                        ........oooooooooooooooooooooooo@@@@@@@@@@@@@@@@@@@@@@@@@@@@@@@@........                                ",
"                        ........oooooooooooooooooooooooo@@@@@@@@@@@@@@@@@@@@@@@@@@@@@@@@........                                ",
"                        ........oooooooooooooooooooooooo@@@@@@@@@@@@@@@@@@@@@@@@@@@@@@@@........                                ",
"                                ........OOOOOOOOOOOOOOOO........OOOOOOOOOOOOOOOO........                                        ",
"                                ........OOOOOOOOOOOOOOOO........OOOOOOOOOOOOOOOO........                                        ",
"                                ........OOOOOOOOOOOOOOOO........OOOOOOOOOOOOOOOO........                                        ",
"                                ........OOOOOOOOOOOOOOOO........OOOOOOOOOOOOOOOO........                                        ",
"                                ........OOOOOOOOOOOOOOOO........OOOOOOOOOOOOOOOO........                                        ",
"                                ........OOOOOOOOOOOOOOOO........OOOOOOOOOOOOOOOO........                                        ",
"                                ........OOOOOOOOOOOOOOOO........OOOOOOOOOOOOOOOO........                                        ",
"                                ........OOOOOOOOOOOOOOOO........OOOOOOOOOOOOOOOO........                                        ",
"                                        ................        ................                                                ",
"                                        ................        ................                                                ",
"                                        ................        ................                                                ",
"                                        ................        ................                                                ",
"                                        ................        ................                                                ",
"                                        ................        ................                                                ",
"                                        ................        ................                                                ",
"                                        ................        ................                                                ",
"                                                                                                                                ",
"                                                                                                                                ",
"                                                                                                                                ",
"                                                                                                                                ",
"                                                                                                                                ",
"                                                                                                                                ",
"                                                                                                                                ",
"                                                                                                                                ",
"                                                                                                                                ",
"                                                                                                                                ",
"                                                                                                                                ",
"                                                                                                                                ",
"                                                                                                                                ",
"                                                                                                                                ",
"                                                                                                                                ",
"                                                                                                                                "
};
