/* XPM */
static char *chimken_51705691203[] = {
/* columns rows colors chars-per-pixel */
"128 128 13 1 ",
"  c #90625D",
". c #825A65",
"X c #93A271",
"o c #A5BF65",
"O c #C49C6C",
"+ c #B9CF6D",
"@ c #D4C46C",
"# c #C48484",
"$ c #DCBC8C",
"% c #C8ACA0",
"& c #ECCCA4",
"* c #ECDCB4",
"= c #F4F4C4",
/* pixels */
"&&&&&&&&&&&&&&&&&&&&&&&&&&&&&&&&&&&&&&&&&&&&&&&&&&&&&&&&&&&&&&&&&&&&&&&&&&&&&&&&oooooooo&&&&&&&&&&&&&&&&&&&&&&&&oooooooo&&&&&&&&",
"&&&&&&&&&&&&&&&&&&&&&&&&&&&&&&&&&&&&&&&&&&&&&&&&&&&&&&&&&&&&&&&&&&&&&&&&&&&&&&&&oooooooo&&&&&&&&&&&&&&&&&&&&&&&&oooooooo&&&&&&&&",
"&&&&&&&&&&&&&&&&&&&&&&&&&&&&&&&&&&&&&&&&&&&&&&&&&&&&&&&&&&&&&&&&&&&&&&&&&&&&&&&&oooooooo&&&&&&&&&&&&&&&&&&&&&&&&oooooooo&&&&&&&&",
"&&&&&&&&&&&&&&&&&&&&&&&&&&&&&&&&&&&&&&&&&&&&&&&&&&&&&&&&&&&&&&&&&&&&&&&&&&&&&&&&oooooooo&&&&&&&&&&&&&&&&&&&&&&&&oooooooo&&&&&&&&",
"&&&&&&&&&&&&&&&&&&&&&&&&&&&&&&&&&&&&&&&&&&&&&&&&&&&&&&&&&&&&&&&&&&&&&&&&&&&&&&&&oooooooo&&&&&&&&&&&&&&&&&&&&&&&&oooooooo&&&&&&&&",
"&&&&&&&&&&&&&&&&&&&&&&&&&&&&&&&&&&&&&&&&&&&&&&&&&&&&&&&&&&&&&&&&&&&&&&&&&&&&&&&&oooooooo&&&&&&&&&&&&&&&&&&&&&&&&oooooooo&&&&&&&&",
"&&&&&&&&&&&&&&&&&&&&&&&&&&&&&&&&&&&&&&&&&&&&&&&&&&&&&&&&&&&&&&&&&&&&&&&&&&&&&&&&oooooooo&&&&&&&&&&&&&&&&&&&&&&&&oooooooo&&&&&&&&",
"&&&&&&&&&&&&&&&&&&&&&&&&&&&&&&&&&&&&&&&&&&&&&&&&&&&&&&&&&&&&&&&&&&&&&&&&&&&&&&&&oooooooo&&&&&&&&&&&&&&&&&&&&&&&&oooooooo&&&&&&&&",
"&&&&&&&&&&&&&&&&&&&&&&&&&&&&&&&&&&&&&&&&&&&&&&&&&&&&&&&&&&&&&&&&&&&&&&&&&&&&&&&&&&&&&&&&oooooooo++++++++++++++++oooooooo&&&&&&&&",
"&&&&&&&&&&&&&&&&&&&&&&&&&&&&&&&&&&&&&&&&&&&&&&&&&&&&&&&&&&&&&&&&&&&&&&&&&&&&&&&&&&&&&&&&oooooooo++++++++++++++++oooooooo&&&&&&&&",
"&&&&&&&&&&&&&&&&&&&&&&&&&&&&&&&&&&&&&&&&&&&&&&&&&&&&&&&&&&&&&&&&&&&&&&&&&&&&&&&&&&&&&&&&oooooooo++++++++++++++++oooooooo&&&&&&&&",
"&&&&&&&&&&&&&&&&&&&&&&&&&&&&&&&&&&&&&&&&&&&&&&&&&&&&&&&&&&&&&&&&&&&&&&&&&&&&&&&&&&&&&&&&oooooooo++++++++++++++++oooooooo&&&&&&&&",
"&&&&&&&&&&&&&&&&&&&&&&&&&&&&&&&&&&&&&&&&&&&&&&&&&&&&&&&&&&&&&&&&&&&&&&&&&&&&&&&&&&&&&&&&oooooooo++++++++++++++++oooooooo&&&&&&&&",
"&&&&&&&&&&&&&&&&&&&&&&&&&&&&&&&&&&&&&&&&&&&&&&&&&&&&&&&&&&&&&&&&&&&&&&&&&&&&&&&&&&&&&&&&oooooooo++++++++++++++++oooooooo&&&&&&&&",
"&&&&&&&&&&&&&&&&&&&&&&&&&&&&&&&&&&&&&&&&&&&&&&&&&&&&&&&&&&&&&&&&&&&&&&&&&&&&&&&&&&&&&&&&oooooooo++++++++++++++++oooooooo&&&&&&&&",
"&&&&&&&&&&&&&&&&&&&&&&&&&&&&&&&&&&&&&&&&&&&&&&&&&&&&&&&&&&&&&&&&&&&&&&&&&&&&&&&&&&&&&&&&oooooooo++++++++++++++++oooooooo&&&&&&&&",
"&&&&&&&&&&&&&&&&$$$$$$$$&&&&&&&&&&&&&&&&&&&&&&&&&&&&&&&&&&&&&&&&&&&&&&&&&&&&&&&&&&&&&&&&oooooooo++++++++oooooooo&&&&&&&&&&&&&&&&",
"&&&&&&&&&&&&&&&&$$$$$$$$&&&&&&&&&&&&&&&&&&&&&&&&&&&&&&&&&&&&&&&&&&&&&&&&&&&&&&&&&&&&&&&&oooooooo++++++++oooooooo&&&&&&&&&&&&&&&&",
"&&&&&&&&&&&&&&&&$$$$$$$$&&&&&&&&&&&&&&&&&&&&&&&&&&&&&&&&&&&&&&&&&&&&&&&&&&&&&&&&&&&&&&&&oooooooo++++++++oooooooo&&&&&&&&&&&&&&&&",
"&&&&&&&&&&&&&&&&$$$$$$$$&&&&&&&&&&&&&&&&&&&&&&&&&&&&&&&&&&&&&&&&&&&&&&&&&&&&&&&&&&&&&&&&oooooooo++++++++oooooooo&&&&&&&&&&&&&&&&",
"&&&&&&&&&&&&&&&&$$$$$$$$&&&&&&&&&&&&&&&&&&&&&&&&&&&&&&&&&&&&&&&&&&&&&&&&&&&&&&&&&&&&&&&&oooooooo++++++++oooooooo&&&&&&&&&&&&&&&&",
"&&&&&&&&&&&&&&&&$$$$$$$$&&&&&&&&&&&&&&&&&&&&&&&&&&&&&&&&&&&&&&&&&&&&&&&&&&&&&&&&&&&&&&&&oooooooo++++++++oooooooo&&&&&&&&&&&&&&&&",
"&&&&&&&&&&&&&&&&$$$$$$$$&&&&&&&&&&&&&&&&&&&&&&&&&&&&&&&&&&&&&&&&&&&&&&&&&&&&&&&&&&&&&&&&oooooooo++++++++oooooooo&&&&&&&&&&&&&&&&",
"&&&&&&&&&&&&&&&&$$$$$$$$&&&&&&&&&&&&&&&&&&&&&&&&&&&&&&&&&&&&&&&&&&&&&&&&&&&&&&&&&&&&&&&&oooooooo++++++++oooooooo&&&&&&&&&&&&&&&&",
"&&&&&&&&&&&&&&&&&&&&&&&&$$$$$$$$$$$$$$$$&&&&&&&&&&&&&&&&                        &&&&&&&&oooooooooooooooo&&&&&&&&&&&&&&&&&&&&&&&&",
"&&&&&&&&&&&&&&&&&&&&&&&&$$$$$$$$$$$$$$$$&&&&&&&&&&&&&&&&                        &&&&&&&&oooooooooooooooo&&&&&&&&&&&&&&&&&&&&&&&&",
"&&&&&&&&&&&&&&&&&&&&&&&&$$$$$$$$$$$$$$$$&&&&&&&&&&&&&&&&                        &&&&&&&&oooooooooooooooo&&&&&&&&&&&&&&&&&&&&&&&&",
"&&&&&&&&&&&&&&&&&&&&&&&&$$$$$$$$$$$$$$$$&&&&&&&&&&&&&&&&                        &&&&&&&&oooooooooooooooo&&&&&&&&&&&&&&&&&&&&&&&&",
"&&&&&&&&&&&&&&&&&&&&&&&&$$$$$$$$$$$$$$$$&&&&&&&&&&&&&&&&                        &&&&&&&&oooooooooooooooo&&&&&&&&&&&&&&&&&&&&&&&&",
"&&&&&&&&&&&&&&&&&&&&&&&&$$$$$$$$$$$$$$$$&&&&&&&&&&&&&&&&                        &&&&&&&&oooooooooooooooo&&&&&&&&&&&&&&&&&&&&&&&&",
"&&&&&&&&&&&&&&&&&&&&&&&&$$$$$$$$$$$$$$$$&&&&&&&&&&&&&&&&                        &&&&&&&&oooooooooooooooo&&&&&&&&&&&&&&&&&&&&&&&&",
"&&&&&&&&&&&&&&&&&&&&&&&&$$$$$$$$$$$$$$$$&&&&&&&&&&&&&&&&                        &&&&&&&&oooooooooooooooo&&&&&&&&&&&&&&&&&&&&&&&&",
"&&&&&&&&&&&&&&&&&&&&&&&&&&&&&&&&&&&&&&&&&&&&&&&&        ########################        &&&&&&&&&&&&&&&&&&&&&&&&&&&&&&&&&&&&&&&&",
"&&&&&&&&&&&&&&&&&&&&&&&&&&&&&&&&&&&&&&&&&&&&&&&&        ########################        &&&&&&&&&&&&&&&&&&&&&&&&&&&&&&&&&&&&&&&&",
"&&&&&&&&&&&&&&&&&&&&&&&&&&&&&&&&&&&&&&&&&&&&&&&&        ########################        &&&&&&&&&&&&&&&&&&&&&&&&&&&&&&&&&&&&&&&&",
"&&&&&&&&&&&&&&&&&&&&&&&&&&&&&&&&&&&&&&&&&&&&&&&&        ########################        &&&&&&&&&&&&&&&&&&&&&&&&&&&&&&&&&&&&&&&&",
"&&&&&&&&&&&&&&&&&&&&&&&&&&&&&&&&&&&&&&&&&&&&&&&&        ########################        &&&&&&&&&&&&&&&&&&&&&&&&&&&&&&&&&&&&&&&&",
"&&&&&&&&&&&&&&&&&&&&&&&&&&&&&&&&&&&&&&&&&&&&&&&&        ########################        &&&&&&&&&&&&&&&&&&&&&&&&&&&&&&&&&&&&&&&&",
"&&&&&&&&&&&&&&&&&&&&&&&&&&&&&&&&&&&&&&&&&&&&&&&&        ########################        &&&&&&&&&&&&&&&&&&&&&&&&&&&&&&&&&&&&&&&&",
"&&&&&&&&&&&&&&&&&&&&&&&&&&&&&&&&&&&&&&&&&&&&&&&&        ########################        &&&&&&&&&&&&&&&&&&&&&&&&&&&&&&&&&&&&&&&&",
"&&&&&&&&&&&&&&&&&&&&&&&&&&&&&&&&&&&&&&&&        ========================================        &&&&&&&&&&&&&&&&&&&&&&&&&&&&&&&&",
"&&&&&&&&&&&&&&&&&&&&&&&&&&&&&&&&&&&&&&&&        ========================================        &&&&&&&&&&&&&&&&&&&&&&&&&&&&&&&&",
"&&&&&&&&&&&&&&&&&&&&&&&&&&&&&&&&&&&&&&&&        ========================================        &&&&&&&&&&&&&&&&&&&&&&&&&&&&&&&&",
"&&&&&&&&&&&&&&&&&&&&&&&&&&&&&&&&&&&&&&&&        ========================================        &&&&&&&&&&&&&&&&&&&&&&&&&&&&&&&&",
"&&&&&&&&&&&&&&&&&&&&&&&&&&&&&&&&&&&&&&&&        ========================================        &&&&&&&&&&&&&&&&&&&&&&&&&&&&&&&&",
"&&&&&&&&&&&&&&&&&&&&&&&&&&&&&&&&&&&&&&&&        ========================================        &&&&&&&&&&&&&&&&&&&&&&&&&&&&&&&&",
"&&&&&&&&&&&&&&&&&&&&&&&&&&&&&&&&&&&&&&&&        ========================================        &&&&&&&&&&&&&&&&&&&&&&&&&&&&&&&&",
"&&&&&&&&&&&&&&&&&&&&&&&&&&&&&&&&&&&&&&&&        ========================================        &&&&&&&&&&&&&&&&&&&&&&&&&&&&&&&&",
"&&&&&&&&&&&&&&&&&&&&&&&&&&&&&&&&        ========........================........================        &&&&&&&&&&&&&&&&&&&&&&&&",
"&&&&&&&&&&&&&&&&&&&&&&&&&&&&&&&&        ========........================........================        &&&&&&&&&&&&&&&&&&&&&&&&",
"&&&&&&&&&&&&&&&&&&&&&&&&&&&&&&&&        ========........================........================        &&&&&&&&&&&&&&&&&&&&&&&&",
"&&&&&&&&&&&&&&&&&&&&&&&&&&&&&&&&        ========........================........================        &&&&&&&&&&&&&&&&&&&&&&&&",
"&&&&&&&&&&&&&&&&&&&&&&&&&&&&&&&&        ========........================........================        &&&&&&&&&&&&&&&&&&&&&&&&",
"&&&&&&&&&&&&&&&&&&&&&&&&&&&&&&&&        ========........================........================        &&&&&&&&&&&&&&&&&&&&&&&&",
"&&&&&&&&&&&&&&&&&&&&&&&&&&&&&&&&        ========........================........================        &&&&&&&&&&&&&&&&&&&&&&&&",
"&&&&&&&&&&&&&&&&&&&&&&&&&&&&&&&&        ========........================........================        &&&&&&&&&&&&&&&&&&&&&&&&",
"&&&&&&&&&&&&&&&&********&&&&&&&&        ========================@@@@@@@@@@@@@@@@================        &&&&&&&&&&&&&&&&&&&&&&&&",
"&&&&&&&&&&&&&&&&********&&&&&&&&        ========================@@@@@@@@@@@@@@@@================        &&&&&&&&&&&&&&&&&&&&&&&&",
"&&&&&&&&&&&&&&&&********&&&&&&&&        ========================@@@@@@@@@@@@@@@@================        &&&&&&&&&&&&&&&&&&&&&&&&",
"&&&&&&&&&&&&&&&&********&&&&&&&&        ========================@@@@@@@@@@@@@@@@================        &&&&&&&&&&&&&&&&&&&&&&&&",
"&&&&&&&&&&&&&&&&********&&&&&&&&        ========================@@@@@@@@@@@@@@@@================        &&&&&&&&&&&&&&&&&&&&&&&&",
"&&&&&&&&&&&&&&&&********&&&&&&&&        ========================@@@@@@@@@@@@@@@@================        &&&&&&&&&&&&&&&&&&&&&&&&",
"&&&&&&&&&&&&&&&&********&&&&&&&&        ========================@@@@@@@@@@@@@@@@================        &&&&&&&&&&&&&&&&&&&&&&&&",
"&&&&&&&&&&&&&&&&********&&&&&&&&        ========================@@@@@@@@@@@@@@@@================        &&&&&&&&&&&&&&&&&&&&&&&&",
"&&&&&&&&&&&&&&&&&&&&&&&&        ================================================================        &&&&&&&&&&&&&&&&&&&&&&&&",
"&&&&&&&&&&&&&&&&&&&&&&&&        ================================================================        &&&&&&&&&&&&&&&&&&&&&&&&",
"&&&&&&&&&&&&&&&&&&&&&&&&        ================================================================        &&&&&&&&&&&&&&&&&&&&&&&&",
"&&&&&&&&&&&&&&&&&&&&&&&&        ================================================================        &&&&&&&&&&&&&&&&&&&&&&&&",
"&&&&&&&&&&&&&&&&&&&&&&&&        ================================================================        &&&&&&&&&&&&&&&&&&&&&&&&",
"&&&&&&&&&&&&&&&&&&&&&&&&        ================================================================        &&&&&&&&&&&&&&&&&&&&&&&&",
"&&&&&&&&&&&&&&&&&&&&&&&&        ================================================================        &&&&&&&&&&&&&&&&&&&&&&&&",
"&&&&&&&&&&&&&&&&&&&&&&&&        ================================================================        &&&&&&&&&&&&&&&&&&&&&&&&",
"&&&&&&&&&&&&&&&&        ========================================================================        &&&&&&&&&&&&&&&&&&&&&&&&",
"&&&&&&&&&&&&&&&&        ========================================================================        &&&&&&&&&&&&&&&&&&&&&&&&",
"&&&&&&&&&&&&&&&&        ========================================================================        &&&&&&&&&&&&&&&&&&&&&&&&",
"&&&&&&&&&&&&&&&&        ========================================================================        &&&&&&&&&&&&&&&&&&&&&&&&",
"&&&&&&&&&&&&&&&&        ========================================================================        &&&&&&&&&&&&&&&&&&&&&&&&",
"&&&&&&&&&&&&&&&&        ========================================================================        &&&&&&&&&&&&&&&&&&&&&&&&",
"&&&&&&&&&&&&&&&&        ========================================================================        &&&&&&&&&&&&&&&&&&&&&&&&",
"&&&&&&&&&&&&&&&&        ========================================================================        &&&&&&&&&&&&&&&&&&&&&&&&",
"&&&&&&&&&&&&&&&&        &&&&&&&&========OOOOOOOO========================================&&&&&&&&        &&&&&&&&&&&&&&&&&&&&&&&&",
"&&&&&&&&&&&&&&&&        &&&&&&&&========OOOOOOOO========================================&&&&&&&&        &&&&&&&&&&&&&&&&&&&&&&&&",
"&&&&&&&&&&&&&&&&        &&&&&&&&========OOOOOOOO========================================&&&&&&&&        &&&&&&&&&&&&&&&&&&&&&&&&",
"&&&&&&&&&&&&&&&&        &&&&&&&&========OOOOOOOO========================================&&&&&&&&        &&&&&&&&&&&&&&&&&&&&&&&&",
"&&&&&&&&&&&&&&&&        &&&&&&&&========OOOOOOOO========================================&&&&&&&&        &&&&&&&&&&&&&&&&&&&&&&&&",
"&&&&&&&&&&&&&&&&        &&&&&&&&========OOOOOOOO========================================&&&&&&&&        &&&&&&&&&&&&&&&&&&&&&&&&",
"&&&&&&&&&&&&&&&&        &&&&&&&&========OOOOOOOO========================================&&&&&&&&        &&&&&&&&&&&&&&&&&&&&&&&&",
"&&&&&&&&&&&&&&&&        &&&&&&&&========OOOOOOOO========================================&&&&&&&&        &&&&&&&&&&&&&&&&&&&&&&&&",
"&&&&&&&&&&&&&&&&        OOOOOOOOOOOOOOOO&&&&&&&&&&&&&&&&&&&&&&&&&&&&&&&&&&&&&&&&&&&&&&&&&&&&&&&&        ********&&&&&&&&&&&&&&&&",
"&&&&&&&&&&&&&&&&        OOOOOOOOOOOOOOOO&&&&&&&&&&&&&&&&&&&&&&&&&&&&&&&&&&&&&&&&&&&&&&&&&&&&&&&&        ********&&&&&&&&&&&&&&&&",
"&&&&&&&&&&&&&&&&        OOOOOOOOOOOOOOOO&&&&&&&&&&&&&&&&&&&&&&&&&&&&&&&&&&&&&&&&&&&&&&&&&&&&&&&&        ********&&&&&&&&&&&&&&&&",
"&&&&&&&&&&&&&&&&        OOOOOOOOOOOOOOOO&&&&&&&&&&&&&&&&&&&&&&&&&&&&&&&&&&&&&&&&&&&&&&&&&&&&&&&&        ********&&&&&&&&&&&&&&&&",
"&&&&&&&&&&&&&&&&        OOOOOOOOOOOOOOOO&&&&&&&&&&&&&&&&&&&&&&&&&&&&&&&&&&&&&&&&&&&&&&&&&&&&&&&&        ********&&&&&&&&&&&&&&&&",
"&&&&&&&&&&&&&&&&        OOOOOOOOOOOOOOOO&&&&&&&&&&&&&&&&&&&&&&&&&&&&&&&&&&&&&&&&&&&&&&&&&&&&&&&&        ********&&&&&&&&&&&&&&&&",
"&&&&&&&&&&&&&&&&        OOOOOOOOOOOOOOOO&&&&&&&&&&&&&&&&&&&&&&&&&&&&&&&&&&&&&&&&&&&&&&&&&&&&&&&&        ********&&&&&&&&&&&&&&&&",
"&&&&&&&&&&&&&&&&        OOOOOOOOOOOOOOOO&&&&&&&&&&&&&&&&&&&&&&&&&&&&&&&&&&&&&&&&&&&&&&&&&&&&&&&&        ********&&&&&&&&&&&&&&&&",
"&&&&&&&&&&&&&&&&        @@@@@@@@@@@@@@@@                                        @@@@@@@@@@@@@@@@        &&&&&&&&&&&&&&&&&&&&&&&&",
"&&&&&&&&&&&&&&&&        @@@@@@@@@@@@@@@@                                        @@@@@@@@@@@@@@@@        &&&&&&&&&&&&&&&&&&&&&&&&",
"&&&&&&&&&&&&&&&&        @@@@@@@@@@@@@@@@                                        @@@@@@@@@@@@@@@@        &&&&&&&&&&&&&&&&&&&&&&&&",
"&&&&&&&&&&&&&&&&        @@@@@@@@@@@@@@@@                                        @@@@@@@@@@@@@@@@        &&&&&&&&&&&&&&&&&&&&&&&&",
"&&&&&&&&&&&&&&&&        @@@@@@@@@@@@@@@@                                        @@@@@@@@@@@@@@@@        &&&&&&&&&&&&&&&&&&&&&&&&",
"&&&&&&&&&&&&&&&&        @@@@@@@@@@@@@@@@                                        @@@@@@@@@@@@@@@@        &&&&&&&&&&&&&&&&&&&&&&&&",
"&&&&&&&&&&&&&&&&        @@@@@@@@@@@@@@@@                                        @@@@@@@@@@@@@@@@        &&&&&&&&&&&&&&&&&&&&&&&&",
"&&&&&&&&&&&&&&&&        @@@@@@@@@@@@@@@@                                        @@@@@@@@@@@@@@@@        &&&&&&&&&&&&&&&&&&&&&&&&",
"&&&&&&&&&&&&&&&&%%%%%%%%                XXXXXXXX%%%%%%%%%%%%%%%%%%%%%%%%%%%%%%%%                %%%%%%%%&&&&&&&&&&&&&&&&&&&&&&&&",
"&&&&&&&&&&&&&&&&%%%%%%%%                XXXXXXXX%%%%%%%%%%%%%%%%%%%%%%%%%%%%%%%%                %%%%%%%%&&&&&&&&&&&&&&&&&&&&&&&&",
"&&&&&&&&&&&&&&&&%%%%%%%%                XXXXXXXX%%%%%%%%%%%%%%%%%%%%%%%%%%%%%%%%                %%%%%%%%&&&&&&&&&&&&&&&&&&&&&&&&",
"&&&&&&&&&&&&&&&&%%%%%%%%                XXXXXXXX%%%%%%%%%%%%%%%%%%%%%%%%%%%%%%%%                %%%%%%%%&&&&&&&&&&&&&&&&&&&&&&&&",
"&&&&&&&&&&&&&&&&%%%%%%%%                XXXXXXXX%%%%%%%%%%%%%%%%%%%%%%%%%%%%%%%%                %%%%%%%%&&&&&&&&&&&&&&&&&&&&&&&&",
"&&&&&&&&&&&&&&&&%%%%%%%%                XXXXXXXX%%%%%%%%%%%%%%%%%%%%%%%%%%%%%%%%                %%%%%%%%&&&&&&&&&&&&&&&&&&&&&&&&",
"&&&&&&&&&&&&&&&&%%%%%%%%                XXXXXXXX%%%%%%%%%%%%%%%%%%%%%%%%%%%%%%%%                %%%%%%%%&&&&&&&&&&&&&&&&&&&&&&&&",
"&&&&&&&&&&&&&&&&%%%%%%%%                XXXXXXXX%%%%%%%%%%%%%%%%%%%%%%%%%%%%%%%%                %%%%%%%%&&&&&&&&&&&&&&&&&&&&&&&&",
"&&&&&&&&&&&&&&&&&&&&&&&&%%%%%%%%%%%%%%%%%%%%%%%%%%%%%%%%%%%%%%%%%%%%%%%%%%%%%%%%%%%%%%%%%%%%%%%%&&&&&&&&&&&&&&&&&&&&&&&&$$$$$$$$",
"&&&&&&&&&&&&&&&&&&&&&&&&%%%%%%%%%%%%%%%%%%%%%%%%%%%%%%%%%%%%%%%%%%%%%%%%%%%%%%%%%%%%%%%%%%%%%%%%&&&&&&&&&&&&&&&&&&&&&&&&$$$$$$$$",
"&&&&&&&&&&&&&&&&&&&&&&&&%%%%%%%%%%%%%%%%%%%%%%%%%%%%%%%%%%%%%%%%%%%%%%%%%%%%%%%%%%%%%%%%%%%%%%%%&&&&&&&&&&&&&&&&&&&&&&&&$$$$$$$$",
"&&&&&&&&&&&&&&&&&&&&&&&&%%%%%%%%%%%%%%%%%%%%%%%%%%%%%%%%%%%%%%%%%%%%%%%%%%%%%%%%%%%%%%%%%%%%%%%%&&&&&&&&&&&&&&&&&&&&&&&&$$$$$$$$",
"&&&&&&&&&&&&&&&&&&&&&&&&%%%%%%%%%%%%%%%%%%%%%%%%%%%%%%%%%%%%%%%%%%%%%%%%%%%%%%%%%%%%%%%%%%%%%%%%&&&&&&&&&&&&&&&&&&&&&&&&$$$$$$$$",
"&&&&&&&&&&&&&&&&&&&&&&&&%%%%%%%%%%%%%%%%%%%%%%%%%%%%%%%%%%%%%%%%%%%%%%%%%%%%%%%%%%%%%%%%%%%%%%%%&&&&&&&&&&&&&&&&&&&&&&&&$$$$$$$$",
"&&&&&&&&&&&&&&&&&&&&&&&&%%%%%%%%%%%%%%%%%%%%%%%%%%%%%%%%%%%%%%%%%%%%%%%%%%%%%%%%%%%%%%%%%%%%%%%%&&&&&&&&&&&&&&&&&&&&&&&&$$$$$$$$",
"&&&&&&&&&&&&&&&&&&&&&&&&%%%%%%%%%%%%%%%%%%%%%%%%%%%%%%%%%%%%%%%%%%%%%%%%%%%%%%%%%%%%%%%%%%%%%%%%&&&&&&&&&&&&&&&&&&&&&&&&$$$$$$$$",
"&&&&&&&&&&&&&&&&&&&&&&&&&&&&&&&&&&&&&&&&&&&&&&&&&&&&&&&&&&&&&&&&&&&&&&&&&&&&&&&&&&&&&&&&&&&&&&&&&&&&&&&&&&&&&&&&&&&&&&&&&&&&&&&&",
"&&&&&&&&&&&&&&&&&&&&&&&&&&&&&&&&&&&&&&&&&&&&&&&&&&&&&&&&&&&&&&&&&&&&&&&&&&&&&&&&&&&&&&&&&&&&&&&&&&&&&&&&&&&&&&&&&&&&&&&&&&&&&&&&",
"&&&&&&&&&&&&&&&&&&&&&&&&&&&&&&&&&&&&&&&&&&&&&&&&&&&&&&&&&&&&&&&&&&&&&&&&&&&&&&&&&&&&&&&&&&&&&&&&&&&&&&&&&&&&&&&&&&&&&&&&&&&&&&&&",
"&&&&&&&&&&&&&&&&&&&&&&&&&&&&&&&&&&&&&&&&&&&&&&&&&&&&&&&&&&&&&&&&&&&&&&&&&&&&&&&&&&&&&&&&&&&&&&&&&&&&&&&&&&&&&&&&&&&&&&&&&&&&&&&&",
"&&&&&&&&&&&&&&&&&&&&&&&&&&&&&&&&&&&&&&&&&&&&&&&&&&&&&&&&&&&&&&&&&&&&&&&&&&&&&&&&&&&&&&&&&&&&&&&&&&&&&&&&&&&&&&&&&&&&&&&&&&&&&&&&",
"&&&&&&&&&&&&&&&&&&&&&&&&&&&&&&&&&&&&&&&&&&&&&&&&&&&&&&&&&&&&&&&&&&&&&&&&&&&&&&&&&&&&&&&&&&&&&&&&&&&&&&&&&&&&&&&&&&&&&&&&&&&&&&&&",
"&&&&&&&&&&&&&&&&&&&&&&&&&&&&&&&&&&&&&&&&&&&&&&&&&&&&&&&&&&&&&&&&&&&&&&&&&&&&&&&&&&&&&&&&&&&&&&&&&&&&&&&&&&&&&&&&&&&&&&&&&&&&&&&&",
"&&&&&&&&&&&&&&&&&&&&&&&&&&&&&&&&&&&&&&&&&&&&&&&&&&&&&&&&&&&&&&&&&&&&&&&&&&&&&&&&&&&&&&&&&&&&&&&&&&&&&&&&&&&&&&&&&&&&&&&&&&&&&&&&"
};
