/* XPM */
static char *egg1704735442[] = {
/* columns rows colors chars-per-pixel */
"128 128 7 1 ",
"  c None",
". c #9B6B5C",
"X c #825A65",
"o c #ECCCA4",
"O c #F3E9C9",
"+ c #F4F3D2",
"@ c #F3F4E4",
/* pixels */
"                                                                                                                                ",
"                                                                                                                                ",
"                                                                                                                                ",
"                                                                                                                                ",
"                                                                                                                                ",
"                                                                                                                                ",
"                                                                                                                                ",
"                                                                                                                                ",
"                                                                                                                                ",
"                                                                                                                                ",
"                                                                                                                                ",
"                                                                                                                                ",
"                                                                                                                                ",
"                                                                                                                                ",
"                                                                                                                                ",
"                                                                                                                                ",
"                                                ................................                                                ",
"                                                ................................                                                ",
"                                                ................................                                                ",
"                                                ................................                                                ",
"                                                ................................                                                ",
"                                                ................................                                                ",
"                                                ................................                                                ",
"                                                ................................                                                ",
"                                        ........++++++++++++++++++++++++++++++++........                                        ",
"                                        ........++++++++++++++++++++++++++++++++........                                        ",
"                                        ........++++++++++++++++++++++++++++++++........                                        ",
"                                        ........++++++++++++++++++++++++++++++++........                                        ",
"                                        ........++++++++++++++++++++++++++++++++........                                        ",
"                                        ........++++++++++++++++++++++++++++++++........                                        ",
"                                        ........++++++++++++++++++++++++++++++++........                                        ",
"                                        ........++++++++++++++++++++++++++++++++........                                        ",
"                                ........++++++++++++++++OOOOOOOO@@@@@@@@++++++++++++++++XXXXXXXX                                ",
"                                ........++++++++++++++++OOOOOOOO@@@@@@@@++++++++++++++++XXXXXXXX                                ",
"                                ........++++++++++++++++OOOOOOOO@@@@@@@@++++++++++++++++XXXXXXXX                                ",
"                                ........++++++++++++++++OOOOOOOO@@@@@@@@++++++++++++++++XXXXXXXX                                ",
"                                ........++++++++++++++++OOOOOOOO@@@@@@@@++++++++++++++++XXXXXXXX                                ",
"                                ........++++++++++++++++OOOOOOOO@@@@@@@@++++++++++++++++XXXXXXXX                                ",
"                                ........++++++++++++++++OOOOOOOO@@@@@@@@++++++++++++++++XXXXXXXX                                ",
"                                ........++++++++++++++++OOOOOOOO@@@@@@@@++++++++++++++++XXXXXXXX                                ",
"                        ........++++++++++++++++@@@@@@@@OOOOOOOOOOOOOOOO++++++++++++++++ooooooooXXXXXXXX                        ",
"                        ........++++++++++++++++@@@@@@@@OOOOOOOOOOOOOOOO++++++++++++++++ooooooooXXXXXXXX                        ",
"                        ........++++++++++++++++@@@@@@@@OOOOOOOOOOOOOOOO++++++++++++++++ooooooooXXXXXXXX                        ",
"                        ........++++++++++++++++@@@@@@@@OOOOOOOOOOOOOOOO++++++++++++++++ooooooooXXXXXXXX                        ",
"                        ........++++++++++++++++@@@@@@@@OOOOOOOOOOOOOOOO++++++++++++++++ooooooooXXXXXXXX                        ",
"                        ........++++++++++++++++@@@@@@@@OOOOOOOOOOOOOOOO++++++++++++++++ooooooooXXXXXXXX                        ",
"                        ........++++++++++++++++@@@@@@@@OOOOOOOOOOOOOOOO++++++++++++++++ooooooooXXXXXXXX                        ",
"                        ........++++++++++++++++@@@@@@@@OOOOOOOOOOOOOOOO++++++++++++++++ooooooooXXXXXXXX                        ",
"                        ........++++++++@@@@@@@@@@@@@@@@@@@@@@@@++++++++++++++++++++++++ooooooooXXXXXXXX                        ",
"                        ........++++++++@@@@@@@@@@@@@@@@@@@@@@@@++++++++++++++++++++++++ooooooooXXXXXXXX                        ",
"                        ........++++++++@@@@@@@@@@@@@@@@@@@@@@@@++++++++++++++++++++++++ooooooooXXXXXXXX                        ",
"                        ........++++++++@@@@@@@@@@@@@@@@@@@@@@@@++++++++++++++++++++++++ooooooooXXXXXXXX                        ",
"                        ........++++++++@@@@@@@@@@@@@@@@@@@@@@@@++++++++++++++++++++++++ooooooooXXXXXXXX                        ",
"                        ........++++++++@@@@@@@@@@@@@@@@@@@@@@@@++++++++++++++++++++++++ooooooooXXXXXXXX                        ",
"                        ........++++++++@@@@@@@@@@@@@@@@@@@@@@@@++++++++++++++++++++++++ooooooooXXXXXXXX                        ",
"                        ........++++++++@@@@@@@@@@@@@@@@@@@@@@@@++++++++++++++++++++++++ooooooooXXXXXXXX                        ",
"                ........++++++++++++++++OOOOOOOO@@@@@@@@++++++++++++++++++++++++++++++++ooooooooooooooooXXXXXXXX                ",
"                ........++++++++++++++++OOOOOOOO@@@@@@@@++++++++++++++++++++++++++++++++ooooooooooooooooXXXXXXXX                ",
"                ........++++++++++++++++OOOOOOOO@@@@@@@@++++++++++++++++++++++++++++++++ooooooooooooooooXXXXXXXX                ",
"                ........++++++++++++++++OOOOOOOO@@@@@@@@++++++++++++++++++++++++++++++++ooooooooooooooooXXXXXXXX                ",
"                ........++++++++++++++++OOOOOOOO@@@@@@@@++++++++++++++++++++++++++++++++ooooooooooooooooXXXXXXXX                ",
"                ........++++++++++++++++OOOOOOOO@@@@@@@@++++++++++++++++++++++++++++++++ooooooooooooooooXXXXXXXX                ",
"                ........++++++++++++++++OOOOOOOO@@@@@@@@++++++++++++++++++++++++++++++++ooooooooooooooooXXXXXXXX                ",
"                ........++++++++++++++++OOOOOOOO@@@@@@@@++++++++++++++++++++++++++++++++ooooooooooooooooXXXXXXXX                ",
"                XXXXXXXX++++++++++++++++++++++++++++++++++++++++++++++++++++++++ooooooooooooooooooooooooXXXXXXXX                ",
"                XXXXXXXX++++++++++++++++++++++++++++++++++++++++++++++++++++++++ooooooooooooooooooooooooXXXXXXXX                ",
"                XXXXXXXX++++++++++++++++++++++++++++++++++++++++++++++++++++++++ooooooooooooooooooooooooXXXXXXXX                ",
"                XXXXXXXX++++++++++++++++++++++++++++++++++++++++++++++++++++++++ooooooooooooooooooooooooXXXXXXXX                ",
"                XXXXXXXX++++++++++++++++++++++++++++++++++++++++++++++++++++++++ooooooooooooooooooooooooXXXXXXXX                ",
"                XXXXXXXX++++++++++++++++++++++++++++++++++++++++++++++++++++++++ooooooooooooooooooooooooXXXXXXXX                ",
"                XXXXXXXX++++++++++++++++++++++++++++++++++++++++++++++++++++++++ooooooooooooooooooooooooXXXXXXXX                ",
"                XXXXXXXX++++++++++++++++++++++++++++++++++++++++++++++++++++++++ooooooooooooooooooooooooXXXXXXXX                ",
"                XXXXXXXX++++++++++++++++++++++++++++++++++++++++++++++++++++++++ooooooooooooooooooooooooXXXXXXXX                ",
"                XXXXXXXX++++++++++++++++++++++++++++++++++++++++++++++++++++++++ooooooooooooooooooooooooXXXXXXXX                ",
"                XXXXXXXX++++++++++++++++++++++++++++++++++++++++++++++++++++++++ooooooooooooooooooooooooXXXXXXXX                ",
"                XXXXXXXX++++++++++++++++++++++++++++++++++++++++++++++++++++++++ooooooooooooooooooooooooXXXXXXXX                ",
"                XXXXXXXX++++++++++++++++++++++++++++++++++++++++++++++++++++++++ooooooooooooooooooooooooXXXXXXXX                ",
"                XXXXXXXX++++++++++++++++++++++++++++++++++++++++++++++++++++++++ooooooooooooooooooooooooXXXXXXXX                ",
"                XXXXXXXX++++++++++++++++++++++++++++++++++++++++++++++++++++++++ooooooooooooooooooooooooXXXXXXXX                ",
"                XXXXXXXX++++++++++++++++++++++++++++++++++++++++++++++++++++++++ooooooooooooooooooooooooXXXXXXXX                ",
"                XXXXXXXX++++++++++++++++++++++++++++++++++++++++++++++++ooooooooooooooooooooooooooooooooXXXXXXXX                ",
"                XXXXXXXX++++++++++++++++++++++++++++++++++++++++++++++++ooooooooooooooooooooooooooooooooXXXXXXXX                ",
"                XXXXXXXX++++++++++++++++++++++++++++++++++++++++++++++++ooooooooooooooooooooooooooooooooXXXXXXXX                ",
"                XXXXXXXX++++++++++++++++++++++++++++++++++++++++++++++++ooooooooooooooooooooooooooooooooXXXXXXXX                ",
"                XXXXXXXX++++++++++++++++++++++++++++++++++++++++++++++++ooooooooooooooooooooooooooooooooXXXXXXXX                ",
"                XXXXXXXX++++++++++++++++++++++++++++++++++++++++++++++++ooooooooooooooooooooooooooooooooXXXXXXXX                ",
"                XXXXXXXX++++++++++++++++++++++++++++++++++++++++++++++++ooooooooooooooooooooooooooooooooXXXXXXXX                ",
"                XXXXXXXX++++++++++++++++++++++++++++++++++++++++++++++++ooooooooooooooooooooooooooooooooXXXXXXXX                ",
"                XXXXXXXX++++++++++++++++++++++++++++++++++++++++ooooooooooooooooooooooooooooooooooooooooXXXXXXXX                ",
"                XXXXXXXX++++++++++++++++++++++++++++++++++++++++ooooooooooooooooooooooooooooooooooooooooXXXXXXXX                ",
"                XXXXXXXX++++++++++++++++++++++++++++++++++++++++ooooooooooooooooooooooooooooooooooooooooXXXXXXXX                ",
"                XXXXXXXX++++++++++++++++++++++++++++++++++++++++ooooooooooooooooooooooooooooooooooooooooXXXXXXXX                ",
"                XXXXXXXX++++++++++++++++++++++++++++++++++++++++ooooooooooooooooooooooooooooooooooooooooXXXXXXXX                ",
"                XXXXXXXX++++++++++++++++++++++++++++++++++++++++ooooooooooooooooooooooooooooooooooooooooXXXXXXXX                ",
"                XXXXXXXX++++++++++++++++++++++++++++++++++++++++ooooooooooooooooooooooooooooooooooooooooXXXXXXXX                ",
"                XXXXXXXX++++++++++++++++++++++++++++++++++++++++ooooooooooooooooooooooooooooooooooooooooXXXXXXXX                ",
"                        XXXXXXXX++++++++++++++++++++++++ooooooooooooooooooooooooooooooooooooooooXXXXXXXX                        ",
"                        XXXXXXXX++++++++++++++++++++++++ooooooooooooooooooooooooooooooooooooooooXXXXXXXX                        ",
"                        XXXXXXXX++++++++++++++++++++++++ooooooooooooooooooooooooooooooooooooooooXXXXXXXX                        ",
"                        XXXXXXXX++++++++++++++++++++++++ooooooooooooooooooooooooooooooooooooooooXXXXXXXX                        ",
"                        XXXXXXXX++++++++++++++++++++++++ooooooooooooooooooooooooooooooooooooooooXXXXXXXX                        ",
"                        XXXXXXXX++++++++++++++++++++++++ooooooooooooooooooooooooooooooooooooooooXXXXXXXX                        ",
"                        XXXXXXXX++++++++++++++++++++++++ooooooooooooooooooooooooooooooooooooooooXXXXXXXX                        ",
"                        XXXXXXXX++++++++++++++++++++++++ooooooooooooooooooooooooooooooooooooooooXXXXXXXX                        ",
"                                XXXXXXXXXXXXXXXXXXXXXXXXXXXXXXXXXXXXXXXXXXXXXXXXXXXXXXXXXXXXXXXX                                ",
"                                XXXXXXXXXXXXXXXXXXXXXXXXXXXXXXXXXXXXXXXXXXXXXXXXXXXXXXXXXXXXXXXX                                ",
"                                XXXXXXXXXXXXXXXXXXXXXXXXXXXXXXXXXXXXXXXXXXXXXXXXXXXXXXXXXXXXXXXX                                ",
"                                XXXXXXXXXXXXXXXXXXXXXXXXXXXXXXXXXXXXXXXXXXXXXXXXXXXXXXXXXXXXXXXX                                ",
"                                XXXXXXXXXXXXXXXXXXXXXXXXXXXXXXXXXXXXXXXXXXXXXXXXXXXXXXXXXXXXXXXX                                ",
"                                XXXXXXXXXXXXXXXXXXXXXXXXXXXXXXXXXXXXXXXXXXXXXXXXXXXXXXXXXXXXXXXX                                ",
"                                XXXXXXXXXXXXXXXXXXXXXXXXXXXXXXXXXXXXXXXXXXXXXXXXXXXXXXXXXXXXXXXX                                ",
"                                XXXXXXXXXXXXXXXXXXXXXXXXXXXXXXXXXXXXXXXXXXXXXXXXXXXXXXXXXXXXXXXX                                ",
"                                                                                                                                ",
"                                                                                                                                ",
"                                                                                                                                ",
"                                                                                                                                ",
"                                                                                                                                ",
"                                                                                                                                ",
"                                                                                                                                ",
"                                                                                                                                ",
"                                                                                                                                ",
"                                                                                                                                ",
"                                                                                                                                ",
"                                                                                                                                ",
"                                                                                                                                ",
"                                                                                                                                ",
"                                                                                                                                ",
"                                                                                                                                "
};
