/* XPM */
static char *egg_bg1705337379[] = {
/* columns rows colors chars-per-pixel */
"128 128 9 1 ",
"  c #9B6B5C",
". c #825A65",
"X c #A5BF65",
"o c #B9CF6D",
"O c #DCBC8C",
"+ c #ECCCA4",
"@ c #F3E9C9",
"# c #F4F3D2",
"$ c #F3F4E4",
/* pixels */
"++++++++++++++++++++++++++++++++++++++++++++++++++++++++++++++++++++++++++++++++XXXXXXXX++++++++++++++++++++++++XXXXXXXX++++++++",
"++++++++++++++++++++++++++++++++++++++++++++++++++++++++++++++++++++++++++++++++XXXXXXXX++++++++++++++++++++++++XXXXXXXX++++++++",
"++++++++++++++++++++++++++++++++++++++++++++++++++++++++++++++++++++++++++++++++XXXXXXXX++++++++++++++++++++++++XXXXXXXX++++++++",
"++++++++++++++++++++++++++++++++++++++++++++++++++++++++++++++++++++++++++++++++XXXXXXXX++++++++++++++++++++++++XXXXXXXX++++++++",
"++++++++++++++++++++++++++++++++++++++++++++++++++++++++++++++++++++++++++++++++XXXXXXXX++++++++++++++++++++++++XXXXXXXX++++++++",
"++++++++++++++++++++++++++++++++++++++++++++++++++++++++++++++++++++++++++++++++XXXXXXXX++++++++++++++++++++++++XXXXXXXX++++++++",
"++++++++++++++++++++++++++++++++++++++++++++++++++++++++++++++++++++++++++++++++XXXXXXXX++++++++++++++++++++++++XXXXXXXX++++++++",
"++++++++++++++++++++++++++++++++++++++++++++++++++++++++++++++++++++++++++++++++XXXXXXXX++++++++++++++++++++++++XXXXXXXX++++++++",
"++++++++++++++++++++++++++++++++++++++++++++++++$$$$$$$$$$$$$$$$$$$$$$$$$$$$$$$$++++++++XXXXXXXXooooooooooooooooXXXXXXXX++++++++",
"++++++++++++++++++++++++++++++++++++++++++++++++$$$$$$$$$$$$$$$$$$$$$$$$$$$$$$$$++++++++XXXXXXXXooooooooooooooooXXXXXXXX++++++++",
"++++++++++++++++++++++++++++++++++++++++++++++++$$$$$$$$$$$$$$$$$$$$$$$$$$$$$$$$++++++++XXXXXXXXooooooooooooooooXXXXXXXX++++++++",
"++++++++++++++++++++++++++++++++++++++++++++++++$$$$$$$$$$$$$$$$$$$$$$$$$$$$$$$$++++++++XXXXXXXXooooooooooooooooXXXXXXXX++++++++",
"++++++++++++++++++++++++++++++++++++++++++++++++$$$$$$$$$$$$$$$$$$$$$$$$$$$$$$$$++++++++XXXXXXXXooooooooooooooooXXXXXXXX++++++++",
"++++++++++++++++++++++++++++++++++++++++++++++++$$$$$$$$$$$$$$$$$$$$$$$$$$$$$$$$++++++++XXXXXXXXooooooooooooooooXXXXXXXX++++++++",
"++++++++++++++++++++++++++++++++++++++++++++++++$$$$$$$$$$$$$$$$$$$$$$$$$$$$$$$$++++++++XXXXXXXXooooooooooooooooXXXXXXXX++++++++",
"++++++++++++++++++++++++++++++++++++++++++++++++$$$$$$$$$$$$$$$$$$$$$$$$$$$$$$$$++++++++XXXXXXXXooooooooooooooooXXXXXXXX++++++++",
"++++++++++++++++OOOOOOOO++++++++++++++++$$$$$$$$                                $$$$$$$$XXXXXXXXooooooooXXXXXXXX++++++++++++++++",
"++++++++++++++++OOOOOOOO++++++++++++++++$$$$$$$$                                $$$$$$$$XXXXXXXXooooooooXXXXXXXX++++++++++++++++",
"++++++++++++++++OOOOOOOO++++++++++++++++$$$$$$$$                                $$$$$$$$XXXXXXXXooooooooXXXXXXXX++++++++++++++++",
"++++++++++++++++OOOOOOOO++++++++++++++++$$$$$$$$                                $$$$$$$$XXXXXXXXooooooooXXXXXXXX++++++++++++++++",
"++++++++++++++++OOOOOOOO++++++++++++++++$$$$$$$$                                $$$$$$$$XXXXXXXXooooooooXXXXXXXX++++++++++++++++",
"++++++++++++++++OOOOOOOO++++++++++++++++$$$$$$$$                                $$$$$$$$XXXXXXXXooooooooXXXXXXXX++++++++++++++++",
"++++++++++++++++OOOOOOOO++++++++++++++++$$$$$$$$                                $$$$$$$$XXXXXXXXooooooooXXXXXXXX++++++++++++++++",
"++++++++++++++++OOOOOOOO++++++++++++++++$$$$$$$$                                $$$$$$$$XXXXXXXXooooooooXXXXXXXX++++++++++++++++",
"++++++++++++++++++++++++OOOOOOOO$$$$$$$$        ################################        $$$$$$$$XXXXXXXX++++++++++++++++++++++++",
"++++++++++++++++++++++++OOOOOOOO$$$$$$$$        ################################        $$$$$$$$XXXXXXXX++++++++++++++++++++++++",
"++++++++++++++++++++++++OOOOOOOO$$$$$$$$        ################################        $$$$$$$$XXXXXXXX++++++++++++++++++++++++",
"++++++++++++++++++++++++OOOOOOOO$$$$$$$$        ################################        $$$$$$$$XXXXXXXX++++++++++++++++++++++++",
"++++++++++++++++++++++++OOOOOOOO$$$$$$$$        ################################        $$$$$$$$XXXXXXXX++++++++++++++++++++++++",
"++++++++++++++++++++++++OOOOOOOO$$$$$$$$        ################################        $$$$$$$$XXXXXXXX++++++++++++++++++++++++",
"++++++++++++++++++++++++OOOOOOOO$$$$$$$$        ################################        $$$$$$$$XXXXXXXX++++++++++++++++++++++++",
"++++++++++++++++++++++++OOOOOOOO$$$$$$$$        ################################        $$$$$$$$XXXXXXXX++++++++++++++++++++++++",
"++++++++++++++++++++++++$$$$$$$$        ################@@@@@@@@$$$$$$$$################........$$$$$$$$++++++++++++++++++++++++",
"++++++++++++++++++++++++$$$$$$$$        ################@@@@@@@@$$$$$$$$################........$$$$$$$$++++++++++++++++++++++++",
"++++++++++++++++++++++++$$$$$$$$        ################@@@@@@@@$$$$$$$$################........$$$$$$$$++++++++++++++++++++++++",
"++++++++++++++++++++++++$$$$$$$$        ################@@@@@@@@$$$$$$$$################........$$$$$$$$++++++++++++++++++++++++",
"++++++++++++++++++++++++$$$$$$$$        ################@@@@@@@@$$$$$$$$################........$$$$$$$$++++++++++++++++++++++++",
"++++++++++++++++++++++++$$$$$$$$        ################@@@@@@@@$$$$$$$$################........$$$$$$$$++++++++++++++++++++++++",
"++++++++++++++++++++++++$$$$$$$$        ################@@@@@@@@$$$$$$$$################........$$$$$$$$++++++++++++++++++++++++",
"++++++++++++++++++++++++$$$$$$$$        ################@@@@@@@@$$$$$$$$################........$$$$$$$$++++++++++++++++++++++++",
"++++++++++++++++$$$$$$$$        ################$$$$$$$$@@@@@@@@@@@@@@@@################++++++++........$$$$$$$$++++++++++++++++",
"++++++++++++++++$$$$$$$$        ################$$$$$$$$@@@@@@@@@@@@@@@@################++++++++........$$$$$$$$++++++++++++++++",
"++++++++++++++++$$$$$$$$        ################$$$$$$$$@@@@@@@@@@@@@@@@################++++++++........$$$$$$$$++++++++++++++++",
"++++++++++++++++$$$$$$$$        ################$$$$$$$$@@@@@@@@@@@@@@@@################++++++++........$$$$$$$$++++++++++++++++",
"++++++++++++++++$$$$$$$$        ################$$$$$$$$@@@@@@@@@@@@@@@@################++++++++........$$$$$$$$++++++++++++++++",
"++++++++++++++++$$$$$$$$        ################$$$$$$$$@@@@@@@@@@@@@@@@################++++++++........$$$$$$$$++++++++++++++++",
"++++++++++++++++$$$$$$$$        ################$$$$$$$$@@@@@@@@@@@@@@@@################++++++++........$$$$$$$$++++++++++++++++",
"++++++++++++++++$$$$$$$$        ################$$$$$$$$@@@@@@@@@@@@@@@@################++++++++........$$$$$$$$++++++++++++++++",
"++++++++++++++++$$$$$$$$        ########$$$$$$$$$$$$$$$$$$$$$$$$########################++++++++........$$$$$$$$++++++++++++++++",
"++++++++++++++++$$$$$$$$        ########$$$$$$$$$$$$$$$$$$$$$$$$########################++++++++........$$$$$$$$++++++++++++++++",
"++++++++++++++++$$$$$$$$        ########$$$$$$$$$$$$$$$$$$$$$$$$########################++++++++........$$$$$$$$++++++++++++++++",
"++++++++++++++++$$$$$$$$        ########$$$$$$$$$$$$$$$$$$$$$$$$########################++++++++........$$$$$$$$++++++++++++++++",
"++++++++++++++++$$$$$$$$        ########$$$$$$$$$$$$$$$$$$$$$$$$########################++++++++........$$$$$$$$++++++++++++++++",
"++++++++++++++++$$$$$$$$        ########$$$$$$$$$$$$$$$$$$$$$$$$########################++++++++........$$$$$$$$++++++++++++++++",
"++++++++++++++++$$$$$$$$        ########$$$$$$$$$$$$$$$$$$$$$$$$########################++++++++........$$$$$$$$++++++++++++++++",
"++++++++++++++++$$$$$$$$        ########$$$$$$$$$$$$$$$$$$$$$$$$########################++++++++........$$$$$$$$++++++++++++++++",
"++++++++$$$$$$$$        ################@@@@@@@@$$$$$$$$################################++++++++++++++++........$$$$$$$$++++++++",
"++++++++$$$$$$$$        ################@@@@@@@@$$$$$$$$################################++++++++++++++++........$$$$$$$$++++++++",
"++++++++$$$$$$$$        ################@@@@@@@@$$$$$$$$################################++++++++++++++++........$$$$$$$$++++++++",
"++++++++$$$$$$$$        ################@@@@@@@@$$$$$$$$################################++++++++++++++++........$$$$$$$$++++++++",
"++++++++$$$$$$$$        ################@@@@@@@@$$$$$$$$################################++++++++++++++++........$$$$$$$$++++++++",
"++++++++$$$$$$$$        ################@@@@@@@@$$$$$$$$################################++++++++++++++++........$$$$$$$$++++++++",
"++++++++$$$$$$$$        ################@@@@@@@@$$$$$$$$################################++++++++++++++++........$$$$$$$$++++++++",
"++++++++$$$$$$$$        ################@@@@@@@@$$$$$$$$################################++++++++++++++++........$$$$$$$$++++++++",
"++++++++$$$$$$$$........########################################################++++++++++++++++++++++++........$$$$$$$$++++++++",
"++++++++$$$$$$$$........########################################################++++++++++++++++++++++++........$$$$$$$$++++++++",
"++++++++$$$$$$$$........########################################################++++++++++++++++++++++++........$$$$$$$$++++++++",
"++++++++$$$$$$$$........########################################################++++++++++++++++++++++++........$$$$$$$$++++++++",
"++++++++$$$$$$$$........########################################################++++++++++++++++++++++++........$$$$$$$$++++++++",
"++++++++$$$$$$$$........########################################################++++++++++++++++++++++++........$$$$$$$$++++++++",
"++++++++$$$$$$$$........########################################################++++++++++++++++++++++++........$$$$$$$$++++++++",
"++++++++$$$$$$$$........########################################################++++++++++++++++++++++++........$$$$$$$$++++++++",
"++++++++$$$$$$$$........########################################################++++++++++++++++++++++++........$$$$$$$$++++++++",
"++++++++$$$$$$$$........########################################################++++++++++++++++++++++++........$$$$$$$$++++++++",
"++++++++$$$$$$$$........########################################################++++++++++++++++++++++++........$$$$$$$$++++++++",
"++++++++$$$$$$$$........########################################################++++++++++++++++++++++++........$$$$$$$$++++++++",
"++++++++$$$$$$$$........########################################################++++++++++++++++++++++++........$$$$$$$$++++++++",
"++++++++$$$$$$$$........########################################################++++++++++++++++++++++++........$$$$$$$$++++++++",
"++++++++$$$$$$$$........########################################################++++++++++++++++++++++++........$$$$$$$$++++++++",
"++++++++$$$$$$$$........########################################################++++++++++++++++++++++++........$$$$$$$$++++++++",
"++++++++$$$$$$$$........################################################++++++++++++++++++++++++++++++++........$$$$$$$$++++++++",
"++++++++$$$$$$$$........################################################++++++++++++++++++++++++++++++++........$$$$$$$$++++++++",
"++++++++$$$$$$$$........################################################++++++++++++++++++++++++++++++++........$$$$$$$$++++++++",
"++++++++$$$$$$$$........################################################++++++++++++++++++++++++++++++++........$$$$$$$$++++++++",
"++++++++$$$$$$$$........################################################++++++++++++++++++++++++++++++++........$$$$$$$$++++++++",
"++++++++$$$$$$$$........################################################++++++++++++++++++++++++++++++++........$$$$$$$$++++++++",
"++++++++$$$$$$$$........################################################++++++++++++++++++++++++++++++++........$$$$$$$$++++++++",
"++++++++$$$$$$$$........################################################++++++++++++++++++++++++++++++++........$$$$$$$$++++++++",
"++++++++$$$$$$$$........########################################++++++++++++++++++++++++++++++++++++++++........$$$$$$$$++++++++",
"++++++++$$$$$$$$........########################################++++++++++++++++++++++++++++++++++++++++........$$$$$$$$++++++++",
"++++++++$$$$$$$$........########################################++++++++++++++++++++++++++++++++++++++++........$$$$$$$$++++++++",
"++++++++$$$$$$$$........########################################++++++++++++++++++++++++++++++++++++++++........$$$$$$$$++++++++",
"++++++++$$$$$$$$........########################################++++++++++++++++++++++++++++++++++++++++........$$$$$$$$++++++++",
"++++++++$$$$$$$$........########################################++++++++++++++++++++++++++++++++++++++++........$$$$$$$$++++++++",
"++++++++$$$$$$$$........########################################++++++++++++++++++++++++++++++++++++++++........$$$$$$$$++++++++",
"++++++++$$$$$$$$........########################################++++++++++++++++++++++++++++++++++++++++........$$$$$$$$++++++++",
"++++++++++++++++$$$$$$$$........########################++++++++++++++++++++++++++++++++++++++++........$$$$$$$$++++++++++++++++",
"++++++++++++++++$$$$$$$$........########################++++++++++++++++++++++++++++++++++++++++........$$$$$$$$++++++++++++++++",
"++++++++++++++++$$$$$$$$........########################++++++++++++++++++++++++++++++++++++++++........$$$$$$$$++++++++++++++++",
"++++++++++++++++$$$$$$$$........########################++++++++++++++++++++++++++++++++++++++++........$$$$$$$$++++++++++++++++",
"++++++++++++++++$$$$$$$$........########################++++++++++++++++++++++++++++++++++++++++........$$$$$$$$++++++++++++++++",
"++++++++++++++++$$$$$$$$........########################++++++++++++++++++++++++++++++++++++++++........$$$$$$$$++++++++++++++++",
"++++++++++++++++$$$$$$$$........########################++++++++++++++++++++++++++++++++++++++++........$$$$$$$$++++++++++++++++",
"++++++++++++++++$$$$$$$$........########################++++++++++++++++++++++++++++++++++++++++........$$$$$$$$++++++++++++++++",
"++++++++++++++++++++++++$$$$$$$$................................................................$$$$$$$$++++++++++++++++++++++++",
"++++++++++++++++++++++++$$$$$$$$................................................................$$$$$$$$++++++++++++++++++++++++",
"++++++++++++++++++++++++$$$$$$$$................................................................$$$$$$$$++++++++++++++++++++++++",
"++++++++++++++++++++++++$$$$$$$$................................................................$$$$$$$$++++++++++++++++++++++++",
"++++++++++++++++++++++++$$$$$$$$................................................................$$$$$$$$++++++++++++++++++++++++",
"++++++++++++++++++++++++$$$$$$$$................................................................$$$$$$$$++++++++++++++++++++++++",
"++++++++++++++++++++++++$$$$$$$$................................................................$$$$$$$$++++++++++++++++++++++++",
"++++++++++++++++++++++++$$$$$$$$................................................................$$$$$$$$++++++++++++++++++++++++",
"++++++++++++++++++++++++++++++++$$$$$$$$$$$$$$$$$$$$$$$$$$$$$$$$$$$$$$$$$$$$$$$$$$$$$$$$$$$$$$$$++++++++++++++++++++++++OOOOOOOO",
"++++++++++++++++++++++++++++++++$$$$$$$$$$$$$$$$$$$$$$$$$$$$$$$$$$$$$$$$$$$$$$$$$$$$$$$$$$$$$$$$++++++++++++++++++++++++OOOOOOOO",
"++++++++++++++++++++++++++++++++$$$$$$$$$$$$$$$$$$$$$$$$$$$$$$$$$$$$$$$$$$$$$$$$$$$$$$$$$$$$$$$$++++++++++++++++++++++++OOOOOOOO",
"++++++++++++++++++++++++++++++++$$$$$$$$$$$$$$$$$$$$$$$$$$$$$$$$$$$$$$$$$$$$$$$$$$$$$$$$$$$$$$$$++++++++++++++++++++++++OOOOOOOO",
"++++++++++++++++++++++++++++++++$$$$$$$$$$$$$$$$$$$$$$$$$$$$$$$$$$$$$$$$$$$$$$$$$$$$$$$$$$$$$$$$++++++++++++++++++++++++OOOOOOOO",
"++++++++++++++++++++++++++++++++$$$$$$$$$$$$$$$$$$$$$$$$$$$$$$$$$$$$$$$$$$$$$$$$$$$$$$$$$$$$$$$$++++++++++++++++++++++++OOOOOOOO",
"++++++++++++++++++++++++++++++++$$$$$$$$$$$$$$$$$$$$$$$$$$$$$$$$$$$$$$$$$$$$$$$$$$$$$$$$$$$$$$$$++++++++++++++++++++++++OOOOOOOO",
"++++++++++++++++++++++++++++++++$$$$$$$$$$$$$$$$$$$$$$$$$$$$$$$$$$$$$$$$$$$$$$$$$$$$$$$$$$$$$$$$++++++++++++++++++++++++OOOOOOOO",
"++++++++++++++++++++++++++++++++++++++++++++++++++++++++++++++++++++++++++++++++++++++++++++++++++++++++++++++++++++++++++++++++",
"++++++++++++++++++++++++++++++++++++++++++++++++++++++++++++++++++++++++++++++++++++++++++++++++++++++++++++++++++++++++++++++++",
"++++++++++++++++++++++++++++++++++++++++++++++++++++++++++++++++++++++++++++++++++++++++++++++++++++++++++++++++++++++++++++++++",
"++++++++++++++++++++++++++++++++++++++++++++++++++++++++++++++++++++++++++++++++++++++++++++++++++++++++++++++++++++++++++++++++",
"++++++++++++++++++++++++++++++++++++++++++++++++++++++++++++++++++++++++++++++++++++++++++++++++++++++++++++++++++++++++++++++++",
"++++++++++++++++++++++++++++++++++++++++++++++++++++++++++++++++++++++++++++++++++++++++++++++++++++++++++++++++++++++++++++++++",
"++++++++++++++++++++++++++++++++++++++++++++++++++++++++++++++++++++++++++++++++++++++++++++++++++++++++++++++++++++++++++++++++",
"++++++++++++++++++++++++++++++++++++++++++++++++++++++++++++++++++++++++++++++++++++++++++++++++++++++++++++++++++++++++++++++++"
};
