/* XPM */
static char *egg_21705693727[] = {
/* columns rows colors chars-per-pixel */
"128 128 12 1 ",
"  c #9B6B5C",
". c #825A65",
"X c #99AA77",
"o c #A5BF65",
"O c #B9CF6D",
"+ c #DCBC8C",
"@ c #CEB4A6",
"# c #ECCCA4",
"$ c #F3E9C9",
"% c #F4F3D2",
"& c #FCFCD9",
"* c #F3F4E4",
/* pixels */
"################################################&&&&&&&&&&&&&&&&&&&&&&&&&&&&&&&&oooooooo########################oooooooo########",
"################################################&&&&&&&&&&&&&&&&&&&&&&&&&&&&&&&&oooooooo########################oooooooo########",
"################################################&&&&&&&&&&&&&&&&&&&&&&&&&&&&&&&&oooooooo########################oooooooo########",
"################################################&&&&&&&&&&&&&&&&&&&&&&&&&&&&&&&&oooooooo########################oooooooo########",
"################################################&&&&&&&&&&&&&&&&&&&&&&&&&&&&&&&&oooooooo########################oooooooo########",
"################################################&&&&&&&&&&&&&&&&&&&&&&&&&&&&&&&&oooooooo########################oooooooo########",
"################################################&&&&&&&&&&&&&&&&&&&&&&&&&&&&&&&&oooooooo########################oooooooo########",
"################################################&&&&&&&&&&&&&&&&&&&&&&&&&&&&&&&&oooooooo########################oooooooo########",
"########################################&&&&&&&&                                &&&&&&&&ooooooooOOOOOOOOOOOOOOOOoooooooo########",
"########################################&&&&&&&&                                &&&&&&&&ooooooooOOOOOOOOOOOOOOOOoooooooo########",
"########################################&&&&&&&&                                &&&&&&&&ooooooooOOOOOOOOOOOOOOOOoooooooo########",
"########################################&&&&&&&&                                &&&&&&&&ooooooooOOOOOOOOOOOOOOOOoooooooo########",
"########################################&&&&&&&&                                &&&&&&&&ooooooooOOOOOOOOOOOOOOOOoooooooo########",
"########################################&&&&&&&&                                &&&&&&&&ooooooooOOOOOOOOOOOOOOOOoooooooo########",
"########################################&&&&&&&&                                &&&&&&&&ooooooooOOOOOOOOOOOOOOOOoooooooo########",
"########################################&&&&&&&&                                &&&&&&&&ooooooooOOOOOOOOOOOOOOOOoooooooo########",
"################++++++++########&&&&&&&&        %%%%%%%%%%%%%%%%%%%%%%%%%%%%%%%%        &&&&&&&&OOOOOOOOoooooooo################",
"################++++++++########&&&&&&&&        %%%%%%%%%%%%%%%%%%%%%%%%%%%%%%%%        &&&&&&&&OOOOOOOOoooooooo################",
"################++++++++########&&&&&&&&        %%%%%%%%%%%%%%%%%%%%%%%%%%%%%%%%        &&&&&&&&OOOOOOOOoooooooo################",
"################++++++++########&&&&&&&&        %%%%%%%%%%%%%%%%%%%%%%%%%%%%%%%%        &&&&&&&&OOOOOOOOoooooooo################",
"################++++++++########&&&&&&&&        %%%%%%%%%%%%%%%%%%%%%%%%%%%%%%%%        &&&&&&&&OOOOOOOOoooooooo################",
"################++++++++########&&&&&&&&        %%%%%%%%%%%%%%%%%%%%%%%%%%%%%%%%        &&&&&&&&OOOOOOOOoooooooo################",
"################++++++++########&&&&&&&&        %%%%%%%%%%%%%%%%%%%%%%%%%%%%%%%%        &&&&&&&&OOOOOOOOoooooooo################",
"################++++++++########&&&&&&&&        %%%%%%%%%%%%%%%%%%%%%%%%%%%%%%%%        &&&&&&&&OOOOOOOOoooooooo################",
"########################&&&&&&&&        %%%%%%%%%%%%%%%%$$$$$$$$********%%%%%%%%%%%%%%%%........&&&&&&&&########################",
"########################&&&&&&&&        %%%%%%%%%%%%%%%%$$$$$$$$********%%%%%%%%%%%%%%%%........&&&&&&&&########################",
"########################&&&&&&&&        %%%%%%%%%%%%%%%%$$$$$$$$********%%%%%%%%%%%%%%%%........&&&&&&&&########################",
"########################&&&&&&&&        %%%%%%%%%%%%%%%%$$$$$$$$********%%%%%%%%%%%%%%%%........&&&&&&&&########################",
"########################&&&&&&&&        %%%%%%%%%%%%%%%%$$$$$$$$********%%%%%%%%%%%%%%%%........&&&&&&&&########################",
"########################&&&&&&&&        %%%%%%%%%%%%%%%%$$$$$$$$********%%%%%%%%%%%%%%%%........&&&&&&&&########################",
"########################&&&&&&&&        %%%%%%%%%%%%%%%%$$$$$$$$********%%%%%%%%%%%%%%%%........&&&&&&&&########################",
"########################&&&&&&&&        %%%%%%%%%%%%%%%%$$$$$$$$********%%%%%%%%%%%%%%%%........&&&&&&&&########################",
"################&&&&&&&&        %%%%%%%%%%%%%%%%********$$$$$$$$$$$$$$$$%%%%%%%%%%%%%%%%########........&&&&&&&&################",
"################&&&&&&&&        %%%%%%%%%%%%%%%%********$$$$$$$$$$$$$$$$%%%%%%%%%%%%%%%%########........&&&&&&&&################",
"################&&&&&&&&        %%%%%%%%%%%%%%%%********$$$$$$$$$$$$$$$$%%%%%%%%%%%%%%%%########........&&&&&&&&################",
"################&&&&&&&&        %%%%%%%%%%%%%%%%********$$$$$$$$$$$$$$$$%%%%%%%%%%%%%%%%########........&&&&&&&&################",
"################&&&&&&&&        %%%%%%%%%%%%%%%%********$$$$$$$$$$$$$$$$%%%%%%%%%%%%%%%%########........&&&&&&&&################",
"################&&&&&&&&        %%%%%%%%%%%%%%%%********$$$$$$$$$$$$$$$$%%%%%%%%%%%%%%%%########........&&&&&&&&################",
"################&&&&&&&&        %%%%%%%%%%%%%%%%********$$$$$$$$$$$$$$$$%%%%%%%%%%%%%%%%########........&&&&&&&&################",
"################&&&&&&&&        %%%%%%%%%%%%%%%%********$$$$$$$$$$$$$$$$%%%%%%%%%%%%%%%%########........&&&&&&&&################",
"################&&&&&&&&        %%%%%%%%************************%%%%%%%%%%%%%%%%%%%%%%%%########........&&&&&&&&################",
"################&&&&&&&&        %%%%%%%%************************%%%%%%%%%%%%%%%%%%%%%%%%########........&&&&&&&&################",
"################&&&&&&&&        %%%%%%%%************************%%%%%%%%%%%%%%%%%%%%%%%%########........&&&&&&&&################",
"################&&&&&&&&        %%%%%%%%************************%%%%%%%%%%%%%%%%%%%%%%%%########........&&&&&&&&################",
"################&&&&&&&&        %%%%%%%%************************%%%%%%%%%%%%%%%%%%%%%%%%########........&&&&&&&&################",
"################&&&&&&&&        %%%%%%%%************************%%%%%%%%%%%%%%%%%%%%%%%%########........&&&&&&&&################",
"################&&&&&&&&        %%%%%%%%************************%%%%%%%%%%%%%%%%%%%%%%%%########........&&&&&&&&################",
"################&&&&&&&&        %%%%%%%%************************%%%%%%%%%%%%%%%%%%%%%%%%########........&&&&&&&&################",
"########&&&&&&&&        %%%%%%%%%%%%%%%%$$$$$$$$********%%%%%%%%%%%%%%%%%%%%%%%%%%%%%%%%################........&&&&&&&&########",
"########&&&&&&&&        %%%%%%%%%%%%%%%%$$$$$$$$********%%%%%%%%%%%%%%%%%%%%%%%%%%%%%%%%################........&&&&&&&&########",
"########&&&&&&&&        %%%%%%%%%%%%%%%%$$$$$$$$********%%%%%%%%%%%%%%%%%%%%%%%%%%%%%%%%################........&&&&&&&&########",
"########&&&&&&&&        %%%%%%%%%%%%%%%%$$$$$$$$********%%%%%%%%%%%%%%%%%%%%%%%%%%%%%%%%################........&&&&&&&&########",
"########&&&&&&&&        %%%%%%%%%%%%%%%%$$$$$$$$********%%%%%%%%%%%%%%%%%%%%%%%%%%%%%%%%################........&&&&&&&&########",
"########&&&&&&&&        %%%%%%%%%%%%%%%%$$$$$$$$********%%%%%%%%%%%%%%%%%%%%%%%%%%%%%%%%################........&&&&&&&&########",
"########&&&&&&&&        %%%%%%%%%%%%%%%%$$$$$$$$********%%%%%%%%%%%%%%%%%%%%%%%%%%%%%%%%################........&&&&&&&&########",
"########&&&&&&&&        %%%%%%%%%%%%%%%%$$$$$$$$********%%%%%%%%%%%%%%%%%%%%%%%%%%%%%%%%################........&&&&&&&&########",
"########&&&&&&&&........%%%%%%%%%%%%%%%%%%%%%%%%%%%%%%%%%%%%%%%%%%%%%%%%%%%%%%%%########################........&&&&&&&&########",
"########&&&&&&&&........%%%%%%%%%%%%%%%%%%%%%%%%%%%%%%%%%%%%%%%%%%%%%%%%%%%%%%%%########################........&&&&&&&&########",
"########&&&&&&&&........%%%%%%%%%%%%%%%%%%%%%%%%%%%%%%%%%%%%%%%%%%%%%%%%%%%%%%%%########################........&&&&&&&&########",
"########&&&&&&&&........%%%%%%%%%%%%%%%%%%%%%%%%%%%%%%%%%%%%%%%%%%%%%%%%%%%%%%%%########################........&&&&&&&&########",
"########&&&&&&&&........%%%%%%%%%%%%%%%%%%%%%%%%%%%%%%%%%%%%%%%%%%%%%%%%%%%%%%%%########################........&&&&&&&&########",
"########&&&&&&&&........%%%%%%%%%%%%%%%%%%%%%%%%%%%%%%%%%%%%%%%%%%%%%%%%%%%%%%%%########################........&&&&&&&&########",
"########&&&&&&&&........%%%%%%%%%%%%%%%%%%%%%%%%%%%%%%%%%%%%%%%%%%%%%%%%%%%%%%%%########################........&&&&&&&&########",
"########&&&&&&&&........%%%%%%%%%%%%%%%%%%%%%%%%%%%%%%%%%%%%%%%%%%%%%%%%%%%%%%%%########################........&&&&&&&&########",
"########&&&&&&&&........%%%%%%%%%%%%%%%%%%%%%%%%%%%%%%%%%%%%%%%%%%%%%%%%%%%%%%%%########################........&&&&&&&&########",
"########&&&&&&&&........%%%%%%%%%%%%%%%%%%%%%%%%%%%%%%%%%%%%%%%%%%%%%%%%%%%%%%%%########################........&&&&&&&&########",
"########&&&&&&&&........%%%%%%%%%%%%%%%%%%%%%%%%%%%%%%%%%%%%%%%%%%%%%%%%%%%%%%%%########################........&&&&&&&&########",
"########&&&&&&&&........%%%%%%%%%%%%%%%%%%%%%%%%%%%%%%%%%%%%%%%%%%%%%%%%%%%%%%%%########################........&&&&&&&&########",
"########&&&&&&&&........%%%%%%%%%%%%%%%%%%%%%%%%%%%%%%%%%%%%%%%%%%%%%%%%%%%%%%%%########################........&&&&&&&&########",
"########&&&&&&&&........%%%%%%%%%%%%%%%%%%%%%%%%%%%%%%%%%%%%%%%%%%%%%%%%%%%%%%%%########################........&&&&&&&&########",
"########&&&&&&&&........%%%%%%%%%%%%%%%%%%%%%%%%%%%%%%%%%%%%%%%%%%%%%%%%%%%%%%%%########################........&&&&&&&&########",
"########&&&&&&&&........%%%%%%%%%%%%%%%%%%%%%%%%%%%%%%%%%%%%%%%%%%%%%%%%%%%%%%%%########################........&&&&&&&&########",
"########&&&&&&&&........%%%%%%%%%%%%%%%%%%%%%%%%%%%%%%%%%%%%%%%%%%%%%%%%################################........&&&&&&&&########",
"########&&&&&&&&........%%%%%%%%%%%%%%%%%%%%%%%%%%%%%%%%%%%%%%%%%%%%%%%%################################........&&&&&&&&########",
"########&&&&&&&&........%%%%%%%%%%%%%%%%%%%%%%%%%%%%%%%%%%%%%%%%%%%%%%%%################################........&&&&&&&&########",
"########&&&&&&&&........%%%%%%%%%%%%%%%%%%%%%%%%%%%%%%%%%%%%%%%%%%%%%%%%################################........&&&&&&&&########",
"########&&&&&&&&........%%%%%%%%%%%%%%%%%%%%%%%%%%%%%%%%%%%%%%%%%%%%%%%%################################........&&&&&&&&########",
"########&&&&&&&&........%%%%%%%%%%%%%%%%%%%%%%%%%%%%%%%%%%%%%%%%%%%%%%%%################################........&&&&&&&&########",
"########&&&&&&&&........%%%%%%%%%%%%%%%%%%%%%%%%%%%%%%%%%%%%%%%%%%%%%%%%################################........&&&&&&&&########",
"########&&&&&&&&........%%%%%%%%%%%%%%%%%%%%%%%%%%%%%%%%%%%%%%%%%%%%%%%%################################........&&&&&&&&########",
"########&&&&&&&&........%%%%%%%%%%%%%%%%%%%%%%%%%%%%%%%%%%%%%%%%########################################........&&&&&&&&########",
"########&&&&&&&&........%%%%%%%%%%%%%%%%%%%%%%%%%%%%%%%%%%%%%%%%########################################........&&&&&&&&########",
"########&&&&&&&&........%%%%%%%%%%%%%%%%%%%%%%%%%%%%%%%%%%%%%%%%########################################........&&&&&&&&########",
"########&&&&&&&&........%%%%%%%%%%%%%%%%%%%%%%%%%%%%%%%%%%%%%%%%########################################........&&&&&&&&########",
"########&&&&&&&&........%%%%%%%%%%%%%%%%%%%%%%%%%%%%%%%%%%%%%%%%########################################........&&&&&&&&########",
"########&&&&&&&&........%%%%%%%%%%%%%%%%%%%%%%%%%%%%%%%%%%%%%%%%########################################........&&&&&&&&########",
"########&&&&&&&&........%%%%%%%%%%%%%%%%%%%%%%%%%%%%%%%%%%%%%%%%########################################........&&&&&&&&########",
"########&&&&&&&&........%%%%%%%%%%%%%%%%%%%%%%%%%%%%%%%%%%%%%%%%########################################........&&&&&&&&########",
"################&&&&&&&&........%%%%%%%%%%%%%%%%%%%%%%%%########################################........&&&&&&&&################",
"################&&&&&&&&........%%%%%%%%%%%%%%%%%%%%%%%%########################################........&&&&&&&&################",
"################&&&&&&&&........%%%%%%%%%%%%%%%%%%%%%%%%########################################........&&&&&&&&################",
"################&&&&&&&&........%%%%%%%%%%%%%%%%%%%%%%%%########################################........&&&&&&&&################",
"################&&&&&&&&........%%%%%%%%%%%%%%%%%%%%%%%%########################################........&&&&&&&&################",
"################&&&&&&&&........%%%%%%%%%%%%%%%%%%%%%%%%########################################........&&&&&&&&################",
"################&&&&&&&&........%%%%%%%%%%%%%%%%%%%%%%%%########################################........&&&&&&&&################",
"################&&&&&&&&........%%%%%%%%%%%%%%%%%%%%%%%%########################################........&&&&&&&&################",
"################XXXXXXXX&&&&&&&&................................................................&&&&&&&&@@@@@@@@################",
"################XXXXXXXX&&&&&&&&................................................................&&&&&&&&@@@@@@@@################",
"################XXXXXXXX&&&&&&&&................................................................&&&&&&&&@@@@@@@@################",
"################XXXXXXXX&&&&&&&&................................................................&&&&&&&&@@@@@@@@################",
"################XXXXXXXX&&&&&&&&................................................................&&&&&&&&@@@@@@@@################",
"################XXXXXXXX&&&&&&&&................................................................&&&&&&&&@@@@@@@@################",
"################XXXXXXXX&&&&&&&&................................................................&&&&&&&&@@@@@@@@################",
"################XXXXXXXX&&&&&&&&................................................................&&&&&&&&@@@@@@@@################",
"########################XXXXXXXX&&&&&&&&&&&&&&&&&&&&&&&&&&&&&&&&&&&&&&&&&&&&&&&&&&&&&&&&&&&&&&&&@@@@@@@@########################",
"########################XXXXXXXX&&&&&&&&&&&&&&&&&&&&&&&&&&&&&&&&&&&&&&&&&&&&&&&&&&&&&&&&&&&&&&&&@@@@@@@@########################",
"########################XXXXXXXX&&&&&&&&&&&&&&&&&&&&&&&&&&&&&&&&&&&&&&&&&&&&&&&&&&&&&&&&&&&&&&&&@@@@@@@@########################",
"########################XXXXXXXX&&&&&&&&&&&&&&&&&&&&&&&&&&&&&&&&&&&&&&&&&&&&&&&&&&&&&&&&&&&&&&&&@@@@@@@@########################",
"########################XXXXXXXX&&&&&&&&&&&&&&&&&&&&&&&&&&&&&&&&&&&&&&&&&&&&&&&&&&&&&&&&&&&&&&&&@@@@@@@@########################",
"########################XXXXXXXX&&&&&&&&&&&&&&&&&&&&&&&&&&&&&&&&&&&&&&&&&&&&&&&&&&&&&&&&&&&&&&&&@@@@@@@@########################",
"########################XXXXXXXX&&&&&&&&&&&&&&&&&&&&&&&&&&&&&&&&&&&&&&&&&&&&&&&&&&&&&&&&&&&&&&&&@@@@@@@@########################",
"########################XXXXXXXX&&&&&&&&&&&&&&&&&&&&&&&&&&&&&&&&&&&&&&&&&&&&&&&&&&&&&&&&&&&&&&&&@@@@@@@@########################",
"################################@@@@@@@@@@@@@@@@@@@@@@@@@@@@@@@@@@@@@@@@@@@@@@@@@@@@@@@@@@@@@@@@########################++++++++",
"################################@@@@@@@@@@@@@@@@@@@@@@@@@@@@@@@@@@@@@@@@@@@@@@@@@@@@@@@@@@@@@@@@########################++++++++",
"################################@@@@@@@@@@@@@@@@@@@@@@@@@@@@@@@@@@@@@@@@@@@@@@@@@@@@@@@@@@@@@@@@########################++++++++",
"################################@@@@@@@@@@@@@@@@@@@@@@@@@@@@@@@@@@@@@@@@@@@@@@@@@@@@@@@@@@@@@@@@########################++++++++",
"################################@@@@@@@@@@@@@@@@@@@@@@@@@@@@@@@@@@@@@@@@@@@@@@@@@@@@@@@@@@@@@@@@########################++++++++",
"################################@@@@@@@@@@@@@@@@@@@@@@@@@@@@@@@@@@@@@@@@@@@@@@@@@@@@@@@@@@@@@@@@########################++++++++",
"################################@@@@@@@@@@@@@@@@@@@@@@@@@@@@@@@@@@@@@@@@@@@@@@@@@@@@@@@@@@@@@@@@########################++++++++",
"################################@@@@@@@@@@@@@@@@@@@@@@@@@@@@@@@@@@@@@@@@@@@@@@@@@@@@@@@@@@@@@@@@########################++++++++",
"################################################################################################################################",
"################################################################################################################################",
"################################################################################################################################",
"################################################################################################################################",
"################################################################################################################################",
"################################################################################################################################",
"################################################################################################################################",
"################################################################################################################################"
};
