/* XPM */
static char *exit_bg1705337380[] = {
/* columns rows colors chars-per-pixel */
"128 128 15 1 ",
"  c #90615D",
". c #90625D",
"X c #AA7959",
"o c #B59B5B",
"O c #B99B64",
"+ c #BFA562",
"@ c #A5BF65",
"# c #C9AF65",
"$ c #C8A072",
"% c #D5C36A",
"& c #EAE178",
"* c #DCB98A",
"= c #DCBC8C",
"- c #F1EF96",
"; c #ECCCA4",
/* pixels */
";;;;;;;;;;;;;;;;;;;;;;;;;;;;;;;;;;;;;;;;;;;;;;;;;;;;;;;;;;;;;;;;;;;;;;;;;;;;;;;;@@@@@@@@;;;;;;;;;;;;;;;;;;;;;;;;@@@@@@@@;;;;;;;;",
";;;;;;;;;;;;;;;;;;;;;;;;;;;;;;;;;;;;;;;;;;;;;;;;;;;;;;;;;;;;;;;;;;;;;;;;;;;;;;;;@@@@@@@@;;;;;;;;;;;;;;;;;;;;;;;;@@@@@@@@;;;;;;;;",
";;;;;;;;;;;;;;;;;;;;;;;;;;;;;;;;;;;;;;;;;;;;;;;;;;;;;;;;;;;;;;;;;;;;;;;;;;;;;;;;@@@@@@@@;;;;;;;;;;;;;;;;;;;;;;;;@@@@@@@@;;;;;;;;",
";;;;;;;;;;;;;;;;;;;;;;;;;;;;;;;;;;;;;;;;;;;;;;;;;;;;;;;;;;;;;;;;;;;;;;;;;;;;;;;;@@@@@@@@;;;;;;;;;;;;;;;;;;;;;;;;@@@@@@@@;;;;;;;;",
";;;;;;;;;;;;;;;;;;;;;;;;;;;;;;;;;;;;;;;;;;;;;;;;;;;;;;;;;;;;;;;;;;;;;;;;;;;;;;;;@@@@@@@@;;;;;;;;;;;;;;;;;;;;;;;;@@@@@@@@;;;;;;;;",
";;;;;;;;;;;;;;;;;;;;;;;;;;;;;;;;;;;;;;;;;;;;;;;;;;;;;;;;;;;;;;;;;;;;;;;;;;;;;;;;@@@@@@@@;;;;;;;;;;;;;;;;;;;;;;;;@@@@@@@@;;;;;;;;",
";;;;;;;;;;;;;;;;;;;;;;;;;;;;;;;;;;;;;;;;;;;;;;;;;;;;;;;;;;;;;;;;;;;;;;;;;;;;;;;;@@@@@@@@;;;;;;;;;;;;;;;;;;;;;;;;@@@@@@@@;;;;;;;;",
";;;;;;;;;;;;;;;;;;;;;;;;;;;;;;;;;;;;;;;;;;;;;;;;;;;;;;;;;;;;;;;;;;;;;;;;;;;;;;;;@@@@@@@@;;;;;;;;;;;;;;;;;;;;;;;;@@@@@@@@;;;;;;;;",
";;;;;;;;;;;;;;;;                ;;;;;;;;;;;;;;;;;;;;;;;;;;;;;;;;;;;;;;;;;;;;;;;;;;;;;;;;@@@@@@@@                @@@@@@@@;;;;;;;;",
";;;;;;;;;;;;;;;;                ;;;;;;;;;;;;;;;;;;;;;;;;;;;;;;;;;;;;;;;;;;;;;;;;;;;;;;;;@@@@@@@@                @@@@@@@@;;;;;;;;",
";;;;;;;;;;;;;;;;                ;;;;;;;;;;;;;;;;;;;;;;;;;;;;;;;;;;;;;;;;;;;;;;;;;;;;;;;;@@@@@@@@                @@@@@@@@;;;;;;;;",
";;;;;;;;;;;;;;;;                ;;;;;;;;;;;;;;;;;;;;;;;;;;;;;;;;;;;;;;;;;;;;;;;;;;;;;;;;@@@@@@@@                @@@@@@@@;;;;;;;;",
";;;;;;;;;;;;;;;;                ;;;;;;;;;;;;;;;;;;;;;;;;;;;;;;;;;;;;;;;;;;;;;;;;;;;;;;;;@@@@@@@@                @@@@@@@@;;;;;;;;",
";;;;;;;;;;;;;;;;                ;;;;;;;;;;;;;;;;;;;;;;;;;;;;;;;;;;;;;;;;;;;;;;;;;;;;;;;;@@@@@@@@                @@@@@@@@;;;;;;;;",
";;;;;;;;;;;;;;;;                ;;;;;;;;;;;;;;;;;;;;;;;;;;;;;;;;;;;;;;;;;;;;;;;;;;;;;;;;@@@@@@@@                @@@@@@@@;;;;;;;;",
";;;;;;;;;;;;;;;;                ;;;;;;;;;;;;;;;;;;;;;;;;;;;;;;;;;;;;;;;;;;;;;;;;;;;;;;;;@@@@@@@@                @@@@@@@@;;;;;;;;",
";;;;;;;;        OOOOOOOOOOOOOOOO                                                                OOOOOOOOOOOOOOOO        ;;;;;;;;",
";;;;;;;;        OOOOOOOOOOOOOOOO                                                                OOOOOOOOOOOOOOOO        ;;;;;;;;",
";;;;;;;;        OOOOOOOOOOOOOOOO                                                                OOOOOOOOOOOOOOOO        ;;;;;;;;",
";;;;;;;;        OOOOOOOOOOOOOOOO                                                                OOOOOOOOOOOOOOOO        ;;;;;;;;",
";;;;;;;;        OOOOOOOOOOOOOOOO                                                                OOOOOOOOOOOOOOOO        ;;;;;;;;",
";;;;;;;;        OOOOOOOOOOOOOOOO                                                                OOOOOOOOOOOOOOOO        ;;;;;;;;",
";;;;;;;;        OOOOOOOOOOOOOOOO                                                                OOOOOOOOOOOOOOOO        ;;;;;;;;",
";;;;;;;;        OOOOOOOOOOOOOOOO                                                                OOOOOOOOOOOOOOOO        ;;;;;;;;",
"        &&&&&&&&&&&&&&&&&&&&&&&&$$$$$$$$************************************************$$$$$$$$&&&&&&&&&&&&&&&&&&&&&&&&        ",
"        &&&&&&&&&&&&&&&&&&&&&&&&$$$$$$$$************************************************$$$$$$$$&&&&&&&&&&&&&&&&&&&&&&&&        ",
"        &&&&&&&&&&&&&&&&&&&&&&&&$$$$$$$$************************************************$$$$$$$$&&&&&&&&&&&&&&&&&&&&&&&&        ",
"        &&&&&&&&&&&&&&&&&&&&&&&&$$$$$$$$************************************************$$$$$$$$&&&&&&&&&&&&&&&&&&&&&&&&        ",
"        &&&&&&&&&&&&&&&&&&&&&&&&$$$$$$$$************************************************$$$$$$$$&&&&&&&&&&&&&&&&&&&&&&&&        ",
"        &&&&&&&&&&&&&&&&&&&&&&&&$$$$$$$$************************************************$$$$$$$$&&&&&&&&&&&&&&&&&&&&&&&&        ",
"        &&&&&&&&&&&&&&&&&&&&&&&&$$$$$$$$************************************************$$$$$$$$&&&&&&&&&&&&&&&&&&&&&&&&        ",
"        &&&&&&&&&&&&&&&&&&&&&&&&$$$$$$$$************************************************$$$$$$$$&&&&&&&&&&&&&&&&&&&&&&&&        ",
"        &&&&&&&&&&&&&&&&$$$$$$$$$$$$$$$$$$$$$$$$********************************$$$$$$$$$$$$$$$$$$$$$$$$&&&&&&&&&&&&&&&&        ",
"        &&&&&&&&&&&&&&&&$$$$$$$$$$$$$$$$$$$$$$$$********************************$$$$$$$$$$$$$$$$$$$$$$$$&&&&&&&&&&&&&&&&        ",
"        &&&&&&&&&&&&&&&&$$$$$$$$$$$$$$$$$$$$$$$$********************************$$$$$$$$$$$$$$$$$$$$$$$$&&&&&&&&&&&&&&&&        ",
"        &&&&&&&&&&&&&&&&$$$$$$$$$$$$$$$$$$$$$$$$********************************$$$$$$$$$$$$$$$$$$$$$$$$&&&&&&&&&&&&&&&&        ",
"        &&&&&&&&&&&&&&&&$$$$$$$$$$$$$$$$$$$$$$$$********************************$$$$$$$$$$$$$$$$$$$$$$$$&&&&&&&&&&&&&&&&        ",
"        &&&&&&&&&&&&&&&&$$$$$$$$$$$$$$$$$$$$$$$$********************************$$$$$$$$$$$$$$$$$$$$$$$$&&&&&&&&&&&&&&&&        ",
"        &&&&&&&&&&&&&&&&$$$$$$$$$$$$$$$$$$$$$$$$********************************$$$$$$$$$$$$$$$$$$$$$$$$&&&&&&&&&&&&&&&&        ",
"        &&&&&&&&&&&&&&&&$$$$$$$$$$$$$$$$$$$$$$$$********************************$$$$$$$$$$$$$$$$$$$$$$$$&&&&&&&&&&&&&&&&        ",
"        &&&&&&&&&&&&&&&&$$$$$$$$$$$$$$$$$$$$$$$$$$$$$$$$$$$$$$$$$$$$$$$$$$$$$$$$$$$$$$$$$$$$$$$$$$$$$$$$&&&&&&&&&&&&&&&&        ",
"        &&&&&&&&&&&&&&&&$$$$$$$$$$$$$$$$$$$$$$$$$$$$$$$$$$$$$$$$$$$$$$$$$$$$$$$$$$$$$$$$$$$$$$$$$$$$$$$$&&&&&&&&&&&&&&&&        ",
"        &&&&&&&&&&&&&&&&$$$$$$$$$$$$$$$$$$$$$$$$$$$$$$$$$$$$$$$$$$$$$$$$$$$$$$$$$$$$$$$$$$$$$$$$$$$$$$$$&&&&&&&&&&&&&&&&        ",
"        &&&&&&&&&&&&&&&&$$$$$$$$$$$$$$$$$$$$$$$$$$$$$$$$$$$$$$$$$$$$$$$$$$$$$$$$$$$$$$$$$$$$$$$$$$$$$$$$&&&&&&&&&&&&&&&&        ",
"        &&&&&&&&&&&&&&&&$$$$$$$$$$$$$$$$$$$$$$$$$$$$$$$$$$$$$$$$$$$$$$$$$$$$$$$$$$$$$$$$$$$$$$$$$$$$$$$$&&&&&&&&&&&&&&&&        ",
"        &&&&&&&&&&&&&&&&$$$$$$$$$$$$$$$$$$$$$$$$$$$$$$$$$$$$$$$$$$$$$$$$$$$$$$$$$$$$$$$$$$$$$$$$$$$$$$$$&&&&&&&&&&&&&&&&        ",
"        &&&&&&&&&&&&&&&&$$$$$$$$$$$$$$$$$$$$$$$$$$$$$$$$$$$$$$$$$$$$$$$$$$$$$$$$$$$$$$$$$$$$$$$$$$$$$$$$&&&&&&&&&&&&&&&&        ",
"        &&&&&&&&&&&&&&&&$$$$$$$$$$$$$$$$$$$$$$$$$$$$$$$$$$$$$$$$$$$$$$$$$$$$$$$$$$$$$$$$$$$$$$$$$$$$$$$$&&&&&&&&&&&&&&&&        ",
"        &&&&&&&&&&&&&&&&$$$$$$$$$$$$$$$$$$$$$$$$$$$$$$$$$$$$$$$$$$$$$$$$$$$$$$$$$$$$$$$$$$$$$$$$$$$$$$$$&&&&&&&&&&&&&&&&        ",
"        &&&&&&&&&&&&&&&&$$$$$$$$$$$$$$$$$$$$$$$$$$$$$$$$$$$$$$$$$$$$$$$$$$$$$$$$$$$$$$$$$$$$$$$$$$$$$$$$&&&&&&&&&&&&&&&&        ",
"        &&&&&&&&&&&&&&&&$$$$$$$$$$$$$$$$$$$$$$$$$$$$$$$$$$$$$$$$$$$$$$$$$$$$$$$$$$$$$$$$$$$$$$$$$$$$$$$$&&&&&&&&&&&&&&&&        ",
"        &&&&&&&&&&&&&&&&$$$$$$$$$$$$$$$$$$$$$$$$$$$$$$$$$$$$$$$$$$$$$$$$$$$$$$$$$$$$$$$$$$$$$$$$$$$$$$$$&&&&&&&&&&&&&&&&        ",
"        &&&&&&&&&&&&&&&&$$$$$$$$$$$$$$$$$$$$$$$$$$$$$$$$$$$$$$$$$$$$$$$$$$$$$$$$$$$$$$$$$$$$$$$$$$$$$$$$&&&&&&&&&&&&&&&&        ",
"        &&&&&&&&&&&&&&&&$$$$$$$$$$$$$$$$$$$$$$$$$$$$$$$$$$$$$$$$$$$$$$$$$$$$$$$$$$$$$$$$$$$$$$$$$$$$$$$$&&&&&&&&&&&&&&&&        ",
"        &&&&&&&&&&&&&&&&$$$$$$$$$$$$$$$$$$$$$$$$$$$$$$$$$$$$$$$$$$$$$$$$$$$$$$$$$$$$$$$$$$$$$$$$$$$$$$$$&&&&&&&&&&&&&&&&        ",
"        &&&&&&&&&&&&&&&&$$$$$$$$$$$$$$$$$$$$$$$$$$$$$$$$$$$$$$$$$$$$$$$$$$$$$$$$$$$$$$$$$$$$$$$$$$$$$$$$&&&&&&&&&&&&&&&&        ",
"        --------&&&&&&&&&&&&&&&&&&&&&&&&&&&&&&&&&&&&&&&&&&&&&&&&&&&&&&&&&&&&&&&&&&&&&&&&&&&&&&&&&&&&&&&&&&&&&&&&--------        ",
"        --------&&&&&&&&&&&&&&&&&&&&&&&&&&&&&&&&&&&&&&&&&&&&&&&&&&&&&&&&&&&&&&&&&&&&&&&&&&&&&&&&&&&&&&&&&&&&&&&&--------        ",
"        --------&&&&&&&&&&&&&&&&&&&&&&&&&&&&&&&&&&&&&&&&&&&&&&&&&&&&&&&&&&&&&&&&&&&&&&&&&&&&&&&&&&&&&&&&&&&&&&&&--------        ",
"        --------&&&&&&&&&&&&&&&&&&&&&&&&&&&&&&&&&&&&&&&&&&&&&&&&&&&&&&&&&&&&&&&&&&&&&&&&&&&&&&&&&&&&&&&&&&&&&&&&--------        ",
"        --------&&&&&&&&&&&&&&&&&&&&&&&&&&&&&&&&&&&&&&&&&&&&&&&&&&&&&&&&&&&&&&&&&&&&&&&&&&&&&&&&&&&&&&&&&&&&&&&&--------        ",
"        --------&&&&&&&&&&&&&&&&&&&&&&&&&&&&&&&&&&&&&&&&&&&&&&&&&&&&&&&&&&&&&&&&&&&&&&&&&&&&&&&&&&&&&&&&&&&&&&&&--------        ",
"        --------&&&&&&&&&&&&&&&&&&&&&&&&&&&&&&&&&&&&&&&&&&&&&&&&&&&&&&&&&&&&&&&&&&&&&&&&&&&&&&&&&&&&&&&&&&&&&&&&--------        ",
"        --------&&&&&&&&&&&&&&&&&&&&&&&&&&&&&&&&&&&&&&&&&&&&&&&&&&&&&&&&&&&&&&&&&&&&&&&&&&&&&&&&&&&&&&&&&&&&&&&&--------        ",
"        oooooooo------------------------------------------------------------------------------------------------oooooooo        ",
"        oooooooo------------------------------------------------------------------------------------------------oooooooo        ",
"        oooooooo------------------------------------------------------------------------------------------------oooooooo        ",
"        oooooooo------------------------------------------------------------------------------------------------oooooooo        ",
"        oooooooo------------------------------------------------------------------------------------------------oooooooo        ",
"        oooooooo------------------------------------------------------------------------------------------------oooooooo        ",
"        oooooooo------------------------------------------------------------------------------------------------oooooooo        ",
"        oooooooo------------------------------------------------------------------------------------------------oooooooo        ",
"        ++++++++oooooooo................................&&&&&&&&%%%%%%%%  ..............................oooooooo++++++++        ",
"        ++++++++oooooooo................................&&&&&&&&%%%%%%%%  ..............................oooooooo++++++++        ",
"        ++++++++oooooooo................................&&&&&&&&%%%%%%%% ...............................oooooooo++++++++        ",
"        ++++++++oooooooo................................&&&&&&&&%%%%%%%% ...............................oooooooo++++++++        ",
"        ++++++++oooooooo................................&&&&&&&&%%%%%%%%................................oooooooo++++++++        ",
"        ++++++++oooooooo................................&&&&&&&&%%%%%%%%................................oooooooo++++++++        ",
"        ++++++++oooooooo................................&&&&&&&&%%%%%%%%................................oooooooo++++++++        ",
"        ++++++++oooooooo................................&&&&&&&&%%%%%%%%................................oooooooo++++++++        ",
"        ++++++++++++++++XXXXXXXXXXXXXXXXXXXXXXXXXXXXXXXX%%%%%%%%%%%%%%%%XXXXXXXXXXXXXXXXXXXXXXXXXXXXXXXX++++++++++++++++        ",
"        ++++++++++++++++XXXXXXXXXXXXXXXXXXXXXXXXXXXXXXXX%%%%%%%%%%%%%%%%XXXXXXXXXXXXXXXXXXXXXXXXXXXXXXXX++++++++++++++++        ",
"        ++++++++++++++++XXXXXXXXXXXXXXXXXXXXXXXXXXXXXXXX%%%%%%%%%%%%%%%%XXXXXXXXXXXXXXXXXXXXXXXXXXXXXXXX++++++++++++++++        ",
"        ++++++++++++++++XXXXXXXXXXXXXXXXXXXXXXXXXXXXXXXX%%%%%%%%%%%%%%%%XXXXXXXXXXXXXXXXXXXXXXXXXXXXXXXX++++++++++++++++        ",
"        ++++++++++++++++XXXXXXXXXXXXXXXXXXXXXXXXXXXXXXXX%%%%%%%%%%%%%%%%XXXXXXXXXXXXXXXXXXXXXXXXXXXXXXXX++++++++++++++++        ",
"        ++++++++++++++++XXXXXXXXXXXXXXXXXXXXXXXXXXXXXXXX%%%%%%%%%%%%%%%%XXXXXXXXXXXXXXXXXXXXXXXXXXXXXXXX++++++++++++++++        ",
"        ++++++++++++++++XXXXXXXXXXXXXXXXXXXXXXXXXXXXXXXX%%%%%%%%%%%%%%%%XXXXXXXXXXXXXXXXXXXXXXXXXXXXXXXX++++++++++++++++        ",
"        ++++++++++++++++XXXXXXXXXXXXXXXXXXXXXXXXXXXXXXXX%%%%%%%%%%%%%%%%XXXXXXXXXXXXXXXXXXXXXXXXXXXXXXXX++++++++++++++++        ",
"        ########++++++++XXXXXXXXXXXXXXXXXXXXXXXXXXXXXXXXXXXXXXXXXXXXXXXXXXXXXXXXXXXXXXXXXXXXXXXXXXXXXXXX++++++++########        ",
"        ########++++++++XXXXXXXXXXXXXXXXXXXXXXXXXXXXXXXXXXXXXXXXXXXXXXXXXXXXXXXXXXXXXXXXXXXXXXXXXXXXXXXX++++++++########        ",
"        ########++++++++XXXXXXXXXXXXXXXXXXXXXXXXXXXXXXXXXXXXXXXXXXXXXXXXXXXXXXXXXXXXXXXXXXXXXXXXXXXXXXXX++++++++########        ",
"        ########++++++++XXXXXXXXXXXXXXXXXXXXXXXXXXXXXXXXXXXXXXXXXXXXXXXXXXXXXXXXXXXXXXXXXXXXXXXXXXXXXXXX++++++++########        ",
"        ########++++++++XXXXXXXXXXXXXXXXXXXXXXXXXXXXXXXXXXXXXXXXXXXXXXXXXXXXXXXXXXXXXXXXXXXXXXXXXXXXXXXX++++++++########        ",
"        ########++++++++XXXXXXXXXXXXXXXXXXXXXXXXXXXXXXXXXXXXXXXXXXXXXXXXXXXXXXXXXXXXXXXXXXXXXXXXXXXXXXXX++++++++########        ",
"        ########++++++++XXXXXXXXXXXXXXXXXXXXXXXXXXXXXXXXXXXXXXXXXXXXXXXXXXXXXXXXXXXXXXXXXXXXXXXXXXXXXXXX++++++++########        ",
"        ########++++++++XXXXXXXXXXXXXXXXXXXXXXXXXXXXXXXXXXXXXXXXXXXXXXXXXXXXXXXXXXXXXXXXXXXXXXXXXXXXXXXX++++++++########        ",
"        ################XXXXXXXXXXXXXXXXXXXXXXXXXXXXXXXXXXXXXXXXXXXXXXXXXXXXXXXXXXXXXXXXXXXXXXXXXXXXXXXX################        ",
"        ################XXXXXXXXXXXXXXXXXXXXXXXXXXXXXXXXXXXXXXXXXXXXXXXXXXXXXXXXXXXXXXXXXXXXXXXXXXXXXXXX################        ",
"        ################XXXXXXXXXXXXXXXXXXXXXXXXXXXXXXXXXXXXXXXXXXXXXXXXXXXXXXXXXXXXXXXXXXXXXXXXXXXXXXXX################        ",
"        ################XXXXXXXXXXXXXXXXXXXXXXXXXXXXXXXXXXXXXXXXXXXXXXXXXXXXXXXXXXXXXXXXXXXXXXXXXXXXXXXX################        ",
"        ################XXXXXXXXXXXXXXXXXXXXXXXXXXXXXXXXXXXXXXXXXXXXXXXXXXXXXXXXXXXXXXXXXXXXXXXXXXXXXXXX################        ",
"        ################XXXXXXXXXXXXXXXXXXXXXXXXXXXXXXXXXXXXXXXXXXXXXXXXXXXXXXXXXXXXXXXXXXXXXXXXXXXXXXXX################        ",
"        ################XXXXXXXXXXXXXXXXXXXXXXXXXXXXXXXXXXXXXXXXXXXXXXXXXXXXXXXXXXXXXXXXXXXXXXXXXXXXXXXX################        ",
"        ################XXXXXXXXXXXXXXXXXXXXXXXXXXXXXXXXXXXXXXXXXXXXXXXXXXXXXXXXXXXXXXXXXXXXXXXXXXXXXXXX################        ",
";;;;;;;;        ################################################################################################        ;;;;;;;;",
";;;;;;;;        ################################################################################################        ;;;;;;;;",
";;;;;;;;        ################################################################################################        ;;;;;;;;",
";;;;;;;;        ################################################################################################        ;;;;;;;;",
";;;;;;;;        ################################################################################################        ;;;;;;;;",
";;;;;;;;        ################################################################################################        ;;;;;;;;",
";;;;;;;;        ################################################################################################        ;;;;;;;;",
";;;;;;;;        ################################################################################################        ;;;;;;;;",
";;;;;;;;;;;;;;;;                                                                                                ;;;;;;;;========",
";;;;;;;;;;;;;;;;                                                                                                ;;;;;;;;========",
";;;;;;;;;;;;;;;;                                                                                                ;;;;;;;;========",
";;;;;;;;;;;;;;;;                                                                                                ;;;;;;;;========",
";;;;;;;;;;;;;;;;                                                                                                ;;;;;;;;========",
";;;;;;;;;;;;;;;;                                                                                                ;;;;;;;;========",
";;;;;;;;;;;;;;;;                                                                                                ;;;;;;;;========",
";;;;;;;;;;;;;;;;                                                                                                ;;;;;;;;========",
";;;;;;;;;;;;;;;;;;;;;;;;;;;;;;;;;;;;;;;;;;;;;;;;;;;;;;;;;;;;;;;;;;;;;;;;;;;;;;;;;;;;;;;;;;;;;;;;;;;;;;;;;;;;;;;;;;;;;;;;;;;;;;;;",
";;;;;;;;;;;;;;;;;;;;;;;;;;;;;;;;;;;;;;;;;;;;;;;;;;;;;;;;;;;;;;;;;;;;;;;;;;;;;;;;;;;;;;;;;;;;;;;;;;;;;;;;;;;;;;;;;;;;;;;;;;;;;;;;",
";;;;;;;;;;;;;;;;;;;;;;;;;;;;;;;;;;;;;;;;;;;;;;;;;;;;;;;;;;;;;;;;;;;;;;;;;;;;;;;;;;;;;;;;;;;;;;;;;;;;;;;;;;;;;;;;;;;;;;;;;;;;;;;;",
";;;;;;;;;;;;;;;;;;;;;;;;;;;;;;;;;;;;;;;;;;;;;;;;;;;;;;;;;;;;;;;;;;;;;;;;;;;;;;;;;;;;;;;;;;;;;;;;;;;;;;;;;;;;;;;;;;;;;;;;;;;;;;;;",
";;;;;;;;;;;;;;;;;;;;;;;;;;;;;;;;;;;;;;;;;;;;;;;;;;;;;;;;;;;;;;;;;;;;;;;;;;;;;;;;;;;;;;;;;;;;;;;;;;;;;;;;;;;;;;;;;;;;;;;;;;;;;;;;",
";;;;;;;;;;;;;;;;;;;;;;;;;;;;;;;;;;;;;;;;;;;;;;;;;;;;;;;;;;;;;;;;;;;;;;;;;;;;;;;;;;;;;;;;;;;;;;;;;;;;;;;;;;;;;;;;;;;;;;;;;;;;;;;;",
";;;;;;;;;;;;;;;;;;;;;;;;;;;;;;;;;;;;;;;;;;;;;;;;;;;;;;;;;;;;;;;;;;;;;;;;;;;;;;;;;;;;;;;;;;;;;;;;;;;;;;;;;;;;;;;;;;;;;;;;;;;;;;;;",
";;;;;;;;;;;;;;;;;;;;;;;;;;;;;;;;;;;;;;;;;;;;;;;;;;;;;;;;;;;;;;;;;;;;;;;;;;;;;;;;;;;;;;;;;;;;;;;;;;;;;;;;;;;;;;;;;;;;;;;;;;;;;;;;"
};
