/* XPM */
static char *exit_o1704735442[] = {
/* columns rows colors chars-per-pixel */
"128 128 12 1 ",
"  c None",
". c #704846",
"X c #90615D",
"o c #90625D",
"O c #AA7959",
"+ c #9F8349",
"@ c #B59B5B",
"# c #BFA562",
"$ c #C9AF65",
"% c #D4C46C",
"& c #EAE178",
"* c #F1EF96",
/* pixels */
"                                                                                                                                ",
"                                                                                                                                ",
"                                                                                                                                ",
"                                                                                                                                ",
"                                                                                                                                ",
"                                                                                                                                ",
"                                                                                                                                ",
"                                                                                                                                ",
"                XXXXXXXXXXXXXXXX                                                                XXXXXXXXXXXXXXXX                ",
"                XXXXXXXXXXXXXXXX                                                                XXXXXXXXXXXXXXXX                ",
"                XXXXXXXXXXXXXXXX                                                                XXXXXXXXXXXXXXXX                ",
"                XXXXXXXXXXXXXXXX                                                                XXXXXXXXXXXXXXXX                ",
"                XXXXXXXXXXXXXXXX                                                                XXXXXXXXXXXXXXXX                ",
"                XXXXXXXXXXXXXXXX                                                                XXXXXXXXXXXXXXXX                ",
"                XXXXXXXXXXXXXXXX                                                                XXXXXXXXXXXXXXXX                ",
"                XXXXXXXXXXXXXXXX                                                                XXXXXXXXXXXXXXXX                ",
"        XXXXXXXX%%%%%%%%%%%%%%%%XXXXXXXXXXXXXXXXXXXXXXXXXXXXXXXXXXXXXXXXXXXXXXXXXXXXXXXXXXXXXXXX%%%%%%%%%%%%%%%%XXXXXXXX        ",
"        XXXXXXXX%%%%%%%%%%%%%%%%XXXXXXXXXXXXXXXXXXXXXXXXXXXXXXXXXXXXXXXXXXXXXXXXXXXXXXXXXXXXXXXX%%%%%%%%%%%%%%%%XXXXXXXX        ",
"        XXXXXXXX%%%%%%%%%%%%%%%%XXXXXXXXXXXXXXXXXXXXXXXXXXXXXXXXXXXXXXXXXXXXXXXXXXXXXXXXXXXXXXXX%%%%%%%%%%%%%%%%XXXXXXXX        ",
"        XXXXXXXX%%%%%%%%%%%%%%%%XXXXXXXXXXXXXXXXXXXXXXXXXXXXXXXXXXXXXXXXXXXXXXXXXXXXXXXXXXXXXXXX%%%%%%%%%%%%%%%%XXXXXXXX        ",
"        XXXXXXXX%%%%%%%%%%%%%%%%XXXXXXXXXXXXXXXXXXXXXXXXXXXXXXXXXXXXXXXXXXXXXXXXXXXXXXXXXXXXXXXX%%%%%%%%%%%%%%%%XXXXXXXX        ",
"        XXXXXXXX%%%%%%%%%%%%%%%%XXXXXXXXXXXXXXXXXXXXXXXXXXXXXXXXXXXXXXXXXXXXXXXXXXXXXXXXXXXXXXXX%%%%%%%%%%%%%%%%XXXXXXXX        ",
"        XXXXXXXX%%%%%%%%%%%%%%%%XXXXXXXXXXXXXXXXXXXXXXXXXXXXXXXXXXXXXXXXXXXXXXXXXXXXXXXXXXXXXXXX%%%%%%%%%%%%%%%%XXXXXXXX        ",
"        XXXXXXXX%%%%%%%%%%%%%%%%XXXXXXXXXXXXXXXXXXXXXXXXXXXXXXXXXXXXXXXXXXXXXXXXXXXXXXXXXXXXXXXX%%%%%%%%%%%%%%%%XXXXXXXX        ",
"XXXXXXXX********&&&&&&&&&&&&&&&&&&&&&&&&&&&&&&&&&&&&&&&&&&&&&&&&&&&&&&&&&&&&&&&&&&&&&&&&&&&&&&&&&&&&&&&&&&&&&&&&&&&&&&&&XXXXXXXX",
"XXXXXXXX********&&&&&&&&&&&&&&&&&&&&&&&&&&&&&&&&&&&&&&&&&&&&&&&&&&&&&&&&&&&&&&&&&&&&&&&&&&&&&&&&&&&&&&&&&&&&&&&&&&&&&&&&XXXXXXXX",
"XXXXXXXX********&&&&&&&&&&&&&&&&&&&&&&&&&&&&&&&&&&&&&&&&&&&&&&&&&&&&&&&&&&&&&&&&&&&&&&&&&&&&&&&&&&&&&&&&&&&&&&&&&&&&&&&&XXXXXXXX",
"XXXXXXXX********&&&&&&&&&&&&&&&&&&&&&&&&&&&&&&&&&&&&&&&&&&&&&&&&&&&&&&&&&&&&&&&&&&&&&&&&&&&&&&&&&&&&&&&&&&&&&&&&&&&&&&&&XXXXXXXX",
"XXXXXXXX********&&&&&&&&&&&&&&&&&&&&&&&&&&&&&&&&&&&&&&&&&&&&&&&&&&&&&&&&&&&&&&&&&&&&&&&&&&&&&&&&&&&&&&&&&&&&&&&&&&&&&&&&XXXXXXXX",
"XXXXXXXX********&&&&&&&&&&&&&&&&&&&&&&&&&&&&&&&&&&&&&&&&&&&&&&&&&&&&&&&&&&&&&&&&&&&&&&&&&&&&&&&&&&&&&&&&&&&&&&&&&&&&&&&&XXXXXXXX",
"XXXXXXXX********&&&&&&&&&&&&&&&&&&&&&&&&&&&&&&&&&&&&&&&&&&&&&&&&&&&&&&&&&&&&&&&&&&&&&&&&&&&&&&&&&&&&&&&&&&&&&&&&&&&&&&&&XXXXXXXX",
"XXXXXXXX********&&&&&&&&&&&&&&&&&&&&&&&&&&&&&&&&&&&&&&&&&&&&&&&&&&&&&&&&&&&&&&&&&&&&&&&&&&&&&&&&&&&&&&&&&&&&&&&&&&&&&&&&XXXXXXXX",
"XXXXXXXX++++++++****************&&&&&&&&&&&&&&&&&&&&&&&&&&&&&&&&%%%%%%%%&&&&&&&&&&&&&&&&&&&&&&&&&&&&&&&&&&&&&&&&++++++++XXXXXXXX",
"XXXXXXXX++++++++****************&&&&&&&&&&&&&&&&&&&&&&&&&&&&&&&&%%%%%%%%&&&&&&&&&&&&&&&&&&&&&&&&&&&&&&&&&&&&&&&&++++++++XXXXXXXX",
"XXXXXXXX++++++++****************&&&&&&&&&&&&&&&&&&&&&&&&&&&&&&&&%%%%%%%%&&&&&&&&&&&&&&&&&&&&&&&&&&&&&&&&&&&&&&&&++++++++XXXXXXXX",
"XXXXXXXX++++++++****************&&&&&&&&&&&&&&&&&&&&&&&&&&&&&&&&%%%%%%%%&&&&&&&&&&&&&&&&&&&&&&&&&&&&&&&&&&&&&&&&++++++++XXXXXXXX",
"XXXXXXXX++++++++****************&&&&&&&&&&&&&&&&&&&&&&&&&&&&&&&&%%%%%%%%&&&&&&&&&&&&&&&&&&&&&&&&&&&&&&&&&&&&&&&&++++++++XXXXXXXX",
"XXXXXXXX++++++++****************&&&&&&&&&&&&&&&&&&&&&&&&&&&&&&&&%%%%%%%%&&&&&&&&&&&&&&&&&&&&&&&&&&&&&&&&&&&&&&&&++++++++XXXXXXXX",
"XXXXXXXX++++++++****************&&&&&&&&&&&&&&&&&&&&&&&&&&&&&&&&%%%%%%%%&&&&&&&&&&&&&&&&&&&&&&&&&&&&&&&&&&&&&&&&++++++++XXXXXXXX",
"XXXXXXXX++++++++****************&&&&&&&&&&&&&&&&&&&&&&&&&&&&&&&&%%%%%%%%&&&&&&&&&&&&&&&&&&&&&&&&&&&&&&&&&&&&&&&&++++++++XXXXXXXX",
"XXXXXXXX++++++++........................................%%%%%%%%%%%%%%%%........................................++++++++XXXXXXXX",
"XXXXXXXX++++++++........................................%%%%%%%%%%%%%%%%........................................++++++++XXXXXXXX",
"XXXXXXXX++++++++........................................%%%%%%%%%%%%%%%%........................................++++++++XXXXXXXX",
"XXXXXXXX++++++++........................................%%%%%%%%%%%%%%%%........................................++++++++XXXXXXXX",
"XXXXXXXX++++++++........................................%%%%%%%%%%%%%%%%........................................++++++++XXXXXXXX",
"XXXXXXXX++++++++........................................%%%%%%%%%%%%%%%%........................................++++++++XXXXXXXX",
"XXXXXXXX++++++++........................................%%%%%%%%%%%%%%%%........................................++++++++XXXXXXXX",
"XXXXXXXX++++++++........................................%%%%%%%%%%%%%%%%........................................++++++++XXXXXXXX",
"XXXXXXXX++++++++................................................................................................++++++++XXXXXXXX",
"XXXXXXXX++++++++................................................................................................++++++++XXXXXXXX",
"XXXXXXXX++++++++................................................................................................++++++++XXXXXXXX",
"XXXXXXXX++++++++................................................................................................++++++++XXXXXXXX",
"XXXXXXXX++++++++................................................................................................++++++++XXXXXXXX",
"XXXXXXXX++++++++................................................................................................++++++++XXXXXXXX",
"XXXXXXXX++++++++................................................................................................++++++++XXXXXXXX",
"XXXXXXXX++++++++................................................................................................++++++++XXXXXXXX",
"XXXXXXXX++++++++++++++++................................................................................++++++++++++++++XXXXXXXX",
"XXXXXXXX++++++++++++++++................................................................................++++++++++++++++XXXXXXXX",
"XXXXXXXX++++++++++++++++................................................................................++++++++++++++++XXXXXXXX",
"XXXXXXXX++++++++++++++++................................................................................++++++++++++++++XXXXXXXX",
"XXXXXXXX++++++++++++++++................................................................................++++++++++++++++XXXXXXXX",
"XXXXXXXX++++++++++++++++................................................................................++++++++++++++++XXXXXXXX",
"XXXXXXXX++++++++++++++++................................................................................++++++++++++++++XXXXXXXX",
"XXXXXXXX++++++++++++++++................................................................................++++++++++++++++XXXXXXXX",
"XXXXXXXX@@@@@@@@++++++++++++++++++++++++++++++++++++++++++++++++++++++++++++++++++++++++++++++++++++++++++++++++@@@@@@@@XXXXXXXX",
"XXXXXXXX@@@@@@@@++++++++++++++++++++++++++++++++++++++++++++++++++++++++++++++++++++++++++++++++++++++++++++++++@@@@@@@@XXXXXXXX",
"XXXXXXXX@@@@@@@@++++++++++++++++++++++++++++++++++++++++++++++++++++++++++++++++++++++++++++++++++++++++++++++++@@@@@@@@XXXXXXXX",
"XXXXXXXX@@@@@@@@++++++++++++++++++++++++++++++++++++++++++++++++++++++++++++++++++++++++++++++++++++++++++++++++@@@@@@@@XXXXXXXX",
"XXXXXXXX@@@@@@@@++++++++++++++++++++++++++++++++++++++++++++++++++++++++++++++++++++++++++++++++++++++++++++++++@@@@@@@@XXXXXXXX",
"XXXXXXXX@@@@@@@@++++++++++++++++++++++++++++++++++++++++++++++++++++++++++++++++++++++++++++++++++++++++++++++++@@@@@@@@XXXXXXXX",
"XXXXXXXX@@@@@@@@++++++++++++++++++++++++++++++++++++++++++++++++++++++++++++++++++++++++++++++++++++++++++++++++@@@@@@@@XXXXXXXX",
"XXXXXXXX@@@@@@@@++++++++++++++++++++++++++++++++++++++++++++++++++++++++++++++++++++++++++++++++++++++++++++++++@@@@@@@@XXXXXXXX",
"XXXXXXXX########@@@@@@@@ooooooooooooooooooooooooooooooooooooooooooooooooXXoooooooooooooooooooooooooooooo@@@@@@@@########XXXXXXXX",
"XXXXXXXX########@@@@@@@@oooooooooooooooooooooooooooooooooooooooooooooooooXoooooooooooooooooooooooooooooo@@@@@@@@########XXXXXXXX",
"XXXXXXXX########@@@@@@@@oooooooooooooooooooooooooooooooooooooooooooooooooooooooooooooooooooooooooooooooo@@@@@@@@########XXXXXXXX",
"XXXXXXXX########@@@@@@@@oooooooooooooooooooooooooooooooooooooooooooooooooooooooooooooooooooooooooooooooo@@@@@@@@########XXXXXXXX",
"XXXXXXXX########@@@@@@@@oooooooooooooooooooooooooooooooooooooooooooooooooooooooooooooooooooooooooooooooo@@@@@@@@########XXXXXXXX",
"XXXXXXXX########@@@@@@@@oooooooooooooooooooooooooooooooooooooooooooooooooooooooooooooooooooooooooooooooo@@@@@@@@########XXXXXXXX",
"XXXXXXXX########@@@@@@@@oooooooooooooooooooooooooooooooooooooooooooooooooooooooooooooooooooooooooooooooo@@@@@@@@########XXXXXXXX",
"XXXXXXXX########@@@@@@@@oooooooooooooooooooooooooooooooooooooooooooooooooooooooooooooooooooooooooooooooo@@@@@@@@########XXXXXXXX",
"XXXXXXXX################OOOOOOOOOOOOOOOOOOOOOOOOOOOOOOOOOOOOOOOOOOOOOOOOOOOOOOOOOOOOOOOOOOOOOOOOOOOOOOOO################XXXXXXXX",
"XXXXXXXX################OOOOOOOOOOOOOOOOOOOOOOOOOOOOOOOOOOOOOOOOOOOOOOOOOOOOOOOOOOOOOOOOOOOOOOOOOOOOOOOO################XXXXXXXX",
"XXXXXXXX################OOOOOOOOOOOOOOOOOOOOOOOOOOOOOOOOOOOOOOOOOOOOOOOOOOOOOOOOOOOOOOOOOOOOOOOOOOOOOOOO################XXXXXXXX",
"XXXXXXXX################OOOOOOOOOOOOOOOOOOOOOOOOOOOOOOOOOOOOOOOOOOOOOOOOOOOOOOOOOOOOOOOOOOOOOOOOOOOOOOOO################XXXXXXXX",
"XXXXXXXX################OOOOOOOOOOOOOOOOOOOOOOOOOOOOOOOOOOOOOOOOOOOOOOOOOOOOOOOOOOOOOOOOOOOOOOOOOOOOOOOO################XXXXXXXX",
"XXXXXXXX################OOOOOOOOOOOOOOOOOOOOOOOOOOOOOOOOOOOOOOOOOOOOOOOOOOOOOOOOOOOOOOOOOOOOOOOOOOOOOOOO################XXXXXXXX",
"XXXXXXXX################OOOOOOOOOOOOOOOOOOOOOOOOOOOOOOOOOOOOOOOOOOOOOOOOOOOOOOOOOOOOOOOOOOOOOOOOOOOOOOOO################XXXXXXXX",
"XXXXXXXX################OOOOOOOOOOOOOOOOOOOOOOOOOOOOOOOOOOOOOOOOOOOOOOOOOOOOOOOOOOOOOOOOOOOOOOOOOOOOOOOO################XXXXXXXX",
"XXXXXXXX$$$$$$$$########OOOOOOOOOOOOOOOOOOOOOOOOOOOOOOOOOOOOOOOOOOOOOOOOOOOOOOOOOOOOOOOOOOOOOOOOOOOOOOOO########$$$$$$$$XXXXXXXX",
"XXXXXXXX$$$$$$$$########OOOOOOOOOOOOOOOOOOOOOOOOOOOOOOOOOOOOOOOOOOOOOOOOOOOOOOOOOOOOOOOOOOOOOOOOOOOOOOOO########$$$$$$$$XXXXXXXX",
"XXXXXXXX$$$$$$$$########OOOOOOOOOOOOOOOOOOOOOOOOOOOOOOOOOOOOOOOOOOOOOOOOOOOOOOOOOOOOOOOOOOOOOOOOOOOOOOOO########$$$$$$$$XXXXXXXX",
"XXXXXXXX$$$$$$$$########OOOOOOOOOOOOOOOOOOOOOOOOOOOOOOOOOOOOOOOOOOOOOOOOOOOOOOOOOOOOOOOOOOOOOOOOOOOOOOOO########$$$$$$$$XXXXXXXX",
"XXXXXXXX$$$$$$$$########OOOOOOOOOOOOOOOOOOOOOOOOOOOOOOOOOOOOOOOOOOOOOOOOOOOOOOOOOOOOOOOOOOOOOOOOOOOOOOOO########$$$$$$$$XXXXXXXX",
"XXXXXXXX$$$$$$$$########OOOOOOOOOOOOOOOOOOOOOOOOOOOOOOOOOOOOOOOOOOOOOOOOOOOOOOOOOOOOOOOOOOOOOOOOOOOOOOOO########$$$$$$$$XXXXXXXX",
"XXXXXXXX$$$$$$$$########OOOOOOOOOOOOOOOOOOOOOOOOOOOOOOOOOOOOOOOOOOOOOOOOOOOOOOOOOOOOOOOOOOOOOOOOOOOOOOOO########$$$$$$$$XXXXXXXX",
"XXXXXXXX$$$$$$$$########OOOOOOOOOOOOOOOOOOOOOOOOOOOOOOOOOOOOOOOOOOOOOOOOOOOOOOOOOOOOOOOOOOOOOOOOOOOOOOOO########$$$$$$$$XXXXXXXX",
"XXXXXXXX$$$$$$$$$$$$$$$$OOOOOOOOOOOOOOOOOOOOOOOOOOOOOOOOOOOOOOOOOOOOOOOOOOOOOOOOOOOOOOOOOOOOOOOOOOOOOOOO$$$$$$$$$$$$$$$$XXXXXXXX",
"XXXXXXXX$$$$$$$$$$$$$$$$OOOOOOOOOOOOOOOOOOOOOOOOOOOOOOOOOOOOOOOOOOOOOOOOOOOOOOOOOOOOOOOOOOOOOOOOOOOOOOOO$$$$$$$$$$$$$$$$XXXXXXXX",
"XXXXXXXX$$$$$$$$$$$$$$$$OOOOOOOOOOOOOOOOOOOOOOOOOOOOOOOOOOOOOOOOOOOOOOOOOOOOOOOOOOOOOOOOOOOOOOOOOOOOOOOO$$$$$$$$$$$$$$$$XXXXXXXX",
"XXXXXXXX$$$$$$$$$$$$$$$$OOOOOOOOOOOOOOOOOOOOOOOOOOOOOOOOOOOOOOOOOOOOOOOOOOOOOOOOOOOOOOOOOOOOOOOOOOOOOOOO$$$$$$$$$$$$$$$$XXXXXXXX",
"XXXXXXXX$$$$$$$$$$$$$$$$OOOOOOOOOOOOOOOOOOOOOOOOOOOOOOOOOOOOOOOOOOOOOOOOOOOOOOOOOOOOOOOOOOOOOOOOOOOOOOOO$$$$$$$$$$$$$$$$XXXXXXXX",
"XXXXXXXX$$$$$$$$$$$$$$$$OOOOOOOOOOOOOOOOOOOOOOOOOOOOOOOOOOOOOOOOOOOOOOOOOOOOOOOOOOOOOOOOOOOOOOOOOOOOOOOO$$$$$$$$$$$$$$$$XXXXXXXX",
"XXXXXXXX$$$$$$$$$$$$$$$$OOOOOOOOOOOOOOOOOOOOOOOOOOOOOOOOOOOOOOOOOOOOOOOOOOOOOOOOOOOOOOOOOOOOOOOOOOOOOOOO$$$$$$$$$$$$$$$$XXXXXXXX",
"XXXXXXXX$$$$$$$$$$$$$$$$OOOOOOOOOOOOOOOOOOOOOOOOOOOOOOOOOOOOOOOOOOOOOOOOOOOOOOOOOOOOOOOOOOOOOOOOOOOOOOOO$$$$$$$$$$$$$$$$XXXXXXXX",
"        XXXXXXXX$$$$$$$$$$$$$$$$$$$$$$$$$$$$$$$$$$$$$$$$$$$$$$$$$$$$$$$$$$$$$$$$$$$$$$$$$$$$$$$$$$$$$$$$$$$$$$$$XXXXXXXX        ",
"        XXXXXXXX$$$$$$$$$$$$$$$$$$$$$$$$$$$$$$$$$$$$$$$$$$$$$$$$$$$$$$$$$$$$$$$$$$$$$$$$$$$$$$$$$$$$$$$$$$$$$$$$XXXXXXXX        ",
"        XXXXXXXX$$$$$$$$$$$$$$$$$$$$$$$$$$$$$$$$$$$$$$$$$$$$$$$$$$$$$$$$$$$$$$$$$$$$$$$$$$$$$$$$$$$$$$$$$$$$$$$$XXXXXXXX        ",
"        XXXXXXXX$$$$$$$$$$$$$$$$$$$$$$$$$$$$$$$$$$$$$$$$$$$$$$$$$$$$$$$$$$$$$$$$$$$$$$$$$$$$$$$$$$$$$$$$$$$$$$$$XXXXXXXX        ",
"        XXXXXXXX$$$$$$$$$$$$$$$$$$$$$$$$$$$$$$$$$$$$$$$$$$$$$$$$$$$$$$$$$$$$$$$$$$$$$$$$$$$$$$$$$$$$$$$$$$$$$$$$XXXXXXXX        ",
"        XXXXXXXX$$$$$$$$$$$$$$$$$$$$$$$$$$$$$$$$$$$$$$$$$$$$$$$$$$$$$$$$$$$$$$$$$$$$$$$$$$$$$$$$$$$$$$$$$$$$$$$$XXXXXXXX        ",
"        XXXXXXXX$$$$$$$$$$$$$$$$$$$$$$$$$$$$$$$$$$$$$$$$$$$$$$$$$$$$$$$$$$$$$$$$$$$$$$$$$$$$$$$$$$$$$$$$$$$$$$$$XXXXXXXX        ",
"        XXXXXXXX$$$$$$$$$$$$$$$$$$$$$$$$$$$$$$$$$$$$$$$$$$$$$$$$$$$$$$$$$$$$$$$$$$$$$$$$$$$$$$$$$$$$$$$$$$$$$$$$XXXXXXXX        ",
"                XXXXXXXXXXXXXXXXXXXXXXXXXXXXXXXXXXXXXXXXXXXXXXXXXXXXXXXXXXXXXXXXXXXXXXXXXXXXXXXXXXXXXXXXXXXXXXXX                ",
"                XXXXXXXXXXXXXXXXXXXXXXXXXXXXXXXXXXXXXXXXXXXXXXXXXXXXXXXXXXXXXXXXXXXXXXXXXXXXXXXXXXXXXXXXXXXXXXXX                ",
"                XXXXXXXXXXXXXXXXXXXXXXXXXXXXXXXXXXXXXXXXXXXXXXXXXXXXXXXXXXXXXXXXXXXXXXXXXXXXXXXXXXXXXXXXXXXXXXXX                ",
"                XXXXXXXXXXXXXXXXXXXXXXXXXXXXXXXXXXXXXXXXXXXXXXXXXXXXXXXXXXXXXXXXXXXXXXXXXXXXXXXXXXXXXXXXXXXXXXXX                ",
"                XXXXXXXXXXXXXXXXXXXXXXXXXXXXXXXXXXXXXXXXXXXXXXXXXXXXXXXXXXXXXXXXXXXXXXXXXXXXXXXXXXXXXXXXXXXXXXXX                ",
"                XXXXXXXXXXXXXXXXXXXXXXXXXXXXXXXXXXXXXXXXXXXXXXXXXXXXXXXXXXXXXXXXXXXXXXXXXXXXXXXXXXXXXXXXXXXXXXXX                ",
"                XXXXXXXXXXXXXXXXXXXXXXXXXXXXXXXXXXXXXXXXXXXXXXXXXXXXXXXXXXXXXXXXXXXXXXXXXXXXXXXXXXXXXXXXXXXXXXXX                ",
"                XXXXXXXXXXXXXXXXXXXXXXXXXXXXXXXXXXXXXXXXXXXXXXXXXXXXXXXXXXXXXXXXXXXXXXXXXXXXXXXXXXXXXXXXXXXXXXXX                ",
"                                                                                                                                ",
"                                                                                                                                ",
"                                                                                                                                ",
"                                                                                                                                ",
"                                                                                                                                ",
"                                                                                                                                ",
"                                                                                                                                ",
"                                                                                                                                "
};
