/* XPM */
static char *exit_o_bg1705337379[] = {
/* columns rows colors chars-per-pixel */
"128 128 14 1 ",
"  c #704846",
". c #90615D",
"X c #90625D",
"o c #AA7959",
"O c #9F8349",
"+ c #B59B5B",
"@ c #BFA562",
"# c #A5BF65",
"$ c #C9AF65",
"% c #D4C46C",
"& c #EAE178",
"* c #DCBC8C",
"= c #F1EF96",
"- c #ECCCA4",
/* pixels */
"--------------------------------------------------------------------------------########------------------------########--------",
"--------------------------------------------------------------------------------########------------------------########--------",
"--------------------------------------------------------------------------------########------------------------########--------",
"--------------------------------------------------------------------------------########------------------------########--------",
"--------------------------------------------------------------------------------########------------------------########--------",
"--------------------------------------------------------------------------------########------------------------########--------",
"--------------------------------------------------------------------------------########------------------------########--------",
"--------------------------------------------------------------------------------########------------------------########--------",
"----------------................--------------------------------------------------------########................########--------",
"----------------................--------------------------------------------------------########................########--------",
"----------------................--------------------------------------------------------########................########--------",
"----------------................--------------------------------------------------------########................########--------",
"----------------................--------------------------------------------------------########................########--------",
"----------------................--------------------------------------------------------########................########--------",
"----------------................--------------------------------------------------------########................########--------",
"----------------................--------------------------------------------------------########................########--------",
"--------........%%%%%%%%%%%%%%%%................................................................%%%%%%%%%%%%%%%%........--------",
"--------........%%%%%%%%%%%%%%%%................................................................%%%%%%%%%%%%%%%%........--------",
"--------........%%%%%%%%%%%%%%%%................................................................%%%%%%%%%%%%%%%%........--------",
"--------........%%%%%%%%%%%%%%%%................................................................%%%%%%%%%%%%%%%%........--------",
"--------........%%%%%%%%%%%%%%%%................................................................%%%%%%%%%%%%%%%%........--------",
"--------........%%%%%%%%%%%%%%%%................................................................%%%%%%%%%%%%%%%%........--------",
"--------........%%%%%%%%%%%%%%%%................................................................%%%%%%%%%%%%%%%%........--------",
"--------........%%%%%%%%%%%%%%%%................................................................%%%%%%%%%%%%%%%%........--------",
"........========&&&&&&&&&&&&&&&&&&&&&&&&&&&&&&&&&&&&&&&&&&&&&&&&&&&&&&&&&&&&&&&&&&&&&&&&&&&&&&&&&&&&&&&&&&&&&&&&&&&&&&&&........",
"........========&&&&&&&&&&&&&&&&&&&&&&&&&&&&&&&&&&&&&&&&&&&&&&&&&&&&&&&&&&&&&&&&&&&&&&&&&&&&&&&&&&&&&&&&&&&&&&&&&&&&&&&&........",
"........========&&&&&&&&&&&&&&&&&&&&&&&&&&&&&&&&&&&&&&&&&&&&&&&&&&&&&&&&&&&&&&&&&&&&&&&&&&&&&&&&&&&&&&&&&&&&&&&&&&&&&&&&........",
"........========&&&&&&&&&&&&&&&&&&&&&&&&&&&&&&&&&&&&&&&&&&&&&&&&&&&&&&&&&&&&&&&&&&&&&&&&&&&&&&&&&&&&&&&&&&&&&&&&&&&&&&&&........",
"........========&&&&&&&&&&&&&&&&&&&&&&&&&&&&&&&&&&&&&&&&&&&&&&&&&&&&&&&&&&&&&&&&&&&&&&&&&&&&&&&&&&&&&&&&&&&&&&&&&&&&&&&&........",
"........========&&&&&&&&&&&&&&&&&&&&&&&&&&&&&&&&&&&&&&&&&&&&&&&&&&&&&&&&&&&&&&&&&&&&&&&&&&&&&&&&&&&&&&&&&&&&&&&&&&&&&&&&........",
"........========&&&&&&&&&&&&&&&&&&&&&&&&&&&&&&&&&&&&&&&&&&&&&&&&&&&&&&&&&&&&&&&&&&&&&&&&&&&&&&&&&&&&&&&&&&&&&&&&&&&&&&&&........",
"........========&&&&&&&&&&&&&&&&&&&&&&&&&&&&&&&&&&&&&&&&&&&&&&&&&&&&&&&&&&&&&&&&&&&&&&&&&&&&&&&&&&&&&&&&&&&&&&&&&&&&&&&&........",
"........OOOOOOOO================&&&&&&&&&&&&&&&&&&&&&&&&&&&&&&&&%%%%%%%%&&&&&&&&&&&&&&&&&&&&&&&&&&&&&&&&&&&&&&&&OOOOOOOO........",
"........OOOOOOOO================&&&&&&&&&&&&&&&&&&&&&&&&&&&&&&&&%%%%%%%%&&&&&&&&&&&&&&&&&&&&&&&&&&&&&&&&&&&&&&&&OOOOOOOO........",
"........OOOOOOOO================&&&&&&&&&&&&&&&&&&&&&&&&&&&&&&&&%%%%%%%%&&&&&&&&&&&&&&&&&&&&&&&&&&&&&&&&&&&&&&&&OOOOOOOO........",
"........OOOOOOOO================&&&&&&&&&&&&&&&&&&&&&&&&&&&&&&&&%%%%%%%%&&&&&&&&&&&&&&&&&&&&&&&&&&&&&&&&&&&&&&&&OOOOOOOO........",
"........OOOOOOOO================&&&&&&&&&&&&&&&&&&&&&&&&&&&&&&&&%%%%%%%%&&&&&&&&&&&&&&&&&&&&&&&&&&&&&&&&&&&&&&&&OOOOOOOO........",
"........OOOOOOOO================&&&&&&&&&&&&&&&&&&&&&&&&&&&&&&&&%%%%%%%%&&&&&&&&&&&&&&&&&&&&&&&&&&&&&&&&&&&&&&&&OOOOOOOO........",
"........OOOOOOOO================&&&&&&&&&&&&&&&&&&&&&&&&&&&&&&&&%%%%%%%%&&&&&&&&&&&&&&&&&&&&&&&&&&&&&&&&&&&&&&&&OOOOOOOO........",
"........OOOOOOOO================&&&&&&&&&&&&&&&&&&&&&&&&&&&&&&&&%%%%%%%%&&&&&&&&&&&&&&&&&&&&&&&&&&&&&&&&&&&&&&&&OOOOOOOO........",
"........OOOOOOOO                                        %%%%%%%%%%%%%%%%                                        OOOOOOOO........",
"........OOOOOOOO                                        %%%%%%%%%%%%%%%%                                        OOOOOOOO........",
"........OOOOOOOO                                        %%%%%%%%%%%%%%%%                                        OOOOOOOO........",
"........OOOOOOOO                                        %%%%%%%%%%%%%%%%                                        OOOOOOOO........",
"........OOOOOOOO                                        %%%%%%%%%%%%%%%%                                        OOOOOOOO........",
"........OOOOOOOO                                        %%%%%%%%%%%%%%%%                                        OOOOOOOO........",
"........OOOOOOOO                                        %%%%%%%%%%%%%%%%                                        OOOOOOOO........",
"........OOOOOOOO                                        %%%%%%%%%%%%%%%%                                        OOOOOOOO........",
"........OOOOOOOO                                                                                                OOOOOOOO........",
"........OOOOOOOO                                                                                                OOOOOOOO........",
"........OOOOOOOO                                                                                                OOOOOOOO........",
"........OOOOOOOO                                                                                                OOOOOOOO........",
"........OOOOOOOO                                                                                                OOOOOOOO........",
"........OOOOOOOO                                                                                                OOOOOOOO........",
"........OOOOOOOO                                                                                                OOOOOOOO........",
"........OOOOOOOO                                                                                                OOOOOOOO........",
"........OOOOOOOOOOOOOOOO                                                                                OOOOOOOOOOOOOOOO........",
"........OOOOOOOOOOOOOOOO                                                                                OOOOOOOOOOOOOOOO........",
"........OOOOOOOOOOOOOOOO                                                                                OOOOOOOOOOOOOOOO........",
"........OOOOOOOOOOOOOOOO                                                                                OOOOOOOOOOOOOOOO........",
"........OOOOOOOOOOOOOOOO                                                                                OOOOOOOOOOOOOOOO........",
"........OOOOOOOOOOOOOOOO                                                                                OOOOOOOOOOOOOOOO........",
"........OOOOOOOOOOOOOOOO                                                                                OOOOOOOOOOOOOOOO........",
"........OOOOOOOOOOOOOOOO                                                                                OOOOOOOOOOOOOOOO........",
"........++++++++OOOOOOOOOOOOOOOOOOOOOOOOOOOOOOOOOOOOOOOOOOOOOOOOOOOOOOOOOOOOOOOOOOOOOOOOOOOOOOOOOOOOOOOOOOOOOOOO++++++++........",
"........++++++++OOOOOOOOOOOOOOOOOOOOOOOOOOOOOOOOOOOOOOOOOOOOOOOOOOOOOOOOOOOOOOOOOOOOOOOOOOOOOOOOOOOOOOOOOOOOOOOO++++++++........",
"........++++++++OOOOOOOOOOOOOOOOOOOOOOOOOOOOOOOOOOOOOOOOOOOOOOOOOOOOOOOOOOOOOOOOOOOOOOOOOOOOOOOOOOOOOOOOOOOOOOOO++++++++........",
"........++++++++OOOOOOOOOOOOOOOOOOOOOOOOOOOOOOOOOOOOOOOOOOOOOOOOOOOOOOOOOOOOOOOOOOOOOOOOOOOOOOOOOOOOOOOOOOOOOOOO++++++++........",
"........++++++++OOOOOOOOOOOOOOOOOOOOOOOOOOOOOOOOOOOOOOOOOOOOOOOOOOOOOOOOOOOOOOOOOOOOOOOOOOOOOOOOOOOOOOOOOOOOOOOO++++++++........",
"........++++++++OOOOOOOOOOOOOOOOOOOOOOOOOOOOOOOOOOOOOOOOOOOOOOOOOOOOOOOOOOOOOOOOOOOOOOOOOOOOOOOOOOOOOOOOOOOOOOOO++++++++........",
"........++++++++OOOOOOOOOOOOOOOOOOOOOOOOOOOOOOOOOOOOOOOOOOOOOOOOOOOOOOOOOOOOOOOOOOOOOOOOOOOOOOOOOOOOOOOOOOOOOOOO++++++++........",
"........++++++++OOOOOOOOOOOOOOOOOOOOOOOOOOOOOOOOOOOOOOOOOOOOOOOOOOOOOOOOOOOOOOOOOOOOOOOOOOOOOOOOOOOOOOOOOOOOOOOO++++++++........",
"........@@@@@@@@++++++++XXXXXXXXXXXXXXXXXXXXXXXXXXXXXXXXXXXXXXXXXXXXXXXX..XXXXXXXXXXXXXXXXXXXXXXXXXXXXXX++++++++@@@@@@@@........",
"........@@@@@@@@++++++++XXXXXXXXXXXXXXXXXXXXXXXXXXXXXXXXXXXXXXXXXXXXXXXX..XXXXXXXXXXXXXXXXXXXXXXXXXXXXXX++++++++@@@@@@@@........",
"........@@@@@@@@++++++++XXXXXXXXXXXXXXXXXXXXXXXXXXXXXXXXXXXXXXXXXXXXXXXX.XXXXXXXXXXXXXXXXXXXXXXXXXXXXXXX++++++++@@@@@@@@........",
"........@@@@@@@@++++++++XXXXXXXXXXXXXXXXXXXXXXXXXXXXXXXXXXXXXXXXXXXXXXXX.XXXXXXXXXXXXXXXXXXXXXXXXXXXXXXX++++++++@@@@@@@@........",
"........@@@@@@@@++++++++XXXXXXXXXXXXXXXXXXXXXXXXXXXXXXXXXXXXXXXXXXXXXXXXXXXXXXXXXXXXXXXXXXXXXXXXXXXXXXXX++++++++@@@@@@@@........",
"........@@@@@@@@++++++++XXXXXXXXXXXXXXXXXXXXXXXXXXXXXXXXXXXXXXXXXXXXXXXXXXXXXXXXXXXXXXXXXXXXXXXXXXXXXXXX++++++++@@@@@@@@........",
"........@@@@@@@@++++++++XXXXXXXXXXXXXXXXXXXXXXXXXXXXXXXXXXXXXXXXXXXXXXXXXXXXXXXXXXXXXXXXXXXXXXXXXXXXXXXX++++++++@@@@@@@@........",
"........@@@@@@@@++++++++XXXXXXXXXXXXXXXXXXXXXXXXXXXXXXXXXXXXXXXXXXXXXXXXXXXXXXXXXXXXXXXXXXXXXXXXXXXXXXXX++++++++@@@@@@@@........",
"........@@@@@@@@@@@@@@@@oooooooooooooooooooooooooooooooooooooooooooooooooooooooooooooooooooooooooooooooo@@@@@@@@@@@@@@@@........",
"........@@@@@@@@@@@@@@@@oooooooooooooooooooooooooooooooooooooooooooooooooooooooooooooooooooooooooooooooo@@@@@@@@@@@@@@@@........",
"........@@@@@@@@@@@@@@@@oooooooooooooooooooooooooooooooooooooooooooooooooooooooooooooooooooooooooooooooo@@@@@@@@@@@@@@@@........",
"........@@@@@@@@@@@@@@@@oooooooooooooooooooooooooooooooooooooooooooooooooooooooooooooooooooooooooooooooo@@@@@@@@@@@@@@@@........",
"........@@@@@@@@@@@@@@@@oooooooooooooooooooooooooooooooooooooooooooooooooooooooooooooooooooooooooooooooo@@@@@@@@@@@@@@@@........",
"........@@@@@@@@@@@@@@@@oooooooooooooooooooooooooooooooooooooooooooooooooooooooooooooooooooooooooooooooo@@@@@@@@@@@@@@@@........",
"........@@@@@@@@@@@@@@@@oooooooooooooooooooooooooooooooooooooooooooooooooooooooooooooooooooooooooooooooo@@@@@@@@@@@@@@@@........",
"........@@@@@@@@@@@@@@@@oooooooooooooooooooooooooooooooooooooooooooooooooooooooooooooooooooooooooooooooo@@@@@@@@@@@@@@@@........",
"........$$$$$$$$@@@@@@@@oooooooooooooooooooooooooooooooooooooooooooooooooooooooooooooooooooooooooooooooo@@@@@@@@$$$$$$$$........",
"........$$$$$$$$@@@@@@@@oooooooooooooooooooooooooooooooooooooooooooooooooooooooooooooooooooooooooooooooo@@@@@@@@$$$$$$$$........",
"........$$$$$$$$@@@@@@@@oooooooooooooooooooooooooooooooooooooooooooooooooooooooooooooooooooooooooooooooo@@@@@@@@$$$$$$$$........",
"........$$$$$$$$@@@@@@@@oooooooooooooooooooooooooooooooooooooooooooooooooooooooooooooooooooooooooooooooo@@@@@@@@$$$$$$$$........",
"........$$$$$$$$@@@@@@@@oooooooooooooooooooooooooooooooooooooooooooooooooooooooooooooooooooooooooooooooo@@@@@@@@$$$$$$$$........",
"........$$$$$$$$@@@@@@@@oooooooooooooooooooooooooooooooooooooooooooooooooooooooooooooooooooooooooooooooo@@@@@@@@$$$$$$$$........",
"........$$$$$$$$@@@@@@@@oooooooooooooooooooooooooooooooooooooooooooooooooooooooooooooooooooooooooooooooo@@@@@@@@$$$$$$$$........",
"........$$$$$$$$@@@@@@@@oooooooooooooooooooooooooooooooooooooooooooooooooooooooooooooooooooooooooooooooo@@@@@@@@$$$$$$$$........",
"........$$$$$$$$$$$$$$$$oooooooooooooooooooooooooooooooooooooooooooooooooooooooooooooooooooooooooooooooo$$$$$$$$$$$$$$$$........",
"........$$$$$$$$$$$$$$$$oooooooooooooooooooooooooooooooooooooooooooooooooooooooooooooooooooooooooooooooo$$$$$$$$$$$$$$$$........",
"........$$$$$$$$$$$$$$$$oooooooooooooooooooooooooooooooooooooooooooooooooooooooooooooooooooooooooooooooo$$$$$$$$$$$$$$$$........",
"........$$$$$$$$$$$$$$$$oooooooooooooooooooooooooooooooooooooooooooooooooooooooooooooooooooooooooooooooo$$$$$$$$$$$$$$$$........",
"........$$$$$$$$$$$$$$$$oooooooooooooooooooooooooooooooooooooooooooooooooooooooooooooooooooooooooooooooo$$$$$$$$$$$$$$$$........",
"........$$$$$$$$$$$$$$$$oooooooooooooooooooooooooooooooooooooooooooooooooooooooooooooooooooooooooooooooo$$$$$$$$$$$$$$$$........",
"........$$$$$$$$$$$$$$$$oooooooooooooooooooooooooooooooooooooooooooooooooooooooooooooooooooooooooooooooo$$$$$$$$$$$$$$$$........",
"........$$$$$$$$$$$$$$$$oooooooooooooooooooooooooooooooooooooooooooooooooooooooooooooooooooooooooooooooo$$$$$$$$$$$$$$$$........",
"--------........$$$$$$$$$$$$$$$$$$$$$$$$$$$$$$$$$$$$$$$$$$$$$$$$$$$$$$$$$$$$$$$$$$$$$$$$$$$$$$$$$$$$$$$$$$$$$$$$........--------",
"--------........$$$$$$$$$$$$$$$$$$$$$$$$$$$$$$$$$$$$$$$$$$$$$$$$$$$$$$$$$$$$$$$$$$$$$$$$$$$$$$$$$$$$$$$$$$$$$$$$........--------",
"--------........$$$$$$$$$$$$$$$$$$$$$$$$$$$$$$$$$$$$$$$$$$$$$$$$$$$$$$$$$$$$$$$$$$$$$$$$$$$$$$$$$$$$$$$$$$$$$$$$........--------",
"--------........$$$$$$$$$$$$$$$$$$$$$$$$$$$$$$$$$$$$$$$$$$$$$$$$$$$$$$$$$$$$$$$$$$$$$$$$$$$$$$$$$$$$$$$$$$$$$$$$........--------",
"--------........$$$$$$$$$$$$$$$$$$$$$$$$$$$$$$$$$$$$$$$$$$$$$$$$$$$$$$$$$$$$$$$$$$$$$$$$$$$$$$$$$$$$$$$$$$$$$$$$........--------",
"--------........$$$$$$$$$$$$$$$$$$$$$$$$$$$$$$$$$$$$$$$$$$$$$$$$$$$$$$$$$$$$$$$$$$$$$$$$$$$$$$$$$$$$$$$$$$$$$$$$........--------",
"--------........$$$$$$$$$$$$$$$$$$$$$$$$$$$$$$$$$$$$$$$$$$$$$$$$$$$$$$$$$$$$$$$$$$$$$$$$$$$$$$$$$$$$$$$$$$$$$$$$........--------",
"--------........$$$$$$$$$$$$$$$$$$$$$$$$$$$$$$$$$$$$$$$$$$$$$$$$$$$$$$$$$$$$$$$$$$$$$$$$$$$$$$$$$$$$$$$$$$$$$$$$........--------",
"----------------................................................................................................--------********",
"----------------................................................................................................--------********",
"----------------................................................................................................--------********",
"----------------................................................................................................--------********",
"----------------................................................................................................--------********",
"----------------................................................................................................--------********",
"----------------................................................................................................--------********",
"----------------................................................................................................--------********",
"--------------------------------------------------------------------------------------------------------------------------------",
"--------------------------------------------------------------------------------------------------------------------------------",
"--------------------------------------------------------------------------------------------------------------------------------",
"--------------------------------------------------------------------------------------------------------------------------------",
"--------------------------------------------------------------------------------------------------------------------------------",
"--------------------------------------------------------------------------------------------------------------------------------",
"--------------------------------------------------------------------------------------------------------------------------------",
"--------------------------------------------------------------------------------------------------------------------------------"
};
