/* XPM */
static char *exit1704735442[] = {
/* columns rows colors chars-per-pixel */
"128 128 13 1 ",
"  c None",
". c #90615D",
"X c #90625D",
"o c #AA7959",
"O c #B59B5B",
"+ c #B99B64",
"@ c #BFA562",
"# c #C9AF65",
"$ c #C8A072",
"% c #D5C36A",
"& c #EAE178",
"* c #DCB98A",
"= c #F1EF96",
/* pixels */
"                                                                                                                                ",
"                                                                                                                                ",
"                                                                                                                                ",
"                                                                                                                                ",
"                                                                                                                                ",
"                                                                                                                                ",
"                                                                                                                                ",
"                                                                                                                                ",
"                ................                                                                ................                ",
"                ................                                                                ................                ",
"                ................                                                                ................                ",
"                ................                                                                ................                ",
"                ................                                                                ................                ",
"                ................                                                                ................                ",
"                ................                                                                ................                ",
"                ................                                                                ................                ",
"        ........++++++++++++++++................................................................++++++++++++++++........        ",
"        ........++++++++++++++++................................................................++++++++++++++++........        ",
"        ........++++++++++++++++................................................................++++++++++++++++........        ",
"        ........++++++++++++++++................................................................++++++++++++++++........        ",
"        ........++++++++++++++++................................................................++++++++++++++++........        ",
"        ........++++++++++++++++................................................................++++++++++++++++........        ",
"        ........++++++++++++++++................................................................++++++++++++++++........        ",
"        ........++++++++++++++++................................................................++++++++++++++++........        ",
"........&&&&&&&&&&&&&&&&&&&&&&&&$$$$$$$$************************************************$$$$$$$$&&&&&&&&&&&&&&&&&&&&&&&&........",
"........&&&&&&&&&&&&&&&&&&&&&&&&$$$$$$$$************************************************$$$$$$$$&&&&&&&&&&&&&&&&&&&&&&&&........",
"........&&&&&&&&&&&&&&&&&&&&&&&&$$$$$$$$************************************************$$$$$$$$&&&&&&&&&&&&&&&&&&&&&&&&........",
"........&&&&&&&&&&&&&&&&&&&&&&&&$$$$$$$$************************************************$$$$$$$$&&&&&&&&&&&&&&&&&&&&&&&&........",
"........&&&&&&&&&&&&&&&&&&&&&&&&$$$$$$$$************************************************$$$$$$$$&&&&&&&&&&&&&&&&&&&&&&&&........",
"........&&&&&&&&&&&&&&&&&&&&&&&&$$$$$$$$************************************************$$$$$$$$&&&&&&&&&&&&&&&&&&&&&&&&........",
"........&&&&&&&&&&&&&&&&&&&&&&&&$$$$$$$$************************************************$$$$$$$$&&&&&&&&&&&&&&&&&&&&&&&&........",
"........&&&&&&&&&&&&&&&&&&&&&&&&$$$$$$$$************************************************$$$$$$$$&&&&&&&&&&&&&&&&&&&&&&&&........",
"........&&&&&&&&&&&&&&&&$$$$$$$$$$$$$$$$$$$$$$$$********************************$$$$$$$$$$$$$$$$$$$$$$$$&&&&&&&&&&&&&&&&........",
"........&&&&&&&&&&&&&&&&$$$$$$$$$$$$$$$$$$$$$$$$********************************$$$$$$$$$$$$$$$$$$$$$$$$&&&&&&&&&&&&&&&&........",
"........&&&&&&&&&&&&&&&&$$$$$$$$$$$$$$$$$$$$$$$$********************************$$$$$$$$$$$$$$$$$$$$$$$$&&&&&&&&&&&&&&&&........",
"........&&&&&&&&&&&&&&&&$$$$$$$$$$$$$$$$$$$$$$$$********************************$$$$$$$$$$$$$$$$$$$$$$$$&&&&&&&&&&&&&&&&........",
"........&&&&&&&&&&&&&&&&$$$$$$$$$$$$$$$$$$$$$$$$********************************$$$$$$$$$$$$$$$$$$$$$$$$&&&&&&&&&&&&&&&&........",
"........&&&&&&&&&&&&&&&&$$$$$$$$$$$$$$$$$$$$$$$$********************************$$$$$$$$$$$$$$$$$$$$$$$$&&&&&&&&&&&&&&&&........",
"........&&&&&&&&&&&&&&&&$$$$$$$$$$$$$$$$$$$$$$$$********************************$$$$$$$$$$$$$$$$$$$$$$$$&&&&&&&&&&&&&&&&........",
"........&&&&&&&&&&&&&&&&$$$$$$$$$$$$$$$$$$$$$$$$********************************$$$$$$$$$$$$$$$$$$$$$$$$&&&&&&&&&&&&&&&&........",
"........&&&&&&&&&&&&&&&&$$$$$$$$$$$$$$$$$$$$$$$$$$$$$$$$$$$$$$$$$$$$$$$$$$$$$$$$$$$$$$$$$$$$$$$$$$$$$$$$&&&&&&&&&&&&&&&&........",
"........&&&&&&&&&&&&&&&&$$$$$$$$$$$$$$$$$$$$$$$$$$$$$$$$$$$$$$$$$$$$$$$$$$$$$$$$$$$$$$$$$$$$$$$$$$$$$$$$&&&&&&&&&&&&&&&&........",
"........&&&&&&&&&&&&&&&&$$$$$$$$$$$$$$$$$$$$$$$$$$$$$$$$$$$$$$$$$$$$$$$$$$$$$$$$$$$$$$$$$$$$$$$$$$$$$$$$&&&&&&&&&&&&&&&&........",
"........&&&&&&&&&&&&&&&&$$$$$$$$$$$$$$$$$$$$$$$$$$$$$$$$$$$$$$$$$$$$$$$$$$$$$$$$$$$$$$$$$$$$$$$$$$$$$$$$&&&&&&&&&&&&&&&&........",
"........&&&&&&&&&&&&&&&&$$$$$$$$$$$$$$$$$$$$$$$$$$$$$$$$$$$$$$$$$$$$$$$$$$$$$$$$$$$$$$$$$$$$$$$$$$$$$$$$&&&&&&&&&&&&&&&&........",
"........&&&&&&&&&&&&&&&&$$$$$$$$$$$$$$$$$$$$$$$$$$$$$$$$$$$$$$$$$$$$$$$$$$$$$$$$$$$$$$$$$$$$$$$$$$$$$$$$&&&&&&&&&&&&&&&&........",
"........&&&&&&&&&&&&&&&&$$$$$$$$$$$$$$$$$$$$$$$$$$$$$$$$$$$$$$$$$$$$$$$$$$$$$$$$$$$$$$$$$$$$$$$$$$$$$$$$&&&&&&&&&&&&&&&&........",
"........&&&&&&&&&&&&&&&&$$$$$$$$$$$$$$$$$$$$$$$$$$$$$$$$$$$$$$$$$$$$$$$$$$$$$$$$$$$$$$$$$$$$$$$$$$$$$$$$&&&&&&&&&&&&&&&&........",
"........&&&&&&&&&&&&&&&&$$$$$$$$$$$$$$$$$$$$$$$$$$$$$$$$$$$$$$$$$$$$$$$$$$$$$$$$$$$$$$$$$$$$$$$$$$$$$$$$&&&&&&&&&&&&&&&&........",
"........&&&&&&&&&&&&&&&&$$$$$$$$$$$$$$$$$$$$$$$$$$$$$$$$$$$$$$$$$$$$$$$$$$$$$$$$$$$$$$$$$$$$$$$$$$$$$$$$&&&&&&&&&&&&&&&&........",
"........&&&&&&&&&&&&&&&&$$$$$$$$$$$$$$$$$$$$$$$$$$$$$$$$$$$$$$$$$$$$$$$$$$$$$$$$$$$$$$$$$$$$$$$$$$$$$$$$&&&&&&&&&&&&&&&&........",
"........&&&&&&&&&&&&&&&&$$$$$$$$$$$$$$$$$$$$$$$$$$$$$$$$$$$$$$$$$$$$$$$$$$$$$$$$$$$$$$$$$$$$$$$$$$$$$$$$&&&&&&&&&&&&&&&&........",
"........&&&&&&&&&&&&&&&&$$$$$$$$$$$$$$$$$$$$$$$$$$$$$$$$$$$$$$$$$$$$$$$$$$$$$$$$$$$$$$$$$$$$$$$$$$$$$$$$&&&&&&&&&&&&&&&&........",
"........&&&&&&&&&&&&&&&&$$$$$$$$$$$$$$$$$$$$$$$$$$$$$$$$$$$$$$$$$$$$$$$$$$$$$$$$$$$$$$$$$$$$$$$$$$$$$$$$&&&&&&&&&&&&&&&&........",
"........&&&&&&&&&&&&&&&&$$$$$$$$$$$$$$$$$$$$$$$$$$$$$$$$$$$$$$$$$$$$$$$$$$$$$$$$$$$$$$$$$$$$$$$$$$$$$$$$&&&&&&&&&&&&&&&&........",
"........&&&&&&&&&&&&&&&&$$$$$$$$$$$$$$$$$$$$$$$$$$$$$$$$$$$$$$$$$$$$$$$$$$$$$$$$$$$$$$$$$$$$$$$$$$$$$$$$&&&&&&&&&&&&&&&&........",
"........========&&&&&&&&&&&&&&&&&&&&&&&&&&&&&&&&&&&&&&&&&&&&&&&&&&&&&&&&&&&&&&&&&&&&&&&&&&&&&&&&&&&&&&&&&&&&&&&&========........",
"........========&&&&&&&&&&&&&&&&&&&&&&&&&&&&&&&&&&&&&&&&&&&&&&&&&&&&&&&&&&&&&&&&&&&&&&&&&&&&&&&&&&&&&&&&&&&&&&&&========........",
"........========&&&&&&&&&&&&&&&&&&&&&&&&&&&&&&&&&&&&&&&&&&&&&&&&&&&&&&&&&&&&&&&&&&&&&&&&&&&&&&&&&&&&&&&&&&&&&&&&========........",
"........========&&&&&&&&&&&&&&&&&&&&&&&&&&&&&&&&&&&&&&&&&&&&&&&&&&&&&&&&&&&&&&&&&&&&&&&&&&&&&&&&&&&&&&&&&&&&&&&&========........",
"........========&&&&&&&&&&&&&&&&&&&&&&&&&&&&&&&&&&&&&&&&&&&&&&&&&&&&&&&&&&&&&&&&&&&&&&&&&&&&&&&&&&&&&&&&&&&&&&&&========........",
"........========&&&&&&&&&&&&&&&&&&&&&&&&&&&&&&&&&&&&&&&&&&&&&&&&&&&&&&&&&&&&&&&&&&&&&&&&&&&&&&&&&&&&&&&&&&&&&&&&========........",
"........========&&&&&&&&&&&&&&&&&&&&&&&&&&&&&&&&&&&&&&&&&&&&&&&&&&&&&&&&&&&&&&&&&&&&&&&&&&&&&&&&&&&&&&&&&&&&&&&&========........",
"........========&&&&&&&&&&&&&&&&&&&&&&&&&&&&&&&&&&&&&&&&&&&&&&&&&&&&&&&&&&&&&&&&&&&&&&&&&&&&&&&&&&&&&&&&&&&&&&&&========........",
"........OOOOOOOO================================================================================================OOOOOOOO........",
"........OOOOOOOO================================================================================================OOOOOOOO........",
"........OOOOOOOO================================================================================================OOOOOOOO........",
"........OOOOOOOO================================================================================================OOOOOOOO........",
"........OOOOOOOO================================================================================================OOOOOOOO........",
"........OOOOOOOO================================================================================================OOOOOOOO........",
"........OOOOOOOO================================================================================================OOOOOOOO........",
"........OOOOOOOO================================================================================================OOOOOOOO........",
"........@@@@@@@@OOOOOOOOXXXXXXXXXXXXXXXXXXXXXXXXXXXXXXXX&&&&&&&&%%%%%%%%..XXXXXXXXXXXXXXXXXXXXXXXXXXXXXXOOOOOOOO@@@@@@@@........",
"........@@@@@@@@OOOOOOOOXXXXXXXXXXXXXXXXXXXXXXXXXXXXXXXX&&&&&&&&%%%%%%%%X.XXXXXXXXXXXXXXXXXXXXXXXXXXXXXXOOOOOOOO@@@@@@@@........",
"........@@@@@@@@OOOOOOOOXXXXXXXXXXXXXXXXXXXXXXXXXXXXXXXX&&&&&&&&%%%%%%%%XXXXXXXXXXXXXXXXXXXXXXXXXXXXXXXXOOOOOOOO@@@@@@@@........",
"........@@@@@@@@OOOOOOOOXXXXXXXXXXXXXXXXXXXXXXXXXXXXXXXX&&&&&&&&%%%%%%%%XXXXXXXXXXXXXXXXXXXXXXXXXXXXXXXXOOOOOOOO@@@@@@@@........",
"........@@@@@@@@OOOOOOOOXXXXXXXXXXXXXXXXXXXXXXXXXXXXXXXX&&&&&&&&%%%%%%%%XXXXXXXXXXXXXXXXXXXXXXXXXXXXXXXXOOOOOOOO@@@@@@@@........",
"........@@@@@@@@OOOOOOOOXXXXXXXXXXXXXXXXXXXXXXXXXXXXXXXX&&&&&&&&%%%%%%%%XXXXXXXXXXXXXXXXXXXXXXXXXXXXXXXXOOOOOOOO@@@@@@@@........",
"........@@@@@@@@OOOOOOOOXXXXXXXXXXXXXXXXXXXXXXXXXXXXXXXX&&&&&&&&%%%%%%%%XXXXXXXXXXXXXXXXXXXXXXXXXXXXXXXXOOOOOOOO@@@@@@@@........",
"........@@@@@@@@OOOOOOOOXXXXXXXXXXXXXXXXXXXXXXXXXXXXXXXX&&&&&&&&%%%%%%%%XXXXXXXXXXXXXXXXXXXXXXXXXXXXXXXXOOOOOOOO@@@@@@@@........",
"........@@@@@@@@@@@@@@@@oooooooooooooooooooooooooooooooo%%%%%%%%%%%%%%%%oooooooooooooooooooooooooooooooo@@@@@@@@@@@@@@@@........",
"........@@@@@@@@@@@@@@@@oooooooooooooooooooooooooooooooo%%%%%%%%%%%%%%%%oooooooooooooooooooooooooooooooo@@@@@@@@@@@@@@@@........",
"........@@@@@@@@@@@@@@@@oooooooooooooooooooooooooooooooo%%%%%%%%%%%%%%%%oooooooooooooooooooooooooooooooo@@@@@@@@@@@@@@@@........",
"........@@@@@@@@@@@@@@@@oooooooooooooooooooooooooooooooo%%%%%%%%%%%%%%%%oooooooooooooooooooooooooooooooo@@@@@@@@@@@@@@@@........",
"........@@@@@@@@@@@@@@@@oooooooooooooooooooooooooooooooo%%%%%%%%%%%%%%%%oooooooooooooooooooooooooooooooo@@@@@@@@@@@@@@@@........",
"........@@@@@@@@@@@@@@@@oooooooooooooooooooooooooooooooo%%%%%%%%%%%%%%%%oooooooooooooooooooooooooooooooo@@@@@@@@@@@@@@@@........",
"........@@@@@@@@@@@@@@@@oooooooooooooooooooooooooooooooo%%%%%%%%%%%%%%%%oooooooooooooooooooooooooooooooo@@@@@@@@@@@@@@@@........",
"........@@@@@@@@@@@@@@@@oooooooooooooooooooooooooooooooo%%%%%%%%%%%%%%%%oooooooooooooooooooooooooooooooo@@@@@@@@@@@@@@@@........",
"........########@@@@@@@@oooooooooooooooooooooooooooooooooooooooooooooooooooooooooooooooooooooooooooooooo@@@@@@@@########........",
"........########@@@@@@@@oooooooooooooooooooooooooooooooooooooooooooooooooooooooooooooooooooooooooooooooo@@@@@@@@########........",
"........########@@@@@@@@oooooooooooooooooooooooooooooooooooooooooooooooooooooooooooooooooooooooooooooooo@@@@@@@@########........",
"........########@@@@@@@@oooooooooooooooooooooooooooooooooooooooooooooooooooooooooooooooooooooooooooooooo@@@@@@@@########........",
"........########@@@@@@@@oooooooooooooooooooooooooooooooooooooooooooooooooooooooooooooooooooooooooooooooo@@@@@@@@########........",
"........########@@@@@@@@oooooooooooooooooooooooooooooooooooooooooooooooooooooooooooooooooooooooooooooooo@@@@@@@@########........",
"........########@@@@@@@@oooooooooooooooooooooooooooooooooooooooooooooooooooooooooooooooooooooooooooooooo@@@@@@@@########........",
"........########@@@@@@@@oooooooooooooooooooooooooooooooooooooooooooooooooooooooooooooooooooooooooooooooo@@@@@@@@########........",
"........################oooooooooooooooooooooooooooooooooooooooooooooooooooooooooooooooooooooooooooooooo################........",
"........################oooooooooooooooooooooooooooooooooooooooooooooooooooooooooooooooooooooooooooooooo################........",
"........################oooooooooooooooooooooooooooooooooooooooooooooooooooooooooooooooooooooooooooooooo################........",
"........################oooooooooooooooooooooooooooooooooooooooooooooooooooooooooooooooooooooooooooooooo################........",
"........################oooooooooooooooooooooooooooooooooooooooooooooooooooooooooooooooooooooooooooooooo################........",
"........################oooooooooooooooooooooooooooooooooooooooooooooooooooooooooooooooooooooooooooooooo################........",
"........################oooooooooooooooooooooooooooooooooooooooooooooooooooooooooooooooooooooooooooooooo################........",
"........################oooooooooooooooooooooooooooooooooooooooooooooooooooooooooooooooooooooooooooooooo################........",
"        ........################################################################################################........        ",
"        ........################################################################################################........        ",
"        ........################################################################################################........        ",
"        ........################################################################################################........        ",
"        ........################################################################################################........        ",
"        ........################################################################################################........        ",
"        ........################################################################################################........        ",
"        ........################################################################################################........        ",
"                ................................................................................................                ",
"                ................................................................................................                ",
"                ................................................................................................                ",
"                ................................................................................................                ",
"                ................................................................................................                ",
"                ................................................................................................                ",
"                ................................................................................................                ",
"                ................................................................................................                ",
"                                                                                                                                ",
"                                                                                                                                ",
"                                                                                                                                ",
"                                                                                                                                ",
"                                                                                                                                ",
"                                                                                                                                ",
"                                                                                                                                ",
"                                                                                                                                "
};
