/* XPM */
static char *grass1704735442[] = {
/* columns rows colors chars-per-pixel */
"128 128 2 1 ",
"  c #B0CA69",
". c #C0D470",
/* pixels */
"................................................................................................................................",
"................................................................................................................................",
"................................................................................................................................",
"................................................................................................................................",
"................................................................................................................................",
"................................................................................................................................",
"................................................................................................................................",
"................................................................................................................................",
"................................................................................................................................",
"................................................................................................................................",
"................................................................................................................................",
"................................................................................................................................",
"................................................................................................................................",
"................................................................................................................................",
"................................................................................................................................",
"................................................................................................................................",
"................................................................................................................................",
"................................................................................................................................",
"................................................................................................................................",
"................................................................................................................................",
"................................................................................................................................",
"................................................................................................................................",
"................................................................................................................................",
"................................................................................................................................",
"................................................................................................................................",
"................................................................................................................................",
"................................................................................................................................",
"................................................................................................................................",
"................................................................................................................................",
"................................................................................................................................",
"................................................................................................................................",
"................................................................................................................................",
"........................................................................................        ................................",
"........................................................................................        ................................",
"........................................................................................        ................................",
"........................................................................................        ................................",
"........................................................................................        ................................",
"........................................................................................        ................................",
"........................................................................................        ................................",
"........................................................................................        ................................",
"................................................................................        ........................................",
"................................................................................        ........................................",
"................................................................................        ........................................",
"................................................................................        ........................................",
"................................................................................        ........................................",
"................................................................................        ........................................",
"................................................................................        ........................................",
"................................................................................        ........................................",
"................................................................................        ........................................",
"................................................................................        ........................................",
"................................................................................        ........................................",
"................................................................................        ........................................",
"................................................................................        ........................................",
"................................................................................        ........................................",
"................................................................................        ........................................",
"................................................................................        ........................................",
"................................................................................................................................",
"................................................................................................................................",
"................................................................................................................................",
"................................................................................................................................",
"................................................................................................................................",
"................................................................................................................................",
"................................................................................................................................",
"................................................................................................................................",
"................................        ........................................................................................",
"................................        ........................................................................................",
"................................        ........................................................................................",
"................................        ........................................................................................",
"................................        ........................................................................................",
"................................        ........................................................................................",
"................................        ........................................................................................",
"................................        ........................................................................................",
"........................................        ................................        ........................................",
"........................................        ................................        ........................................",
"........................................        ................................        ........................................",
"........................................        ................................        ........................................",
"........................................        ................................        ........................................",
"........................................        ................................        ........................................",
"........................................        ................................        ........................................",
"........................................        ................................        ........................................",
"........................................        ........................        ................................................",
"........................................        ........................        ................................................",
"........................................        ........................        ................................................",
"........................................        ........................        ................................................",
"........................................        ........................        ................................................",
"........................................        ........................        ................................................",
"........................................        ........................        ................................................",
"........................................        ........................        ................................................",
"........................................................................        ................................................",
"........................................................................        ................................................",
"........................................................................        ................................................",
"........................................................................        ................................................",
"........................................................................        ................................................",
"........................................................................        ................................................",
"........................................................................        ................................................",
"........................................................................        ................................................",
"................................................................................................................................",
"................................................................................................................................",
"................................................................................................................................",
"................................................................................................................................",
"................................................................................................................................",
"................................................................................................................................",
"................................................................................................................................",
"................................................................................................................................",
"................................................................................................................................",
"................................................................................................................................",
"................................................................................................................................",
"................................................................................................................................",
"................................................................................................................................",
"................................................................................................................................",
"................................................................................................................................",
"................................................................................................................................",
"................................................................................................................................",
"................................................................................................................................",
"................................................................................................................................",
"................................................................................................................................",
"................................................................................................................................",
"................................................................................................................................",
"................................................................................................................................",
"................................................................................................................................",
"................................................................................................................................",
"................................................................................................................................",
"................................................................................................................................",
"................................................................................................................................",
"................................................................................................................................",
"................................................................................................................................",
"................................................................................................................................",
"................................................................................................................................"
};
